<svg xmlns="http://www.w3.org/2000/svg" xmlns:xlink="http://www.w3.org/1999/xlink" width="108" height="108" viewBox="0 0 108 108">
  <defs>
    <filter id="Trazado_982547" x="0" y="0" width="108" height="108" filterUnits="userSpaceOnUse">
      <feOffset dy="3" input="SourceAlpha"/>
      <feGaussianBlur stdDeviation="3" result="blur"/>
      <feFlood flood-opacity="0.161"/>
      <feComposite operator="in" in2="blur"/>
      <feComposite in="SourceGraphic"/>
    </filter>
  </defs>
  <g id="Grupo_1204530" data-name="Grupo 1204530" transform="translate(-825.5 -5228)">
    <g id="Grupo_1204435" data-name="Grupo 1204435" transform="translate(630.131 1823)">
      <g id="Grupo_1202751" data-name="Grupo 1202751" transform="translate(-0.631 -775)">
        <g id="Grupo_1202558" data-name="Grupo 1202558" transform="translate(-125.796 1937.702)">
          <g id="Grupo_1202232" data-name="Grupo 1202232" transform="translate(330.796 2248.298)">
            <g id="Grupo_1201680" data-name="Grupo 1201680">
              <g id="Grupo_1201330" data-name="Grupo 1201330">
                <g id="Grupo_1172010" data-name="Grupo 1172010">
                  <g id="Grupo_1171046" data-name="Grupo 1171046">
                    <g id="Grupo_1148525" data-name="Grupo 1148525">
                      <g transform="matrix(1, 0, 0, 1, -9, -6)" filter="url(#Trazado_982547)">
                        <g id="Trazado_982547-2" data-name="Trazado 982547" transform="translate(9 6)" fill="#e5ebfb">
                          <path d="M 45.00000381469727 88.5 C 39.12688064575195 88.5 33.43022918701172 87.35008239746094 28.06830406188965 85.08217620849609 C 22.88852882385254 82.89131927490234 18.23630332946777 79.75459289550781 14.24085426330566 75.7591552734375 C 10.24541664123535 71.76370239257812 7.108691215515137 67.11148071289062 4.917829036712646 61.93170547485352 C 2.64992880821228 56.56977844238281 1.500003814697266 50.87312698364258 1.500003814697266 45.00000381469727 C 1.500003814697266 39.12688064575195 2.64992880821228 33.43022918701172 4.917829036712646 28.06830406188965 C 7.108691215515137 22.88852882385254 10.24541664123535 18.23630332946777 14.24085426330566 14.24085426330566 C 18.23630332946777 10.24541664123535 22.88852882385254 7.108691215515137 28.06830406188965 4.917829036712646 C 33.43022918701172 2.64992880821228 39.12688064575195 1.500003814697266 45.00000381469727 1.500003814697266 C 50.87312698364258 1.500003814697266 56.56977844238281 2.64992880821228 61.93170547485352 4.917829036712646 C 67.11148071289062 7.108691215515137 71.76370239257812 10.24541664123535 75.7591552734375 14.24085426330566 C 79.75459289550781 18.23630332946777 82.89131927490234 22.88852882385254 85.08217620849609 28.06830406188965 C 87.35008239746094 33.43022918701172 88.5 39.12688064575195 88.5 45.00000381469727 C 88.5 50.87312698364258 87.35008239746094 56.56977844238281 85.08217620849609 61.93170547485352 C 82.89131927490234 67.11148071289062 79.75459289550781 71.76370239257812 75.7591552734375 75.7591552734375 C 71.76370239257812 79.75459289550781 67.11148071289062 82.89131927490234 61.93170547485352 85.08217620849609 C 56.56977844238281 87.35008239746094 50.87312698364258 88.5 45.00000381469727 88.5 Z" stroke="none"/>
                          <path d="M 45.00000381469727 3.000007629394531 C 39.32871627807617 3.000007629394531 33.82865905761719 4.110061645507812 28.65263366699219 6.299346923828125 C 23.65166473388672 8.414573669433594 19.15969085693359 11.44334411621094 15.30152130126953 15.30152130126953 C 11.44334411621094 19.15969085693359 8.414573669433594 23.65166473388672 6.299346923828125 28.65263366699219 C 4.110061645507812 33.82865905761719 3.000007629394531 39.32871627807617 3.000007629394531 45.00000381469727 C 3.000007629394531 50.67129135131836 4.110061645507812 56.17134857177734 6.299346923828125 61.34737396240234 C 8.414573669433594 66.34834289550781 11.44334411621094 70.84031677246094 15.30152130126953 74.698486328125 C 19.15969085693359 78.55666351318359 23.65166473388672 81.58543395996094 28.65263366699219 83.70066070556641 C 33.82865905761719 85.88994598388672 39.32871627807617 87 45.00000381469727 87 C 50.67129135131836 87 56.17134857177734 85.88994598388672 61.34737396240234 83.70066070556641 C 66.34834289550781 81.58543395996094 70.84031677246094 78.55666351318359 74.698486328125 74.698486328125 C 78.55666351318359 70.84031677246094 81.58543395996094 66.34834289550781 83.70066070556641 61.34737396240234 C 85.88994598388672 56.17134857177734 87 50.67129135131836 87 45.00000381469727 C 87 39.32871627807617 85.88994598388672 33.82865905761719 83.70066070556641 28.65263366699219 C 81.58543395996094 23.65166473388672 78.55666351318359 19.15969085693359 74.698486328125 15.30152130126953 C 70.84031677246094 11.44334411621094 66.34834289550781 8.414573669433594 61.34737396240234 6.299346923828125 C 56.17134857177734 4.110061645507812 50.67129135131836 3.000007629394531 45.00000381469727 3.000007629394531 M 45.00000381469727 7.62939453125e-06 C 69.85281372070312 7.62939453125e-06 90 20.14718627929688 90 45.00000381469727 C 90 69.85281372070312 69.85281372070312 90 45.00000381469727 90 C 20.14718627929688 90 7.62939453125e-06 69.85281372070312 7.62939453125e-06 45.00000381469727 C 7.62939453125e-06 20.14718627929688 20.14718627929688 7.62939453125e-06 45.00000381469727 7.62939453125e-06 Z" stroke="none" fill="#5c2c88"/>
                        </g>
                      </g>
                    </g>
                  </g>
                </g>
              </g>
            </g>
          </g>
        </g>
      </g>
    </g>
    <g id="compiler_5958788" transform="translate(836.964 5236.464)">
      <rect id="Rect치ngulo_418165" data-name="Rect치ngulo 418165" width="35.639" height="32.162" rx="16" transform="translate(16.459 16.459)" fill="#e9eef2"/>
      <path id="Trazado_1049205" data-name="Trazado 1049205" d="M59.382,88v23a1.769,1.769,0,0,1-1.769,1.769H25.769A1.769,1.769,0,0,1,24,111V88Z" transform="translate(-7.115 -64.039)" fill="#7e8589"/>
      <path id="Trazado_1049206" data-name="Trazado 1049206" d="M29.307,88v24.767H25.769A1.769,1.769,0,0,1,24,111V88Z" transform="translate(-7.115 -64.039)" fill="#6a7073"/>
      <rect id="Rect치ngulo_418166" data-name="Rect치ngulo 418166" width="35.639" height="32.162" rx="16" transform="translate(32.975 36.452)" fill="#dadcde"/>
      <path id="Trazado_1049207" data-name="Trazado 1049207" d="M203.382,201.769v5.307H168v-5.307A1.769,1.769,0,0,1,169.769,200h31.844A1.769,1.769,0,0,1,203.382,201.769Z" transform="translate(-135.194 -163.655)" fill="#e9eef2"/>
      <path id="Trazado_1049208" data-name="Trazado 1049208" d="M93.229,318.192,86.153,312v3.538H72v5.307H86.153v3.538Z" transform="translate(-49.808 -263.272)" fill="#eb423f"/>
      <circle id="Elipse_12929" data-name="Elipse 12929" cx="0.869" cy="0.869" r="0.869" transform="translate(19.936 19.936)"/>
      <circle id="Elipse_12930" data-name="Elipse 12930" cx="0.869" cy="0.869" r="0.869" transform="translate(23.413 19.936)"/>
      <circle id="Elipse_12931" data-name="Elipse 12931" cx="0.869" cy="0.869" r="0.869" transform="translate(26.89 19.936)"/>
      <circle id="Elipse_12932" data-name="Elipse 12932" cx="0.869" cy="0.869" r="0.869" transform="translate(25.151 28.628)"/>
      <circle id="Elipse_12933" data-name="Elipse 12933" cx="0.869" cy="0.869" r="0.869" transform="translate(25.151 32.105)"/>
      <circle id="Elipse_12934" data-name="Elipse 12934" cx="0.869" cy="0.869" r="0.869" transform="translate(25.151 35.582)"/>
      <circle id="Elipse_12935" data-name="Elipse 12935" cx="0.869" cy="0.869" r="0.869" transform="translate(25.151 39.059)"/>
      <circle id="Elipse_12936" data-name="Elipse 12936" cx="0.869" cy="0.869" r="0.869" transform="translate(25.151 42.536)"/>
      <path id="Trazado_1049209" data-name="Trazado 1049209" d="M128.885,129.769h1.769a.885.885,0,0,0,0-1.769h-1.769a.885.885,0,0,0,0,1.769Z" transform="translate(-99.616 -99.616)"/>
      <path id="Trazado_1049210" data-name="Trazado 1049210" d="M128.885,161.769h8.845a.885.885,0,0,0,0-1.769h-8.845a.885.885,0,1,0,0,1.769Z" transform="translate(-99.616 -128.078)"/>
      <path id="Trazado_1049211" data-name="Trazado 1049211" d="M247.961,160h-7.076a.885.885,0,1,0,0,1.769h7.076a.885.885,0,1,0,0-1.769Z" transform="translate(-199.233 -128.078)"/>
      <path id="Trazado_1049212" data-name="Trazado 1049212" d="M176.885,129.769h14.153a.885.885,0,0,0,0-1.769H176.885a.885.885,0,0,0,0,1.769Z" transform="translate(-142.309 -99.616)"/>
      <path id="Trazado_1049213" data-name="Trazado 1049213" d="M18.654,49.613H31.922v1.769h-9.73a.885.885,0,0,0-.885.885v5.307a.885.885,0,0,0,.885.885h9.73v7.961a2.657,2.657,0,0,0,2.654,2.654H66.419a2.657,2.657,0,0,0,2.654-2.654V38.114a2.657,2.657,0,0,0-2.654-2.654H53.151V18.654A2.657,2.657,0,0,0,50.5,16H18.654A2.657,2.657,0,0,0,16,18.654V46.959A2.657,2.657,0,0,0,18.654,49.613Zm4.423-1.769v-23H51.382V35.46H29.268a.885.885,0,0,0,0,1.769h2.806a2.641,2.641,0,0,0-.152.885V39H29.268a.885.885,0,0,0,0,1.769h2.654v1.769H29.268a.885.885,0,0,0,0,1.769h2.654v3.538Zm0,8.845V53.151H36.345a.885.885,0,0,0,.885-.885V50.678l4.849,4.243-4.849,4.243V57.574a.885.885,0,0,0-.885-.885Zm14.221-8.3a.885.885,0,1,1,1.262,1.1ZM67.3,66.419a.886.886,0,0,1-.885.885H34.576a.886.886,0,0,1-.885-.885V58.458H35.46V64.65a.885.885,0,0,0,1.769,0V61.513L42.7,56.725a2.656,2.656,0,1,0,.768-2.938l-3.557-3.112a2.652,2.652,0,1,0-4.453-1.947v2.654H33.691V44.306H67.3Zm-23-10.615a.885.885,0,1,1,.885.885.885.885,0,0,1-.885-.885ZM66.419,37.229a.886.886,0,0,1,.885.885v4.423H33.691V38.114a.886.886,0,0,1,.885-.885ZM17.769,18.654a.886.886,0,0,1,.885-.885H50.5a.886.886,0,0,1,.885.885v4.423H17.769Zm0,6.192h3.538v23H18.654a.886.886,0,0,1-.885-.885Z"/>
      <circle id="Elipse_12937" data-name="Elipse 12937" cx="0.869" cy="0.869" r="0.869" transform="translate(35.582 39.059)"/>
      <circle id="Elipse_12938" data-name="Elipse 12938" cx="0.869" cy="0.869" r="0.869" transform="translate(39.059 39.059)"/>
      <circle id="Elipse_12939" data-name="Elipse 12939" cx="0.869" cy="0.869" r="0.869" transform="translate(42.536 39.059)"/>
      <path id="Trazado_1049214" data-name="Trazado 1049214" d="M322.654,293.307A2.654,2.654,0,1,0,320,290.654,2.654,2.654,0,0,0,322.654,293.307Zm0-3.538a.885.885,0,1,1-.885.885A.885.885,0,0,1,322.654,289.769Z" transform="translate(-270.387 -241.925)"/>
      <path id="Trazado_1049215" data-name="Trazado 1049215" d="M256.885,293.307a.885.885,0,0,0,.885-.885v-3.538a.885.885,0,1,0-1.769,0v3.538A.885.885,0,0,0,256.885,293.307Z" transform="translate(-213.464 -241.925)"/>
      <path id="Trazado_1049216" data-name="Trazado 1049216" d="M288.885,293.307a.885.885,0,0,0,.885-.885v-3.538a.885.885,0,0,0-1.769,0v3.538A.885.885,0,0,0,288.885,293.307Z" transform="translate(-241.925 -241.925)"/>
      <path id="Trazado_1049217" data-name="Trazado 1049217" d="M320.885,357.307a.885.885,0,0,0,.885-.885v-3.538a.885.885,0,0,0-1.769,0v3.538A.885.885,0,0,0,320.885,357.307Z" transform="translate(-270.387 -298.849)"/>
      <path id="Trazado_1049218" data-name="Trazado 1049218" d="M352.885,352a.885.885,0,0,0-.885.885v3.538a.885.885,0,1,0,1.769,0v-3.538A.885.885,0,0,0,352.885,352Z" transform="translate(-298.849 -298.849)"/>
      <path id="Trazado_1049219" data-name="Trazado 1049219" d="M386.654,293.307A2.654,2.654,0,1,0,384,290.654,2.654,2.654,0,0,0,386.654,293.307Zm0-3.538a.885.885,0,1,1-.885.885A.885.885,0,0,1,386.654,289.769Z" transform="translate(-327.311 -241.925)"/>
      <path id="Trazado_1049220" data-name="Trazado 1049220" d="M416,354.654A2.654,2.654,0,1,0,418.654,352,2.654,2.654,0,0,0,416,354.654Zm2.654-.885a.885.885,0,1,1-.885.885A.885.885,0,0,1,418.654,353.769Z" transform="translate(-355.773 -298.849)"/>
      <path id="Trazado_1049221" data-name="Trazado 1049221" d="M384.885,357.307a.885.885,0,0,0,.885-.885v-3.538a.885.885,0,1,0-1.769,0v3.538A.885.885,0,0,0,384.885,357.307Z" transform="translate(-327.311 -298.849)"/>
      <path id="Trazado_1049222" data-name="Trazado 1049222" d="M448.885,293.307a.885.885,0,0,0,.885-.885v-3.538a.885.885,0,0,0-1.769,0v3.538A.885.885,0,0,0,448.885,293.307Z" transform="translate(-384.234 -241.925)"/>
      <path id="Trazado_1049223" data-name="Trazado 1049223" d="M448.885,416a.885.885,0,0,0-.885.885v3.538a.885.885,0,1,0,1.769,0v-3.538A.885.885,0,0,0,448.885,416Z" transform="translate(-384.234 -355.773)"/>
      <path id="Trazado_1049224" data-name="Trazado 1049224" d="M258.654,416a2.654,2.654,0,1,0,2.654,2.654A2.654,2.654,0,0,0,258.654,416Zm0,3.538a.885.885,0,1,1,.885-.885A.885.885,0,0,1,258.654,419.538Z" transform="translate(-213.464 -355.773)"/>
      <path id="Trazado_1049225" data-name="Trazado 1049225" d="M386.654,421.307A2.654,2.654,0,1,0,384,418.654,2.654,2.654,0,0,0,386.654,421.307Zm0-3.538a.885.885,0,1,1-.885.885A.885.885,0,0,1,386.654,417.769Z" transform="translate(-327.311 -355.773)"/>
      <path id="Trazado_1049226" data-name="Trazado 1049226" d="M320.885,421.307a.885.885,0,0,0,.885-.885v-3.538a.885.885,0,0,0-1.769,0v3.538A.885.885,0,0,0,320.885,421.307Z" transform="translate(-270.387 -355.773)"/>
      <path id="Trazado_1049227" data-name="Trazado 1049227" d="M352.885,416a.885.885,0,0,0-.885.885v3.538a.885.885,0,1,0,1.769,0v-3.538A.885.885,0,0,0,352.885,416Z" transform="translate(-298.849 -355.773)"/>
      <path id="Trazado_1049228" data-name="Trazado 1049228" d="M224.885,416a.885.885,0,0,0-.885.885v3.538a.885.885,0,1,0,1.769,0v-3.538A.885.885,0,0,0,224.885,416Z" transform="translate(-185.002 -355.773)"/>
    </g>
  </g>
</svg>
