<svg xmlns="http://www.w3.org/2000/svg" xmlns:xlink="http://www.w3.org/1999/xlink" width="118" height="118" viewBox="0 0 118 118">
  <defs>
    <filter id="Trazado_982547" x="0" y="0" width="118" height="118" filterUnits="userSpaceOnUse">
      <feOffset dy="3" input="SourceAlpha"/>
      <feGaussianBlur stdDeviation="3" result="blur"/>
      <feFlood flood-opacity="0.161"/>
      <feComposite operator="in" in2="blur"/>
      <feComposite in="SourceGraphic"/>
    </filter>
  </defs>
  <g id="Grupo_1204556" data-name="Grupo 1204556" transform="translate(-269 -8193.262)">
    <g id="Grupo_1204436" data-name="Grupo 1204436" transform="translate(-472 6937.262)">
      <g id="Grupo_1179137" data-name="Grupo 1179137" transform="translate(-2.25 571)">
        <g id="Grupo_1177987" data-name="Grupo 1177987" transform="translate(752.25 691)">
          <g id="Grupo_1177681" data-name="Grupo 1177681">
            <g id="Grupo_1172010" data-name="Grupo 1172010">
              <g id="Grupo_1171046" data-name="Grupo 1171046">
                <g id="Grupo_1148525" data-name="Grupo 1148525">
                  <g transform="matrix(1, 0, 0, 1, -9, -6)" filter="url(#Trazado_982547)">
                    <g id="Trazado_982547-2" data-name="Trazado 982547" transform="translate(9 6)" fill="#fdf4ce">
                      <path d="M 50 98.5 C 43.45188522338867 98.5 37.10042953491211 97.21787261962891 31.12207221984863 94.68923950195312 C 25.34690093994141 92.24655914306641 20.15995788574219 88.74931335449219 15.70531463623047 84.29468536376953 C 11.2506856918335 79.84004211425781 7.753442764282227 74.65309906005859 5.310757160186768 68.8779296875 C 2.782128572463989 62.89957046508789 1.5 56.54811477661133 1.5 50 C 1.5 43.45188522338867 2.782128572463989 37.10042953491211 5.310757160186768 31.12207221984863 C 7.753442764282227 25.34691429138184 11.2506856918335 20.15997123718262 15.70531463623047 15.70532894134521 C 20.15995788574219 11.2506856918335 25.34690093994141 7.753442764282227 31.12207221984863 5.310757160186768 C 37.10042953491211 2.782128572463989 43.45188522338867 1.5 50 1.5 C 56.54811477661133 1.5 62.89957046508789 2.782128572463989 68.8779296875 5.310757160186768 C 74.65309906005859 7.753442764282227 79.84004211425781 11.2506856918335 84.29468536376953 15.70532894134521 C 88.74931335449219 20.15997123718262 92.24655914306641 25.34691429138184 94.68923950195312 31.12207221984863 C 97.21787261962891 37.10042953491211 98.5 43.45188522338867 98.5 50 C 98.5 56.54811477661133 97.21787261962891 62.89957046508789 94.68923950195312 68.8779296875 C 92.24655914306641 74.65309906005859 88.74931335449219 79.84004211425781 84.29468536376953 84.29468536376953 C 79.84004211425781 88.74931335449219 74.65309906005859 92.24655914306641 68.8779296875 94.68923950195312 C 62.89957046508789 97.21787261962891 56.54811477661133 98.5 50 98.5 Z" stroke="none"/>
                      <path d="M 50 3 C 43.65372467041016 3 37.49886322021484 4.242263793945312 31.70639801025391 6.6922607421875 C 26.11003112792969 9.059326171875 21.08333587646484 12.44861602783203 16.76598358154297 16.76598358154297 C 12.44861602783203 21.08335113525391 9.059326171875 26.11003112792969 6.6922607421875 31.70639801025391 C 4.242263793945312 37.49886322021484 3 43.65372467041016 3 50 C 3 56.34627532958984 4.242263793945312 62.50113677978516 6.6922607421875 68.29360198974609 C 9.059326171875 73.88996887207031 12.44861602783203 78.91666412353516 16.76598358154297 83.23401641845703 C 21.08333587646484 87.55138397216797 26.11003112792969 90.940673828125 31.70639801025391 93.3077392578125 C 37.49886322021484 95.75773620605469 43.65372467041016 97 50 97 C 56.34627532958984 97 62.50113677978516 95.75773620605469 68.29360198974609 93.3077392578125 C 73.88996887207031 90.940673828125 78.91664886474609 87.55138397216797 83.23401641845703 83.23401641845703 C 87.55138397216797 78.91666412353516 90.940673828125 73.88996887207031 93.3077392578125 68.29360198974609 C 95.75773620605469 62.50113677978516 97 56.34627532958984 97 50 C 97 43.65372467041016 95.75773620605469 37.49886322021484 93.3077392578125 31.70639801025391 C 90.940673828125 26.11003112792969 87.55138397216797 21.08335113525391 83.23401641845703 16.76598358154297 C 78.91664886474609 12.44861602783203 73.88996887207031 9.059326171875 68.29360198974609 6.6922607421875 C 62.50113677978516 4.242263793945312 56.34627532958984 3 50 3 M 50 0 C 77.61422729492188 0 100 22.38577270507812 100 50 C 100 77.61424255371094 77.61422729492188 100 50 100 C 22.38575744628906 100 0 77.61424255371094 0 50 C 0 22.38577270507812 22.38575744628906 0 50 0 Z" stroke="none" fill="#866d08"/>
                    </g>
                  </g>
                </g>
              </g>
            </g>
          </g>
        </g>
      </g>
    </g>
    <g id="file_7109701" transform="translate(258.62 8209.643)">
      <g id="Grupo_1204531" data-name="Grupo 1204531" transform="translate(41.104 7.5)">
        <path id="Trazado_1049229" data-name="Trazado 1049229" d="M65.385,7.5H43.61A2.506,2.506,0,0,0,41.1,10.006V47.427a2.506,2.506,0,0,0,2.506,2.506H72.285a2.506,2.506,0,0,0,2.506-2.506V16.907a2.523,2.523,0,0,0-.739-1.784L67.169,8.239A2.523,2.523,0,0,0,65.385,7.5Z" transform="translate(-41.104 -7.5)" fill="#c4e2ff"/>
        <path id="Trazado_1049230" data-name="Trazado 1049230" d="M74.053,40.354l-3.878-3.878a2.523,2.523,0,0,1,.739,1.784V68.78a2.506,2.506,0,0,1-2.506,2.506H41.1v1.371a2.506,2.506,0,0,0,2.506,2.506H72.285a2.506,2.506,0,0,0,2.506-2.506V42.138A2.523,2.523,0,0,0,74.053,40.354Z" transform="translate(-41.104 -32.731)" fill="#b3dafe"/>
        <path id="Trazado_1049231" data-name="Trazado 1049231" d="M244.668,16.67l-6.884-6.884a2.519,2.519,0,0,0-.739-.509V16.2a1.209,1.209,0,0,0,1.209,1.209h6.924A2.519,2.519,0,0,0,244.668,16.67Z" transform="translate(-211.719 -9.047)" fill="#8795de"/>
        <path id="Trazado_1049232" data-name="Trazado 1049232" d="M105.9,219.018H85.22a.923.923,0,0,1-.923-.923v-3.708a.923.923,0,0,1,.923-.923H105.9a.923.923,0,0,1,.923.923v3.708A.923.923,0,0,1,105.9,219.018Z" transform="translate(-78.714 -186.843)" fill="#fe93d3"/>
        <path id="Trazado_1049233" data-name="Trazado 1049233" d="M234.542,176.2H212.767a2.506,2.506,0,0,0-2.506,2.506v37.421a2.506,2.506,0,0,0,2.506,2.506h28.675a2.506,2.506,0,0,0,2.506-2.506v-30.52a2.523,2.523,0,0,0-.739-1.784l-6.884-6.884A2.524,2.524,0,0,0,234.542,176.2Z" transform="translate(-188.397 -154.395)" fill="#f3eae6"/>
        <path id="Trazado_1049234" data-name="Trazado 1049234" d="M243.21,209.054l-3.878-3.878a2.523,2.523,0,0,1,.739,1.784v30.52a2.506,2.506,0,0,1-2.506,2.506h-27.3v1.371a2.506,2.506,0,0,0,2.506,2.506h28.675a2.506,2.506,0,0,0,2.506-2.506v-30.52A2.523,2.523,0,0,0,243.21,209.054Z" transform="translate(-188.397 -179.626)" fill="#ebe2de"/>
        <path id="Trazado_1049235" data-name="Trazado 1049235" d="M413.825,185.369l-6.884-6.884a2.52,2.52,0,0,0-.739-.509V184.9a1.209,1.209,0,0,0,1.209,1.209h6.924A2.523,2.523,0,0,0,413.825,185.369Z" transform="translate(-359.012 -155.942)" fill="#a79ba7"/>
      </g>
      <g id="Grupo_1204532" data-name="Grupo 1204532" transform="translate(41.104 7.5)">
        <path id="Trazado_1049236" data-name="Trazado 1049236" d="M41.1,164.562v19.627a2.506,2.506,0,0,0,2.506,2.506H62.968" transform="translate(-41.104 -144.261)" fill="none" stroke="#000" stroke-linecap="round" stroke-linejoin="round" stroke-miterlimit="10" stroke-width="1.5"/>
        <path id="Trazado_1049237" data-name="Trazado 1049237" d="M74.792,28.717V16.907a2.523,2.523,0,0,0-.739-1.784L67.169,8.239A2.523,2.523,0,0,0,65.385,7.5H43.61A2.506,2.506,0,0,0,41.1,10.006V23.277" transform="translate(-41.104 -7.5)" fill="none" stroke="#000" stroke-linecap="round" stroke-linejoin="round" stroke-miterlimit="10" stroke-width="1.5"/>
        <path id="Trazado_1049238" data-name="Trazado 1049238" d="M244.668,16.67l-6.884-6.884a2.519,2.519,0,0,0-.739-.509V16.2a1.209,1.209,0,0,0,1.209,1.209h6.924A2.519,2.519,0,0,0,244.668,16.67Z" transform="translate(-211.719 -9.047)" fill="none" stroke="#000" stroke-linecap="round" stroke-linejoin="round" stroke-miterlimit="10" stroke-width="1.5"/>
        <line id="Línea_1304" data-name="Línea 1304" x2="3.544" transform="translate(5.583 7.119)" fill="none" stroke="#000" stroke-linecap="round" stroke-linejoin="round" stroke-miterlimit="10" stroke-width="1.5"/>
        <line id="Línea_1305" data-name="Línea 1305" x2="7.074" transform="translate(12.606 7.119)" fill="none" stroke="#000" stroke-linecap="round" stroke-linejoin="round" stroke-miterlimit="10" stroke-width="1.5"/>
        <line id="Línea_1306" data-name="Línea 1306" x1="3.544" transform="translate(16.136 10.947)" fill="none" stroke="#000" stroke-linecap="round" stroke-linejoin="round" stroke-miterlimit="10" stroke-width="1.5"/>
        <line id="Línea_1307" data-name="Línea 1307" x1="7.074" transform="translate(5.583 10.947)" fill="none" stroke="#000" stroke-linecap="round" stroke-linejoin="round" stroke-miterlimit="10" stroke-width="1.5"/>
        <line id="Línea_1308" data-name="Línea 1308" x1="22.522" transform="translate(5.583 17.576)" fill="none" stroke="#000" stroke-linecap="round" stroke-linejoin="round" stroke-miterlimit="10" stroke-width="1.5"/>
        <line id="Línea_1309" data-name="Línea 1309" x1="2.976" transform="translate(18.43 36.991)" fill="none" stroke="#000" stroke-linecap="round" stroke-linejoin="round" stroke-miterlimit="10" stroke-width="1.5"/>
        <line id="Línea_1310" data-name="Línea 1310" x1="22.522" transform="translate(5.583 21.805)" fill="none" stroke="#000" stroke-linecap="round" stroke-linejoin="round" stroke-miterlimit="10" stroke-width="1.5"/>
        <path id="Trazado_1049239" data-name="Trazado 1049239" d="M100.578,219.018H85.22a.923.923,0,0,1-.923-.923v-3.708a.923.923,0,0,1,.923-.923h15.359" transform="translate(-78.714 -186.843)" fill="none" stroke="#000" stroke-linecap="round" stroke-linejoin="round" stroke-miterlimit="10" stroke-width="1.5"/>
        <path id="Trazado_1049240" data-name="Trazado 1049240" d="M243.949,194.579v-8.973a2.523,2.523,0,0,0-.739-1.784l-6.884-6.884a2.523,2.523,0,0,0-1.784-.739H212.767a2.506,2.506,0,0,0-2.506,2.506v37.421a2.506,2.506,0,0,0,2.506,2.506h28.675a2.506,2.506,0,0,0,2.506-2.506V198.973" transform="translate(-188.397 -154.394)" fill="none" stroke="#000" stroke-linecap="round" stroke-linejoin="round" stroke-miterlimit="10" stroke-width="1.5"/>
        <path id="Trazado_1049241" data-name="Trazado 1049241" d="M413.825,185.369l-6.884-6.884a2.52,2.52,0,0,0-.739-.509V184.9a1.209,1.209,0,0,0,1.209,1.209h6.924A2.523,2.523,0,0,0,413.825,185.369Z" transform="translate(-359.012 -155.942)" fill="none" stroke="#000" stroke-linecap="round" stroke-linejoin="round" stroke-miterlimit="10" stroke-width="1.5"/>
        <path id="Trazado_1049242" data-name="Trazado 1049242" d="M246.565,426.7H247.8v4.374" transform="translate(-220.009 -372.517)" fill="none" stroke="#000" stroke-linecap="round" stroke-linejoin="round" stroke-miterlimit="10" stroke-width="1.5"/>
        <path id="Trazado_1049243" data-name="Trazado 1049243" d="M286.349,428.719a1.676,1.676,0,0,1-3.352,0V427.46a1.676,1.676,0,0,1,3.352,0Z" transform="translate(-251.732 -371.72)" fill="none" stroke="#000" stroke-linecap="round" stroke-linejoin="round" stroke-miterlimit="10" stroke-width="1.5"/>
        <path id="Trazado_1049244" data-name="Trazado 1049244" d="M332.444,426.7h1.239v4.374" transform="translate(-294.788 -372.517)" fill="none" stroke="#000" stroke-linecap="round" stroke-linejoin="round" stroke-miterlimit="10" stroke-width="1.5"/>
        <path id="Trazado_1049245" data-name="Trazado 1049245" d="M372.228,428.719a1.676,1.676,0,0,1-3.352,0V427.46a1.676,1.676,0,0,1,3.352,0Z" transform="translate(-326.511 -371.72)" fill="none" stroke="#000" stroke-linecap="round" stroke-linejoin="round" stroke-miterlimit="10" stroke-width="1.5"/>
        <path id="Trazado_1049246" data-name="Trazado 1049246" d="M421.478,426.7h1.239v4.374" transform="translate(-372.314 -372.517)" fill="none" stroke="#000" stroke-linecap="round" stroke-linejoin="round" stroke-miterlimit="10" stroke-width="1.5"/>
        <path id="Trazado_1049247" data-name="Trazado 1049247" d="M246.565,357.13H247.8V361.5" transform="translate(-220.009 -311.94)" fill="none" stroke="#000" stroke-linecap="round" stroke-linejoin="round" stroke-miterlimit="10" stroke-width="1.5"/>
        <path id="Trazado_1049248" data-name="Trazado 1049248" d="M286.349,359.151a1.676,1.676,0,0,1-3.352,0v-1.259a1.676,1.676,0,0,1,3.352,0Z" transform="translate(-251.732 -311.144)" fill="none" stroke="#000" stroke-linecap="round" stroke-linejoin="round" stroke-miterlimit="10" stroke-width="1.5"/>
        <path id="Trazado_1049249" data-name="Trazado 1049249" d="M332.444,357.13h1.239V361.5" transform="translate(-294.788 -311.94)" fill="none" stroke="#000" stroke-linecap="round" stroke-linejoin="round" stroke-miterlimit="10" stroke-width="1.5"/>
        <path id="Trazado_1049250" data-name="Trazado 1049250" d="M372.228,359.151a1.676,1.676,0,1,1-3.352,0v-1.259a1.676,1.676,0,0,1,3.352,0Z" transform="translate(-326.511 -311.144)" fill="none" stroke="#000" stroke-linecap="round" stroke-linejoin="round" stroke-miterlimit="10" stroke-width="1.5"/>
        <path id="Trazado_1049251" data-name="Trazado 1049251" d="M421.478,357.13h1.239V361.5" transform="translate(-372.314 -311.94)" fill="none" stroke="#000" stroke-linecap="round" stroke-linejoin="round" stroke-miterlimit="10" stroke-width="1.5"/>
        <path id="Trazado_1049252" data-name="Trazado 1049252" d="M246.565,287.561H247.8v4.374" transform="translate(-220.009 -251.363)" fill="none" stroke="#000" stroke-linecap="round" stroke-linejoin="round" stroke-miterlimit="10" stroke-width="1.5"/>
        <path id="Trazado_1049253" data-name="Trazado 1049253" d="M322.829,289.582a1.676,1.676,0,1,1-3.352,0v-1.259a1.676,1.676,0,0,1,3.352,0Z" transform="translate(-283.497 -250.567)" fill="none" stroke="#000" stroke-linecap="round" stroke-linejoin="round" stroke-miterlimit="10" stroke-width="1.5"/>
        <path id="Trazado_1049254" data-name="Trazado 1049254" d="M282,287.561h1.239v4.374" transform="translate(-250.86 -251.363)" fill="none" stroke="#000" stroke-linecap="round" stroke-linejoin="round" stroke-miterlimit="10" stroke-width="1.5"/>
        <path id="Trazado_1049255" data-name="Trazado 1049255" d="M372.228,289.582a1.676,1.676,0,1,1-3.352,0v-1.259a1.676,1.676,0,0,1,3.352,0Z" transform="translate(-326.511 -250.567)" fill="none" stroke="#000" stroke-linecap="round" stroke-linejoin="round" stroke-miterlimit="10" stroke-width="1.5"/>
        <path id="Trazado_1049256" data-name="Trazado 1049256" d="M421.478,287.561h1.239v4.374" transform="translate(-372.314 -251.363)" fill="none" stroke="#000" stroke-linecap="round" stroke-linejoin="round" stroke-miterlimit="10" stroke-width="1.5"/>
        <path id="Trazado_1049257" data-name="Trazado 1049257" d="M246.565,217.992H247.8v4.374" transform="translate(-220.009 -190.785)" fill="none" stroke="#000" stroke-linecap="round" stroke-linejoin="round" stroke-miterlimit="10" stroke-width="1.5"/>
        <path id="Trazado_1049258" data-name="Trazado 1049258" d="M286.349,220.013a1.676,1.676,0,0,1-3.352,0v-1.259a1.676,1.676,0,0,1,3.352,0Z" transform="translate(-251.732 -189.99)" fill="none" stroke="#000" stroke-linecap="round" stroke-linejoin="round" stroke-miterlimit="10" stroke-width="1.5"/>
        <path id="Trazado_1049259" data-name="Trazado 1049259" d="M332.444,217.992h1.239v4.374" transform="translate(-294.788 -190.785)" fill="none" stroke="#000" stroke-linecap="round" stroke-linejoin="round" stroke-miterlimit="10" stroke-width="1.5"/>
        <path id="Trazado_1049260" data-name="Trazado 1049260" d="M368.083,217.992h1.239v4.374" transform="translate(-325.82 -190.785)" fill="none" stroke="#000" stroke-linecap="round" stroke-linejoin="round" stroke-miterlimit="10" stroke-width="1.5"/>
      </g>
    </g>
  </g>
</svg>
