<svg xmlns="http://www.w3.org/2000/svg" xmlns:xlink="http://www.w3.org/1999/xlink" width="118" height="118" viewBox="0 0 118 118">
  <defs>
    <filter id="Trazado_982547" x="0" y="0" width="118" height="118" filterUnits="userSpaceOnUse">
      <feOffset dy="3" input="SourceAlpha"/>
      <feGaussianBlur stdDeviation="3" result="blur"/>
      <feFlood flood-opacity="0.161"/>
      <feComposite operator="in" in2="blur"/>
      <feComposite in="SourceGraphic"/>
    </filter>
  </defs>
  <g id="Grupo_1204557" data-name="Grupo 1204557" transform="translate(-584 -8193)">
    <g id="Grupo_1204437" data-name="Grupo 1204437" transform="translate(-157 6937)">
      <g id="Grupo_1179137" data-name="Grupo 1179137" transform="translate(-2.25 571)">
        <g id="Grupo_1177987" data-name="Grupo 1177987" transform="translate(752.25 691)">
          <g id="Grupo_1177681" data-name="Grupo 1177681">
            <g id="Grupo_1172010" data-name="Grupo 1172010">
              <g id="Grupo_1171046" data-name="Grupo 1171046">
                <g id="Grupo_1148525" data-name="Grupo 1148525">
                  <g transform="matrix(1, 0, 0, 1, -9, -6)" filter="url(#Trazado_982547)">
                    <g id="Trazado_982547-2" data-name="Trazado 982547" transform="translate(9 6)" fill="#fdf4ce">
                      <path d="M 50 98.5 C 43.45188522338867 98.5 37.10042953491211 97.21787261962891 31.12207221984863 94.68923950195312 C 25.34690093994141 92.24655914306641 20.15995788574219 88.74931335449219 15.70531463623047 84.29468536376953 C 11.2506856918335 79.84004211425781 7.753442764282227 74.65309906005859 5.310757160186768 68.8779296875 C 2.782128572463989 62.89957046508789 1.5 56.54811477661133 1.5 50 C 1.5 43.45188522338867 2.782128572463989 37.10042953491211 5.310757160186768 31.12207221984863 C 7.753442764282227 25.34691429138184 11.2506856918335 20.15997123718262 15.70531463623047 15.70532894134521 C 20.15995788574219 11.2506856918335 25.34690093994141 7.753442764282227 31.12207221984863 5.310757160186768 C 37.10042953491211 2.782128572463989 43.45188522338867 1.5 50 1.5 C 56.54811477661133 1.5 62.89957046508789 2.782128572463989 68.8779296875 5.310757160186768 C 74.65309906005859 7.753442764282227 79.84004211425781 11.2506856918335 84.29468536376953 15.70532894134521 C 88.74931335449219 20.15997123718262 92.24655914306641 25.34691429138184 94.68923950195312 31.12207221984863 C 97.21787261962891 37.10042953491211 98.5 43.45188522338867 98.5 50 C 98.5 56.54811477661133 97.21787261962891 62.89957046508789 94.68923950195312 68.8779296875 C 92.24655914306641 74.65309906005859 88.74931335449219 79.84004211425781 84.29468536376953 84.29468536376953 C 79.84004211425781 88.74931335449219 74.65309906005859 92.24655914306641 68.8779296875 94.68923950195312 C 62.89957046508789 97.21787261962891 56.54811477661133 98.5 50 98.5 Z" stroke="none"/>
                      <path d="M 50 3 C 43.65372467041016 3 37.49886322021484 4.242263793945312 31.70639801025391 6.6922607421875 C 26.11003112792969 9.059326171875 21.08333587646484 12.44861602783203 16.76598358154297 16.76598358154297 C 12.44861602783203 21.08335113525391 9.059326171875 26.11003112792969 6.6922607421875 31.70639801025391 C 4.242263793945312 37.49886322021484 3 43.65372467041016 3 50 C 3 56.34627532958984 4.242263793945312 62.50113677978516 6.6922607421875 68.29360198974609 C 9.059326171875 73.88996887207031 12.44861602783203 78.91666412353516 16.76598358154297 83.23401641845703 C 21.08333587646484 87.55138397216797 26.11003112792969 90.940673828125 31.70639801025391 93.3077392578125 C 37.49886322021484 95.75773620605469 43.65372467041016 97 50 97 C 56.34627532958984 97 62.50113677978516 95.75773620605469 68.29360198974609 93.3077392578125 C 73.88996887207031 90.940673828125 78.91664886474609 87.55138397216797 83.23401641845703 83.23401641845703 C 87.55138397216797 78.91666412353516 90.940673828125 73.88996887207031 93.3077392578125 68.29360198974609 C 95.75773620605469 62.50113677978516 97 56.34627532958984 97 50 C 97 43.65372467041016 95.75773620605469 37.49886322021484 93.3077392578125 31.70639801025391 C 90.940673828125 26.11003112792969 87.55138397216797 21.08335113525391 83.23401641845703 16.76598358154297 C 78.91664886474609 12.44861602783203 73.88996887207031 9.059326171875 68.29360198974609 6.6922607421875 C 62.50113677978516 4.242263793945312 56.34627532958984 3 50 3 M 50 0 C 77.61422729492188 0 100 22.38577270507812 100 50 C 100 77.61424255371094 77.61422729492188 100 50 100 C 22.38575744628906 100 0 77.61424255371094 0 50 C 0 22.38577270507812 22.38575744628906 0 50 0 Z" stroke="none" fill="#866d08"/>
                    </g>
                  </g>
                </g>
              </g>
            </g>
          </g>
        </g>
      </g>
    </g>
    <g id="developer_3527156" transform="translate(589 8202)">
      <path id="Trazado_1049261" data-name="Trazado 1049261" d="M236.331,72v51.9a2.076,2.076,0,0,1-2.076,2.076H202.076A2.076,2.076,0,0,1,200,123.9V72Z" transform="translate(-153.163 -48.734)" fill="#548aff"/>
      <path id="Trazado_1049262" data-name="Trazado 1049262" d="M200,136.609V122.076A2.076,2.076,0,0,1,202.076,120h25.951a2.076,2.076,0,0,1,2.076,2.076v12.456a2.076,2.076,0,0,1-2.076,2.076Z" transform="translate(-153.163 -90.506)" fill="#91c0ff"/>
      <path id="Trazado_1049263" data-name="Trazado 1049263" d="M200,30.228V26.076A2.076,2.076,0,0,1,202.076,24h32.179a2.076,2.076,0,0,1,2.076,2.076v4.152Z" transform="translate(-153.163 -6.962)" fill="#7dafff"/>
      <path id="Trazado_1049264" data-name="Trazado 1049264" d="M62.1,94.161a.673.673,0,0,1-.676.676H49.993a4.154,4.154,0,0,1-2.491-.83l-3.046-2.284v4.152H32V86.532a4.153,4.153,0,0,1,4.152-4.152H42.38l6.228-6.228v-2.38a.734.734,0,0,1,1.253-.519l.823.823L52.761,72l1.709,1.709a2.076,2.076,0,0,1,.062,2.87l-3.124,3.41-5.461,5.957,3.7,3.7h7.266l1.419-.71A1.018,1.018,0,0,1,59.7,90.3l-.71,1.42L61.8,93.6a.678.678,0,0,1,.3.563Z" transform="translate(-6.962 -48.734)" fill="#ffceb6"/>
      <path id="Trazado_1049265" data-name="Trazado 1049265" d="M54.837,120.975v5.19H49.993a4.154,4.154,0,0,1-2.491-.83l-3.046-2.284V127.2H32v-9.342a4.153,4.153,0,0,1,4.152-4.152H42.38L48.089,108l3.318,3.318-5.461,5.957,3.7,3.7Z" transform="translate(-6.962 -80.063)" fill="#ffb401"/>
      <path id="Trazado_1049266" data-name="Trazado 1049266" d="M84.152,120H81.038L80,121.038v1.038a2.076,2.076,0,0,0,4.152,0Z" transform="translate(-48.734 -90.506)" fill="#ffceb6"/>
      <path id="Trazado_1049267" data-name="Trazado 1049267" d="M84.152,99.114l.608-.608A1.468,1.468,0,0,0,83.722,96H82.076A2.076,2.076,0,0,0,80,98.076v2.076l1.038-1.038Z" transform="translate(-48.734 -69.62)" fill="#c47220"/>
      <path id="Trazado_1049268" data-name="Trazado 1049268" d="M36.152,456l4.152,3.114v1.038H32v-3.114Z" transform="translate(-6.962 -382.908)" fill="#e0edff"/>
      <path id="Trazado_1049269" data-name="Trazado 1049269" d="M100.152,456l4.152,3.114v1.038H96v-3.114Z" transform="translate(-62.658 -382.908)" fill="#c5dafa"/>
      <path id="Trazado_1049270" data-name="Trazado 1049270" d="M32,282.989V256H44.456v25.951L40.3,282.989l-2.076-21.8-2.076,20.761Z" transform="translate(-6.962 -208.859)" fill="#62798c"/>
      <path id="Trazado_1049271" data-name="Trazado 1049271" d="M39.917,87.875a5.223,5.223,0,0,0,3.114,1.038H54.465a1.714,1.714,0,0,0,.951-3.14l-2.051-1.367.3-.6a2.056,2.056,0,0,0-2.759-2.759l-1.2.6H43.115l-2.694-2.694,5.391-5.881c-.008.089-.012.179-.012.27v6.228h2.076V73.343A1.039,1.039,0,0,1,48.913,72.3H74.864A1.039,1.039,0,0,1,75.9,73.343V85.8a1.039,1.039,0,0,1-1.038,1.038H58.255v2.076H74.864A3.118,3.118,0,0,0,77.978,85.8V73.343a3.118,3.118,0,0,0-3.114-3.114H48.913a3.113,3.113,0,0,0-.543.048,3.106,3.106,0,0,0-.129-4.264L46.533,64.3a1.038,1.038,0,0,0-1.468,0l-1.342,1.342-.089-.089a1.772,1.772,0,0,0-3.025,1.253v1.95l-4.152,4.152V71.7l.3-.3a2.506,2.506,0,0,0-1.772-4.278H33.342a3.118,3.118,0,0,0-3.114,3.114v4.152H29.19A5.2,5.2,0,0,0,24,79.571v39.445a1.038,1.038,0,0,0,1.038,1.038H41.647a1.038,1.038,0,0,0,1.038-1.038v-1.038a1.038,1.038,0,0,0-.415-.83l-3.737-2.8V86.837Zm10.034-4.152a1.037,1.037,0,0,0,.464-.11l1.367-.683L51.1,84.3a1.038,1.038,0,0,0,.353,1.328l1.819,1.212H48.913V83.723ZM42.685,67.544l.3.3a1.038,1.038,0,0,0,1.468,0L45.8,66.506l.975.975a1.036,1.036,0,0,1,.031,1.435l-2.392,2.61-1.849-1.849a1.038,1.038,0,0,0,.121-.487Zm-9.342,1.646h1.646a.43.43,0,0,1,.3.734l-.3.3H32.3a1.039,1.039,0,0,1,1.038-1.038ZM32.3,72.735l.43-.43H34.38v1.038a1.038,1.038,0,1,1-2.076,0Zm-6.228,45.244v-1.266l2.886-.722,2.65,1.987Zm4.205-3.593.96-9.6L32.3,115.9Zm.987-21.319h0A1.038,1.038,0,0,0,30.234,94l-2,20.034-2.154.538V89.951h10.38v24.1l-2.2.549L32.3,94a1.038,1.038,0,0,0-1.031-.94Zm8.648,24.913H34.38v-1.266l2.886-.722Zm-1.8-34.047a1.038,1.038,0,0,0-1.661.83v3.114H26.076v-8.3a3.118,3.118,0,0,1,3.114-3.114h6.228a1.038,1.038,0,0,0,.734-.3l4.975-4.975,1.88,1.88-5.045,5.5a3.122,3.122,0,0,1-2.3,1.01H29.19v2.076h6.478a5.2,5.2,0,0,0,3.314-1.2l2.968,2.969a1.038,1.038,0,0,0,.734.3h4.152v3.114H43.031a3.134,3.134,0,0,1-1.869-.623Z" transform="translate(0 -41.772)"/>
      <ellipse id="Elipse_12940" data-name="Elipse 12940" cx="1.354" cy="0.677" rx="1.354" ry="0.677" transform="translate(48.687 32.247)"/>
      <ellipse id="Elipse_12941" data-name="Elipse 12941" cx="1.354" cy="0.677" rx="1.354" ry="0.677" transform="translate(51.395 32.247)"/>
      <circle id="Elipse_12942" data-name="Elipse 12942" cx="0.677" cy="0.677" r="0.677" transform="translate(55.457 32.247)"/>
      <circle id="Elipse_12943" data-name="Elipse 12943" cx="1.354" cy="1.354" r="1.354" transform="translate(48.687 18.708)"/>
      <circle id="Elipse_12944" data-name="Elipse 12944" cx="1.354" cy="1.354" r="1.354" transform="translate(51.395 18.708)"/>
      <ellipse id="Elipse_12945" data-name="Elipse 12945" cx="0.677" cy="1.354" rx="0.677" ry="1.354" transform="translate(55.457 18.708)"/>
      <path id="Trazado_1049272" data-name="Trazado 1049272" d="M240,168h4.152v2.076H240Z" transform="translate(-187.973 -132.277)"/>
      <path id="Trazado_1049273" data-name="Trazado 1049273" d="M288,168h14.532v2.076H288Z" transform="translate(-229.745 -132.277)"/>
      <path id="Trazado_1049274" data-name="Trazado 1049274" d="M272,200h9.342v2.076H272Z" transform="translate(-215.821 -160.125)"/>
      <path id="Trazado_1049275" data-name="Trazado 1049275" d="M360,200h5.19v2.076H360Z" transform="translate(-292.402 -160.125)"/>
      <path id="Trazado_1049276" data-name="Trazado 1049276" d="M227.293,16H195.114A3.118,3.118,0,0,0,192,19.114V21.19h2.076V19.114a1.039,1.039,0,0,1,1.038-1.038h32.179a1.039,1.039,0,0,1,1.038,1.038v3.114H196.152V24.3h32.179V75.168a1.039,1.039,0,0,1-1.038,1.038H195.114a1.039,1.039,0,0,1-1.038-1.038V49.217H192V75.168a3.118,3.118,0,0,0,3.114,3.114h32.179a3.118,3.118,0,0,0,3.114-3.114V19.114A3.118,3.118,0,0,0,227.293,16Z" transform="translate(-146.201 0)"/>
      <path id="Trazado_1049277" data-name="Trazado 1049277" d="M272,272h9.342v2.076H272Z" transform="translate(-215.821 -222.783)"/>
      <path id="Trazado_1049278" data-name="Trazado 1049278" d="M360,272h10.38v2.076H360Z" transform="translate(-292.402 -222.783)"/>
      <path id="Trazado_1049279" data-name="Trazado 1049279" d="M312,304h9.342v2.076H312Z" transform="translate(-250.631 -250.631)"/>
      <path id="Trazado_1049280" data-name="Trazado 1049280" d="M400,304h2.076v2.076H400Z" transform="translate(-327.212 -250.631)"/>
      <path id="Trazado_1049281" data-name="Trazado 1049281" d="M240,336h11.418v2.076H240Z" transform="translate(-187.973 -278.479)"/>
      <path id="Trazado_1049282" data-name="Trazado 1049282" d="M344,336h5.19v2.076H344Z" transform="translate(-278.479 -278.479)"/>
      <path id="Trazado_1049283" data-name="Trazado 1049283" d="M240,368h6.228v2.076H240Z" transform="translate(-187.973 -306.327)"/>
      <path id="Trazado_1049284" data-name="Trazado 1049284" d="M304,368h2.076v2.076H304Z" transform="translate(-243.669 -306.327)"/>
      <path id="Trazado_1049285" data-name="Trazado 1049285" d="M296,400h9.342v2.076H296Z" transform="translate(-236.707 -334.174)"/>
      <path id="Trazado_1049286" data-name="Trazado 1049286" d="M384,400h2.076v2.076H384Z" transform="translate(-313.288 -334.174)"/>
      <path id="Trazado_1049287" data-name="Trazado 1049287" d="M296,432h7.266v2.076H296Z" transform="translate(-236.707 -362.022)"/>
      <path id="Trazado_1049288" data-name="Trazado 1049288" d="M368,432h9.342v2.076H368Z" transform="translate(-299.364 -362.022)"/>
    </g>
  </g>
</svg>
