<svg xmlns="http://www.w3.org/2000/svg" xmlns:xlink="http://www.w3.org/1999/xlink" width="118" height="118" viewBox="0 0 118 118">
  <defs>
    <filter id="Trazado_982547" x="0" y="0" width="118" height="118" filterUnits="userSpaceOnUse">
      <feOffset dy="3" input="SourceAlpha"/>
      <feGaussianBlur stdDeviation="3" result="blur"/>
      <feFlood flood-opacity="0.161"/>
      <feComposite operator="in" in2="blur"/>
      <feComposite in="SourceGraphic"/>
    </filter>
  </defs>
  <g id="Grupo_1204527" data-name="Grupo 1204527" transform="translate(-899 -1239)">
    <g id="Grupo_1180858" data-name="Grupo 1180858" transform="translate(158 -17)">
      <g id="Grupo_1179137" data-name="Grupo 1179137" transform="translate(-2.25 571)">
        <g id="Grupo_1177987" data-name="Grupo 1177987" transform="translate(752.25 691)">
          <g id="Grupo_1177681" data-name="Grupo 1177681">
            <g id="Grupo_1172010" data-name="Grupo 1172010">
              <g id="Grupo_1171046" data-name="Grupo 1171046">
                <g id="Grupo_1148525" data-name="Grupo 1148525">
                  <g transform="matrix(1, 0, 0, 1, -9, -6)" filter="url(#Trazado_982547)">
                    <g id="Trazado_982547-2" data-name="Trazado 982547" transform="translate(9 6)" fill="#fdf4ce">
                      <path d="M 50 98.5 C 43.45188522338867 98.5 37.10042953491211 97.21787261962891 31.12207221984863 94.68923950195312 C 25.34690093994141 92.24655914306641 20.15995788574219 88.74931335449219 15.70531463623047 84.29468536376953 C 11.2506856918335 79.84004211425781 7.753442764282227 74.65309906005859 5.310757160186768 68.8779296875 C 2.782128572463989 62.89957046508789 1.5 56.54811477661133 1.5 50 C 1.5 43.45188522338867 2.782128572463989 37.10042953491211 5.310757160186768 31.12207221984863 C 7.753442764282227 25.34691429138184 11.2506856918335 20.15997123718262 15.70531463623047 15.70532894134521 C 20.15995788574219 11.2506856918335 25.34690093994141 7.753442764282227 31.12207221984863 5.310757160186768 C 37.10042953491211 2.782128572463989 43.45188522338867 1.5 50 1.5 C 56.54811477661133 1.5 62.89957046508789 2.782128572463989 68.8779296875 5.310757160186768 C 74.65309906005859 7.753442764282227 79.84004211425781 11.2506856918335 84.29468536376953 15.70532894134521 C 88.74931335449219 20.15997123718262 92.24655914306641 25.34691429138184 94.68923950195312 31.12207221984863 C 97.21787261962891 37.10042953491211 98.5 43.45188522338867 98.5 50 C 98.5 56.54811477661133 97.21787261962891 62.89957046508789 94.68923950195312 68.8779296875 C 92.24655914306641 74.65309906005859 88.74931335449219 79.84004211425781 84.29468536376953 84.29468536376953 C 79.84004211425781 88.74931335449219 74.65309906005859 92.24655914306641 68.8779296875 94.68923950195312 C 62.89957046508789 97.21787261962891 56.54811477661133 98.5 50 98.5 Z" stroke="none"/>
                      <path d="M 50 3 C 43.65372467041016 3 37.49886322021484 4.242263793945312 31.70639801025391 6.6922607421875 C 26.11003112792969 9.059326171875 21.08333587646484 12.44861602783203 16.76598358154297 16.76598358154297 C 12.44861602783203 21.08335113525391 9.059326171875 26.11003112792969 6.6922607421875 31.70639801025391 C 4.242263793945312 37.49886322021484 3 43.65372467041016 3 50 C 3 56.34627532958984 4.242263793945312 62.50113677978516 6.6922607421875 68.29360198974609 C 9.059326171875 73.88996887207031 12.44861602783203 78.91666412353516 16.76598358154297 83.23401641845703 C 21.08333587646484 87.55138397216797 26.11003112792969 90.940673828125 31.70639801025391 93.3077392578125 C 37.49886322021484 95.75773620605469 43.65372467041016 97 50 97 C 56.34627532958984 97 62.50113677978516 95.75773620605469 68.29360198974609 93.3077392578125 C 73.88996887207031 90.940673828125 78.91664886474609 87.55138397216797 83.23401641845703 83.23401641845703 C 87.55138397216797 78.91666412353516 90.940673828125 73.88996887207031 93.3077392578125 68.29360198974609 C 95.75773620605469 62.50113677978516 97 56.34627532958984 97 50 C 97 43.65372467041016 95.75773620605469 37.49886322021484 93.3077392578125 31.70639801025391 C 90.940673828125 26.11003112792969 87.55138397216797 21.08335113525391 83.23401641845703 16.76598358154297 C 78.91664886474609 12.44861602783203 73.88996887207031 9.059326171875 68.29360198974609 6.6922607421875 C 62.50113677978516 4.242263793945312 56.34627532958984 3 50 3 M 50 0 C 77.61422729492188 0 100 22.38577270507812 100 50 C 100 77.61424255371094 77.61422729492188 100 50 100 C 22.38575744628906 100 0 77.61424255371094 0 50 C 0 22.38577270507812 22.38575744628906 0 50 0 Z" stroke="none" fill="#866d08"/>
                    </g>
                  </g>
                </g>
              </g>
            </g>
          </g>
        </g>
      </g>
    </g>
    <g id="development_12529437" transform="translate(922.817 1265.209)">
      <g id="Grupo_1204508" data-name="Grupo 1204508" transform="translate(3.634 5.344)">
        <path id="Trazado_1049186" data-name="Trazado 1049186" d="M53.969,50.409h5.693A3.838,3.838,0,0,0,63.5,46.571V9.127A3.838,3.838,0,0,0,59.662,5.29H7.417A3.838,3.838,0,0,0,3.58,9.127V46.571a3.838,3.838,0,0,0,3.837,3.837H53.969Z" transform="translate(-3.58 -5.29)" fill="#ffeba8"/>
      </g>
      <g id="Grupo_1204509" data-name="Grupo 1204509" transform="translate(38.537 55.164)">
        <path id="Trazado_1049187" data-name="Trazado 1049187" d="M50.226,59.044h-12A1.541,1.541,0,0,1,36.69,57.5V54.089a1.541,1.541,0,0,1,1.539-1.539h12a1.541,1.541,0,0,1,1.539,1.539V57.5A1.541,1.541,0,0,1,50.226,59.044Z" transform="translate(-36.69 -52.55)" fill="#fd3d6c"/>
      </g>
      <g id="Grupo_1204510" data-name="Grupo 1204510" transform="translate(34.386 26.607)">
        <path id="Trazado_1049188" data-name="Trazado 1049188" d="M52.473,38.194v9.867a8.423,8.423,0,0,1-1,4.006l-1.033,1.95H38.917s-2.7-2.657-4.037-8.507a29.175,29.175,0,0,0-1.94-4.185,1.985,1.985,0,0,1,.77-2.541l.221-.137a1.985,1.985,0,0,1,2.678.6l1.476,2.193L37.81,26.714a1.224,1.224,0,0,1,1.223-1.254h1.1a1.216,1.216,0,0,1,1.212,1.16l.095,5.629a3.961,3.961,0,0,1,1.381-.379h.854a1.307,1.307,0,0,1,1.318,1.223H47.3a1.794,1.794,0,0,1,1.8,1.729l.011.717h.717a2.65,2.65,0,0,1,2.646,2.657Z" transform="translate(-32.752 -25.46)" fill="#a4dffe"/>
      </g>
      <g id="Grupo_1204511" data-name="Grupo 1204511" transform="translate(37.483 54.11)">
        <path id="Trazado_1049189" data-name="Trazado 1049189" d="M50.28,60.152h-12a2.6,2.6,0,0,1-2.593-2.593V54.143a2.6,2.6,0,0,1,2.593-2.593h12a2.6,2.6,0,0,1,2.593,2.593v3.416A2.6,2.6,0,0,1,50.28,60.152Zm-12-6.494a.484.484,0,0,0-.485.485v3.416a.49.49,0,0,0,.485.485h12a.49.49,0,0,0,.485-.485V54.143a.484.484,0,0,0-.485-.485Z" transform="translate(-35.69 -51.55)"/>
      </g>
      <g id="Grupo_1204512" data-name="Grupo 1204512" transform="translate(33.352 25.532)">
        <path id="Trazado_1049190" data-name="Trazado 1049190" d="M38.98,55.127a1.029,1.029,0,0,1-.738-.306c-.116-.116-2.941-2.941-4.333-9.034a25.149,25.149,0,0,0-1.834-3.911,3.056,3.056,0,0,1,1.16-3.953l.221-.137a3.042,3.042,0,0,1,3.574.316L36.819,26.77a2.24,2.24,0,0,1,.643-1.645A2.263,2.263,0,0,1,39.1,24.44h1.1A2.28,2.28,0,0,1,42.47,26.6l.242,14.938a1.058,1.058,0,0,1-1.033,1.075A1.045,1.045,0,0,1,40.6,41.581l-.242-14.9a.165.165,0,0,0-.169-.127H39.1a.15.15,0,0,0-.116.053.141.141,0,0,0-.042.127l.274,14.727a1.053,1.053,0,0,1-1.929.6l-1.476-2.193a.925.925,0,0,0-1.254-.274l-.221.137a.93.93,0,0,0-.369,1.191,25.562,25.562,0,0,1,2.013,4.4c1.244,5.44,3.732,7.97,3.763,8a1.06,1.06,0,0,1,.011,1.486,1.151,1.151,0,0,1-.77.316Z" transform="translate(-31.771 -24.44)"/>
      </g>
      <g id="Grupo_1204513" data-name="Grupo 1204513" transform="translate(42.037 31.983)">
        <path id="Trazado_1049191" data-name="Trazado 1049191" d="M44.733,42.177a1.048,1.048,0,0,1-1.054-1.044l-.032-5.777a8.771,8.771,0,0,0-.179-2.646c-.221-.253-.063-.042-.3-.063l-.748.011c-.105.011-.348.158-.306.759a1.052,1.052,0,0,1-2.1.158,2.884,2.884,0,0,1,.717-2.266,2.347,2.347,0,0,1,1.708-.748h.843c2.562.242,2.519,2.372,2.477,4.828l.032,5.745a1.071,1.071,0,0,1-1.065,1.044h0Z" transform="translate(-40.01 -30.56)"/>
      </g>
      <g id="Grupo_1204514" data-name="Grupo 1204514" transform="translate(45.579 33.185)">
        <path id="Trazado_1049192" data-name="Trazado 1049192" d="M48.567,40.334a1.048,1.048,0,0,1-1.054-1.044l-.032-4.8a.741.741,0,0,0-.748-.685H44.424a1.054,1.054,0,0,1,0-2.108h2.309a2.85,2.85,0,0,1,2.857,2.741l.032,4.828a1.066,1.066,0,0,1-1.054,1.065Z" transform="translate(-43.37 -31.7)"/>
      </g>
      <g id="Grupo_1204515" data-name="Grupo 1204515" transform="translate(49.722 35.63)">
        <path id="Trazado_1049193" data-name="Trazado 1049193" d="M49.651,54.608a1.056,1.056,0,0,1-.928-1.55l1.044-1.95a7.529,7.529,0,0,0,.875-3.51V37.72a1.6,1.6,0,0,0-1.592-1.592h-.7a1.054,1.054,0,0,1,0-2.108h.7a3.7,3.7,0,0,1,3.7,3.7V47.6a9.6,9.6,0,0,1-1.128,4.5l-1.044,1.95A1.041,1.041,0,0,1,49.651,54.608Z" transform="translate(-47.3 -34.02)"/>
      </g>
      <g id="Grupo_1204516" data-name="Grupo 1204516" transform="translate(2.59 4.29)">
        <path id="Trazado_1049194" data-name="Trazado 1049194" d="M59.716,51.517H54.023a1.054,1.054,0,1,1,0-2.108h5.693A2.78,2.78,0,0,0,62.5,46.625V9.181A2.78,2.78,0,0,0,59.716,6.4H7.481A2.78,2.78,0,0,0,4.7,9.181V46.625a2.78,2.78,0,0,0,2.783,2.783H37.7a1.054,1.054,0,0,1,0,2.108H7.481A4.895,4.895,0,0,1,2.59,46.625V9.181A4.895,4.895,0,0,1,7.481,4.29H59.716a4.895,4.895,0,0,1,4.891,4.891V46.625A4.908,4.908,0,0,1,59.716,51.517Z" transform="translate(-2.59 -4.29)"/>
      </g>
      <g id="Grupo_1204517" data-name="Grupo 1204517" transform="translate(15.475 9.025)">
        <path id="Trazado_1049195" data-name="Trazado 1049195" d="M15.864,22.453a.972.972,0,0,1-.38-.074,1.055,1.055,0,0,1-.6-1.36L19.332,9.455a1.051,1.051,0,0,1,1.961.759L16.844,21.778A1.033,1.033,0,0,1,15.864,22.453Z" transform="translate(-14.812 -8.781)"/>
      </g>
      <g id="Grupo_1204518" data-name="Grupo 1204518" transform="translate(7.671 9.924)">
        <path id="Trazado_1049196" data-name="Trazado 1049196" d="M13.514,20.593a1.045,1.045,0,0,1-.7-.264L7.768,15.9a1.051,1.051,0,0,1,0-1.581l5.049-4.428a1.053,1.053,0,0,1,1.392,1.581l-4.143,3.637,4.143,3.637a1.054,1.054,0,0,1-.7,1.845Z" transform="translate(-7.41 -9.634)"/>
      </g>
      <g id="Grupo_1204519" data-name="Grupo 1204519" transform="translate(23.143 9.916)">
        <path id="Trazado_1049197" data-name="Trazado 1049197" d="M23.144,20.594a1.054,1.054,0,0,1-.7-1.845l4.143-3.637-4.143-3.637A1.053,1.053,0,1,1,23.84,9.894l5.049,4.428a1.051,1.051,0,0,1,0,1.581L23.84,20.33A1.079,1.079,0,0,1,23.144,20.594Z" transform="translate(-22.087 -9.627)"/>
      </g>
      <g id="Grupo_1204520" data-name="Grupo 1204520" transform="translate(34.12 14.347)">
        <path id="Trazado_1049198" data-name="Trazado 1049198" d="M39.057,15.938h-5.5a1.054,1.054,0,1,1,0-2.108h5.5a1.054,1.054,0,1,1,0,2.108Z" transform="translate(-32.5 -13.83)"/>
      </g>
      <g id="Grupo_1204521" data-name="Grupo 1204521" transform="translate(43.871 14.347)">
        <path id="Trazado_1049199" data-name="Trazado 1049199" d="M56.561,15.938H42.8a1.054,1.054,0,0,1,0-2.108H56.561a1.054,1.054,0,0,1,0,2.108Z" transform="translate(-41.75 -13.83)"/>
      </g>
      <g id="Grupo_1204522" data-name="Grupo 1204522" transform="translate(34.12 21.336)">
        <path id="Trazado_1049200" data-name="Trazado 1049200" d="M57.062,22.568H33.554a1.054,1.054,0,1,1,0-2.108H57.062a1.054,1.054,0,0,1,0,2.108Z" transform="translate(-32.5 -20.46)"/>
      </g>
      <g id="Grupo_1204523" data-name="Grupo 1204523" transform="translate(7.787 27.461)">
        <path id="Trazado_1049201" data-name="Trazado 1049201" d="M34.907,28.378H8.574a1.054,1.054,0,1,1,0-2.108H34.907a1.054,1.054,0,0,1,0,2.108Z" transform="translate(-7.52 -26.27)"/>
      </g>
      <g id="Grupo_1204524" data-name="Grupo 1204524" transform="translate(7.787 33.185)">
        <path id="Trazado_1049202" data-name="Trazado 1049202" d="M34.907,33.808H8.574a1.054,1.054,0,1,1,0-2.108H34.907a1.054,1.054,0,0,1,0,2.108Z" transform="translate(-7.52 -31.7)"/>
      </g>
      <g id="Grupo_1204525" data-name="Grupo 1204525" transform="translate(7.787 38.909)">
        <path id="Trazado_1049203" data-name="Trazado 1049203" d="M27.96,39.238H8.574a1.054,1.054,0,1,1,0-2.108H27.96a1.054,1.054,0,0,1,0,2.108Z" transform="translate(-7.52 -37.13)"/>
      </g>
      <g id="Grupo_1204526" data-name="Grupo 1204526" transform="translate(46.454 27.461)">
        <path id="Trazado_1049204" data-name="Trazado 1049204" d="M56.428,28.378H45.254a1.054,1.054,0,1,1,0-2.108H56.428a1.054,1.054,0,0,1,0,2.108Z" transform="translate(-44.2 -26.27)"/>
      </g>
    </g>
  </g>
</svg>
