<svg xmlns="http://www.w3.org/2000/svg" xmlns:xlink="http://www.w3.org/1999/xlink" width="108" height="108" viewBox="0 0 108 108">
  <defs>
    <filter id="Trazado_904820" x="0" y="0" width="108" height="108" filterUnits="userSpaceOnUse">
      <feOffset dy="3" input="SourceAlpha"/>
      <feGaussianBlur stdDeviation="3" result="blur"/>
      <feFlood flood-opacity="0.161"/>
      <feComposite operator="in" in2="blur"/>
      <feComposite in="SourceGraphic"/>
    </filter>
  </defs>
  <g id="Grupo_1202746" data-name="Grupo 1202746" transform="translate(9 6)">
    <g id="Grupo_1178464" data-name="Grupo 1178464" transform="translate(0 0)">
      <g id="Grupo_1173585" data-name="Grupo 1173585">
        <g id="Grupo_1173428" data-name="Grupo 1173428">
          <g id="Grupo_1171958" data-name="Grupo 1171958">
            <g id="Grupo_1167341" data-name="Grupo 1167341">
              <g id="Grupo_1166792" data-name="Grupo 1166792">
                <g transform="matrix(1, 0, 0, 1, -9, -6)" filter="url(#Trazado_904820)">
                  <g id="Trazado_904820-2" data-name="Trazado 904820" transform="translate(9 6)" fill="#e5ebfb">
                    <path d="M 44.99999618530273 88.50003051757812 C 39.12687301635742 88.50003051757812 33.43022155761719 87.35010528564453 28.06829643249512 85.08219909667969 C 22.88852119445801 82.89134216308594 18.23629570007324 79.75461578369141 14.24084663391113 75.75916290283203 C 10.24540901184082 71.76371765136719 7.108683586120605 67.11150360107422 4.917821407318115 61.93172836303711 C 2.649921178817749 56.56978988647461 1.499996185302734 50.87313842773438 1.499996185302734 45.00001525878906 C 1.499996185302734 39.12689208984375 2.649921178817749 33.43024063110352 4.917821407318115 28.06830215454102 C 7.108683586120605 22.88854026794434 10.24540901184082 18.23631477355957 14.24084663391113 14.24086570739746 C 18.23629570007324 10.24541568756104 22.88852119445801 7.108702659606934 28.06829643249512 4.917840480804443 C 33.43022155761719 2.649940252304077 39.12687301635742 1.500015258789062 44.99999618530273 1.500015258789062 C 50.87311935424805 1.500015258789062 56.56977081298828 2.649940252304077 61.93169784545898 4.917840480804443 C 67.11147308349609 7.108702659606934 71.76369476318359 10.24541568756104 75.75914764404297 14.24086570739746 C 79.75458526611328 18.23631477355957 82.89131164550781 22.88854026794434 85.08216857910156 28.06830215454102 C 87.35007476806641 33.43024063110352 88.5 39.12689208984375 88.5 45.00001525878906 C 88.5 50.87313842773438 87.35007476806641 56.56978988647461 85.08216857910156 61.93172836303711 C 82.89131164550781 67.11150360107422 79.75458526611328 71.76371765136719 75.75914764404297 75.75916290283203 C 71.76369476318359 79.75461578369141 67.11147308349609 82.89134216308594 61.93169784545898 85.08219909667969 C 56.56977081298828 87.35010528564453 50.87311935424805 88.50003051757812 44.99999618530273 88.50003051757812 Z" stroke="none"/>
                    <path d="M 44.99999618530273 3 C 39.32870864868164 3 33.82865142822266 4.110061645507812 28.65262603759766 6.299346923828125 C 23.65165710449219 8.414573669433594 19.15968322753906 11.44334411621094 15.301513671875 15.301513671875 C 11.44333648681641 19.15968322753906 8.414566040039062 23.65165710449219 6.299339294433594 28.65262985229492 C 4.110054016113281 33.82867050170898 2.999992370605469 39.32872772216797 2.999992370605469 45.00001525878906 C 2.999992370605469 50.67130279541016 4.110054016113281 56.17136001586914 6.299339294433594 61.34738922119141 C 8.414566040039062 66.34835815429688 11.44333648681641 70.84033203125 15.301513671875 74.69850158691406 C 19.15968322753906 78.55667114257812 23.65165710449219 81.58544158935547 28.65262603759766 83.70067596435547 C 33.82865142822266 85.88996124267578 39.32870864868164 87.00001525878906 44.99999618530273 87.00001525878906 C 50.67128372192383 87.00001525878906 56.17134094238281 85.88996124267578 61.34736633300781 83.70067596435547 C 66.34834289550781 81.58544158935547 70.84030914306641 78.55667114257812 74.69847869873047 74.69850158691406 C 78.55665588378906 70.84033203125 81.58542633056641 66.34835815429688 83.70065307617188 61.34738922119141 C 85.88993835449219 56.17136001586914 87 50.67130279541016 87 45.00001525878906 C 87 39.32872772216797 85.88993835449219 33.82867050170898 83.70065307617188 28.65262985229492 C 81.58542633056641 23.65165710449219 78.55665588378906 19.15968322753906 74.69847869873047 15.301513671875 C 70.84030914306641 11.44334411621094 66.34834289550781 8.414573669433594 61.34736633300781 6.299346923828125 C 56.17134094238281 4.110061645507812 50.67128372192383 3 44.99999618530273 3 M 44.99999618530273 0 C 69.85281372070312 0 90 20.14718627929688 90 45.00001525878906 C 90 69.85282897949219 69.85281372070312 90.00001525878906 44.99999618530273 90.00001525878906 C 20.14717864990234 90.00001525878906 -7.62939453125e-06 69.85282897949219 -7.62939453125e-06 45.00001525878906 C -7.62939453125e-06 20.14718627929688 20.14717864990234 0 44.99999618530273 0 Z" stroke="none" fill="#062678"/>
                  </g>
                </g>
              </g>
            </g>
          </g>
        </g>
      </g>
    </g>
    <g id="Page-1" transform="translate(17.205 17.205)">
      <g id="_017---Learning-Programming" data-name="017---Learning-Programming" transform="translate(0 -0.001)">
        <path id="Path" d="M4.706,15H2.853A1.853,1.853,0,0,0,1,16.853V52.06a1.853,1.853,0,0,0,1.853,1.853H23.061a1.84,1.84,0,0,1,1.6.926,3.706,3.706,0,0,0,6.421,0,1.84,1.84,0,0,1,1.6-.926H52.884a1.853,1.853,0,0,0,1.853-1.853V16.853A1.853,1.853,0,0,0,52.884,15Z" transform="translate(-0.074 -2.028)" fill="#eb6371"/>
        <path id="Path-2" data-name="Path" d="M28.162,11V52.692a2.79,2.79,0,0,0-2.779-2.779H6.853A1.859,1.859,0,0,1,5,48.06V12.853A1.859,1.859,0,0,1,6.853,11Z" transform="translate(-0.368 -1.734)" fill="#e5e8eb"/>
        <path id="Path-3" data-name="Path" d="M53.162,12.853V48.06a1.859,1.859,0,0,1-1.853,1.853H32.779A2.79,2.79,0,0,0,30,52.692V11H51.309A1.859,1.859,0,0,1,53.162,12.853Z" transform="translate(-2.205 -1.734)" fill="#e5e8eb"/>
        <path id="Path-4" data-name="Path" d="M33.412,27v2.779a2.754,2.754,0,0,1-.1.741,2.787,2.787,0,0,1-2.251,2,2.146,2.146,0,0,1-.426.037H28.779A2.79,2.79,0,0,1,26,29.779V27Z" transform="translate(-1.911 -2.91)" fill="#bbc2c6"/>
        <path id="Path-5" data-name="Path" d="M35.118,21.853a1.867,1.867,0,0,1-1.853,1.853H25.853A1.859,1.859,0,0,1,24,21.853a1.833,1.833,0,0,1,.417-1.167,1.779,1.779,0,0,1,.13-.139A1.811,1.811,0,0,1,25.853,20h7.412A1.859,1.859,0,0,1,35.118,21.853Z" transform="translate(-1.764 -2.395)" fill="#bbc2c6"/>
        <path id="Path-6" data-name="Path" d="M35.118,25.853a1.867,1.867,0,0,1-1.853,1.853H25.853a1.853,1.853,0,0,1,0-3.706h7.412A1.859,1.859,0,0,1,35.118,25.853Z" transform="translate(-1.764 -2.689)" fill="#cbd1d7"/>
        <path id="Path-7" data-name="Path" d="M34.46,12.646a5.1,5.1,0,0,0-1.269,3.261v2.77H25.779V16.083a5.64,5.64,0,0,0-1.343-3.521,6.492,6.492,0,1,1,10.025.083Z" transform="translate(-1.69 -1.072)" fill="#f5bf57"/>
        <g id="Grupo_1204528" data-name="Grupo 1204528">
          <path id="Shape" d="M52.81,13.044h-.926v-.926A2.779,2.779,0,0,0,49.1,9.338H35.144a7.588,7.588,0,0,0,.027-1.668A7.41,7.41,0,1,0,20.448,9.338H6.485a2.779,2.779,0,0,0-2.779,2.779v.926H2.779A2.779,2.779,0,0,0,0,15.824v4.632a.926.926,0,0,0,1.853,0V15.824a.926.926,0,0,1,.926-.926h.926V47.325A2.779,2.779,0,0,0,6.485,50.1h18.53a1.853,1.853,0,0,1,1.853,1.853.926.926,0,0,0,1.853,0A1.853,1.853,0,0,1,30.574,50.1H49.1a2.779,2.779,0,0,0,2.779-2.779V36.207a.926.926,0,0,0-1.853,0V47.325a.926.926,0,0,1-.926.926H30.574a3.668,3.668,0,0,0-1.853.515V31.482a4.641,4.641,0,0,0,3.706-4.54v-.17a2.754,2.754,0,0,0,1.13-4.462,2.754,2.754,0,0,0-1.13-4.462V15.834a4.2,4.2,0,0,1,1.053-2.666,7.391,7.391,0,0,0,1.186-1.977H49.1a.926.926,0,0,1,.926.926V31.574a.926.926,0,1,0,1.853,0V14.9h.926a.926.926,0,0,1,.926.926V51.031a.926.926,0,0,1-.926.926H32.6a2.779,2.779,0,0,0-2.4,1.39,2.779,2.779,0,0,1-4.818,0,2.779,2.779,0,0,0-2.4-1.39H2.779a.926.926,0,0,1-.926-.926V26.015a.926.926,0,0,0-1.853,0V51.031A2.779,2.779,0,0,0,2.779,53.81H22.988a.919.919,0,0,1,.794.463,4.632,4.632,0,0,0,8.025,0,.919.919,0,0,1,.794-.463H52.81a2.779,2.779,0,0,0,2.779-2.779V15.824a2.779,2.779,0,0,0-2.779-2.779ZM25.015,48.251H6.485a.926.926,0,0,1-.926-.926V12.118a.926.926,0,0,1,.926-.926H20.93a7.334,7.334,0,0,0,1.1,1.876,4.752,4.752,0,0,1,1.137,2.942v1.837a2.754,2.754,0,0,0-1.13,4.463,2.754,2.754,0,0,0,1.13,4.462v.17a4.641,4.641,0,0,0,3.706,4.54V48.766A3.668,3.668,0,0,0,25.015,48.251Zm7.412-27.795a.926.926,0,0,1-.926.926H24.089a.926.926,0,1,1,0-1.853H31.5A.926.926,0,0,1,32.427,20.456Zm-4.632,9.265a2.779,2.779,0,0,1-2.779-2.779h5.559A2.779,2.779,0,0,1,27.795,29.721ZM31.5,25.089H24.089a.926.926,0,0,1,0-1.853H31.5a.926.926,0,0,1,0,1.853Zm.556-13.111a5.978,5.978,0,0,0-1.482,3.856v1.843H25.015V16.009a6.516,6.516,0,0,0-1.55-4.108,5.489,5.489,0,0,1-1.229-3.489,5.571,5.571,0,0,1,1.853-4.147A5.505,5.505,0,0,1,28.443,2.89a5.623,5.623,0,0,1,4.884,4.96,5.536,5.536,0,0,1-1.27,4.128Z" transform="translate(0 -0.999)" fill="#0b0a0a"/>
          <path id="Path-8" data-name="Path" d="M30.374,5.026A3.885,3.885,0,0,0,29.926,5a.926.926,0,0,0,0,1.853,1.924,1.924,0,0,1,.236.015A1.9,1.9,0,0,1,31.769,8.5a1.859,1.859,0,0,1-.415,1.39.927.927,0,0,0,1.42,1.191,3.706,3.706,0,0,0-2.4-6.055Z" transform="translate(-2.132 -1.293)" fill="#0b0a0a"/>
          <path id="Path-9" data-name="Path" d="M11.051,23.141a.926.926,0,0,0,1.31-1.31l-2.124-2.124,2.124-2.124a.926.926,0,0,0-1.31-1.31L8.271,19.052a.926.926,0,0,0,0,1.31Z" transform="translate(-0.588 -2.102)" fill="#0b0a0a"/>
          <path id="Path-10" data-name="Path" d="M15.512,23.32a.926.926,0,0,0,1.243-.415l2.779-5.559a.927.927,0,1,0-1.658-.828L15.1,22.076a.926.926,0,0,0,.415,1.243Z" transform="translate(-1.103 -2.102)" fill="#0b0a0a"/>
          <path id="Path-11" data-name="Path" d="M37.361,40.271a.926.926,0,0,0-1.31,0l-2.779,2.779a.926.926,0,0,0,0,1.31l2.779,2.779a.926.926,0,0,0,1.31-1.31l-2.124-2.124,2.124-2.124A.927.927,0,0,0,37.361,40.271Z" transform="translate(-2.426 -3.865)" fill="#0b0a0a"/>
          <path id="Path-12" data-name="Path" d="M47.271,47.141a.926.926,0,0,0,1.31,0l2.779-2.779a.926.926,0,0,0,0-1.31l-2.779-2.779a.926.926,0,0,0-1.31,1.31L49.4,43.707l-2.124,2.124A.926.926,0,0,0,47.271,47.141Z" transform="translate(-3.455 -3.866)" fill="#0b0a0a"/>
          <path id="Path-13" data-name="Path" d="M42.877,40.512,40.1,46.071a.927.927,0,1,0,1.658.828l2.779-5.559a.927.927,0,0,0-1.658-.828Z" transform="translate(-2.94 -3.865)" fill="#0b0a0a"/>
          <path id="Path-14" data-name="Path" d="M8.926,28.853H19.118a.926.926,0,0,0,0-1.853H8.926a.926.926,0,0,0,0,1.853Z" transform="translate(-0.588 -2.91)" fill="#0b0a0a"/>
          <path id="Path-15" data-name="Path" d="M8.926,32.853H20.044a.926.926,0,0,0,0-1.853H8.926a.926.926,0,0,0,0,1.853Z" transform="translate(-0.588 -3.204)" fill="#0b0a0a"/>
          <path id="Path-16" data-name="Path" d="M20.044,47H8.926a.926.926,0,1,0,0,1.853H20.044a.926.926,0,1,0,0-1.853Z" transform="translate(-0.588 -4.38)" fill="#0b0a0a"/>
          <path id="Path-17" data-name="Path" d="M8.926,36.853h7.412a.926.926,0,1,0,0-1.853H8.926a.926.926,0,1,0,0,1.853Z" transform="translate(-0.588 -3.498)" fill="#0b0a0a"/>
          <path id="Path-18" data-name="Path" d="M23.706,35H20.926a.926.926,0,1,0,0,1.853h2.779a.926.926,0,1,0,0-1.853Z" transform="translate(-1.47 -3.498)" fill="#0b0a0a"/>
          <path id="Path-19" data-name="Path" d="M8.926,40.853h9.265a.926.926,0,1,0,0-1.853H8.926a.926.926,0,1,0,0,1.853Z" transform="translate(-0.588 -3.792)" fill="#0b0a0a"/>
          <path id="Path-20" data-name="Path" d="M23.853,39h-.926a.926.926,0,1,0,0,1.853h.926a.926.926,0,1,0,0-1.853Z" transform="translate(-1.617 -3.792)" fill="#0b0a0a"/>
          <path id="Path-21" data-name="Path" d="M23.191,43H13.926a.926.926,0,1,0,0,1.853h9.265a.926.926,0,1,0,0-1.853Z" transform="translate(-0.956 -4.086)" fill="#0b0a0a"/>
          <path id="Path-22" data-name="Path" d="M8.926,44.853h.926a.926.926,0,1,0,0-1.853H8.926a.926.926,0,1,0,0,1.853Z" transform="translate(-0.588 -4.086)" fill="#0b0a0a"/>
          <path id="Path-23" data-name="Path" d="M39.926,16.853h8.338a.926.926,0,0,0,0-1.853H39.926a.926.926,0,1,0,0,1.853Z" transform="translate(-2.867 -2.028)" fill="#0b0a0a"/>
          <path id="Path-24" data-name="Path" d="M39.926,20.853h8.338a.926.926,0,0,0,0-1.853H39.926a.926.926,0,1,0,0,1.853Z" transform="translate(-2.867 -2.322)" fill="#0b0a0a"/>
          <path id="Path-25" data-name="Path" d="M48.75,35.926A.926.926,0,0,0,47.824,35h-13.9a.926.926,0,0,0,0,1.853h13.9A.926.926,0,0,0,48.75,35.926Z" transform="translate(-2.426 -3.498)" fill="#0b0a0a"/>
          <path id="Path-26" data-name="Path" d="M39.926,24.853h8.338a.926.926,0,0,0,0-1.853H39.926a.926.926,0,1,0,0,1.853Z" transform="translate(-2.867 -2.616)" fill="#0b0a0a"/>
          <path id="Path-27" data-name="Path" d="M39.926,28.853h8.338a.926.926,0,0,0,0-1.853H39.926a.926.926,0,1,0,0,1.853Z" transform="translate(-2.867 -2.91)" fill="#0b0a0a"/>
          <path id="Path-28" data-name="Path" d="M37,31.926a.926.926,0,0,0,.926.926h5.559a.926.926,0,0,0,0-1.853H37.926A.926.926,0,0,0,37,31.926Z" transform="translate(-2.72 -3.204)" fill="#0b0a0a"/>
          <path id="Path-29" data-name="Path" d="M48.853,31h-.926a.926.926,0,0,0,0,1.853h.926a.926.926,0,0,0,0-1.853Z" transform="translate(-3.455 -3.204)" fill="#0b0a0a"/>
        </g>
      </g>
    </g>
  </g>
</svg>
