<svg xmlns="http://www.w3.org/2000/svg" xmlns:xlink="http://www.w3.org/1999/xlink" width="108" height="108" viewBox="0 0 108 108">
  <defs>
    <filter id="Trazado_982547" x="0" y="0" width="108" height="108" filterUnits="userSpaceOnUse">
      <feOffset dy="3" input="SourceAlpha"/>
      <feGaussianBlur stdDeviation="3" result="blur"/>
      <feFlood flood-opacity="0.161"/>
      <feComposite operator="in" in2="blur"/>
      <feComposite in="SourceGraphic"/>
    </filter>
  </defs>
  <g id="Grupo_1204529" data-name="Grupo 1204529" transform="translate(-195.369 -5228)">
    <g id="Grupo_1202852" data-name="Grupo 1202852" transform="translate(0 1823)">
      <g id="Grupo_1202751" data-name="Grupo 1202751" transform="translate(-0.631 -775)">
        <g id="Grupo_1202558" data-name="Grupo 1202558" transform="translate(-125.796 1937.702)">
          <g id="Grupo_1202232" data-name="Grupo 1202232" transform="translate(330.796 2248.298)">
            <g id="Grupo_1201680" data-name="Grupo 1201680">
              <g id="Grupo_1201330" data-name="Grupo 1201330">
                <g id="Grupo_1172010" data-name="Grupo 1172010">
                  <g id="Grupo_1171046" data-name="Grupo 1171046">
                    <g id="Grupo_1148525" data-name="Grupo 1148525">
                      <g transform="matrix(1, 0, 0, 1, -9, -6)" filter="url(#Trazado_982547)">
                        <g id="Trazado_982547-2" data-name="Trazado 982547" transform="translate(9 6)" fill="#e5ebfb">
                          <path d="M 45.00000381469727 88.5 C 39.12688064575195 88.5 33.43022918701172 87.35008239746094 28.06830406188965 85.08217620849609 C 22.88852882385254 82.89131927490234 18.23630332946777 79.75459289550781 14.24085426330566 75.7591552734375 C 10.24541664123535 71.76370239257812 7.108691215515137 67.11148071289062 4.917829036712646 61.93170547485352 C 2.64992880821228 56.56977844238281 1.500003814697266 50.87312698364258 1.500003814697266 45.00000381469727 C 1.500003814697266 39.12688064575195 2.64992880821228 33.43022918701172 4.917829036712646 28.06830406188965 C 7.108691215515137 22.88852882385254 10.24541664123535 18.23630332946777 14.24085426330566 14.24085426330566 C 18.23630332946777 10.24541664123535 22.88852882385254 7.108691215515137 28.06830406188965 4.917829036712646 C 33.43022918701172 2.64992880821228 39.12688064575195 1.500003814697266 45.00000381469727 1.500003814697266 C 50.87312698364258 1.500003814697266 56.56977844238281 2.64992880821228 61.93170547485352 4.917829036712646 C 67.11148071289062 7.108691215515137 71.76370239257812 10.24541664123535 75.7591552734375 14.24085426330566 C 79.75459289550781 18.23630332946777 82.89131927490234 22.88852882385254 85.08217620849609 28.06830406188965 C 87.35008239746094 33.43022918701172 88.5 39.12688064575195 88.5 45.00000381469727 C 88.5 50.87312698364258 87.35008239746094 56.56977844238281 85.08217620849609 61.93170547485352 C 82.89131927490234 67.11148071289062 79.75459289550781 71.76370239257812 75.7591552734375 75.7591552734375 C 71.76370239257812 79.75459289550781 67.11148071289062 82.89131927490234 61.93170547485352 85.08217620849609 C 56.56977844238281 87.35008239746094 50.87312698364258 88.5 45.00000381469727 88.5 Z" stroke="none"/>
                          <path d="M 45.00000381469727 3.000007629394531 C 39.32871627807617 3.000007629394531 33.82865905761719 4.110061645507812 28.65263366699219 6.299346923828125 C 23.65166473388672 8.414573669433594 19.15969085693359 11.44334411621094 15.30152130126953 15.30152130126953 C 11.44334411621094 19.15969085693359 8.414573669433594 23.65166473388672 6.299346923828125 28.65263366699219 C 4.110061645507812 33.82865905761719 3.000007629394531 39.32871627807617 3.000007629394531 45.00000381469727 C 3.000007629394531 50.67129135131836 4.110061645507812 56.17134857177734 6.299346923828125 61.34737396240234 C 8.414573669433594 66.34834289550781 11.44334411621094 70.84031677246094 15.30152130126953 74.698486328125 C 19.15969085693359 78.55666351318359 23.65166473388672 81.58543395996094 28.65263366699219 83.70066070556641 C 33.82865905761719 85.88994598388672 39.32871627807617 87 45.00000381469727 87 C 50.67129135131836 87 56.17134857177734 85.88994598388672 61.34737396240234 83.70066070556641 C 66.34834289550781 81.58543395996094 70.84031677246094 78.55666351318359 74.698486328125 74.698486328125 C 78.55666351318359 70.84031677246094 81.58543395996094 66.34834289550781 83.70066070556641 61.34737396240234 C 85.88994598388672 56.17134857177734 87 50.67129135131836 87 45.00000381469727 C 87 39.32871627807617 85.88994598388672 33.82865905761719 83.70066070556641 28.65263366699219 C 81.58543395996094 23.65166473388672 78.55666351318359 19.15969085693359 74.698486328125 15.30152130126953 C 70.84031677246094 11.44334411621094 66.34834289550781 8.414573669433594 61.34737396240234 6.299346923828125 C 56.17134857177734 4.110061645507812 50.67129135131836 3.000007629394531 45.00000381469727 3.000007629394531 M 45.00000381469727 7.62939453125e-06 C 69.85281372070312 7.62939453125e-06 90 20.14718627929688 90 45.00000381469727 C 90 69.85281372070312 69.85281372070312 90 45.00000381469727 90 C 20.14718627929688 90 7.62939453125e-06 69.85281372070312 7.62939453125e-06 45.00000381469727 C 7.62939453125e-06 20.14718627929688 20.14718627929688 7.62939453125e-06 45.00000381469727 7.62939453125e-06 Z" stroke="none" fill="#5c2c88"/>
                        </g>
                      </g>
                    </g>
                  </g>
                </g>
              </g>
            </g>
          </g>
        </g>
      </g>
    </g>
    <g id="Page-1" transform="translate(223.039 5253.92)">
      <g id="_075---Sender" data-name="075---Sender" transform="translate(-0.001 0)">
        <g id="Icons" transform="translate(0.877 0.878)">
          <path id="Shape" d="M51.906,42v3.353a1.843,1.843,0,0,1-1.755,1.913H2.755A1.843,1.843,0,0,1,1,45.353V42Z" transform="translate(-0.998 -5.137)" fill="#9e9e9e"/>
          <path id="Shape-2" data-name="Shape" d="M55.755,42v3.353A1.843,1.843,0,0,1,54,47.266h2.633a1.843,1.843,0,0,0,1.755-1.913V42Z" transform="translate(-7.481 -5.137)" fill="#707070"/>
          <path id="Shape-3" data-name="Shape" d="M51.906,1.913V36.863H1V1.913A1.843,1.843,0,0,1,2.755,0h47.4a1.843,1.843,0,0,1,1.755,1.913Z" transform="translate(-0.998 0)" fill="#00bcd4"/>
          <path id="Shape-4" data-name="Shape" d="M56.633,0H54a1.843,1.843,0,0,1,1.755,1.913V36.863h2.633V1.913A1.843,1.843,0,0,0,56.633,0Z" transform="translate(-7.481)" fill="#00838f"/>
          <path id="Shape-5" data-name="Shape" d="M38.309,53.266H19L21.633,48H35.676Z" transform="translate(-3.2 -5.871)" fill="#707070"/>
          <path id="Shape-6" data-name="Shape" d="M42.841,55.755a1.761,1.761,0,0,1-1.755,1.755H14.755a1.755,1.755,0,0,1,0-3.511H41.086A1.769,1.769,0,0,1,42.841,55.755Z" transform="translate(-2.466 -6.605)" fill="#9e9e9e"/>
          <path id="Shape-7" data-name="Shape" d="M45.871,54.518A1.716,1.716,0,0,0,44.633,54H42a1.755,1.755,0,0,1,0,3.511h2.633a1.761,1.761,0,0,0,1.755-1.755,1.716,1.716,0,0,0-.518-1.238Z" transform="translate(-6.013 -6.605)" fill="#707070"/>
          <path id="Shape-8" data-name="Shape" d="M27.064,5.878V32.208a.878.878,0,0,1-.878.878H6.878A.878.878,0,0,1,6,32.208V11.144h5.266a.878.878,0,0,0,.878-.878V5H26.187A.878.878,0,0,1,27.064,5.878Z" transform="translate(-1.61 -0.612)" fill="#f5f5f5"/>
          <path id="Shape-9" data-name="Shape" d="M28.633,5H26a.878.878,0,0,1,.878.878V32.208a.878.878,0,0,1-.878.878h2.633a.878.878,0,0,0,.878-.878V5.878A.878.878,0,0,0,28.633,5Z" transform="translate(-4.056 -0.612)" fill="#cfd8dc"/>
          <path id="Shape-10" data-name="Shape" d="M12.144,5v5.266a.878.878,0,0,1-.878.878H6Z" transform="translate(-1.61 -0.612)" fill="#cfd8dc"/>
          <path id="Shape-11" data-name="Shape" d="M52.2,18.654l-5.2,6.065a.908.908,0,0,1-1.6-.632V21.533H42.277a3.511,3.511,0,0,0-3.467,2.975l-.334,2.133A2.251,2.251,0,0,1,34,26.3V21.533a7.021,7.021,0,0,1,7.021-7.021H45.41V11.958a.908.908,0,0,1,1.6-.632l5.2,6.065a.982.982,0,0,1,0,1.264Z" transform="translate(-5.035 -1.346)" fill="#a4c400"/>
        </g>
        <g id="Layer_11">
          <path id="Shape-12" data-name="Shape" d="M51.028,0H3.633A2.721,2.721,0,0,0,1,2.793v38.3a2.721,2.721,0,0,0,2.633,2.793H18.889L17.133,47.4H14.165a2.633,2.633,0,1,0,0,5.266H40.5a2.633,2.633,0,0,0,0-5.266H37.527l-1.755-3.511H51.028a2.721,2.721,0,0,0,2.633-2.793V2.793A2.721,2.721,0,0,0,51.028,0ZM36.985,49.15H40.5a.878.878,0,0,1,0,1.755H14.165a.878.878,0,1,1,0-1.755ZM19.1,47.4l1.755-3.511H33.81L35.565,47.4Zm32.81-10.532H9.777a.878.878,0,0,0,0,1.755H51.906v2.473a.98.98,0,0,1-.878,1.037H3.633a.98.98,0,0,1-.878-1.037V38.618H6.266a.878.878,0,0,0,0-1.755H2.755V2.793a.98.98,0,0,1,.878-1.037h47.4a.98.98,0,0,1,.878,1.037Z" transform="translate(-0.999 0)"/>
          <path id="Shape-13" data-name="Shape" d="M27.064,5H13.021a.878.878,0,0,0-.621.257L6.257,11.4A.878.878,0,0,0,6,12.021V33.086a1.755,1.755,0,0,0,1.755,1.755H27.064a1.755,1.755,0,0,0,1.755-1.755V6.755A1.755,1.755,0,0,0,27.064,5ZM12.144,8v3.147H9Zm14.921,25.09H7.755V12.9h4.388A1.755,1.755,0,0,0,13.9,11.144V6.755H27.064Z" transform="translate(-1.611 -0.612)"/>
          <path id="Shape-14" data-name="Shape" d="M48.557,11.638a1.747,1.747,0,0,0-1.955-.527,1.812,1.812,0,0,0-1.192,1.723v1.676H41.9a7.908,7.908,0,0,0-7.9,7.9v4.768a3.131,3.131,0,0,0,6.225.477l.33-2.14a2.616,2.616,0,0,1,2.6-2.228H45.41v1.676A1.812,1.812,0,0,0,46.6,26.69a1.746,1.746,0,0,0,1.95-.527l5.2-6.065a1.843,1.843,0,0,0,0-2.4Zm3.857,7.322-5.2,6.083c-.011,0-.046-.008-.046-.079V20.655a.878.878,0,0,0-1.755,0v.878H43.154a4.362,4.362,0,0,0-4.334,3.716l-.33,2.14a1.375,1.375,0,0,1-2.735-.21V22.41A6.151,6.151,0,0,1,41.9,16.266H45.41v.878a.878.878,0,0,0,1.755,0V12.835c0-.072.036-.079.054-.061l5.2,6.065a.088.088,0,0,1,0,.121Z" transform="translate(-5.035 -1.346)"/>
          <path id="Shape-15" data-name="Shape" d="M11,22.144a.878.878,0,0,0,.878.878h1.755a.878.878,0,1,0,0-1.755V16.878a.878.878,0,0,0-1.5-.621l-.878.878a.878.878,0,0,0,.621,1.5v2.633a.878.878,0,0,0-.878.878Z" transform="translate(-2.222 -1.957)"/>
          <path id="Shape-16" data-name="Shape" d="M20.633,31.266V26.878a.878.878,0,0,0-1.5-.621l-.878.878a.878.878,0,0,0,.621,1.5v2.633a.878.878,0,0,0,0,1.755h1.755a.878.878,0,0,0,0-1.755Z" transform="translate(-3.078 -3.18)"/>
          <path id="Shape-17" data-name="Shape" d="M24,32.144a.878.878,0,0,0,.878.878h1.755a.878.878,0,0,0,0-1.755V26.878a.878.878,0,0,0-1.5-.621l-.878.878a.878.878,0,0,0,.621,1.5v2.633a.878.878,0,0,0-.878.878Z" transform="translate(-3.812 -3.18)"/>
          <path id="Shape-18" data-name="Shape" d="M18.633,23.021a2.633,2.633,0,0,0,2.633-2.633V18.633a2.633,2.633,0,0,0-5.266,0v1.755A2.633,2.633,0,0,0,18.633,23.021Zm-.878-4.388a.878.878,0,0,1,1.755,0v1.755a.878.878,0,0,1-1.755,0Z" transform="translate(-2.834 -1.957)"/>
          <path id="Shape-19" data-name="Shape" d="M24,22.144a.878.878,0,0,0,.878.878h1.755a.878.878,0,0,0,0-1.755V16.878a.878.878,0,0,0-1.5-.621l-.878.878a.878.878,0,0,0,.621,1.5v2.633a.878.878,0,0,0-.878.878Z" transform="translate(-3.812 -1.957)"/>
          <path id="Shape-20" data-name="Shape" d="M10,28.633v1.755a2.633,2.633,0,0,0,5.266,0V28.633a2.633,2.633,0,0,0-5.266,0Zm3.511,0v1.755a.878.878,0,0,1-1.755,0V28.633a.878.878,0,0,1,1.755,0Z" transform="translate(-2.1 -3.18)"/>
        </g>
      </g>
    </g>
  </g>
</svg>
