<svg xmlns="http://www.w3.org/2000/svg" xmlns:xlink="http://www.w3.org/1999/xlink" width="108" height="108" viewBox="0 0 108 108">
  <defs>
    <filter id="Trazado_982547" x="0" y="0" width="108" height="108" filterUnits="userSpaceOnUse">
      <feOffset dy="3" input="SourceAlpha"/>
      <feGaussianBlur stdDeviation="3" result="blur"/>
      <feFlood flood-opacity="0.161"/>
      <feComposite operator="in" in2="blur"/>
      <feComposite in="SourceGraphic"/>
    </filter>
  </defs>
  <g id="Grupo_1204552" data-name="Grupo 1204552" transform="translate(-825.5 -8943.838)">
    <g id="Grupo_1204499" data-name="Grupo 1204499" transform="translate(630.131 5538.838)">
      <g id="Grupo_1202751" data-name="Grupo 1202751" transform="translate(-0.631 -775)">
        <g id="Grupo_1202558" data-name="Grupo 1202558" transform="translate(-125.796 1937.702)">
          <g id="Grupo_1202232" data-name="Grupo 1202232" transform="translate(330.796 2248.298)">
            <g id="Grupo_1201680" data-name="Grupo 1201680">
              <g id="Grupo_1201330" data-name="Grupo 1201330">
                <g id="Grupo_1172010" data-name="Grupo 1172010">
                  <g id="Grupo_1171046" data-name="Grupo 1171046">
                    <g id="Grupo_1148525" data-name="Grupo 1148525">
                      <g transform="matrix(1, 0, 0, 1, -9, -6)" filter="url(#Trazado_982547)">
                        <g id="Trazado_982547-2" data-name="Trazado 982547" transform="translate(9 6)" fill="#fef9e5">
                          <path d="M 45.00000381469727 88.5 C 39.12688064575195 88.5 33.43022918701172 87.35008239746094 28.06830406188965 85.08217620849609 C 22.88852882385254 82.89131927490234 18.23630332946777 79.75459289550781 14.24085426330566 75.7591552734375 C 10.24541664123535 71.76370239257812 7.108691215515137 67.11148071289062 4.917829036712646 61.93170547485352 C 2.64992880821228 56.56977844238281 1.500003814697266 50.87312698364258 1.500003814697266 45.00000381469727 C 1.500003814697266 39.12688064575195 2.64992880821228 33.43022918701172 4.917829036712646 28.06830406188965 C 7.108691215515137 22.88852882385254 10.24541664123535 18.23630332946777 14.24085426330566 14.24085426330566 C 18.23630332946777 10.24541664123535 22.88852882385254 7.108691215515137 28.06830406188965 4.917829036712646 C 33.43022918701172 2.64992880821228 39.12688064575195 1.500003814697266 45.00000381469727 1.500003814697266 C 50.87312698364258 1.500003814697266 56.56977844238281 2.64992880821228 61.93170547485352 4.917829036712646 C 67.11148071289062 7.108691215515137 71.76370239257812 10.24541664123535 75.7591552734375 14.24085426330566 C 79.75459289550781 18.23630332946777 82.89131927490234 22.88852882385254 85.08217620849609 28.06830406188965 C 87.35008239746094 33.43022918701172 88.5 39.12688064575195 88.5 45.00000381469727 C 88.5 50.87312698364258 87.35008239746094 56.56977844238281 85.08217620849609 61.93170547485352 C 82.89131927490234 67.11148071289062 79.75459289550781 71.76370239257812 75.7591552734375 75.7591552734375 C 71.76370239257812 79.75459289550781 67.11148071289062 82.89131927490234 61.93170547485352 85.08217620849609 C 56.56977844238281 87.35008239746094 50.87312698364258 88.5 45.00000381469727 88.5 Z" stroke="none"/>
                          <path d="M 45.00000381469727 3.000007629394531 C 39.32871627807617 3.000007629394531 33.82865905761719 4.110061645507812 28.65263366699219 6.299346923828125 C 23.65166473388672 8.414573669433594 19.15969085693359 11.44334411621094 15.30152130126953 15.30152130126953 C 11.44334411621094 19.15969085693359 8.414573669433594 23.65166473388672 6.299346923828125 28.65263366699219 C 4.110061645507812 33.82865905761719 3.000007629394531 39.32871627807617 3.000007629394531 45.00000381469727 C 3.000007629394531 50.67129135131836 4.110061645507812 56.17134857177734 6.299346923828125 61.34737396240234 C 8.414573669433594 66.34834289550781 11.44334411621094 70.84031677246094 15.30152130126953 74.698486328125 C 19.15969085693359 78.55666351318359 23.65166473388672 81.58543395996094 28.65263366699219 83.70066070556641 C 33.82865905761719 85.88994598388672 39.32871627807617 87 45.00000381469727 87 C 50.67129135131836 87 56.17134857177734 85.88994598388672 61.34737396240234 83.70066070556641 C 66.34834289550781 81.58543395996094 70.84031677246094 78.55666351318359 74.698486328125 74.698486328125 C 78.55666351318359 70.84031677246094 81.58543395996094 66.34834289550781 83.70066070556641 61.34737396240234 C 85.88994598388672 56.17134857177734 87 50.67129135131836 87 45.00000381469727 C 87 39.32871627807617 85.88994598388672 33.82865905761719 83.70066070556641 28.65263366699219 C 81.58543395996094 23.65166473388672 78.55666351318359 19.15969085693359 74.698486328125 15.30152130126953 C 70.84031677246094 11.44334411621094 66.34834289550781 8.414573669433594 61.34737396240234 6.299346923828125 C 56.17134857177734 4.110061645507812 50.67129135131836 3.000007629394531 45.00000381469727 3.000007629394531 M 45.00000381469727 7.62939453125e-06 C 69.85281372070312 7.62939453125e-06 90 20.14718627929688 90 45.00000381469727 C 90 69.85281372070312 69.85281372070312 90 45.00000381469727 90 C 20.14718627929688 90 7.62939453125e-06 69.85281372070312 7.62939453125e-06 45.00000381469727 C 7.62939453125e-06 20.14718627929688 20.14718627929688 7.62939453125e-06 45.00000381469727 7.62939453125e-06 Z" stroke="none" fill="#866d08"/>
                        </g>
                      </g>
                    </g>
                  </g>
                </g>
              </g>
            </g>
          </g>
        </g>
      </g>
    </g>
    <g id="planning_3063598" transform="translate(785.033 8949.534)">
      <path id="Trazado_1049510" data-name="Trazado 1049510" d="M361.768,29.861V26.93a2.93,2.93,0,0,0-2.93-2.93H352v5.861Z" transform="translate(-245.812 -7.023)" fill="#4976f2"/>
      <path id="Trazado_1049511" data-name="Trazado 1049511" d="M80,328v2.93a2.93,2.93,0,0,0,2.93,2.93h6.838V328Z" transform="translate(-7.023 -273.904)" fill="#4976f2"/>
      <path id="Trazado_1049512" data-name="Trazado 1049512" d="M80,85.119V53.861a2.93,2.93,0,0,1,2.93-2.93h37.119A2.93,2.93,0,0,0,122.98,48V79.38a2.808,2.808,0,0,1-2.808,2.808H82.93A2.93,2.93,0,0,0,80,85.119Z" transform="translate(-7.023 -28.093)" fill="#548aff"/>
      <rect id="Rect치ngulo_418182" data-name="Rect치ngulo 418182" width="8.321" height="4.16" rx="2.08" transform="translate(90.306 27.83)" fill="#f5714f"/>
      <rect id="Rect치ngulo_418183" data-name="Rect치ngulo 418183" width="8.321" height="4.16" rx="2.08" transform="translate(90.306 45.304)" fill="#f5714f"/>
      <path id="Trazado_1049513" data-name="Trazado 1049513" d="M220.884,176,216,178.93l4.884,2.93,4.884-2.93Z" transform="translate(-126.417 -140.464)" fill="#91c0ff"/>
      <path id="Trazado_1049514" data-name="Trazado 1049514" d="M118.838,187.907H112L113.954,184h6.838Z" transform="translate(-35.116 -147.487)" fill="#ffc431"/>
      <path id="Trazado_1049515" data-name="Trazado 1049515" d="M334.838,187.907H328L329.954,184h6.838Z" transform="translate(-224.742 -147.487)" fill="#ffc431"/>
      <path id="Trazado_1049516" data-name="Trazado 1049516" d="M328,244.77l.384-.192a2.434,2.434,0,0,1,2.81.456,2.434,2.434,0,0,0,1.721.713h2.9v3.907H328Z" transform="translate(-224.742 -200.443)" fill="#02c26a"/>
      <path id="Trazado_1049517" data-name="Trazado 1049517" d="M88,408h9.768v9.768H88Z" transform="translate(-14.046 -344.136)" fill="#d1e4ff"/>
      <path id="Trazado_1049518" data-name="Trazado 1049518" d="M116.933,19.907A3.912,3.912,0,0,0,113.026,16h-6.838a.977.977,0,0,0-.977.977v4.884h-29.3A3.912,3.912,0,0,0,72,25.768V57.026a3.912,3.912,0,0,0,3.907,3.907h6.838a.977.977,0,0,0,.977-.977V55.072h29.426a3.789,3.789,0,0,0,3.785-3.785Zm-9.768-1.954h5.861a1.954,1.954,0,1,1,0,3.907h-5.861ZM81.768,58.98H75.907a1.954,1.954,0,0,1,0-3.907h5.861Zm31.38-5.861H75.907a3.882,3.882,0,0,0-1.954.526V25.768a1.956,1.956,0,0,1,1.954-1.954h37.119a3.882,3.882,0,0,0,1.954-.526v28A1.834,1.834,0,0,1,113.148,53.119Z"/>
      <path id="Trazado_1049519" data-name="Trazado 1049519" d="M140.142,112.791H133.3a.977.977,0,0,0-.874.54l-.707,1.414h-4.01l-4.652-2.791a.977.977,0,0,0-1.005,0l-4.652,2.791h-3.033l.27-.54a.977.977,0,0,0-.874-1.414h-2.93v-4.884h7.006a2.935,2.935,0,0,0,2.762,1.954h3.907a2.93,2.93,0,1,0,0-5.861h-3.907a2.935,2.935,0,0,0-2.762,1.954h-7.983a.977.977,0,0,0-.977.977v5.861H106.93a.977.977,0,0,0-.874.54l-1.954,3.907a.977.977,0,0,0,.874,1.414h6.838a.977.977,0,0,0,.874-.54l.707-1.414h4.01l4.652,2.791a.977.977,0,0,0,1.005,0l4.652-2.791h3.033l-.27.54a.977.977,0,0,0,.874,1.414h2.93v1.833a3.4,3.4,0,0,0-2.983.031l-.384.192a.977.977,0,0,0-.54.874v1.954h-3.1a2.935,2.935,0,0,0-2.762-1.954h-3.907a2.93,2.93,0,1,0,0,5.861h3.907a2.935,2.935,0,0,0,2.762-1.954h3.1v.977a.977.977,0,0,0,.977.977h7.814a.977.977,0,0,0,.977-.977v-3.907a.977.977,0,0,0-.977-.977h-2.9l-.031,0v-2.929h1.954a.977.977,0,0,0,.874-.54l1.954-3.907a.977.977,0,0,0-.874-1.414Zm-19.536-6.838h3.907a.977.977,0,1,1,0,1.954h-3.907a.977.977,0,1,1,0-1.954ZM111.211,116.7h-4.653l.977-1.954h4.653Zm11.349.815-2.985-1.791,2.985-1.791,2.985,1.791Zm1.954,7.977h-3.907a.977.977,0,1,1,0-1.954h3.907a.977.977,0,1,1,0,1.954Zm13.675-1.954v1.954h-5.861V122.2a1.455,1.455,0,0,1,1.527.34,3.389,3.389,0,0,0,2.412,1Zm-.6-6.838h-4.653l.977-1.954h4.653Z" transform="translate(-28.093 -77.255)"/>
      <path id="Trazado_1049520" data-name="Trazado 1049520" d="M87.814,396.987v-1.954H80.977a.977.977,0,0,0-.977.977v9.768a.977.977,0,0,0,.977.977h9.768a.977.977,0,0,0,.977-.977v-8.387l1.667-1.667-1.381-1.382-7.814,7.814,1.381,1.382,4.193-4.193V404.8H81.954v-7.814Z" transform="translate(-7.023 -332.147)"/>
      <path id="Trazado_1049521" data-name="Trazado 1049521" d="M192,432h2.93v1.954H192Z" transform="translate(-105.348 -365.206)"/>
      <path id="Trazado_1049522" data-name="Trazado 1049522" d="M352,432h9.768v1.954H352Z" transform="translate(-245.812 -365.206)"/>
      <path id="Trazado_1049523" data-name="Trazado 1049523" d="M232,432h12.7v1.954H232Z" transform="translate(-140.464 -365.206)"/>
      <path id="Trazado_1049524" data-name="Trazado 1049524" d="M264,464h6.838v1.954H264Z" transform="translate(-168.557 -393.299)"/>
      <path id="Trazado_1049525" data-name="Trazado 1049525" d="M192,464h6.838v1.954H192Z" transform="translate(-105.348 -393.299)"/>
    </g>
  </g>
</svg>
