<svg xmlns="http://www.w3.org/2000/svg" xmlns:xlink="http://www.w3.org/1999/xlink" width="108" height="108" viewBox="0 0 108 108">
  <defs>
    <filter id="Trazado_982547" x="0" y="0" width="108" height="108" filterUnits="userSpaceOnUse">
      <feOffset dy="3" input="SourceAlpha"/>
      <feGaussianBlur stdDeviation="3" result="blur"/>
      <feFlood flood-opacity="0.161"/>
      <feComposite operator="in" in2="blur"/>
      <feComposite in="SourceGraphic"/>
    </filter>
  </defs>
  <g id="Grupo_1204554" data-name="Grupo 1204554" transform="translate(-825.5 -8943.838)">
    <g id="Grupo_1204551" data-name="Grupo 1204551">
      <g id="Grupo_1204499" data-name="Grupo 1204499" transform="translate(630.131 5538.838)">
        <g id="Grupo_1202751" data-name="Grupo 1202751" transform="translate(-0.631 -775)">
          <g id="Grupo_1202558" data-name="Grupo 1202558" transform="translate(-125.796 1937.702)">
            <g id="Grupo_1202232" data-name="Grupo 1202232" transform="translate(330.796 2248.298)">
              <g id="Grupo_1201680" data-name="Grupo 1201680">
                <g id="Grupo_1201330" data-name="Grupo 1201330">
                  <g id="Grupo_1172010" data-name="Grupo 1172010">
                    <g id="Grupo_1171046" data-name="Grupo 1171046">
                      <g id="Grupo_1148525" data-name="Grupo 1148525">
                        <g transform="matrix(1, 0, 0, 1, -9, -6)" filter="url(#Trazado_982547)">
                          <g id="Trazado_982547-2" data-name="Trazado 982547" transform="translate(9 6)" fill="#fef9e5">
                            <path d="M 45.00000381469727 88.5 C 39.12688064575195 88.5 33.43022918701172 87.35008239746094 28.06830406188965 85.08217620849609 C 22.88852882385254 82.89131927490234 18.23630332946777 79.75459289550781 14.24085426330566 75.7591552734375 C 10.24541664123535 71.76370239257812 7.108691215515137 67.11148071289062 4.917829036712646 61.93170547485352 C 2.64992880821228 56.56977844238281 1.500003814697266 50.87312698364258 1.500003814697266 45.00000381469727 C 1.500003814697266 39.12688064575195 2.64992880821228 33.43022918701172 4.917829036712646 28.06830406188965 C 7.108691215515137 22.88852882385254 10.24541664123535 18.23630332946777 14.24085426330566 14.24085426330566 C 18.23630332946777 10.24541664123535 22.88852882385254 7.108691215515137 28.06830406188965 4.917829036712646 C 33.43022918701172 2.64992880821228 39.12688064575195 1.500003814697266 45.00000381469727 1.500003814697266 C 50.87312698364258 1.500003814697266 56.56977844238281 2.64992880821228 61.93170547485352 4.917829036712646 C 67.11148071289062 7.108691215515137 71.76370239257812 10.24541664123535 75.7591552734375 14.24085426330566 C 79.75459289550781 18.23630332946777 82.89131927490234 22.88852882385254 85.08217620849609 28.06830406188965 C 87.35008239746094 33.43022918701172 88.5 39.12688064575195 88.5 45.00000381469727 C 88.5 50.87312698364258 87.35008239746094 56.56977844238281 85.08217620849609 61.93170547485352 C 82.89131927490234 67.11148071289062 79.75459289550781 71.76370239257812 75.7591552734375 75.7591552734375 C 71.76370239257812 79.75459289550781 67.11148071289062 82.89131927490234 61.93170547485352 85.08217620849609 C 56.56977844238281 87.35008239746094 50.87312698364258 88.5 45.00000381469727 88.5 Z" stroke="none"/>
                            <path d="M 45.00000381469727 3.000007629394531 C 39.32871627807617 3.000007629394531 33.82865905761719 4.110061645507812 28.65263366699219 6.299346923828125 C 23.65166473388672 8.414573669433594 19.15969085693359 11.44334411621094 15.30152130126953 15.30152130126953 C 11.44334411621094 19.15969085693359 8.414573669433594 23.65166473388672 6.299346923828125 28.65263366699219 C 4.110061645507812 33.82865905761719 3.000007629394531 39.32871627807617 3.000007629394531 45.00000381469727 C 3.000007629394531 50.67129135131836 4.110061645507812 56.17134857177734 6.299346923828125 61.34737396240234 C 8.414573669433594 66.34834289550781 11.44334411621094 70.84031677246094 15.30152130126953 74.698486328125 C 19.15969085693359 78.55666351318359 23.65166473388672 81.58543395996094 28.65263366699219 83.70066070556641 C 33.82865905761719 85.88994598388672 39.32871627807617 87 45.00000381469727 87 C 50.67129135131836 87 56.17134857177734 85.88994598388672 61.34737396240234 83.70066070556641 C 66.34834289550781 81.58543395996094 70.84031677246094 78.55666351318359 74.698486328125 74.698486328125 C 78.55666351318359 70.84031677246094 81.58543395996094 66.34834289550781 83.70066070556641 61.34737396240234 C 85.88994598388672 56.17134857177734 87 50.67129135131836 87 45.00000381469727 C 87 39.32871627807617 85.88994598388672 33.82865905761719 83.70066070556641 28.65263366699219 C 81.58543395996094 23.65166473388672 78.55666351318359 19.15969085693359 74.698486328125 15.30152130126953 C 70.84031677246094 11.44334411621094 66.34834289550781 8.414573669433594 61.34737396240234 6.299346923828125 C 56.17134857177734 4.110061645507812 50.67129135131836 3.000007629394531 45.00000381469727 3.000007629394531 M 45.00000381469727 7.62939453125e-06 C 69.85281372070312 7.62939453125e-06 90 20.14718627929688 90 45.00000381469727 C 90 69.85281372070312 69.85281372070312 90 45.00000381469727 90 C 20.14718627929688 90 7.62939453125e-06 69.85281372070312 7.62939453125e-06 45.00000381469727 C 7.62939453125e-06 20.14718627929688 20.14718627929688 7.62939453125e-06 45.00000381469727 7.62939453125e-06 Z" stroke="none" fill="#866d08"/>
                          </g>
                        </g>
                      </g>
                    </g>
                  </g>
                </g>
              </g>
            </g>
          </g>
        </g>
      </g>
    </g>
    <g id="workflow_14353800" transform="translate(847.86 8960.637)">
      <path id="Trazado_1049526" data-name="Trazado 1049526" d="M200.733,20.351a7.133,7.133,0,0,1-.89,2.141l.41.687.5.837a8.868,8.868,0,0,1-1.7,1.7l-.837-.5-.687-.41a7.136,7.136,0,0,1-2.141.89l-.193.771-.238.946a8.62,8.62,0,0,1-2.4,0l-.238-.946-.2-.774a7.072,7.072,0,0,1-2.141-.886l-.687.41-.837.5a8.872,8.872,0,0,1-1.7-1.7l.5-.837.41-.687a7.035,7.035,0,0,1-.886-2.141l-.774-.193-.946-.242a8.609,8.609,0,0,1,0-2.4l.946-.242.774-.193a7.124,7.124,0,0,1,.886-2.141l-.41-.687-.5-.837a8.872,8.872,0,0,1,1.7-1.7l.837.5.687.41a7.075,7.075,0,0,1,2.141-.886l.2-.774.238-.946a8.633,8.633,0,0,1,2.4,0l.238.946.193.774a7.041,7.041,0,0,1,2.141.886l.687-.41.837-.5a8.868,8.868,0,0,1,1.7,1.7l-.5.837-.41.687a7.133,7.133,0,0,1,.89,2.141l.774.193.943.242a8.608,8.608,0,0,1,0,2.4l-.943.242Z" transform="translate(-162.115 -6.151)" fill="#808fa4" fill-rule="evenodd"/>
      <g id="Grupo_1204553" data-name="Grupo 1204553" transform="translate(0.864 8.175)">
        <path id="Trazado_1049527" data-name="Trazado 1049527" d="M229.251,49.821a4.392,4.392,0,1,1-4.39-4.393,4.392,4.392,0,0,1,4.39,4.393Z" transform="translate(-194.083 -45.428)" fill="#e1edf7" fill-rule="evenodd"/>
        <path id="Trazado_1049528" data-name="Trazado 1049528" d="M203.517,191.526H216.49v17.395H203.517Z" transform="translate(-179.227 -173.469)" fill="#e1edf7"/>
        <path id="Trazado_1049529" data-name="Trazado 1049529" d="M400.043,191.526h12.974v17.395H400.043Z" transform="translate(-351.463 -173.469)" fill="#e1edf7"/>
        <path id="Trazado_1049530" data-name="Trazado 1049530" d="M6.991,191.526H19.964v17.395H6.991Z" transform="translate(-6.991 -173.469)" fill="#e1edf7"/>
      </g>
      <path id="Trazado_1049531" data-name="Trazado 1049531" d="M211.415,390.919a7.322,7.322,0,1,1-7.321-7.319,7.322,7.322,0,0,1,7.321,7.319Z" transform="translate(-172.45 -333.629)" fill="#093" fill-rule="evenodd"/>
      <path id="Trazado_1049532" data-name="Trazado 1049532" d="M193.565,25.691a7.038,7.038,0,0,1-2.141-.886l-.687.41a7.091,7.091,0,0,0,1.384.476l.2.774.238.946a8.465,8.465,0,0,0,1.2.084c.242,0,.484-.011.722-.032-.165-.011-.322-.028-.483-.053l-.238-.946ZM191.424,12.63a7.041,7.041,0,0,1,2.141-.886l.193-.774.238-.946c.161-.025.319-.042.48-.053-.235-.021-.476-.032-.718-.032a8.483,8.483,0,0,0-1.2.084l-.238.946-.2.774a7.092,7.092,0,0,0-1.384.476Zm-3.223.788a8.875,8.875,0,0,1,1.1-1.2h0l-.837-.5a8.872,8.872,0,0,0-1.7,1.7l.5.837.41.687a7.124,7.124,0,0,0-.886,2.141l-.774.194-.946.242c-.017.109-.028.224-.038.336-.028.284-.046.571-.046.865s.018.578.046.862c.01.112.021.228.038.336l.946.242.774.193a7.035,7.035,0,0,0,.886,2.141l-.41.687-.5.837a8.872,8.872,0,0,0,1.7,1.7l.837-.5h0a8.88,8.88,0,0,1-1.1-1.2l.5-.837.41-.687a7.133,7.133,0,0,1-.89-2.141l-.774-.193-.942-.242a8.61,8.61,0,0,1,0-2.4l.942-.242.774-.193a7.134,7.134,0,0,1,.89-2.141l-.41-.687Z" transform="translate(-162.115 -6.151)" fill="#738194" fill-rule="evenodd"/>
      <path id="Trazado_1049533" data-name="Trazado 1049533" d="M221.548,49.821a4.394,4.394,0,0,1,3.858-4.362,4.456,4.456,0,0,0-.533-.032,4.392,4.392,0,1,0,0,8.783,4.484,4.484,0,0,0,.533-.032,4.393,4.393,0,0,1-3.857-4.358Z" transform="translate(-193.23 -37.253)" fill="#cbd5de" fill-rule="evenodd"/>
      <path id="Trazado_1049534" data-name="Trazado 1049534" d="M6.991,191.526H8.168v17.395H6.991Z" transform="translate(-6.127 -165.294)" fill="#cbd5de"/>
      <path id="Trazado_1049535" data-name="Trazado 1049535" d="M203.517,191.526h1.177v17.395h-1.177Z" transform="translate(-178.363 -165.294)" fill="#cbd5de"/>
      <path id="Trazado_1049536" data-name="Trazado 1049536" d="M400.043,191.526h1.177v17.395h-1.177Z" transform="translate(-350.599 -165.294)" fill="#cbd5de"/>
      <path id="Trazado_1049537" data-name="Trazado 1049537" d="M199.472,390.92a7.325,7.325,0,0,1,4.559-6.783,7.1,7.1,0,0,1,1.537-.434c.06-.011.123-.021.182-.028-.06-.01-.119-.018-.179-.025a7.648,7.648,0,0,0-1.727,0,7.322,7.322,0,1,0,1.906,14.519,7.321,7.321,0,0,1-6.279-7.249Z" transform="translate(-173.067 -333.629)" fill="#02802c" fill-rule="evenodd"/>
      <path id="Trazado_1049538" data-name="Trazado 1049538" d="M2.922,37.867A.864.864,0,0,1,3.786,37h7.127a.864.864,0,0,1,0,1.727H3.786a.864.864,0,0,1-.864-.864Zm.864-2.076h7.127a.864.864,0,1,0,0-1.727H3.786a.864.864,0,1,0,0,1.727ZM52.369,41.67h7.123a.864.864,0,1,0,0-1.727H52.369a.864.864,0,0,0,0,1.727Zm-48.583,0h7.127a.864.864,0,1,0,0-1.727H3.786a.864.864,0,0,0,0,1.727Zm59.5-15.439v17.4a.864.864,0,0,1-.864.864H49.443a.864.864,0,0,1-.864-.864V35.791H38.99v7.836a.864.864,0,0,1-.864.864H32.5v4.658a8.188,8.188,0,1,1-1.727,0V44.491H25.155a.864.864,0,0,1-.864-.864V35.791H14.7v7.836a.864.864,0,0,1-.864.864H.864A.864.864,0,0,1,0,43.627v-17.4a.864.864,0,0,1,.864-.864H6.485v-12.8a.864.864,0,0,1,.864-.864H22.038c.013-.151.029-.3.049-.452a.865.865,0,0,1,.647-.726l1.228-.309A7.98,7.98,0,0,1,24.548,8.8L23.9,7.709a.865.865,0,0,1,.054-.968,9.749,9.749,0,0,1,1.868-1.864.865.865,0,0,1,.969-.053l1.083.65a8.016,8.016,0,0,1,1.419-.589L29.6,3.659a.866.866,0,0,1,.717-.646,9.542,9.542,0,0,1,2.648,0,.865.865,0,0,1,.717.645l.309,1.226a7.952,7.952,0,0,1,1.416.588l1.087-.65a.865.865,0,0,1,.968.053,9.741,9.741,0,0,1,1.865,1.865.865.865,0,0,1,.055.966L38.731,8.8a7.978,7.978,0,0,1,.587,1.415l1.228.309a.865.865,0,0,1,.647.725,9.855,9.855,0,0,1,0,2.633.865.865,0,0,1-.646.724l-1.228.31a8,8,0,0,1-.587,1.417l.649,1.091a.865.865,0,0,1-.055.966,9.741,9.741,0,0,1-1.864,1.864.865.865,0,0,1-.968.054l-1.087-.65a7.872,7.872,0,0,1-1.416.586l-.31,1.227a.865.865,0,0,1-.717.645,9.491,9.491,0,0,1-2.648,0,.866.866,0,0,1-.717-.646l-.309-1.228a7.917,7.917,0,0,1-1.419-.587l-1.083.65a.865.865,0,0,1-.969-.053,9.745,9.745,0,0,1-1.868-1.865.865.865,0,0,1-.054-.968l.651-1.089a8,8,0,0,1-.587-1.417l-1.228-.31a.865.865,0,0,1-.646-.725c-.02-.15-.036-.3-.049-.453H8.213V25.367h5.622a.864.864,0,0,1,.864.864v7.833h9.593V26.231a.864.864,0,0,1,.864-.864H38.126a.864.864,0,0,1,.864.864v7.833h9.59V26.231a.864.864,0,0,1,.864-.864H62.417a.864.864,0,0,1,.864.864ZM23.729,12.563c0,.169.005.34.016.511l1.132.286a.865.865,0,0,1,.63.643,6.289,6.289,0,0,0,.78,1.882.865.865,0,0,1,.007.9l-.6,1a8.023,8.023,0,0,0,.724.722l1-.6a.866.866,0,0,1,.9.009A6.2,6.2,0,0,0,30.2,18.7a.865.865,0,0,1,.643.63l.287,1.135a7.9,7.9,0,0,0,1.021,0l.287-1.135a.865.865,0,0,1,.643-.63,6.143,6.143,0,0,0,1.874-.777.865.865,0,0,1,.9-.01l1,.6a8,8,0,0,0,.723-.723l-.6-1a.865.865,0,0,1,.007-.9A6.283,6.283,0,0,0,37.773,14a.865.865,0,0,1,.63-.643l1.132-.286c.011-.171.016-.342.016-.511s-.005-.339-.016-.511l-1.128-.282a.865.865,0,0,1-.634-.644,6.266,6.266,0,0,0-.78-1.881.865.865,0,0,1-.007-.9l.6-1a7.985,7.985,0,0,0-.723-.723l-1,.6a.865.865,0,0,1-.9-.01,6.237,6.237,0,0,0-1.878-.781.865.865,0,0,1-.639-.629l-.287-1.132a7.9,7.9,0,0,0-1.021,0L30.843,5.8a.865.865,0,0,1-.639.628,6.3,6.3,0,0,0-1.883.782.865.865,0,0,1-.9.009l-1-.6a8.023,8.023,0,0,0-.724.722l.6,1a.865.865,0,0,1-.007.9,6.269,6.269,0,0,0-.78,1.881.865.865,0,0,1-.634.644l-1.128.282q-.017.258-.017.512ZM12.971,27.095H1.727V42.763H12.971Zm18.67,23.74A6.457,6.457,0,1,0,38.1,57.292,6.457,6.457,0,0,0,31.641,50.834Zm5.622-23.74H26.019V42.763H37.262Zm24.291,0H50.306V42.763H61.554ZM3.786,29.915h7.127a.864.864,0,1,0,0-1.727H3.786a.864.864,0,1,0,0,1.727Zm48.583,2.94h7.123a.864.864,0,0,0,0-1.727H52.369a.864.864,0,1,0,0,1.727Zm-48.583,0h7.127a.864.864,0,0,0,0-1.727H3.786a.864.864,0,0,0,0,1.727Zm48.583,2.936h7.123a.864.864,0,1,0,0-1.727H52.369a.864.864,0,1,0,0,1.727Zm-24.291,0H35.2a.864.864,0,1,0,0-1.727H28.077a.864.864,0,1,0,0,1.727Zm0,5.879H35.2a.864.864,0,0,0,0-1.727H28.077a.864.864,0,0,0,0,1.727ZM52.369,29.915h7.123a.864.864,0,1,0,0-1.727H52.369a.864.864,0,1,0,0,1.727ZM28.077,38.731H35.2A.864.864,0,0,0,35.2,37H28.077a.864.864,0,0,0,0,1.727Zm0-8.815H35.2a.864.864,0,0,0,0-1.727H28.077a.864.864,0,0,0,0,1.727Zm0,2.94H35.2a.864.864,0,0,0,0-1.727H28.077a.864.864,0,0,0,0,1.727Zm24.291,5.876h7.123a.864.864,0,0,0,0-1.727H52.369a.864.864,0,1,0,0,1.727ZM26.381,12.563a5.259,5.259,0,1,1,5.259,5.259,5.259,5.259,0,0,1-5.259-5.259Zm1.73,0a3.528,3.528,0,1,0,3.529-3.525,3.528,3.528,0,0,0-3.529,3.525Zm.649,44.454a.864.864,0,1,0-1.221,1.221l2.1,2.1a.863.863,0,0,0,1.221,0l4.877-4.877a.864.864,0,0,0-1.221-1.221l-4.266,4.266Z" transform="translate(0 0)"/>
    </g>
  </g>
</svg>
