<svg xmlns="http://www.w3.org/2000/svg" xmlns:xlink="http://www.w3.org/1999/xlink" width="108" height="108" viewBox="0 0 108 108">
  <defs>
    <filter id="Trazado_904820" x="0" y="0" width="108" height="108" filterUnits="userSpaceOnUse">
      <feOffset dy="3" input="SourceAlpha"/>
      <feGaussianBlur stdDeviation="3" result="blur"/>
      <feFlood flood-opacity="0.161"/>
      <feComposite operator="in" in2="blur"/>
      <feComposite in="SourceGraphic"/>
    </filter>
  </defs>
  <g id="Grupo_1180388" data-name="Grupo 1180388" transform="translate(9 6)">
    <g id="Grupo_1178464" data-name="Grupo 1178464" transform="translate(0 0)">
      <g id="Grupo_1173585" data-name="Grupo 1173585">
        <g id="Grupo_1173428" data-name="Grupo 1173428">
          <g id="Grupo_1171958" data-name="Grupo 1171958">
            <g id="Grupo_1167341" data-name="Grupo 1167341">
              <g id="Grupo_1166792" data-name="Grupo 1166792">
                <g transform="matrix(1, 0, 0, 1, -9, -6)" filter="url(#Trazado_904820)">
                  <g id="Trazado_904820-2" data-name="Trazado 904820" transform="translate(9 6)" fill="#e5fdfa">
                    <path d="M 44.99999618530273 88.49999237060547 C 39.12687301635742 88.49999237060547 33.43022155761719 87.35006713867188 28.06829643249512 85.08216857910156 C 22.88852119445801 82.89130401611328 18.23629570007324 79.75457763671875 14.24084663391113 75.75914001464844 C 10.24540901184082 71.76369476318359 7.108683586120605 67.11146545410156 4.917821407318115 61.93169403076172 C 2.649921178817749 56.56976699829102 1.499996185302734 50.87311553955078 1.499996185302734 44.99999237060547 C 1.499996185302734 39.12686920166016 2.649921178817749 33.43021774291992 4.917821407318115 28.06829261779785 C 7.108683586120605 22.88851737976074 10.24540901184082 18.23630523681641 14.24084663391113 14.24085521697998 C 18.23629570007324 10.24540519714355 22.88852119445801 7.108692169189453 28.06829643249512 4.917829990386963 C 33.43022155761719 2.649929761886597 39.12687301635742 1.500004887580872 44.99999618530273 1.500004887580872 C 50.87311935424805 1.500004887580872 56.56977081298828 2.649929761886597 61.93169784545898 4.917829990386963 C 67.11147308349609 7.108692169189453 71.76369476318359 10.24540519714355 75.75914764404297 14.24085521697998 C 79.75458526611328 18.23630523681641 82.89131164550781 22.88851737976074 85.08216857910156 28.06829261779785 C 87.35007476806641 33.43021774291992 88.5 39.12686920166016 88.5 44.99999237060547 C 88.5 50.87311553955078 87.35007476806641 56.56976699829102 85.08216857910156 61.93169403076172 C 82.89131164550781 67.11146545410156 79.75458526611328 71.76369476318359 75.75914764404297 75.75914001464844 C 71.76369476318359 79.75457763671875 67.11147308349609 82.89130401611328 61.93169784545898 85.08216857910156 C 56.56977081298828 87.35006713867188 50.87311935424805 88.49999237060547 44.99999618530273 88.49999237060547 Z" stroke="none"/>
                    <path d="M 44.99999618530273 2.999992370605469 C 39.32870864868164 2.999992370605469 33.82865142822266 4.11004638671875 28.65262603759766 6.299331665039062 C 23.65165710449219 8.414566040039062 19.15968322753906 11.44333648681641 15.301513671875 15.30150604248047 C 11.44333648681641 19.15967559814453 8.414566040039062 23.65164947509766 6.299339294433594 28.65262222290039 C 4.110054016113281 33.82864761352539 2.999992370605469 39.32870483398438 2.999992370605469 44.99999237060547 C 2.999992370605469 50.67127990722656 4.110054016113281 56.17132186889648 6.299339294433594 61.34736633300781 C 8.414566040039062 66.34833526611328 11.44333648681641 70.84029388427734 15.301513671875 74.69846343994141 C 19.15968322753906 78.55663299560547 23.65165710449219 81.58540344238281 28.65262603759766 83.70063781738281 C 33.82865142822266 85.88992309570312 39.32870864868164 86.99997711181641 44.99999618530273 86.99997711181641 C 50.67128372192383 86.99997711181641 56.17134094238281 85.88992309570312 61.34736633300781 83.70063781738281 C 66.34834289550781 81.58540344238281 70.84030914306641 78.55663299560547 74.69847869873047 74.69846343994141 C 78.55665588378906 70.84029388427734 81.58542633056641 66.34833526611328 83.70065307617188 61.34736633300781 C 85.88993835449219 56.17132186889648 87 50.67127990722656 87 44.99999237060547 C 87 39.32870483398438 85.88993835449219 33.82864761352539 83.70065307617188 28.65262222290039 C 81.58542633056641 23.65164947509766 78.55665588378906 19.15967559814453 74.69847869873047 15.30150604248047 C 70.84030914306641 11.44333648681641 66.34834289550781 8.414566040039062 61.34736633300781 6.299331665039062 C 56.17134094238281 4.11004638671875 50.67128372192383 2.999992370605469 44.99999618530273 2.999992370605469 M 44.99999618530273 -7.62939453125e-06 C 69.85281372070312 -7.62939453125e-06 90 20.14717864990234 90 44.99999237060547 C 90 69.85279083251953 69.85281372070312 89.99997711181641 44.99999618530273 89.99997711181641 C 20.14717864990234 89.99997711181641 -7.62939453125e-06 69.85279083251953 -7.62939453125e-06 44.99999237060547 C -7.62939453125e-06 20.14717864990234 20.14717864990234 -7.62939453125e-06 44.99999618530273 -7.62939453125e-06 Z" stroke="none" fill="#088576"/>
                  </g>
                </g>
              </g>
            </g>
          </g>
        </g>
      </g>
    </g>
    <g id="programmer_360487_2_" data-name="programmer_360487 (2)" transform="translate(16.45 16.452)">
      <g id="Grupo_1180386" data-name="Grupo 1180386" transform="translate(45.914 25.68)">
        <path id="Trazado_1042096" data-name="Trazado 1042096" d="M421.721,231.758v1.4H411.7v-1.4a1.472,1.472,0,0,1,1.472-1.472h7.077a1.472,1.472,0,0,1,1.472,1.472Z" transform="translate(-411.7 -230.286)" fill="#ecebed"/>
        <path id="Trazado_1042097" data-name="Trazado 1042097" d="M413.224,347.646h8.5v1.793a1.472,1.472,0,0,1-1.472,1.472h-7.077a1.472,1.472,0,0,1-1.472-1.472v-1.793Z" transform="translate(-411.699 -334.558)" fill="#ecebed"/>
      </g>
      <g id="Grupo_1180387" data-name="Grupo 1180387" transform="translate(1.171 24.677)">
        <rect id="Rectángulo_417524" data-name="Rectángulo 417524" width="10.021" height="10.22" transform="translate(44.744 3.871)" fill="#27b5f7"/>
        <path id="Trazado_1042098" data-name="Trazado 1042098" d="M38.094,222.868v17.874H10.5V222.868a1.541,1.541,0,0,1,1.5-1.576H36.589a1.541,1.541,0,0,1,1.5,1.576Z" transform="translate(-10.499 -221.292)" fill="#27b5f7"/>
      </g>
      <path id="Trazado_1042099" data-name="Trazado 1042099" d="M124.07,319.126v2.27a1.879,1.879,0,0,1-1.156,1.734l-7.5,3.124a4.6,4.6,0,0,0-2.616,4.171v9.044h31.935v-9.044a4.6,4.6,0,0,0-2.616-4.171l-7.5-3.124a1.878,1.878,0,0,1-1.156-1.734v-2.27Z" transform="translate(-100.219 -283.538)" fill="#febba0"/>
      <path id="Trazado_1042100" data-name="Trazado 1042100" d="M142.116,346.1l-7.5-3.124a1.878,1.878,0,0,1-1.142-1.512V342.9a4.726,4.726,0,0,1-4.712,4.712h0a4.726,4.726,0,0,1-4.712-4.712v-1.4a1.878,1.878,0,0,1-1.138,1.483l-7.5,3.124a4.6,4.6,0,0,0-2.616,4.171v9.044h31.935v-9.044A4.6,4.6,0,0,0,142.116,346.1Z" transform="translate(-100.217 -303.387)" fill="#89cd37"/>
      <path id="Trazado_1042101" data-name="Trazado 1042101" d="M162.123,88.741v-3.4a10.466,10.466,0,0,0-20.933,0h-.041v3.4a2.61,2.61,0,0,0,0,5.22V95.91a5.119,5.119,0,0,0,2.14,3.908l6.309,3.607a3.62,3.62,0,0,0,4.074,0l6.29-3.607a5.137,5.137,0,0,0,2.159-3.908V93.961a2.61,2.61,0,1,0,0-5.22Z" transform="translate(-123.089 -66.531)" fill="#febba0"/>
      <path id="Trazado_1042102" data-name="Trazado 1042102" d="M166.217,34.937c-1.974-2.516-4.062-3.053-5.613-2.3a8.92,8.92,0,0,0-6.147-2.1,10.3,10.3,0,0,0-10.749,10.068,16.657,16.657,0,0,0,2.034,8.278s.758-5.318,5.964-5.318a8.68,8.68,0,0,0,7.041-3.077c.622,1.621,3.634,2.3,4.817,3.347a13.98,13.98,0,0,1,3.15,3.689S170.4,40.271,166.217,34.937Z" transform="translate(-127.681 -27.135)" fill="#703e41"/>
      <path id="Trazado_1042103" data-name="Trazado 1042103" d="M104.161,252.068h-.015a1.165,1.165,0,0,1,0-2.33h.015a1.165,1.165,0,0,1,0,2.33Z" transform="translate(-91.496 -221.888)"/>
      <path id="Trazado_1042104" data-name="Trazado 1042104" d="M43.858,252.068H40.533a1.165,1.165,0,0,1,0-2.33h3.325a1.165,1.165,0,0,1,0,2.33Z" transform="translate(-34.978 -221.888)"/>
      <path id="Trazado_1042105" data-name="Trazado 1042105" d="M49.946,313.014H40.533a1.165,1.165,0,0,1,0-2.33h9.412a1.165,1.165,0,0,1,0,2.33Z" transform="translate(-34.978 -276.038)"/>
      <path id="Trazado_1042106" data-name="Trazado 1042106" d="M104.161,282.54h-.015a1.165,1.165,0,0,1,0-2.33h.015a1.165,1.165,0,1,1,0,2.33Z" transform="translate(-91.496 -248.962)"/>
      <path id="Trazado_1042107" data-name="Trazado 1042107" d="M43.858,282.541H40.533a1.165,1.165,0,1,1,0-2.33h3.325a1.165,1.165,0,1,1,0,2.33Z" transform="translate(-34.978 -248.963)"/>
      <path id="Trazado_1042108" data-name="Trazado 1042108" d="M134.673,282.541h-.109a1.165,1.165,0,1,1,0-2.33h.109a1.165,1.165,0,0,1,0,2.33Z" transform="translate(-118.522 -248.963)"/>
      <path id="Trazado_1042109" data-name="Trazado 1042109" d="M1.18,493.415H1.165a1.165,1.165,0,0,1,0-2.33H1.18a1.165,1.165,0,0,1,0,2.33Z" transform="translate(0 -436.32)"/>
      <path id="Trazado_1042110" data-name="Trazado 1042110" d="M492.1,493.415h-.015a1.165,1.165,0,0,1,0-2.33h.015a1.165,1.165,0,1,1,0,2.33Z" transform="translate(-436.167 -436.32)"/>
      <path id="Trazado_1042111" data-name="Trazado 1042111" d="M283.7,214.73a1.3,1.3,0,1,1,1.3-1.3A1.3,1.3,0,0,1,283.7,214.73Z" transform="translate(-250.904 -188.47)"/>
      <path id="Trazado_1042112" data-name="Trazado 1042112" d="M207.5,214.73a1.3,1.3,0,1,1,1.3-1.3A1.3,1.3,0,0,1,207.5,214.73Z" transform="translate(-183.198 -188.47)"/>
      <path id="Trazado_1042113" data-name="Trazado 1042113" d="M237.664,264.819a2.307,2.307,0,0,1-2.3-2.3,1.165,1.165,0,0,1,1.165-1.165H238.8a1.165,1.165,0,0,1,1.165,1.165A2.306,2.306,0,0,1,237.664,264.819Z" transform="translate(-209.112 -232.205)"/>
      <path id="Trazado_1042114" data-name="Trazado 1042114" d="M192.789,418.855a1.162,1.162,0,0,1-.824-.341l-2.617-2.617a1.165,1.165,0,0,1,0-1.648l2.617-2.617a1.165,1.165,0,0,1,1.648,1.648l-1.793,1.793,1.793,1.793a1.165,1.165,0,0,1-.824,1.989Z" transform="translate(-167.928 -365.424)"/>
      <path id="Trazado_1042115" data-name="Trazado 1042115" d="M279.447,418.854a1.165,1.165,0,0,1-.824-1.989l1.793-1.793-1.793-1.793a1.165,1.165,0,1,1,1.648-1.648l2.617,2.617a1.165,1.165,0,0,1,0,1.648l-2.617,2.617A1.161,1.161,0,0,1,279.447,418.854Z" transform="translate(-247.247 -365.424)"/>
      <path id="Trazado_1042116" data-name="Trazado 1042116" d="M242.535,418.643a1.183,1.183,0,0,1-.212-.019,1.165,1.165,0,0,1-.935-1.357l.968-5.26a1.165,1.165,0,0,1,2.292.422l-.968,5.26A1.166,1.166,0,0,1,242.535,418.643Z" transform="translate(-214.45 -365.212)"/>
      <path id="Trazado_1042117" data-name="Trazado 1042117" d="M53.7,73.753a3.519,3.519,0,0,1-3.515-3.515V67.947a3.515,3.515,0,0,1,7.03,0v2.292A3.519,3.519,0,0,1,53.7,73.753Zm0-6.991a1.186,1.186,0,0,0-1.185,1.185v2.292a1.185,1.185,0,1,0,2.369,0V67.947A1.186,1.186,0,0,0,53.7,66.762Z" transform="translate(-44.589 -57.248)"/>
      <path id="Trazado_1042118" data-name="Trazado 1042118" d="M3.583,73.754a1.165,1.165,0,0,1-1.165-1.165V68.411l-.378.378A1.165,1.165,0,0,1,.391,67.141l2.368-2.367a1.165,1.165,0,0,1,1.989.824v6.991A1.165,1.165,0,0,1,3.583,73.754Z" transform="translate(-0.044 -57.249)"/>
      <path id="Trazado_1042119" data-name="Trazado 1042119" d="M402.851,9.34a3.519,3.519,0,0,1-3.515-3.515V3.534a3.515,3.515,0,1,1,7.03,0V5.826A3.519,3.519,0,0,1,402.851,9.34Zm0-6.991a1.186,1.186,0,0,0-1.185,1.185V5.826a1.185,1.185,0,0,0,2.369,0V3.534A1.186,1.186,0,0,0,402.851,2.349Z" transform="translate(-354.801 -0.019)"/>
      <path id="Trazado_1042120" data-name="Trazado 1042120" d="M473.407,9.341a1.165,1.165,0,0,1-1.165-1.165V4l-.378.379a1.165,1.165,0,1,1-1.648-1.648L472.583.36a1.165,1.165,0,0,1,1.989.824V8.176A1.165,1.165,0,0,1,473.407,9.341Z" transform="translate(-417.472 -0.019)"/>
      <path id="Trazado_1042121" data-name="Trazado 1042121" d="M410.965,219.838h-7.077a2.64,2.64,0,0,0-2.637,2.637v13.409a2.64,2.64,0,0,0,2.637,2.637h7.077a2.64,2.64,0,0,0,2.637-2.637V222.475A2.64,2.64,0,0,0,410.965,219.838Zm-7.384,5.2h7.69v7.89h-7.69Zm0-2.562a.307.307,0,0,1,.307-.307h7.077a.307.307,0,0,1,.307.307v.231h-7.69v-.231Zm7.69,13.409a.307.307,0,0,1-.307.307h-7.077a.307.307,0,0,1-.307-.307v-.627h7.69v.627Z" transform="translate(-356.502 -195.323)"/>
      <path id="Trazado_1042122" data-name="Trazado 1042122" d="M52.19,72.617H45.725V64.739a5.742,5.742,0,0,0-3.333-5.246l-7.5-3.124a.711.711,0,0,1-.43-.548c0-.006,0-.011,0-.017a.7.7,0,0,1-.007-.093V53.895L37.5,52.149l.063-.039a6.292,6.292,0,0,0,2.679-4.791c0-.029,0-.059,0-.089v-.967a3.776,3.776,0,0,0,0-7.182V38.5c.665-1.447,3.425-8.253-.747-13.568-1.928-2.457-4.24-3.5-6.322-2.9a10.3,10.3,0,0,0-6.354-1.941A11.46,11.46,0,0,0,14.907,31.323a18.819,18.819,0,0,0,1.682,7.893,3.8,3.8,0,0,0-2.022,2.148H2.72A2.709,2.709,0,0,0,.051,44.1V61.979a1.165,1.165,0,0,0,1.165,1.165H7.785v2.365H6.926a1.165,1.165,0,1,0,0,2.33H11.46v4.777H5a1.165,1.165,0,0,0,0,2.33H52.19a1.165,1.165,0,1,0,0-2.33ZM40.524,42.672a1.446,1.446,0,0,1-1.445,1.445,1.165,1.165,0,0,0-1.165,1.165v1.9a4.01,4.01,0,0,1-1.608,2.964L30.05,53.734l-.063.039a2.465,2.465,0,0,1-2.79,0c-.021-.014-.042-.027-.064-.039L20.86,50.146a3.949,3.949,0,0,1-1.589-2.963v-1.9a1.165,1.165,0,0,0-1.165-1.165,1.444,1.444,0,0,1-.236-2.868l1.29.653a4.833,4.833,0,0,0,9.431,2.119,4.833,4.833,0,0,0,9.435-2.105l1.294-.666A1.446,1.446,0,0,1,40.524,42.672Zm-8.4,12.56v2.129a3.531,3.531,0,1,1-7.062,0V55.233l.885.506a4.792,4.792,0,0,0,5.292,0ZM33.3,38.112a4.842,4.842,0,0,0-4.712,3.76A4.83,4.83,0,0,0,20.2,39.815l-.859-.434a4.826,4.826,0,0,1,4.728-3.933A9.962,9.962,0,0,0,31,32.98a11.12,11.12,0,0,0,2.545,1.532,8.508,8.508,0,0,1,1.612.913,14.566,14.566,0,0,1,2.758,3.129v.8l-.923.475A4.824,4.824,0,0,0,33.3,38.112Zm2.5,4.834a2.5,2.5,0,1,1-2.5-2.5A2.506,2.506,0,0,1,35.807,42.946Zm-9.425,0a2.5,2.5,0,1,1-2.5-2.5A2.506,2.506,0,0,1,26.382,42.946Zm.439-20.526a7.715,7.715,0,0,1,5.39,1.82,1.165,1.165,0,0,0,1.267.162c1.2-.582,2.761.154,4.186,1.97h0c2.448,3.118,1.81,7.1,1.1,9.417a19.78,19.78,0,0,0-2.07-2.111,9.594,9.594,0,0,0-2.135-1.262c-.954-.465-2.141-1.043-2.366-1.629a1.165,1.165,0,0,0-1.97-.344,7.569,7.569,0,0,1-6.159,2.673,6.675,6.675,0,0,0-5.919,3.2c-.041.065-.08.129-.119.194a17.094,17.094,0,0,1-.794-5.19C17.237,26.947,20.822,22.421,26.822,22.421ZM11.46,64.739v.771H10.115V63.144h1.57A5.823,5.823,0,0,0,11.46,64.739Zm1.5-3.925H2.381V44.1a.385.385,0,0,1,.339-.411H14.474a3.79,3.79,0,0,0,2.466,2.569v.967c0,.03,0,.059,0,.089A6.285,6.285,0,0,0,19.6,52.11l.064.039L22.731,53.9v1.809a.712.712,0,0,1-.439.658l-7.5,3.125A5.109,5.109,0,0,0,12.964,60.814Zm30.431,11.8H13.79V64.739a3.454,3.454,0,0,1,1.9-3.1l7.17-2.987a5.876,5.876,0,0,0,11.464,0L41.5,61.644a3.454,3.454,0,0,1,1.9,3.1v7.878Z" transform="translate(-0.045 -17.852)"/>
    </g>
  </g>
</svg>
