<svg xmlns="http://www.w3.org/2000/svg" xmlns:xlink="http://www.w3.org/1999/xlink" width="118" height="118" viewBox="0 0 118 118">
  <defs>
    <filter id="Trazado_982547" x="0" y="0" width="118" height="118" filterUnits="userSpaceOnUse">
      <feOffset dy="3" input="SourceAlpha"/>
      <feGaussianBlur stdDeviation="3" result="blur"/>
      <feFlood flood-opacity="0.161"/>
      <feComposite operator="in" in2="blur"/>
      <feComposite in="SourceGraphic"/>
    </filter>
  </defs>
  <g id="Grupo_1204541" data-name="Grupo 1204541" transform="translate(-269 -6835.289)">
    <g id="Grupo_1204495" data-name="Grupo 1204495" transform="translate(-472 5579.289)">
      <g id="Grupo_1179137" data-name="Grupo 1179137" transform="translate(-2.25 571)">
        <g id="Grupo_1177987" data-name="Grupo 1177987" transform="translate(752.25 691)">
          <g id="Grupo_1177681" data-name="Grupo 1177681">
            <g id="Grupo_1172010" data-name="Grupo 1172010">
              <g id="Grupo_1171046" data-name="Grupo 1171046">
                <g id="Grupo_1148525" data-name="Grupo 1148525">
                  <g transform="matrix(1, 0, 0, 1, -9, -6)" filter="url(#Trazado_982547)">
                    <g id="Trazado_982547-2" data-name="Trazado 982547" transform="translate(9 6)" fill="#fdf4ce">
                      <path d="M 50 98.5 C 43.45188522338867 98.5 37.10042953491211 97.21787261962891 31.12207221984863 94.68923950195312 C 25.34690093994141 92.24655914306641 20.15995788574219 88.74931335449219 15.70531463623047 84.29468536376953 C 11.2506856918335 79.84004211425781 7.753442764282227 74.65309906005859 5.310757160186768 68.8779296875 C 2.782128572463989 62.89957046508789 1.5 56.54811477661133 1.5 50 C 1.5 43.45188522338867 2.782128572463989 37.10042953491211 5.310757160186768 31.12207221984863 C 7.753442764282227 25.34691429138184 11.2506856918335 20.15997123718262 15.70531463623047 15.70532894134521 C 20.15995788574219 11.2506856918335 25.34690093994141 7.753442764282227 31.12207221984863 5.310757160186768 C 37.10042953491211 2.782128572463989 43.45188522338867 1.5 50 1.5 C 56.54811477661133 1.5 62.89957046508789 2.782128572463989 68.8779296875 5.310757160186768 C 74.65309906005859 7.753442764282227 79.84004211425781 11.2506856918335 84.29468536376953 15.70532894134521 C 88.74931335449219 20.15997123718262 92.24655914306641 25.34691429138184 94.68923950195312 31.12207221984863 C 97.21787261962891 37.10042953491211 98.5 43.45188522338867 98.5 50 C 98.5 56.54811477661133 97.21787261962891 62.89957046508789 94.68923950195312 68.8779296875 C 92.24655914306641 74.65309906005859 88.74931335449219 79.84004211425781 84.29468536376953 84.29468536376953 C 79.84004211425781 88.74931335449219 74.65309906005859 92.24655914306641 68.8779296875 94.68923950195312 C 62.89957046508789 97.21787261962891 56.54811477661133 98.5 50 98.5 Z" stroke="none"/>
                      <path d="M 50 3 C 43.65372467041016 3 37.49886322021484 4.242263793945312 31.70639801025391 6.6922607421875 C 26.11003112792969 9.059326171875 21.08333587646484 12.44861602783203 16.76598358154297 16.76598358154297 C 12.44861602783203 21.08335113525391 9.059326171875 26.11003112792969 6.6922607421875 31.70639801025391 C 4.242263793945312 37.49886322021484 3 43.65372467041016 3 50 C 3 56.34627532958984 4.242263793945312 62.50113677978516 6.6922607421875 68.29360198974609 C 9.059326171875 73.88996887207031 12.44861602783203 78.91666412353516 16.76598358154297 83.23401641845703 C 21.08333587646484 87.55138397216797 26.11003112792969 90.940673828125 31.70639801025391 93.3077392578125 C 37.49886322021484 95.75773620605469 43.65372467041016 97 50 97 C 56.34627532958984 97 62.50113677978516 95.75773620605469 68.29360198974609 93.3077392578125 C 73.88996887207031 90.940673828125 78.91664886474609 87.55138397216797 83.23401641845703 83.23401641845703 C 87.55138397216797 78.91666412353516 90.940673828125 73.88996887207031 93.3077392578125 68.29360198974609 C 95.75773620605469 62.50113677978516 97 56.34627532958984 97 50 C 97 43.65372467041016 95.75773620605469 37.49886322021484 93.3077392578125 31.70639801025391 C 90.940673828125 26.11003112792969 87.55138397216797 21.08335113525391 83.23401641845703 16.76598358154297 C 78.91664886474609 12.44861602783203 73.88996887207031 9.059326171875 68.29360198974609 6.6922607421875 C 62.50113677978516 4.242263793945312 56.34627532958984 3 50 3 M 50 0 C 77.61422729492188 0 100 22.38577270507812 100 50 C 100 77.61424255371094 77.61422729492188 100 50 100 C 22.38575744628906 100 0 77.61424255371094 0 50 C 0 22.38577270507812 22.38575744628906 0 50 0 Z" stroke="none" fill="#866d08"/>
                    </g>
                  </g>
                </g>
              </g>
            </g>
          </g>
        </g>
      </g>
    </g>
    <g id="svg_1892464" transform="translate(294 6859.824)">
      <path id="Trazado_1049388" data-name="Trazado 1049388" d="M92.9,67.855H55.028a9.059,9.059,0,0,0-9.059,9.059v37.793h55.988V76.915A9.059,9.059,0,0,0,92.9,67.855Zm0,0" transform="translate(-39.864 -58.41)" fill="#efe1f9"/>
      <path id="Trazado_1049389" data-name="Trazado 1049389" d="M45.969,383.18h55.988v5H45.969Zm0,0" transform="translate(-39.863 -331.855)" fill="#d7c6e5"/>
      <path id="Trazado_1049390" data-name="Trazado 1049390" d="M58.1,67.855a9.06,9.06,0,0,0-9.059,9.06v37.792H46.715V76.915a9.06,9.06,0,0,1,9.06-9.06Zm0,0" transform="translate(-40.51 -58.41)" fill="#d7c6e5"/>
      <path id="Trazado_1049391" data-name="Trazado 1049391" d="M126.488,141.677H91.395a5.09,5.09,0,0,1-5.09-5.09V113.282a5.09,5.09,0,0,1,5.09-5.09h35.093a5.09,5.09,0,0,1,5.09,5.09v23.306A5.09,5.09,0,0,1,126.488,141.677Zm0,0" transform="translate(-74.842 -93.389)" fill="#c3edfc"/>
      <path id="Trazado_1049392" data-name="Trazado 1049392" d="M70.971,400.66H12.959a3.888,3.888,0,1,0,0,7.776H70.971a3.888,3.888,0,1,0,0-7.776Zm0,0" transform="translate(-7.866 -347.014)" fill="#efe1f9"/>
      <path id="Trazado_1049393" data-name="Trazado 1049393" d="M74.35,406.479a3.887,3.887,0,0,1-3.379,1.964H12.959a3.887,3.887,0,1,1,0-7.775h1.62a3.887,3.887,0,0,0,3.379,5.811Zm0,0" transform="translate(-7.865 -347.021)" fill="#d7c6e5"/>
      <path id="Trazado_1049394" data-name="Trazado 1049394" d="M191.386,404.548H176.927a3.888,3.888,0,0,1-3.888-3.888h22.234A3.887,3.887,0,0,1,191.386,404.548Zm0,0" transform="translate(-150.057 -347.014)" fill="#d7c6e5"/>
      <path id="Trazado_1049395" data-name="Trazado 1049395" d="M344.492,8.082h-14.75a4.418,4.418,0,0,0-4.419,4.419V22.683a4.418,4.418,0,0,0,4.419,4.419h14.75a4.419,4.419,0,0,0,4.419-4.419V12.5A4.419,4.419,0,0,0,344.492,8.082Zm0,0" transform="translate(-282.116 -6.575)" fill="#ff557e"/>
      <path id="Trazado_1049396" data-name="Trazado 1049396" d="M318.545,208.773H306.953a3.706,3.706,0,0,0-3.706,3.706v9.2a3.706,3.706,0,0,0,3.706,3.706h11.593a3.706,3.706,0,0,0,3.706-3.706v-9.2A3.706,3.706,0,0,0,318.545,208.773Zm0,0" transform="translate(-262.971 -180.612)" fill="#80e29d"/>
      <path id="Trazado_1049397" data-name="Trazado 1049397" d="M35.323,134.3H13.469a5.887,5.887,0,0,0-5.887,5.887V152.09a5.887,5.887,0,0,0,5.887,5.887H35.323a5.887,5.887,0,0,0,5.887-5.887V140.184A5.887,5.887,0,0,0,35.323,134.3Zm0,0" transform="translate(-6.575 -116.027)" fill="#617ed1"/>
      <path id="Trazado_1049398" data-name="Trazado 1049398" d="M63.106,52.639H63.1V21.484a5.433,5.433,0,0,0,4.7-5.376V5.925A5.432,5.432,0,0,0,62.376.5H47.626A5.432,5.432,0,0,0,42.2,5.925V8.438H25.547a1.007,1.007,0,1,0,0,2.014H42.2V13.8H16.553a6.094,6.094,0,0,0-5.5,3.468H7.21a8.052,8.052,0,0,1,7.955-6.811h6.354a1.007,1.007,0,0,0,0-2.014H15.165A10.061,10.061,0,0,0,5.154,17.486,6.906,6.906,0,0,0,0,24.157V36.063a6.905,6.905,0,0,0,5.1,6.655v9.922H5.093a4.895,4.895,0,1,0,0,9.79H53.456a1.007,1.007,0,1,0,0-2.013H5.093a2.881,2.881,0,1,1,0-5.762H22.08a4.9,4.9,0,0,0,4.79,3.887H41.328a4.9,4.9,0,0,0,4.79-3.887H63.105a2.881,2.881,0,0,1,0,5.762H57.484a1.007,1.007,0,1,0,0,2.013h5.622a4.895,4.895,0,1,0,0-9.79ZM47.626,2.514h14.75a3.416,3.416,0,0,1,3.412,3.412V16.108a3.416,3.416,0,0,1-3.412,3.412H47.626a3.415,3.415,0,0,1-3.412-3.412V5.925A3.415,3.415,0,0,1,47.626,2.514Zm-31.073,13.3H42.2v.3a5.431,5.431,0,0,0,5.426,5.426h8.1v5.625c-.052,0-.1,0-.155,0H43.981a4.719,4.719,0,0,0-4.713,4.713v9.2a4.719,4.719,0,0,0,4.713,4.713H54.807a4.107,4.107,0,0,1-3.161,1.5H16.553A4.087,4.087,0,0,1,12.47,43.2v-.242H28.748a6.9,6.9,0,0,0,6.894-6.894V24.157a6.9,6.9,0,0,0-6.894-6.894H13.429a4.082,4.082,0,0,1,3.124-1.454ZM55.574,43.763H43.982a2.7,2.7,0,0,1-2.7-2.7v-9.2a2.7,2.7,0,0,1,2.7-2.7H55.574a2.7,2.7,0,0,1,2.7,2.7v9.2A2.7,2.7,0,0,1,55.574,43.763Zm-53.56-7.7V24.157a4.885,4.885,0,0,1,4.88-4.88H28.749a4.886,4.886,0,0,1,4.88,4.88V36.063a4.886,4.886,0,0,1-4.88,4.88H6.894a4.885,4.885,0,0,1-4.88-4.88Zm5.1,6.894h3.343V43.2a6.1,6.1,0,0,0,6.1,6.1H51.646a6.138,6.138,0,0,0,5.669-3.853,4.719,4.719,0,0,0,2.972-4.379v-9.2a4.718,4.718,0,0,0-2.545-4.183V21.534h3.343V52.639H7.113ZM41.328,56.527H26.87a2.887,2.887,0,0,1-2.7-1.873H44.028a2.886,2.886,0,0,1-2.7,1.873Zm0,0"/>
      <path id="Trazado_1049399" data-name="Trazado 1049399" d="M202.769,166.947h2.273a1.007,1.007,0,0,0,0-2.013h-2.273a1.007,1.007,0,1,0,0,2.013Zm0,0" transform="translate(-174.965 -142.595)"/>
      <path id="Trazado_1049400" data-name="Trazado 1049400" d="M106.964,166.947h9.108a1.007,1.007,0,1,0,0-2.013h-9.108a1.007,1.007,0,1,0,0,2.013Zm0,0" transform="translate(-91.884 -142.595)"/>
      <path id="Trazado_1049401" data-name="Trazado 1049401" d="M35.327,166.947h5.9a1.007,1.007,0,1,0,0-2.013h-5.9a1.007,1.007,0,1,0,0,2.013Zm0,0" transform="translate(-29.762 -142.595)"/>
      <path id="Trazado_1049402" data-name="Trazado 1049402" d="M147.384,266.793h-11.1a1.007,1.007,0,1,0,0,2.013h11.1a1.007,1.007,0,0,0,0-2.013Zm0,0" transform="translate(-117.307 -230.926)"/>
      <path id="Trazado_1049403" data-name="Trazado 1049403" d="M84.15,266.793H80.811a1.007,1.007,0,1,0,0,2.013H84.15a1.007,1.007,0,1,0,0-2.013Zm0,0" transform="translate(-69.205 -230.926)"/>
      <path id="Trazado_1049404" data-name="Trazado 1049404" d="M38.348,267.8a1.007,1.007,0,0,0-1.007-1.006H35.327a1.007,1.007,0,1,0,0,2.013h2.013A1.007,1.007,0,0,0,38.348,267.8Zm0,0" transform="translate(-29.762 -230.926)"/>
      <path id="Trazado_1049405" data-name="Trazado 1049405" d="M191.113,232.836h-4.407a1.007,1.007,0,1,0,0,2.014h4.407a1.007,1.007,0,0,0,0-2.014Zm0,0" transform="translate(-161.036 -201.479)"/>
      <path id="Trazado_1049406" data-name="Trazado 1049406" d="M35.327,234.85H51.4a1.007,1.007,0,0,0,0-2.014H35.327a1.007,1.007,0,0,0,0,2.014Zm0,0" transform="translate(-29.762 -201.479)"/>
      <path id="Trazado_1049407" data-name="Trazado 1049407" d="M86.949,199.894a1.007,1.007,0,0,0,1.007,1.006h17.522a1.007,1.007,0,0,0,0-2.013H87.956A1.007,1.007,0,0,0,86.949,199.894Zm0,0" transform="translate(-75.401 -172.039)"/>
      <path id="Trazado_1049408" data-name="Trazado 1049408" d="M35.327,200.9h2.962a1.007,1.007,0,1,0,0-2.013H35.327a1.007,1.007,0,1,0,0,2.013Zm0,0" transform="translate(-29.762 -172.039)"/>
      <path id="Trazado_1049409" data-name="Trazado 1049409" d="M434.554,49.735a1.008,1.008,0,0,0,1.424,0l4.357-4.357a1.006,1.006,0,0,0,0-1.424L435.978,39.6a1.007,1.007,0,0,0-1.424,1.424l3.645,3.645-3.645,3.645a1.007,1.007,0,0,0,0,1.424Zm0,0" transform="translate(-376.584 -33.65)"/>
      <path id="Trazado_1049410" data-name="Trazado 1049410" d="M350.667,49.735a1.007,1.007,0,0,0,1.425-1.424l-3.645-3.645,3.645-3.645a1.007,1.007,0,0,0-1.424-1.424l-4.357,4.356a1.006,1.006,0,0,0,0,1.424Zm0,0" transform="translate(-300.06 -33.65)"/>
      <path id="Trazado_1049411" data-name="Trazado 1049411" d="M396.809,37.478a.994.994,0,0,0,.209.022,1.007,1.007,0,0,0,.984-.8l2.8-13.244a1.007,1.007,0,1,0-1.97-.416l-2.8,13.244A1.006,1.006,0,0,0,396.809,37.478Zm0,0" transform="translate(-343.414 -18.854)"/>
      <path id="Trazado_1049412" data-name="Trazado 1049412" d="M349.588,232.58a1.008,1.008,0,0,0-1.367.4l-4.123,7.563-2.4-2.783a1.007,1.007,0,1,0-1.525,1.315l3.35,3.885a1.01,1.01,0,0,0,.763.349,1.054,1.054,0,0,0,.107-.006,1.007,1.007,0,0,0,.778-.519l4.82-8.84A1.007,1.007,0,0,0,349.588,232.58Zm0,0" transform="translate(-294.781 -201.15)"/>
    </g>
  </g>
</svg>
