<svg xmlns="http://www.w3.org/2000/svg" xmlns:xlink="http://www.w3.org/1999/xlink" width="118" height="118" viewBox="0 0 118 118">
  <defs>
    <filter id="Trazado_982547" x="0" y="0" width="118" height="118" filterUnits="userSpaceOnUse">
      <feOffset dy="3" input="SourceAlpha"/>
      <feGaussianBlur stdDeviation="3" result="blur"/>
      <feFlood flood-opacity="0.161"/>
      <feComposite operator="in" in2="blur"/>
      <feComposite in="SourceGraphic"/>
    </filter>
  </defs>
  <g id="Grupo_1204546" data-name="Grupo 1204546" transform="translate(-584 -6835.289)">
    <g id="Grupo_1204496" data-name="Grupo 1204496" transform="translate(-157 5579.289)">
      <g id="Grupo_1179137" data-name="Grupo 1179137" transform="translate(-2.25 571)">
        <g id="Grupo_1177987" data-name="Grupo 1177987" transform="translate(752.25 691)">
          <g id="Grupo_1177681" data-name="Grupo 1177681">
            <g id="Grupo_1172010" data-name="Grupo 1172010">
              <g id="Grupo_1171046" data-name="Grupo 1171046">
                <g id="Grupo_1148525" data-name="Grupo 1148525">
                  <g transform="matrix(1, 0, 0, 1, -9, -6)" filter="url(#Trazado_982547)">
                    <g id="Trazado_982547-2" data-name="Trazado 982547" transform="translate(9 6)" fill="#fdf4ce">
                      <path d="M 50 98.5 C 43.45188522338867 98.5 37.10042953491211 97.21787261962891 31.12207221984863 94.68923950195312 C 25.34690093994141 92.24655914306641 20.15995788574219 88.74931335449219 15.70531463623047 84.29468536376953 C 11.2506856918335 79.84004211425781 7.753442764282227 74.65309906005859 5.310757160186768 68.8779296875 C 2.782128572463989 62.89957046508789 1.5 56.54811477661133 1.5 50 C 1.5 43.45188522338867 2.782128572463989 37.10042953491211 5.310757160186768 31.12207221984863 C 7.753442764282227 25.34691429138184 11.2506856918335 20.15997123718262 15.70531463623047 15.70532894134521 C 20.15995788574219 11.2506856918335 25.34690093994141 7.753442764282227 31.12207221984863 5.310757160186768 C 37.10042953491211 2.782128572463989 43.45188522338867 1.5 50 1.5 C 56.54811477661133 1.5 62.89957046508789 2.782128572463989 68.8779296875 5.310757160186768 C 74.65309906005859 7.753442764282227 79.84004211425781 11.2506856918335 84.29468536376953 15.70532894134521 C 88.74931335449219 20.15997123718262 92.24655914306641 25.34691429138184 94.68923950195312 31.12207221984863 C 97.21787261962891 37.10042953491211 98.5 43.45188522338867 98.5 50 C 98.5 56.54811477661133 97.21787261962891 62.89957046508789 94.68923950195312 68.8779296875 C 92.24655914306641 74.65309906005859 88.74931335449219 79.84004211425781 84.29468536376953 84.29468536376953 C 79.84004211425781 88.74931335449219 74.65309906005859 92.24655914306641 68.8779296875 94.68923950195312 C 62.89957046508789 97.21787261962891 56.54811477661133 98.5 50 98.5 Z" stroke="none"/>
                      <path d="M 50 3 C 43.65372467041016 3 37.49886322021484 4.242263793945312 31.70639801025391 6.6922607421875 C 26.11003112792969 9.059326171875 21.08333587646484 12.44861602783203 16.76598358154297 16.76598358154297 C 12.44861602783203 21.08335113525391 9.059326171875 26.11003112792969 6.6922607421875 31.70639801025391 C 4.242263793945312 37.49886322021484 3 43.65372467041016 3 50 C 3 56.34627532958984 4.242263793945312 62.50113677978516 6.6922607421875 68.29360198974609 C 9.059326171875 73.88996887207031 12.44861602783203 78.91666412353516 16.76598358154297 83.23401641845703 C 21.08333587646484 87.55138397216797 26.11003112792969 90.940673828125 31.70639801025391 93.3077392578125 C 37.49886322021484 95.75773620605469 43.65372467041016 97 50 97 C 56.34627532958984 97 62.50113677978516 95.75773620605469 68.29360198974609 93.3077392578125 C 73.88996887207031 90.940673828125 78.91664886474609 87.55138397216797 83.23401641845703 83.23401641845703 C 87.55138397216797 78.91666412353516 90.940673828125 73.88996887207031 93.3077392578125 68.29360198974609 C 95.75773620605469 62.50113677978516 97 56.34627532958984 97 50 C 97 43.65372467041016 95.75773620605469 37.49886322021484 93.3077392578125 31.70639801025391 C 90.940673828125 26.11003112792969 87.55138397216797 21.08335113525391 83.23401641845703 16.76598358154297 C 78.91664886474609 12.44861602783203 73.88996887207031 9.059326171875 68.29360198974609 6.6922607421875 C 62.50113677978516 4.242263793945312 56.34627532958984 3 50 3 M 50 0 C 77.61422729492188 0 100 22.38577270507812 100 50 C 100 77.61424255371094 77.61422729492188 100 50 100 C 22.38575744628906 100 0 77.61424255371094 0 50 C 0 22.38577270507812 22.38575744628906 0 50 0 Z" stroke="none" fill="#866d08"/>
                    </g>
                  </g>
                </g>
              </g>
            </g>
          </g>
        </g>
      </g>
    </g>
    <g id="_55-Programmer" data-name="55-Programmer" transform="translate(611 6859)">
      <path id="Trazado_1049413" data-name="Trazado 1049413" d="M55,9V23H45l-4,3V23H35V9Z" fill="#fff"/>
      <path id="Trazado_1049414" data-name="Trazado 1049414" d="M35,1H55V9H35Z" fill="#73c6b2"/>
      <path id="Trazado_1049415" data-name="Trazado 1049415" d="M38,12H52v8H38Z" fill="#dfe1ea"/>
      <path id="Trazado_1049416" data-name="Trazado 1049416" d="M27,28a2,2,0,0,1,0,4H26V28Z" fill="#ffcdbe"/>
      <path id="Trazado_1049417" data-name="Trazado 1049417" d="M12,29V23c0-6,5-6,5-6h5c7,0,7,8,7,8H18C18,28,12,29,12,29Z" fill="#b46e5a"/>
      <path id="Trazado_1049418" data-name="Trazado 1049418" d="M12,29v3H11a2,2,0,0,1,0-4h1Z" fill="#ffcdbe"/>
      <path id="Trazado_1049419" data-name="Trazado 1049419" d="M16,38.33A6.592,6.592,0,0,1,14,37c-2-2-2-3-2-3V29s6-1,6-4h8v9s0,1-2,3a6.592,6.592,0,0,1-2,1.33A8.459,8.459,0,0,1,19,39a8.459,8.459,0,0,1-3-.67Z" fill="#ffcdbe"/>
      <path id="Trazado_1049420" data-name="Trazado 1049420" d="M22,41v1a3,3,0,0,1-6,0V38.33A8.459,8.459,0,0,0,19,39a8.459,8.459,0,0,0,3-.67Z" fill="#ffbeaa"/>
      <path id="Trazado_1049421" data-name="Trazado 1049421" d="M19,45a2.938,2.938,0,0,0,3-3l3,3s-2,4-6,4Z" fill="#f2f6fc"/>
      <path id="Trazado_1049422" data-name="Trazado 1049422" d="M19,45v4c-4,0-6-4-6-4l3-3a2.938,2.938,0,0,0,3,3Z" fill="#f2f6fc"/>
      <path id="Trazado_1049423" data-name="Trazado 1049423" d="M13,45s2,4,6,4,6-4,6-4l-3-3V41h5s5,0,5,5V63H6V46c0-5,5-5,5-5h5v1Z" fill="#bec3d2"/>
      <path id="Trazado_1049424" data-name="Trazado 1049424" d="M26,25H18c0,3-6,4-6,4v.168A31.292,31.292,0,0,1,15.394,29C21.049,29,22.5,30.106,26,30.673Z" fill="#ffbeaa"/>
      <path id="Trazado_1049425" data-name="Trazado 1049425" d="M12,28v1s6-1,6-4H12Z" fill="#915041"/>
      <path id="Trazado_1049426" data-name="Trazado 1049426" d="M11,41s-5,0-5,5V63h6V41Z" fill="#7e8596"/>
      <path id="Trazado_1049427" data-name="Trazado 1049427" d="M27,41H26V63h6V46C32,41,27,41,27,41Z" fill="#7e8596"/>
      <g id="Grupo_1204542" data-name="Grupo 1204542">
        <path id="Trazado_1049428" data-name="Trazado 1049428" d="M26,29V25" fill="none" stroke="#000" stroke-linejoin="round" stroke-width="2"/>
        <path id="Trazado_1049429" data-name="Trazado 1049429" d="M12,29s6-1,6-4H29s0-8-7-8H17s-5,0-5,6V34s0,1,2,3a7.776,7.776,0,0,0,5,2,8.224,8.224,0,0,0,3-.678" fill="none" stroke="#000" stroke-linejoin="round" stroke-width="2"/>
        <path id="Trazado_1049430" data-name="Trazado 1049430" d="M16,41H11s-5,0-5,5V63H30" fill="none" stroke="#000" stroke-linejoin="round" stroke-width="2"/>
        <path id="Trazado_1049431" data-name="Trazado 1049431" d="M16,38v4a3,3,0,0,0,6,0V38" fill="none" stroke="#000" stroke-linejoin="round" stroke-width="2"/>
        <path id="Trazado_1049432" data-name="Trazado 1049432" d="M12,63V50" fill="none" stroke="#000" stroke-linejoin="round" stroke-width="2"/>
        <path id="Trazado_1049433" data-name="Trazado 1049433" d="M26,63V55" fill="none" stroke="#000" stroke-linejoin="round" stroke-width="2"/>
        <path id="Trazado_1049434" data-name="Trazado 1049434" d="M16,42l-3,3s2,4,6,4V45" fill="none" stroke="#000" stroke-linejoin="round" stroke-width="2"/>
        <path id="Trazado_1049435" data-name="Trazado 1049435" d="M19,49V45" fill="none" stroke="#000" stroke-linejoin="round" stroke-width="2"/>
        <path id="Trazado_1049436" data-name="Trazado 1049436" d="M19,49V59" fill="none" stroke="#000" stroke-linejoin="round" stroke-width="2"/>
        <path id="Trazado_1049437" data-name="Trazado 1049437" d="M12,28H11a2,2,0,0,0,0,4h1" fill="none" stroke="#000" stroke-linejoin="round" stroke-width="2"/>
      </g>
      <g id="_Group_">
        <path id="Trazado_1049438" data-name="Trazado 1049438" d="M44,55l1,8H35l1-8Z" fill="#afb4c8"/>
        <circle id="Elipse_12949" data-name="Elipse 12949" cx="2" cy="2" r="2" transform="translate(38 41)" fill="#afb4c8"/>
        <path id="Trazado_1049439" data-name="Trazado 1049439" d="M58,29V55H22V29ZM42,43a2,2,0,1,0-2,2,2,2,0,0,0,2-2Z" fill="#dce1eb"/>
        <path id="Trazado_1049440" data-name="Trazado 1049440" d="M22,33.694A25.327,25.327,0,0,1,28.394,33c7.6,0,7.6,2,15.2,2,7.318,0,7.611-1.849,14.4-1.987V29H22Z" fill="#f6fafd"/>
        <path id="Trazado_1049441" data-name="Trazado 1049441" d="M36,55l-.373,2.984c.314.008.625.016.968.016a25.913,25.913,0,0,0,7.654-1.008L44,55Z" fill="#7e8596"/>
        <g id="Grupo_1204543" data-name="Grupo 1204543">
          <path id="Trazado_1049442" data-name="Trazado 1049442" d="M36,55H22V29H58V55H44" fill="none" stroke="#000" stroke-linejoin="round" stroke-width="2"/>
          <path id="Trazado_1049443" data-name="Trazado 1049443" d="M35,63l1-8h8l1,8" fill="none" stroke="#000" stroke-linejoin="round" stroke-width="2"/>
          <path id="Trazado_1049444" data-name="Trazado 1049444" d="M32,63H48" fill="none" stroke="#000" stroke-linejoin="round" stroke-width="2"/>
          <circle id="Elipse_12950" data-name="Elipse 12950" cx="2" cy="2" r="2" transform="translate(38 41)" fill="none" stroke="#000" stroke-linejoin="round" stroke-width="2"/>
        </g>
      </g>
      <g id="Grupo_1204545" data-name="Grupo 1204545">
        <path id="Trazado_1049445" data-name="Trazado 1049445" d="M35,9H55" fill="none" stroke="#000" stroke-linejoin="round" stroke-width="2"/>
        <path id="Trazado_1049446" data-name="Trazado 1049446" d="M38,5h2" fill="none" stroke="#fff" stroke-linejoin="round" stroke-width="2"/>
        <path id="Trazado_1049447" data-name="Trazado 1049447" d="M42,5h2" fill="none" stroke="#fff" stroke-linejoin="round" stroke-width="2"/>
        <g id="Grupo_1204544" data-name="Grupo 1204544">
          <path id="Trazado_1049448" data-name="Trazado 1049448" d="M43,13l-3,3,3,3" fill="none" stroke="#000" stroke-linejoin="round" stroke-width="2"/>
          <path id="Trazado_1049449" data-name="Trazado 1049449" d="M47,19l3-3-3-3" fill="none" stroke="#000" stroke-linejoin="round" stroke-width="2"/>
          <path id="Trazado_1049450" data-name="Trazado 1049450" d="M35,1V23h6v3l4-3H55V1Z" fill="none" stroke="#000" stroke-linejoin="round" stroke-width="2"/>
          <path id="Trazado_1049451" data-name="Trazado 1049451" d="M27,13h2s-1-5,2-5V7" fill="none" stroke="#000" stroke-linejoin="round" stroke-width="2"/>
          <path id="Trazado_1049452" data-name="Trazado 1049452" d="M27,1h2s-1,5,2,5V7" fill="none" stroke="#000" stroke-linejoin="round" stroke-width="2"/>
          <path id="Trazado_1049453" data-name="Trazado 1049453" d="M19,7h2" fill="none" stroke="#000" stroke-linejoin="round" stroke-width="2"/>
          <path id="Trazado_1049454" data-name="Trazado 1049454" d="M15,7h2" fill="none" stroke="#000" stroke-linejoin="round" stroke-width="2"/>
          <path id="Trazado_1049455" data-name="Trazado 1049455" d="M23,7h2" fill="none" stroke="#000" stroke-linejoin="round" stroke-width="2"/>
          <path id="Trazado_1049456" data-name="Trazado 1049456" d="M13,1H11s1,5-2,5V7" fill="none" stroke="#000" stroke-linejoin="round" stroke-width="2"/>
          <path id="Trazado_1049457" data-name="Trazado 1049457" d="M13,13H11s1-5-2-5V7" fill="none" stroke="#000" stroke-linejoin="round" stroke-width="2"/>
        </g>
      </g>
    </g>
  </g>
</svg>
