<svg xmlns="http://www.w3.org/2000/svg" xmlns:xlink="http://www.w3.org/1999/xlink" width="118" height="118" viewBox="0 0 118 118">
  <defs>
    <filter id="Trazado_982547" x="0" y="0" width="118" height="118" filterUnits="userSpaceOnUse">
      <feOffset dy="3" input="SourceAlpha"/>
      <feGaussianBlur stdDeviation="3" result="blur"/>
      <feFlood flood-opacity="0.161"/>
      <feComposite operator="in" in2="blur"/>
      <feComposite in="SourceGraphic"/>
    </filter>
  </defs>
  <g id="Grupo_1204558" data-name="Grupo 1204558" transform="translate(-899 -8192)">
    <g id="Grupo_1204438" data-name="Grupo 1204438" transform="translate(158 6936)">
      <g id="Grupo_1179137" data-name="Grupo 1179137" transform="translate(-2.25 571)">
        <g id="Grupo_1177987" data-name="Grupo 1177987" transform="translate(752.25 691)">
          <g id="Grupo_1177681" data-name="Grupo 1177681">
            <g id="Grupo_1172010" data-name="Grupo 1172010">
              <g id="Grupo_1171046" data-name="Grupo 1171046">
                <g id="Grupo_1148525" data-name="Grupo 1148525">
                  <g transform="matrix(1, 0, 0, 1, -9, -6)" filter="url(#Trazado_982547)">
                    <g id="Trazado_982547-2" data-name="Trazado 982547" transform="translate(9 6)" fill="#fdf4ce">
                      <path d="M 50 98.5 C 43.45188522338867 98.5 37.10042953491211 97.21787261962891 31.12207221984863 94.68923950195312 C 25.34690093994141 92.24655914306641 20.15995788574219 88.74931335449219 15.70531463623047 84.29468536376953 C 11.2506856918335 79.84004211425781 7.753442764282227 74.65309906005859 5.310757160186768 68.8779296875 C 2.782128572463989 62.89957046508789 1.5 56.54811477661133 1.5 50 C 1.5 43.45188522338867 2.782128572463989 37.10042953491211 5.310757160186768 31.12207221984863 C 7.753442764282227 25.34691429138184 11.2506856918335 20.15997123718262 15.70531463623047 15.70532894134521 C 20.15995788574219 11.2506856918335 25.34690093994141 7.753442764282227 31.12207221984863 5.310757160186768 C 37.10042953491211 2.782128572463989 43.45188522338867 1.5 50 1.5 C 56.54811477661133 1.5 62.89957046508789 2.782128572463989 68.8779296875 5.310757160186768 C 74.65309906005859 7.753442764282227 79.84004211425781 11.2506856918335 84.29468536376953 15.70532894134521 C 88.74931335449219 20.15997123718262 92.24655914306641 25.34691429138184 94.68923950195312 31.12207221984863 C 97.21787261962891 37.10042953491211 98.5 43.45188522338867 98.5 50 C 98.5 56.54811477661133 97.21787261962891 62.89957046508789 94.68923950195312 68.8779296875 C 92.24655914306641 74.65309906005859 88.74931335449219 79.84004211425781 84.29468536376953 84.29468536376953 C 79.84004211425781 88.74931335449219 74.65309906005859 92.24655914306641 68.8779296875 94.68923950195312 C 62.89957046508789 97.21787261962891 56.54811477661133 98.5 50 98.5 Z" stroke="none"/>
                      <path d="M 50 3 C 43.65372467041016 3 37.49886322021484 4.242263793945312 31.70639801025391 6.6922607421875 C 26.11003112792969 9.059326171875 21.08333587646484 12.44861602783203 16.76598358154297 16.76598358154297 C 12.44861602783203 21.08335113525391 9.059326171875 26.11003112792969 6.6922607421875 31.70639801025391 C 4.242263793945312 37.49886322021484 3 43.65372467041016 3 50 C 3 56.34627532958984 4.242263793945312 62.50113677978516 6.6922607421875 68.29360198974609 C 9.059326171875 73.88996887207031 12.44861602783203 78.91666412353516 16.76598358154297 83.23401641845703 C 21.08333587646484 87.55138397216797 26.11003112792969 90.940673828125 31.70639801025391 93.3077392578125 C 37.49886322021484 95.75773620605469 43.65372467041016 97 50 97 C 56.34627532958984 97 62.50113677978516 95.75773620605469 68.29360198974609 93.3077392578125 C 73.88996887207031 90.940673828125 78.91664886474609 87.55138397216797 83.23401641845703 83.23401641845703 C 87.55138397216797 78.91666412353516 90.940673828125 73.88996887207031 93.3077392578125 68.29360198974609 C 95.75773620605469 62.50113677978516 97 56.34627532958984 97 50 C 97 43.65372467041016 95.75773620605469 37.49886322021484 93.3077392578125 31.70639801025391 C 90.940673828125 26.11003112792969 87.55138397216797 21.08335113525391 83.23401641845703 16.76598358154297 C 78.91664886474609 12.44861602783203 73.88996887207031 9.059326171875 68.29360198974609 6.6922607421875 C 62.50113677978516 4.242263793945312 56.34627532958984 3 50 3 M 50 0 C 77.61422729492188 0 100 22.38577270507812 100 50 C 100 77.61424255371094 77.61422729492188 100 50 100 C 22.38575744628906 100 0 77.61424255371094 0 50 C 0 22.38577270507812 22.38575744628906 0 50 0 Z" stroke="none" fill="#866d08"/>
                    </g>
                  </g>
                </g>
              </g>
            </g>
          </g>
        </g>
      </g>
    </g>
    <g id="_20-Project" data-name="20-Project" transform="translate(926 8217)">
      <path id="Trazado_1049289" data-name="Trazado 1049289" d="M3,5H61V55H3Z" fill="#eef3fa"/>
      <path id="Trazado_1049290" data-name="Trazado 1049290" d="M34,14H56V27H34Z" fill="#dae1e9"/>
      <path id="Trazado_1049291" data-name="Trazado 1049291" d="M53,14h3V27H53Z" fill="#d1cddf"/>
      <path id="Trazado_1049292" data-name="Trazado 1049292" d="M34,9H56v5H34Z" fill="#3ad6ff"/>
      <path id="Trazado_1049293" data-name="Trazado 1049293" d="M51,9h5v5H51Z" fill="#31c4ff"/>
      <path id="Trazado_1049294" data-name="Trazado 1049294" d="M34,9h5v5H34Z" fill="#31c4ff"/>
      <path id="Trazado_1049295" data-name="Trazado 1049295" d="M25,24v3H21V24h4Z" fill="#79787d"/>
      <path id="Trazado_1049296" data-name="Trazado 1049296" d="M23,10a6,6,0,0,1,6,6c0,4-4,6-4,8H21c0-2-4-4-4-8a6,6,0,0,1,6-6Z" fill="#ffd64a"/>
      <path id="Trazado_1049297" data-name="Trazado 1049297" d="M24,10.09A5.967,5.967,0,0,0,17,16c0,4,4,6,4,8h2c0-2-4-4-4-8a6,6,0,0,1,5-5.91Z" fill="#ffdf66"/>
      <path id="Trazado_1049298" data-name="Trazado 1049298" d="M23,10a6,6,0,0,0-1,.09A6,6,0,0,1,27,16c0,4-4,6-4,8h2c0-2,4-4,4-8A6,6,0,0,0,23,10Z" fill="#ffc23b"/>
      <path id="Trazado_1049299" data-name="Trazado 1049299" d="M21,24h2v3H21Z" fill="#9b9a9e"/>
      <path id="Trazado_1049300" data-name="Trazado 1049300" d="M21,45l5-2.5v5Z" fill="#3ad6ff"/>
      <path id="Trazado_1049301" data-name="Trazado 1049301" d="M50,41h4v8H50V41Z" fill="#c0c0d3"/>
      <path id="Trazado_1049302" data-name="Trazado 1049302" d="M26,42.5,29,41l4,4-4,4-3-1.5Z" fill="#ffdaaa"/>
      <path id="Trazado_1049303" data-name="Trazado 1049303" d="M29,41H50v4H33Z" fill="#31c4ff"/>
      <path id="Trazado_1049304" data-name="Trazado 1049304" d="M33,45H50v4H29Z" fill="#3ad6ff"/>
      <path id="Trazado_1049305" data-name="Trazado 1049305" d="M53.5,41.5h8v3a4,4,0,0,1-8,0Z" transform="translate(12.5 102.5) rotate(-90)" fill="#ffdaaa"/>
      <path id="Trazado_1049306" data-name="Trazado 1049306" d="M54,42.5h1.5a4,4,0,0,1,4,4,3.945,3.945,0,0,1-.536,1.964A3.987,3.987,0,0,0,57,41H54Z" fill="#ffb680"/>
      <path id="Trazado_1049307" data-name="Trazado 1049307" d="M26,42.5V45h7l-4-4Z" fill="#ffb680"/>
      <circle id="Elipse_12946" data-name="Elipse 12946" cx="2" cy="2" r="2" transform="translate(30 59)" fill="#3ad6ff"/>
      <path id="Trazado_1049308" data-name="Trazado 1049308" d="M10,53a4.989,4.989,0,0,0-7-4.577V39H7l.31,4.28a9.722,9.722,0,0,1,2.93,1.22l3.25-2.81,2.82,2.82L13.5,47.76a9.722,9.722,0,0,1,1.22,2.93L19,51v4H9.577A4.963,4.963,0,0,0,10,53Z" fill="#3ad6ff"/>
      <path id="Trazado_1049309" data-name="Trazado 1049309" d="M1,1H63V5H1Z" fill="#27f5d1"/>
      <g id="Grupo_1204535" data-name="Grupo 1204535">
        <path id="Trazado_1049310" data-name="Trazado 1049310" d="M1,1H63V5H1Z" fill="none" stroke="#00262f" stroke-linejoin="round" stroke-width="2"/>
        <path id="Trazado_1049311" data-name="Trazado 1049311" d="M61,40V5H3V55H61V50" fill="none" stroke="#00262f" stroke-linejoin="round" stroke-width="2"/>
        <circle id="Elipse_12947" data-name="Elipse 12947" cx="2" cy="2" r="2" transform="translate(30 59)" fill="none" stroke="#00262f" stroke-linejoin="round" stroke-width="2"/>
        <path id="Trazado_1049312" data-name="Trazado 1049312" d="M32,59V55" fill="none" stroke="#00262f" stroke-linejoin="round" stroke-width="2"/>
        <path id="Trazado_1049313" data-name="Trazado 1049313" d="M19,55V51l-4.278-.306A9.936,9.936,0,0,0,13.5,47.757l2.81-3.242-2.829-2.829L10.243,44.5a9.936,9.936,0,0,0-2.937-1.218L7,39H3" fill="none" stroke="#00262f" stroke-linejoin="round" stroke-width="2"/>
        <path id="Trazado_1049314" data-name="Trazado 1049314" d="M5,48a5,5,0,0,1,5,5" fill="none" stroke="#00262f" stroke-linejoin="round" stroke-width="2"/>
        <path id="Trazado_1049315" data-name="Trazado 1049315" d="M29,41H57a4,4,0,0,1,0,8H29l4-4Z" fill="none" stroke="#00262f" stroke-linejoin="round" stroke-width="2"/>
        <path id="Trazado_1049316" data-name="Trazado 1049316" d="M29,41l-8,4,8,4" fill="none" stroke="#00262f" stroke-linejoin="round" stroke-width="2"/>
        <path id="Trazado_1049317" data-name="Trazado 1049317" d="M26,48V42" fill="none" stroke="#00262f" stroke-linejoin="round" stroke-width="2"/>
        <path id="Trazado_1049318" data-name="Trazado 1049318" d="M54,49V41" fill="none" stroke="#00262f" stroke-linejoin="round" stroke-width="2"/>
        <path id="Trazado_1049319" data-name="Trazado 1049319" d="M50,49V41" fill="none" stroke="#00262f" stroke-linejoin="round" stroke-width="2"/>
        <path id="Trazado_1049320" data-name="Trazado 1049320" d="M33,45H50" fill="none" stroke="#00262f" stroke-linejoin="round" stroke-width="2"/>
        <path id="Trazado_1049321" data-name="Trazado 1049321" d="M25,24c0-2,4-4,4-8a6,6,0,0,0-12,0c0,4,4,6,4,8" fill="none" stroke="#00262f" stroke-linejoin="round" stroke-width="2"/>
        <path id="Trazado_1049322" data-name="Trazado 1049322" d="M21,24h4v3H21Z" fill="none" stroke="#00262f" stroke-linejoin="round" stroke-width="2"/>
        <path id="Trazado_1049323" data-name="Trazado 1049323" d="M23,24V17" fill="none" stroke="#00262f" stroke-linejoin="round" stroke-width="2"/>
        <path id="Trazado_1049324" data-name="Trazado 1049324" d="M21,15v2h4V15" fill="none" stroke="#00262f" stroke-linejoin="round" stroke-width="2"/>
        <path id="Trazado_1049325" data-name="Trazado 1049325" d="M23,27v4H43v5H21v6" fill="none" stroke="#00262f" stroke-linejoin="round" stroke-width="2"/>
        <path id="Trazado_1049326" data-name="Trazado 1049326" d="M34,9H56V27H34Z" fill="none" stroke="#00262f" stroke-linejoin="round" stroke-width="2"/>
        <path id="Trazado_1049327" data-name="Trazado 1049327" d="M34,14H56" fill="none" stroke="#00262f" stroke-linejoin="round" stroke-width="2"/>
        <path id="Trazado_1049328" data-name="Trazado 1049328" d="M40,9v5" fill="none" stroke="#00262f" stroke-linejoin="round" stroke-width="2"/>
        <path id="Trazado_1049329" data-name="Trazado 1049329" d="M52,9v5" fill="none" stroke="#00262f" stroke-linejoin="round" stroke-width="2"/>
        <path id="Trazado_1049330" data-name="Trazado 1049330" d="M43,17l-3,3,3,3" fill="none" stroke="#00262f" stroke-linejoin="round" stroke-width="2"/>
        <path id="Trazado_1049331" data-name="Trazado 1049331" d="M47,23l3-3-3-3" fill="none" stroke="#00262f" stroke-linejoin="round" stroke-width="2"/>
        <path id="Trazado_1049332" data-name="Trazado 1049332" d="M6,9H8" fill="none" stroke="#00262f" stroke-linejoin="round" stroke-width="2"/>
        <path id="Trazado_1049333" data-name="Trazado 1049333" d="M10,9h5" fill="none" stroke="#00262f" stroke-linejoin="round" stroke-width="2"/>
        <path id="Trazado_1049334" data-name="Trazado 1049334" d="M6,13h6" fill="none" stroke="#00262f" stroke-linejoin="round" stroke-width="2"/>
        <path id="Trazado_1049335" data-name="Trazado 1049335" d="M6,17h6" fill="none" stroke="#00262f" stroke-linejoin="round" stroke-width="2"/>
        <path id="Trazado_1049336" data-name="Trazado 1049336" d="M6,21h6" fill="none" stroke="#00262f" stroke-linejoin="round" stroke-width="2"/>
        <path id="Trazado_1049337" data-name="Trazado 1049337" d="M6,25h6" fill="none" stroke="#00262f" stroke-linejoin="round" stroke-width="2"/>
        <path id="Trazado_1049338" data-name="Trazado 1049338" d="M6,29H8" fill="none" stroke="#00262f" stroke-linejoin="round" stroke-width="2"/>
      </g>
    </g>
  </g>
</svg>
