<svg xmlns="http://www.w3.org/2000/svg" xmlns:xlink="http://www.w3.org/1999/xlink" width="118" height="118" viewBox="0 0 118 118">
  <defs>
    <filter id="Trazado_982547" x="0" y="0" width="118" height="118" filterUnits="userSpaceOnUse">
      <feOffset dy="3" input="SourceAlpha"/>
      <feGaussianBlur stdDeviation="3" result="blur"/>
      <feFlood flood-opacity="0.161"/>
      <feComposite operator="in" in2="blur"/>
      <feComposite in="SourceGraphic"/>
    </filter>
  </defs>
  <g id="Grupo_1204548" data-name="Grupo 1204548" transform="translate(-899 -6834.027)">
    <g id="Grupo_1204497" data-name="Grupo 1204497" transform="translate(158 5578.027)">
      <g id="Grupo_1179137" data-name="Grupo 1179137" transform="translate(-2.25 571)">
        <g id="Grupo_1177987" data-name="Grupo 1177987" transform="translate(752.25 691)">
          <g id="Grupo_1177681" data-name="Grupo 1177681">
            <g id="Grupo_1172010" data-name="Grupo 1172010">
              <g id="Grupo_1171046" data-name="Grupo 1171046">
                <g id="Grupo_1148525" data-name="Grupo 1148525">
                  <g transform="matrix(1, 0, 0, 1, -9, -6)" filter="url(#Trazado_982547)">
                    <g id="Trazado_982547-2" data-name="Trazado 982547" transform="translate(9 6)" fill="#fdf4ce">
                      <path d="M 50 98.5 C 43.45188522338867 98.5 37.10042953491211 97.21787261962891 31.12207221984863 94.68923950195312 C 25.34690093994141 92.24655914306641 20.15995788574219 88.74931335449219 15.70531463623047 84.29468536376953 C 11.2506856918335 79.84004211425781 7.753442764282227 74.65309906005859 5.310757160186768 68.8779296875 C 2.782128572463989 62.89957046508789 1.5 56.54811477661133 1.5 50 C 1.5 43.45188522338867 2.782128572463989 37.10042953491211 5.310757160186768 31.12207221984863 C 7.753442764282227 25.34691429138184 11.2506856918335 20.15997123718262 15.70531463623047 15.70532894134521 C 20.15995788574219 11.2506856918335 25.34690093994141 7.753442764282227 31.12207221984863 5.310757160186768 C 37.10042953491211 2.782128572463989 43.45188522338867 1.5 50 1.5 C 56.54811477661133 1.5 62.89957046508789 2.782128572463989 68.8779296875 5.310757160186768 C 74.65309906005859 7.753442764282227 79.84004211425781 11.2506856918335 84.29468536376953 15.70532894134521 C 88.74931335449219 20.15997123718262 92.24655914306641 25.34691429138184 94.68923950195312 31.12207221984863 C 97.21787261962891 37.10042953491211 98.5 43.45188522338867 98.5 50 C 98.5 56.54811477661133 97.21787261962891 62.89957046508789 94.68923950195312 68.8779296875 C 92.24655914306641 74.65309906005859 88.74931335449219 79.84004211425781 84.29468536376953 84.29468536376953 C 79.84004211425781 88.74931335449219 74.65309906005859 92.24655914306641 68.8779296875 94.68923950195312 C 62.89957046508789 97.21787261962891 56.54811477661133 98.5 50 98.5 Z" stroke="none"/>
                      <path d="M 50 3 C 43.65372467041016 3 37.49886322021484 4.242263793945312 31.70639801025391 6.6922607421875 C 26.11003112792969 9.059326171875 21.08333587646484 12.44861602783203 16.76598358154297 16.76598358154297 C 12.44861602783203 21.08335113525391 9.059326171875 26.11003112792969 6.6922607421875 31.70639801025391 C 4.242263793945312 37.49886322021484 3 43.65372467041016 3 50 C 3 56.34627532958984 4.242263793945312 62.50113677978516 6.6922607421875 68.29360198974609 C 9.059326171875 73.88996887207031 12.44861602783203 78.91666412353516 16.76598358154297 83.23401641845703 C 21.08333587646484 87.55138397216797 26.11003112792969 90.940673828125 31.70639801025391 93.3077392578125 C 37.49886322021484 95.75773620605469 43.65372467041016 97 50 97 C 56.34627532958984 97 62.50113677978516 95.75773620605469 68.29360198974609 93.3077392578125 C 73.88996887207031 90.940673828125 78.91664886474609 87.55138397216797 83.23401641845703 83.23401641845703 C 87.55138397216797 78.91666412353516 90.940673828125 73.88996887207031 93.3077392578125 68.29360198974609 C 95.75773620605469 62.50113677978516 97 56.34627532958984 97 50 C 97 43.65372467041016 95.75773620605469 37.49886322021484 93.3077392578125 31.70639801025391 C 90.940673828125 26.11003112792969 87.55138397216797 21.08335113525391 83.23401641845703 16.76598358154297 C 78.91664886474609 12.44861602783203 73.88996887207031 9.059326171875 68.29360198974609 6.6922607421875 C 62.50113677978516 4.242263793945312 56.34627532958984 3 50 3 M 50 0 C 77.61422729492188 0 100 22.38577270507812 100 50 C 100 77.61424255371094 77.61422729492188 100 50 100 C 22.38575744628906 100 0 77.61424255371094 0 50 C 0 22.38577270507812 22.38575744628906 0 50 0 Z" stroke="none" fill="#866d08"/>
                    </g>
                  </g>
                </g>
              </g>
            </g>
          </g>
        </g>
      </g>
    </g>
    <g id="hierarchical-structure_3776257" transform="translate(926 6859.289)">
      <rect id="Rectángulo_418181" data-name="Rectángulo 418181" width="28" height="22" rx="2" transform="translate(18 2)" fill="#3b5892"/>
      <path id="Trazado_1049458" data-name="Trazado 1049458" d="M18,22a2,2,0,0,0,2,2H43V5H18Z" fill="#4c6cb5"/>
      <path id="Trazado_1049459" data-name="Trazado 1049459" d="M49.55,28.672h9.9v5.657h-9.9Z" transform="translate(-6.311 47.763) rotate(-45)" fill="#5e87ca"/>
      <path id="Trazado_1049460" data-name="Trazado 1049460" d="M60,30l1.172-1.172a2.828,2.828,0,0,0-4-4L56,26Z" fill="#b5b5b5"/>
      <path id="Trazado_1049461" data-name="Trazado 1049461" d="M37,11v3a4,4,0,0,1-4,4H31a4,4,0,0,1-4-4V11Z" fill="#fbe1ca"/>
      <path id="Trazado_1049462" data-name="Trazado 1049462" d="M37,11H27V10a4,4,0,0,1,4-4h2a4,4,0,0,1,4,4Z" fill="#c18e59"/>
      <path id="Trazado_1049463" data-name="Trazado 1049463" d="M21,28H43v8H21Z" fill="#4c6cb5"/>
      <path id="Trazado_1049464" data-name="Trazado 1049464" d="M21,30H41v6H21Z" fill="#5e87ca"/>
      <path id="Trazado_1049465" data-name="Trazado 1049465" d="M6,46H28v6H6Z" fill="#5e87ca"/>
      <path id="Trazado_1049466" data-name="Trazado 1049466" d="M6,48H26v4H6Z" fill="#78a0d4"/>
      <path id="Trazado_1049467" data-name="Trazado 1049467" d="M36,46H58v6H36Z" fill="#5e87ca"/>
      <path id="Trazado_1049468" data-name="Trazado 1049468" d="M10,58H24v4H10Z" fill="#78a0d4"/>
      <path id="Trazado_1049469" data-name="Trazado 1049469" d="M10,59H23v3H10Z" fill="#85afdd"/>
      <path id="Trazado_1049470" data-name="Trazado 1049470" d="M40,58H54v4H40Z" fill="#78a0d4"/>
      <g id="Grupo_1204547" data-name="Grupo 1204547">
        <path id="Trazado_1049471" data-name="Trazado 1049471" d="M47,41H33V36H31v5H17a1,1,0,0,0-1,1v4h2V43H46v3h2V42A1,1,0,0,0,47,41Z" fill="#ccc"/>
        <path id="Trazado_1049472" data-name="Trazado 1049472" d="M16,52h2v6H16Z" fill="#ccc"/>
        <path id="Trazado_1049473" data-name="Trazado 1049473" d="M46,52h2v6H46Z" fill="#ccc"/>
      </g>
      <path id="Trazado_1049474" data-name="Trazado 1049474" d="M23,24a6,6,0,0,1,6-6h6a6,6,0,0,1,6,6" fill="#5e87ca"/>
      <path id="Trazado_1049475" data-name="Trazado 1049475" d="M49,33l-2,6,6-2" fill="#ccc"/>
      <path id="Trazado_1049476" data-name="Trazado 1049476" d="M20.769,11a8.943,8.943,0,0,0-1.156-2.785l.872-.872L17.657,4.515l-.872.872A8.943,8.943,0,0,0,14,4.231V3H10V4.231A8.943,8.943,0,0,0,7.215,5.387l-.872-.872L3.515,7.343l.872.872A8.943,8.943,0,0,0,3.231,11H2v4H3.231a8.943,8.943,0,0,0,1.156,2.785l-.872.872,2.828,2.828.872-.872A8.943,8.943,0,0,0,10,21.769V23h4V21.769a8.943,8.943,0,0,0,2.785-1.156l.872.872,2.828-2.828-.872-.872A8.943,8.943,0,0,0,20.769,15H22V11ZM12,18a5,5,0,1,1,5-5,5,5,0,0,1-5,5Z" fill="#b5b5b5"/>
      <path id="Trazado_1049477" data-name="Trazado 1049477" d="M36,48H56v4H36Z" fill="#78a0d4"/>
      <path id="Trazado_1049478" data-name="Trazado 1049478" d="M40,59H53v3H40Z" fill="#85afdd"/>
      <path id="Trazado_1049479" data-name="Trazado 1049479" d="M58,45H48V42a1,1,0,0,0-1-1H33V37H43a1,1,0,0,0,1-1V28a1,1,0,0,0-1-1H21a1,1,0,0,0-1,1v8a1,1,0,0,0,1,1H31v4H17a1,1,0,0,0-1,1v3H6a1,1,0,0,0-1,1v6a1,1,0,0,0,1,1H16v4H10a1,1,0,0,0-1,1v4a1,1,0,0,0,1,1H24a1,1,0,0,0,1-1V58a1,1,0,0,0-1-1H18V53H28a1,1,0,0,0,1-1V46a1,1,0,0,0-1-1H18V43H46v2H36a1,1,0,0,0-1,1v6a1,1,0,0,0,1,1H46v4H40a1,1,0,0,0-1,1v4a1,1,0,0,0,1,1H54a1,1,0,0,0,1-1V58a1,1,0,0,0-1-1H48V53H58a1,1,0,0,0,1-1V46A1,1,0,0,0,58,45ZM22,29H42v6H22Zm1,32H11V59H23Zm4-10H7V47H27ZM53,61H41V59H53Zm4-10H37V47H57Z"/>
      <path id="Trazado_1049480" data-name="Trazado 1049480" d="M59.171,23a3.8,3.8,0,0,0-2.707,1.122l-8.171,8.171a.975.975,0,0,0-.232.394h-.01l-2,6A1,1,0,0,0,47,40a.987.987,0,0,0,.316-.052l6-2v-.009a.975.975,0,0,0,.394-.232l8.171-8.171A3.828,3.828,0,0,0,59.171,23ZM49.437,34.851l1.712,1.712-2.568.856ZM53,35.586,50.414,33,56,27.414,58.586,30Zm7.464-7.464L60,28.586,57.414,26l.464-.464a1.829,1.829,0,1,1,2.586,2.586Z"/>
      <path id="Trazado_1049481" data-name="Trazado 1049481" d="M7.05,22.192l.331-.331A9.931,9.931,0,0,0,9,22.534V23a1,1,0,0,0,1,1h4a1,1,0,0,0,1-1v-.466a9.931,9.931,0,0,0,1.619-.673l.331.331c.022.022.051.03.074.05A3,3,0,0,0,20,25H44a3,3,0,0,0,3-3V4a3,3,0,0,0-3-3H20a3,3,0,0,0-2.976,2.758c-.023.02-.052.028-.074.05l-.331.33A9.941,9.941,0,0,0,15,3.466V3a1,1,0,0,0-1-1H10A1,1,0,0,0,9,3v.466a9.941,9.941,0,0,0-1.619.672l-.331-.33a1,1,0,0,0-1.414,0L2.808,6.636a1,1,0,0,0,0,1.414l.33.331A9.941,9.941,0,0,0,2.466,10H2a1,1,0,0,0-1,1v4a1,1,0,0,0,1,1h.466a9.941,9.941,0,0,0,.672,1.619l-.33.331a1,1,0,0,0,0,1.414l2.828,2.828a1,1,0,0,0,1.414,0ZM28,12h8v2a3,3,0,0,1-3,3H31a3,3,0,0,1-3-3Zm0-2a3,3,0,0,1,3-3h2a3,3,0,0,1,3,3Zm1,9h6a5.009,5.009,0,0,1,4.9,4H24.1A5.009,5.009,0,0,1,29,19ZM20,3H44a1,1,0,0,1,1,1V22a1,1,0,0,1-1,1H41.92a7.007,7.007,0,0,0-5.142-5.762A4.954,4.954,0,0,0,38,14V10a5.006,5.006,0,0,0-5-5H31a5.006,5.006,0,0,0-5,5v4a4.954,4.954,0,0,0,1.222,3.238A7.007,7.007,0,0,0,22.08,23H20a1,1,0,0,1-1-1v-.444l2.192-2.192a1,1,0,0,0,0-1.414l-.33-.331A9.941,9.941,0,0,0,21.534,16H22a1,1,0,0,0,1-1V11a1,1,0,0,0-1-1h-.466a9.941,9.941,0,0,0-.672-1.619l.33-.331a1,1,0,0,0,0-1.414L19,4.444V4a1,1,0,0,1,1-1ZM5.233,17.251a7.917,7.917,0,0,1-1.027-2.473A1,1,0,0,0,3.23,14H3V12h.23a1,1,0,0,0,.976-.778A7.917,7.917,0,0,1,5.233,8.749a1,1,0,0,0-.139-1.241l-.165-.165L6.343,5.929l.165.165a1,1,0,0,0,1.241.139,7.917,7.917,0,0,1,2.473-1.027A1,1,0,0,0,11,4.23V4h2v.23a1,1,0,0,0,.778.976,7.917,7.917,0,0,1,2.473,1.027,1,1,0,0,0,1.241-.139l.165-.165,1.414,1.414-.165.165a1,1,0,0,0-.139,1.241,7.917,7.917,0,0,1,1.027,2.473A1,1,0,0,0,20.77,12H21v2h-.23a1,1,0,0,0-.976.778,7.917,7.917,0,0,1-1.027,2.473,1,1,0,0,0,.139,1.241l.165.165-1.414,1.414-.165-.165a1,1,0,0,0-1.24-.139,7.933,7.933,0,0,1-2.473,1.027,1,1,0,0,0-.779.975V22H11v-.231a1,1,0,0,0-.779-.975,7.933,7.933,0,0,1-2.473-1.027,1,1,0,0,0-1.24.139l-.165.165L4.929,18.657l.165-.165a1,1,0,0,0,.139-1.241Z"/>
      <path id="Trazado_1049482" data-name="Trazado 1049482" d="M12,19a6,6,0,1,0-6-6,6,6,0,0,0,6,6ZM12,9a4,4,0,1,1-4,4,4,4,0,0,1,4-4Z"/>
    </g>
  </g>
</svg>
