<svg xmlns="http://www.w3.org/2000/svg" xmlns:xlink="http://www.w3.org/1999/xlink" width="118" height="118" viewBox="0 0 118 118">
  <defs>
    <filter id="Trazado_982547" x="0" y="0" width="118" height="118" filterUnits="userSpaceOnUse">
      <feOffset dy="3" input="SourceAlpha"/>
      <feGaussianBlur stdDeviation="3" result="blur"/>
      <feFlood flood-opacity="0.161"/>
      <feComposite operator="in" in2="blur"/>
      <feComposite in="SourceGraphic"/>
    </filter>
  </defs>
  <g id="Grupo_1204550" data-name="Grupo 1204550" transform="translate(-1214 -6834.027)">
    <g id="Grupo_1204498" data-name="Grupo 1204498" transform="translate(473 5578.027)">
      <g id="Grupo_1179137" data-name="Grupo 1179137" transform="translate(-2.25 571)">
        <g id="Grupo_1177987" data-name="Grupo 1177987" transform="translate(752.25 691)">
          <g id="Grupo_1177681" data-name="Grupo 1177681">
            <g id="Grupo_1172010" data-name="Grupo 1172010">
              <g id="Grupo_1171046" data-name="Grupo 1171046">
                <g id="Grupo_1148525" data-name="Grupo 1148525">
                  <g transform="matrix(1, 0, 0, 1, -9, -6)" filter="url(#Trazado_982547)">
                    <g id="Trazado_982547-2" data-name="Trazado 982547" transform="translate(9 6)" fill="#fdf4ce">
                      <path d="M 50 98.5 C 43.45188522338867 98.5 37.10042953491211 97.21787261962891 31.12207221984863 94.68923950195312 C 25.34690093994141 92.24655914306641 20.15995788574219 88.74931335449219 15.70531463623047 84.29468536376953 C 11.2506856918335 79.84004211425781 7.753442764282227 74.65309906005859 5.310757160186768 68.8779296875 C 2.782128572463989 62.89957046508789 1.5 56.54811477661133 1.5 50 C 1.5 43.45188522338867 2.782128572463989 37.10042953491211 5.310757160186768 31.12207221984863 C 7.753442764282227 25.34691429138184 11.2506856918335 20.15997123718262 15.70531463623047 15.70532894134521 C 20.15995788574219 11.2506856918335 25.34690093994141 7.753442764282227 31.12207221984863 5.310757160186768 C 37.10042953491211 2.782128572463989 43.45188522338867 1.5 50 1.5 C 56.54811477661133 1.5 62.89957046508789 2.782128572463989 68.8779296875 5.310757160186768 C 74.65309906005859 7.753442764282227 79.84004211425781 11.2506856918335 84.29468536376953 15.70532894134521 C 88.74931335449219 20.15997123718262 92.24655914306641 25.34691429138184 94.68923950195312 31.12207221984863 C 97.21787261962891 37.10042953491211 98.5 43.45188522338867 98.5 50 C 98.5 56.54811477661133 97.21787261962891 62.89957046508789 94.68923950195312 68.8779296875 C 92.24655914306641 74.65309906005859 88.74931335449219 79.84004211425781 84.29468536376953 84.29468536376953 C 79.84004211425781 88.74931335449219 74.65309906005859 92.24655914306641 68.8779296875 94.68923950195312 C 62.89957046508789 97.21787261962891 56.54811477661133 98.5 50 98.5 Z" stroke="none"/>
                      <path d="M 50 3 C 43.65372467041016 3 37.49886322021484 4.242263793945312 31.70639801025391 6.6922607421875 C 26.11003112792969 9.059326171875 21.08333587646484 12.44861602783203 16.76598358154297 16.76598358154297 C 12.44861602783203 21.08335113525391 9.059326171875 26.11003112792969 6.6922607421875 31.70639801025391 C 4.242263793945312 37.49886322021484 3 43.65372467041016 3 50 C 3 56.34627532958984 4.242263793945312 62.50113677978516 6.6922607421875 68.29360198974609 C 9.059326171875 73.88996887207031 12.44861602783203 78.91666412353516 16.76598358154297 83.23401641845703 C 21.08333587646484 87.55138397216797 26.11003112792969 90.940673828125 31.70639801025391 93.3077392578125 C 37.49886322021484 95.75773620605469 43.65372467041016 97 50 97 C 56.34627532958984 97 62.50113677978516 95.75773620605469 68.29360198974609 93.3077392578125 C 73.88996887207031 90.940673828125 78.91664886474609 87.55138397216797 83.23401641845703 83.23401641845703 C 87.55138397216797 78.91666412353516 90.940673828125 73.88996887207031 93.3077392578125 68.29360198974609 C 95.75773620605469 62.50113677978516 97 56.34627532958984 97 50 C 97 43.65372467041016 95.75773620605469 37.49886322021484 93.3077392578125 31.70639801025391 C 90.940673828125 26.11003112792969 87.55138397216797 21.08335113525391 83.23401641845703 16.76598358154297 C 78.91664886474609 12.44861602783203 73.88996887207031 9.059326171875 68.29360198974609 6.6922607421875 C 62.50113677978516 4.242263793945312 56.34627532958984 3 50 3 M 50 0 C 77.61422729492188 0 100 22.38577270507812 100 50 C 100 77.61424255371094 77.61422729492188 100 50 100 C 22.38575744628906 100 0 77.61424255371094 0 50 C 0 22.38577270507812 22.38575744628906 0 50 0 Z" stroke="none" fill="#866d08"/>
                    </g>
                  </g>
                </g>
              </g>
            </g>
          </g>
        </g>
      </g>
    </g>
    <g id="software-development_3309913" transform="translate(1227 6844.527)">
      <path id="Trazado_1049483" data-name="Trazado 1049483" d="M62.35,274.817v9.833l-11.8-11.8v19.667H24V269.9a5.9,5.9,0,0,1,5.9-5.9H49.5a4.916,4.916,0,0,1,3.478,1.441Z" transform="translate(-7.017 -217.517)" fill="#ef5e3b"/>
      <path id="Trazado_1049484" data-name="Trazado 1049484" d="M336,336h18.683v18.683H336Z" transform="translate(-280.667 -280.667)" fill="#ffc431"/>
      <path id="Trazado_1049485" data-name="Trazado 1049485" d="M208,456h15.733v3.933H209.967A1.967,1.967,0,0,1,208,457.967Z" transform="translate(-168.4 -385.917)" fill="#ffa100"/>
      <g id="Grupo_1204549" data-name="Grupo 1204549" transform="translate(22.883 43.533)">
        <path id="Trazado_1049486" data-name="Trazado 1049486" d="M125.9,240v5.9a2.9,2.9,0,0,1-.17.983A2.95,2.95,0,0,1,120,245.9V240Z" transform="translate(-114.1 -240)" fill="#ffceb6"/>
        <path id="Trazado_1049487" data-name="Trazado 1049487" d="M72,377.408,77.408,372l4.425,4.425H92.65L95.7,374.9a4.187,4.187,0,0,1,5.09,1.064l3.326,3.992a1.444,1.444,0,0,1-1.109,2.368,1.567,1.567,0,0,1-.941-.314l-3.515-2.636-3.933,2.95H80.175a7.867,7.867,0,0,1-5.563-2.3Z" transform="translate(-72 -355.775)" fill="#ffceb6"/>
        <path id="Trazado_1049488" data-name="Trazado 1049488" d="M279.867,330.95v9.833L272,332.917,276.917,328Z" transform="translate(-247.417 -317.183)" fill="#ffceb6"/>
      </g>
      <circle id="Elipse_12951" data-name="Elipse 12951" cx="3" cy="3" r="3" transform="translate(62.5 61.5)" fill="#ffe28f"/>
      <path id="Trazado_1049489" data-name="Trazado 1049489" d="M232,25.967A1.967,1.967,0,0,1,233.967,24H261.5a1.967,1.967,0,0,1,1.967,1.967V51.533A1.967,1.967,0,0,1,261.5,53.5h-7.867v4.917L246.75,53.5H233.967A1.967,1.967,0,0,1,232,51.533Z" transform="translate(-189.45 -7.017)" fill="#4f5dff"/>
      <path id="Trazado_1049490" data-name="Trazado 1049490" d="M123.933,216.85A3.933,3.933,0,0,1,120,212.917V210.95l2.95-2.95h4.917v4.917A3.933,3.933,0,0,1,123.933,216.85Z" transform="translate(-91.217 -168.4)" fill="#ffceb6"/>
      <path id="Trazado_1049491" data-name="Trazado 1049491" d="M127.867,179.933l.959-.479A1.823,1.823,0,0,0,128.01,176h-4.077A3.933,3.933,0,0,0,120,179.933v2.95l2.95-2.95Z" transform="translate(-91.217 -140.333)" fill="#c47220"/>
      <path id="Trazado_1049492" data-name="Trazado 1049492" d="M74.017,187.667H55.333a.983.983,0,0,0-.92.639l-7.761-7.761a5.861,5.861,0,0,0-4.172-1.728H37.535a4.92,4.92,0,0,0,.1-.983v-4.309l.415-.208A2.807,2.807,0,0,0,36.793,168H32.717a4.922,4.922,0,0,0-4.917,4.917v4.917a4.92,4.92,0,0,0,.1.983H22.883A6.891,6.891,0,0,0,16,185.7v22.617h1.967V194.957l6.834,6.834a8.792,8.792,0,0,0,6.258,2.592h7.558v.983a2.953,2.953,0,0,0,2.95,2.95h32.45a.983.983,0,0,0,.983-.983V188.65A.983.983,0,0,0,74.017,187.667ZM54.35,198.076l-5.493-5.493,3.526-3.526,1.967,1.967Zm-6.29-3.509a5.2,5.2,0,0,0-1.918.529l-1.626.813v-4.885Zm-18.293-12.8a4.913,4.913,0,0,0,3.933.887v.1a1.967,1.967,0,1,1-3.933,0Zm0-3.931v-1.559l2.374-2.374h3.526v3.933a2.95,2.95,0,0,1-5.9,0Zm2.95-7.867h4.077a.84.84,0,0,1,.376,1.591l-.751.376H31.733a.983.983,0,0,0-.7.288l-1.271,1.271v-.576A2.953,2.953,0,0,1,32.717,169.967ZM17.967,185.7a4.922,4.922,0,0,1,4.917-4.917H27.8v1.967a3.933,3.933,0,1,0,7.867,0v-.986a4.955,4.955,0,0,0,.981-.981H42.48a3.908,3.908,0,0,1,2.781,1.152l5.731,5.731-3.526,3.526-3.238-3.238a.983.983,0,0,0-1.679.7v7.867H33.124l-9.545-9.545-1.391,1.391,4.713,4.713-4.018,4.018-4.917-4.917Zm8.225,14.7-1.917-1.917,4.018-4.018,3.73,3.73a.983.983,0,0,0,.7.288H43.533a.983.983,0,0,0,.44-.1l3.049-1.524a3.2,3.2,0,0,1,3.895.815l3.326,3.992a.461.461,0,0,1-.354.755.589.589,0,0,1-.351-.117l-3.515-2.636a.983.983,0,0,0-1.18,0l-3.671,2.753H31.059a6.838,6.838,0,0,1-4.867-2.016Zm24.225,2.016H48.45l.983-.738Zm-9.833,2.95v-.983H54.35v1.967H41.567A.984.984,0,0,1,40.583,205.367Zm32.45.983H56.317V189.633H73.033Z" transform="translate(0 -133.317)"/>
      <path id="Trazado_1049493" data-name="Trazado 1049493" d="M387.933,383.867A3.933,3.933,0,1,0,384,379.933,3.933,3.933,0,0,0,387.933,383.867Zm0-5.9a1.967,1.967,0,1,1-1.967,1.967A1.967,1.967,0,0,1,387.933,377.967Z" transform="translate(-322.767 -315.75)"/>
      <path id="Trazado_1049494" data-name="Trazado 1049494" d="M254.483,16H226.95A2.953,2.953,0,0,0,224,18.95V43.533h1.967V18.95a.984.984,0,0,1,.983-.983h27.533a.984.984,0,0,1,.983.983V44.517a.984.984,0,0,1-.983.983h-7.867a.983.983,0,0,0-.983.983v3.006L240.3,45.683a.983.983,0,0,0-.571-.183h-8.85v1.967h8.535l6.627,4.734a.983.983,0,0,0,1.555-.8V47.467h6.883a2.953,2.953,0,0,0,2.95-2.95V18.95A2.953,2.953,0,0,0,254.483,16Z" transform="translate(-182.433)"/>
      <circle id="Elipse_12952" data-name="Elipse 12952" cx="1" cy="1" r="1" transform="translate(44.5 18.5)"/>
      <circle id="Elipse_12953" data-name="Elipse 12953" cx="1" cy="1" r="1" transform="translate(47.5 18.5)"/>
      <circle id="Elipse_12954" data-name="Elipse 12954" cx="1" cy="1" r="1" transform="translate(50.5 18.5)"/>
      <path id="Trazado_1049495" data-name="Trazado 1049495" d="M264,80h1.967v1.967H264Z" transform="translate(-217.517 -56.133)"/>
      <path id="Trazado_1049496" data-name="Trazado 1049496" d="M304,80h5.9v1.967H304Z" transform="translate(-252.6 -56.133)"/>
      <path id="Trazado_1049497" data-name="Trazado 1049497" d="M368,80h1.967v1.967H368Z" transform="translate(-308.733 -56.133)"/>
      <path id="Trazado_1049498" data-name="Trazado 1049498" d="M264,112h1.967v1.967H264Z" transform="translate(-217.517 -84.2)"/>
      <path id="Trazado_1049499" data-name="Trazado 1049499" d="M304,112h2.95v1.967H304Z" transform="translate(-252.6 -84.2)"/>
      <path id="Trazado_1049500" data-name="Trazado 1049500" d="M344,112h10.817v1.967H344Z" transform="translate(-287.683 -84.2)"/>
      <path id="Trazado_1049501" data-name="Trazado 1049501" d="M264,144h1.967v1.967H264Z" transform="translate(-217.517 -112.267)"/>
      <path id="Trazado_1049502" data-name="Trazado 1049502" d="M304,144h7.867v1.967H304Z" transform="translate(-252.6 -112.267)"/>
      <path id="Trazado_1049503" data-name="Trazado 1049503" d="M384,144h1.967v1.967H384Z" transform="translate(-322.767 -112.267)"/>
      <path id="Trazado_1049504" data-name="Trazado 1049504" d="M264,176h1.967v1.967H264Z" transform="translate(-217.517 -140.333)"/>
      <path id="Trazado_1049505" data-name="Trazado 1049505" d="M304,176h13.767v1.967H304Z" transform="translate(-252.6 -140.333)"/>
      <path id="Trazado_1049506" data-name="Trazado 1049506" d="M432,176h1.967v1.967H432Z" transform="translate(-364.867 -140.333)"/>
      <path id="Trazado_1049507" data-name="Trazado 1049507" d="M264,208h1.967v1.967H264Z" transform="translate(-217.517 -168.4)"/>
      <path id="Trazado_1049508" data-name="Trazado 1049508" d="M304,208h8.85v1.967H304Z" transform="translate(-252.6 -168.4)"/>
      <path id="Trazado_1049509" data-name="Trazado 1049509" d="M392,208h1.967v1.967H392Z" transform="translate(-329.783 -168.4)"/>
    </g>
  </g>
</svg>
