<svg xmlns="http://www.w3.org/2000/svg" xmlns:xlink="http://www.w3.org/1999/xlink" width="118" height="118" viewBox="0 0 118 118">
  <defs>
    <filter id="Trazado_982547" x="0" y="0" width="118" height="118" filterUnits="userSpaceOnUse">
      <feOffset dy="3" input="SourceAlpha"/>
      <feGaussianBlur stdDeviation="3" result="blur"/>
      <feFlood flood-opacity="0.161"/>
      <feComposite operator="in" in2="blur"/>
      <feComposite in="SourceGraphic"/>
    </filter>
  </defs>
  <g id="Grupo_1204559" data-name="Grupo 1204559" transform="translate(-1214 -8192)">
    <g id="Grupo_1204439" data-name="Grupo 1204439" transform="translate(473 6936)">
      <g id="Grupo_1179137" data-name="Grupo 1179137" transform="translate(-2.25 571)">
        <g id="Grupo_1177987" data-name="Grupo 1177987" transform="translate(752.25 691)">
          <g id="Grupo_1177681" data-name="Grupo 1177681">
            <g id="Grupo_1172010" data-name="Grupo 1172010">
              <g id="Grupo_1171046" data-name="Grupo 1171046">
                <g id="Grupo_1148525" data-name="Grupo 1148525">
                  <g transform="matrix(1, 0, 0, 1, -9, -6)" filter="url(#Trazado_982547)">
                    <g id="Trazado_982547-2" data-name="Trazado 982547" transform="translate(9 6)" fill="#fdf4ce">
                      <path d="M 50 98.5 C 43.45188522338867 98.5 37.10042953491211 97.21787261962891 31.12207221984863 94.68923950195312 C 25.34690093994141 92.24655914306641 20.15995788574219 88.74931335449219 15.70531463623047 84.29468536376953 C 11.2506856918335 79.84004211425781 7.753442764282227 74.65309906005859 5.310757160186768 68.8779296875 C 2.782128572463989 62.89957046508789 1.5 56.54811477661133 1.5 50 C 1.5 43.45188522338867 2.782128572463989 37.10042953491211 5.310757160186768 31.12207221984863 C 7.753442764282227 25.34691429138184 11.2506856918335 20.15997123718262 15.70531463623047 15.70532894134521 C 20.15995788574219 11.2506856918335 25.34690093994141 7.753442764282227 31.12207221984863 5.310757160186768 C 37.10042953491211 2.782128572463989 43.45188522338867 1.5 50 1.5 C 56.54811477661133 1.5 62.89957046508789 2.782128572463989 68.8779296875 5.310757160186768 C 74.65309906005859 7.753442764282227 79.84004211425781 11.2506856918335 84.29468536376953 15.70532894134521 C 88.74931335449219 20.15997123718262 92.24655914306641 25.34691429138184 94.68923950195312 31.12207221984863 C 97.21787261962891 37.10042953491211 98.5 43.45188522338867 98.5 50 C 98.5 56.54811477661133 97.21787261962891 62.89957046508789 94.68923950195312 68.8779296875 C 92.24655914306641 74.65309906005859 88.74931335449219 79.84004211425781 84.29468536376953 84.29468536376953 C 79.84004211425781 88.74931335449219 74.65309906005859 92.24655914306641 68.8779296875 94.68923950195312 C 62.89957046508789 97.21787261962891 56.54811477661133 98.5 50 98.5 Z" stroke="none"/>
                      <path d="M 50 3 C 43.65372467041016 3 37.49886322021484 4.242263793945312 31.70639801025391 6.6922607421875 C 26.11003112792969 9.059326171875 21.08333587646484 12.44861602783203 16.76598358154297 16.76598358154297 C 12.44861602783203 21.08335113525391 9.059326171875 26.11003112792969 6.6922607421875 31.70639801025391 C 4.242263793945312 37.49886322021484 3 43.65372467041016 3 50 C 3 56.34627532958984 4.242263793945312 62.50113677978516 6.6922607421875 68.29360198974609 C 9.059326171875 73.88996887207031 12.44861602783203 78.91666412353516 16.76598358154297 83.23401641845703 C 21.08333587646484 87.55138397216797 26.11003112792969 90.940673828125 31.70639801025391 93.3077392578125 C 37.49886322021484 95.75773620605469 43.65372467041016 97 50 97 C 56.34627532958984 97 62.50113677978516 95.75773620605469 68.29360198974609 93.3077392578125 C 73.88996887207031 90.940673828125 78.91664886474609 87.55138397216797 83.23401641845703 83.23401641845703 C 87.55138397216797 78.91666412353516 90.940673828125 73.88996887207031 93.3077392578125 68.29360198974609 C 95.75773620605469 62.50113677978516 97 56.34627532958984 97 50 C 97 43.65372467041016 95.75773620605469 37.49886322021484 93.3077392578125 31.70639801025391 C 90.940673828125 26.11003112792969 87.55138397216797 21.08335113525391 83.23401641845703 16.76598358154297 C 78.91664886474609 12.44861602783203 73.88996887207031 9.059326171875 68.29360198974609 6.6922607421875 C 62.50113677978516 4.242263793945312 56.34627532958984 3 50 3 M 50 0 C 77.61422729492188 0 100 22.38577270507812 100 50 C 100 77.61424255371094 77.61422729492188 100 50 100 C 22.38575744628906 100 0 77.61424255371094 0 50 C 0 22.38577270507812 22.38575744628906 0 50 0 Z" stroke="none" fill="#866d08"/>
                    </g>
                  </g>
                </g>
              </g>
            </g>
          </g>
        </g>
      </g>
    </g>
    <g id="coding-programer-web_design-programing-developer" data-name="coding-programer-web design-programing-developer" transform="translate(1238.069 8213.069)">
      <path id="Trazado_1049339" data-name="Trazado 1049339" d="M66.666,51v2.2a2.2,2.2,0,0,1-2.2,2.2H5.2A2.2,2.2,0,0,1,3,53.2V51Z" transform="translate(0.098 4.787)" fill="#004fac"/>
      <path id="Trazado_1049340" data-name="Trazado 1049340" d="M66.666,52.172H3L7.391,39H62.275Z" transform="translate(0.098 3.614)" fill="#a7a9ac"/>
      <path id="Trazado_1049341" data-name="Trazado 1049341" d="M62.275,39H58.39a10.007,10.007,0,0,1-10,9.879H4.1L3,52.172H66.666Z" transform="translate(0.098 3.614)" fill="#939598"/>
      <path id="Trazado_1049342" data-name="Trazado 1049342" d="M52.465,46.94V57.554a2.2,2.2,0,0,1-.648,1.559l-.9.9a2.2,2.2,0,0,0-.648,1.559v2.382H38.2V61.572a2.2,2.2,0,0,0-.648-1.559l-.9-.9A2.2,2.2,0,0,1,36,57.554V51.33a1.647,1.647,0,0,1,1.647-1.647h1.647v-4.94a1.647,1.647,0,1,1,3.293,0v-1.1a1.647,1.647,0,0,1,3.293,0v1.1a1.647,1.647,0,0,1,3.293,0v2.2a1.647,1.647,0,1,1,3.293,0Z" transform="translate(3.321 3.908)" fill="#ffb8a5"/>
      <path id="Trazado_1049343" data-name="Trazado 1049343" d="M49.647,45a1.654,1.654,0,0,0-.549.1,1.64,1.64,0,0,1,1.1,1.547V57.261a2.2,2.2,0,0,1-.648,1.559l-.9.9A2.2,2.2,0,0,0,48,61.279v2.382h1.1V61.279a2.2,2.2,0,0,1,.648-1.559l.9-.9a2.2,2.2,0,0,0,.648-1.559V46.647A1.647,1.647,0,0,0,49.647,45Z" transform="translate(4.494 4.201)" fill="#ff9478"/>
      <path id="Trazado_1049344" data-name="Trazado 1049344" d="M46.549,43a1.654,1.654,0,0,0-.549.1,1.64,1.64,0,0,1,1.1,1.547v3.842h1.1V44.647A1.647,1.647,0,0,0,46.549,43Z" transform="translate(4.298 4.005)" fill="#ff9478"/>
      <path id="Trazado_1049345" data-name="Trazado 1049345" d="M43.549,42a1.654,1.654,0,0,0-.549.1,1.64,1.64,0,0,1,1.1,1.547v4.94h1.1v-4.94A1.647,1.647,0,0,0,43.549,42Z" transform="translate(4.005 3.908)" fill="#ff9478"/>
      <path id="Trazado_1049346" data-name="Trazado 1049346" d="M40.549,43a1.654,1.654,0,0,0-.549.1,1.64,1.64,0,0,1,1.1,1.547v3.842h1.1V44.647A1.647,1.647,0,0,0,40.549,43Z" transform="translate(3.712 4.005)" fill="#ff9478"/>
      <path id="Trazado_1049347" data-name="Trazado 1049347" d="M38,49h1.1v4.391H38Z" transform="translate(3.517 4.591)" fill="#ff9478"/>
      <path id="Trazado_1049348" data-name="Trazado 1049348" d="M13,46.94V57.554a2.2,2.2,0,0,0,.648,1.559l.9.9a2.2,2.2,0,0,1,.648,1.559v2.382H27.27V61.572a2.2,2.2,0,0,1,.648-1.559l.9-.9a2.2,2.2,0,0,0,.648-1.559V51.33a1.647,1.647,0,0,0-1.647-1.647H26.172v-4.94a1.647,1.647,0,1,0-3.293,0v-1.1a1.647,1.647,0,1,0-3.293,0v1.1a1.647,1.647,0,1,0-3.293,0v2.2a1.647,1.647,0,1,0-3.293,0Z" transform="translate(1.075 3.908)" fill="#ffb8a5"/>
      <path id="Trazado_1049349" data-name="Trazado 1049349" d="M14.647,45a1.654,1.654,0,0,1,.549.1,1.64,1.64,0,0,0-1.1,1.547V57.261a2.2,2.2,0,0,0,.648,1.559l.9.9a2.2,2.2,0,0,1,.648,1.559v2.382H15.2V61.279a2.2,2.2,0,0,0-.648-1.559l-.9-.9A2.2,2.2,0,0,1,13,57.261V46.647A1.647,1.647,0,0,1,14.647,45Z" transform="translate(1.075 4.201)" fill="#ff9478"/>
      <path id="Trazado_1049350" data-name="Trazado 1049350" d="M17.647,43a1.654,1.654,0,0,1,.549.1,1.64,1.64,0,0,0-1.1,1.547v3.842H16V44.647A1.647,1.647,0,0,1,17.647,43Z" transform="translate(1.368 4.005)" fill="#ff9478"/>
      <path id="Trazado_1049351" data-name="Trazado 1049351" d="M20.647,42a1.654,1.654,0,0,1,.549.1,1.64,1.64,0,0,0-1.1,1.547v4.94H19v-4.94A1.647,1.647,0,0,1,20.647,42Z" transform="translate(1.661 3.908)" fill="#ff9478"/>
      <path id="Trazado_1049352" data-name="Trazado 1049352" d="M23.647,43a1.654,1.654,0,0,1,.549.1,1.64,1.64,0,0,0-1.1,1.547v3.842H22V44.647A1.647,1.647,0,0,1,23.647,43Z" transform="translate(1.954 4.005)" fill="#ff9478"/>
      <path id="Trazado_1049353" data-name="Trazado 1049353" d="M0,0H1.1V4.391H0Z" transform="translate(28.345 57.982) rotate(180)" fill="#ff9478"/>
      <path id="Trazado_1049354" data-name="Trazado 1049354" d="M61.884,5.2V42.517H7V5.2A2.2,2.2,0,0,1,9.2,3H59.689a2.2,2.2,0,0,1,2.2,2.2Z" transform="translate(0.488 0.098)" fill="#006df0"/>
      <path id="Trazado_1049355" data-name="Trazado 1049355" d="M11,7H57.1V37.735H11Z" transform="translate(0.879 0.488)" fill="#ffeb99"/>
      <path id="Trazado_1049356" data-name="Trazado 1049356" d="M25,37.735H55.735V7A30.735,30.735,0,0,1,25,37.735Z" transform="translate(2.247 0.488)" fill="#ffe477"/>
      <g id="Grupo_1204537" data-name="Grupo 1204537" transform="translate(2 2)">
        <path id="Trazado_1049357" data-name="Trazado 1049357" d="M29.184,18.1a1.1,1.1,0,0,0,1.522.3L34,16.206a1.1,1.1,0,0,0,0-1.827l-3.293-2.2a1.1,1.1,0,1,0-1.218,1.827l1.926,1.282-1.923,1.282a1.1,1.1,0,0,0-.307,1.522Z" transform="translate(0.638 -1.023)" fill="#231f20"/>
        <path id="Trazado_1049358" data-name="Trazado 1049358" d="M22.549,19.736a1.085,1.085,0,0,0,.549.145,1.1,1.1,0,0,0,.954-.549l4.391-7.684a1.1,1.1,0,1,0-1.906-1.089l-4.391,7.684A1.1,1.1,0,0,0,22.549,19.736Z" transform="translate(-0.046 -1.22)" fill="#231f20"/>
        <path id="Trazado_1049359" data-name="Trazado 1049359" d="M22.1,23.2h2.2a1.1,1.1,0,0,0,0-2.2H22.1a1.1,1.1,0,0,0,0,2.2Z" transform="translate(-0.144 -0.144)" fill="#231f20"/>
        <path id="Trazado_1049360" data-name="Trazado 1049360" d="M22.1,27.2H37.465a1.1,1.1,0,1,0,0-2.2H22.1a1.1,1.1,0,0,0,0,2.2Z" transform="translate(-0.144 0.247)" fill="#231f20"/>
        <path id="Trazado_1049361" data-name="Trazado 1049361" d="M27,22.1a1.1,1.1,0,0,0,1.1,1.1H43.465a1.1,1.1,0,1,0,0-2.2H28.1A1.1,1.1,0,0,0,27,22.1Z" transform="translate(0.442 -0.144)" fill="#231f20"/>
        <path id="Trazado_1049362" data-name="Trazado 1049362" d="M42.293,25H40.1a1.1,1.1,0,0,0,0,2.2h2.2a1.1,1.1,0,1,0,0-2.2Z" transform="translate(1.614 0.247)" fill="#231f20"/>
        <path id="Trazado_1049363" data-name="Trazado 1049363" d="M22.1,31.2h2.2a1.1,1.1,0,1,0,0-2.2H22.1a1.1,1.1,0,1,0,0,2.2Z" transform="translate(-0.144 0.638)" fill="#231f20"/>
        <path id="Trazado_1049364" data-name="Trazado 1049364" d="M43.465,29H28.1a1.1,1.1,0,1,0,0,2.2H43.465a1.1,1.1,0,1,0,0-2.2Z" transform="translate(0.442 0.638)" fill="#231f20"/>
        <path id="Trazado_1049365" data-name="Trazado 1049365" d="M63.471,42.439V5.293A3.3,3.3,0,0,0,60.178,2H9.684A3.3,3.3,0,0,0,6.391,5.293V42.439L2,55.611v2.371a3.3,3.3,0,0,0,3.293,3.293h7.684v.187a3.245,3.245,0,0,0,.966,2.327l.911.911a1.087,1.087,0,0,1,.318.779v1.284a1.1,1.1,0,0,0,2.2,0V65.479a3.245,3.245,0,0,0-.966-2.327l-.911-.911a1.087,1.087,0,0,1-.318-.779V50.847a.549.549,0,1,1,1.1,0v3.842a1.1,1.1,0,0,0,2.2,0V48.652a.549.549,0,1,1,1.1,0v6.037a1.1,1.1,0,0,0,2.2,0V47.554a.549.549,0,0,1,1.1,0v7.135a1.1,1.1,0,0,0,2.2,0V48.652a.549.549,0,1,1,1.1,0v9.33a1.1,1.1,0,1,0,2.2,0V54.689h.549a.549.549,0,0,1,.549.549v6.224a1.087,1.087,0,0,1-.318.779l-.911.911a3.245,3.245,0,0,0-.966,2.327v1.284a1.1,1.1,0,0,0,2.2,0V65.479a1.087,1.087,0,0,1,.318-.779l.911-.911a3.245,3.245,0,0,0,.966-2.327v-.187h6.586v.187a3.245,3.245,0,0,0,.966,2.327l.911.911a1.087,1.087,0,0,1,.318.779v1.284a1.1,1.1,0,0,0,2.2,0V65.479a3.245,3.245,0,0,0-.966-2.327l-.911-.911a1.087,1.087,0,0,1-.318-.779V55.238a.549.549,0,0,1,.549-.549h.549v3.293a1.1,1.1,0,1,0,2.2,0v-9.33a.549.549,0,1,1,1.1,0v6.037a1.1,1.1,0,0,0,2.2,0V47.554a.549.549,0,0,1,1.1,0v7.135a1.1,1.1,0,0,0,2.2,0V48.652a.549.549,0,1,1,1.1,0v6.037a1.1,1.1,0,0,0,2.2,0V50.847a.549.549,0,1,1,1.1,0V61.462a1.087,1.087,0,0,1-.318.779l-.911.911a3.245,3.245,0,0,0-.966,2.327v1.284a1.1,1.1,0,0,0,2.2,0V65.479a1.087,1.087,0,0,1,.318-.779l.911-.911a3.245,3.245,0,0,0,.966-2.327v-.187h7.684a3.3,3.3,0,0,0,3.293-3.293V55.611ZM8.586,5.293a1.1,1.1,0,0,1,1.1-1.1H60.178a1.1,1.1,0,0,1,1.1,1.1V41.517H8.586ZM12.977,59.08H5.293a1.1,1.1,0,0,1-1.1-1.1v-1.1h8.782Zm25.247,0H31.638v-2.2h6.586ZM54.14,48.1a2.582,2.582,0,0,0-.593.066,2.744,2.744,0,0,0-2.7-2.261,2.666,2.666,0,0,0-.977.187,2.731,2.731,0,0,0-4.632,0,2.666,2.666,0,0,0-.977-.187,2.744,2.744,0,0,0-2.744,2.744v3.842h-.549a2.744,2.744,0,0,0-2.689,2.2h-6.7a2.744,2.744,0,0,0-2.689-2.2h-.549V48.652A2.744,2.744,0,0,0,25.6,45.908a2.666,2.666,0,0,0-.977.187,2.731,2.731,0,0,0-4.632,0,2.666,2.666,0,0,0-.977-.187,2.744,2.744,0,0,0-2.7,2.261,2.582,2.582,0,0,0-.593-.066,2.744,2.744,0,0,0-2.744,2.744v3.842H4.623L8.279,43.712h53.3l3.655,10.977H56.884V50.847A2.744,2.744,0,0,0,54.14,48.1Zm11.526,9.879a1.1,1.1,0,0,1-1.1,1.1H56.884v-2.2h8.782Z" transform="translate(-2 -2)" fill="#231f20"/>
        <path id="Trazado_1049366" data-name="Trazado 1049366" d="M57.2,6H11.1A1.1,1.1,0,0,0,10,7.1V37.833a1.1,1.1,0,0,0,1.1,1.1H57.2a1.1,1.1,0,0,0,1.1-1.1V7.1A1.1,1.1,0,0,0,57.2,6ZM56.1,36.735H12.2V8.2H56.1Z" transform="translate(-1.218 -1.609)" fill="#231f20"/>
        <path id="Trazado_1049367" data-name="Trazado 1049367" d="M11.2,42H10.1a1.1,1.1,0,1,0,0,2.2h1.1a1.1,1.1,0,1,0,0-2.2Z" transform="translate(-1.316 1.908)" fill="#231f20"/>
        <path id="Trazado_1049368" data-name="Trazado 1049368" d="M10.2,46H9.1a1.1,1.1,0,0,0,0,2.2h1.1a1.1,1.1,0,0,0,0-2.2Z" transform="translate(-1.414 2.298)" fill="#231f20"/>
        <path id="Trazado_1049369" data-name="Trazado 1049369" d="M53.1,44.2h1.1a1.1,1.1,0,0,0,0-2.2H53.1a1.1,1.1,0,0,0,0,2.2Z" transform="translate(2.884 1.908)" fill="#231f20"/>
        <path id="Trazado_1049370" data-name="Trazado 1049370" d="M54.1,46a1.1,1.1,0,1,0,0,2.2h1.1a1.1,1.1,0,1,0,0-2.2Z" transform="translate(2.982 2.298)" fill="#231f20"/>
        <path id="Trazado_1049371" data-name="Trazado 1049371" d="M30.2,42H29.1a1.1,1.1,0,1,0,0,2.2h1.1a1.1,1.1,0,0,0,0-2.2Z" transform="translate(0.54 1.908)" fill="#231f20"/>
        <path id="Trazado_1049372" data-name="Trazado 1049372" d="M35.2,42H34.1a1.1,1.1,0,0,0,0,2.2h1.1a1.1,1.1,0,0,0,0-2.2Z" transform="translate(1.028 1.908)" fill="#231f20"/>
        <path id="Trazado_1049373" data-name="Trazado 1049373" d="M30.2,46H29.1a1.1,1.1,0,0,0,0,2.2h1.1a1.1,1.1,0,0,0,0-2.2Z" transform="translate(0.54 2.298)" fill="#231f20"/>
        <path id="Trazado_1049374" data-name="Trazado 1049374" d="M35.2,46H34.1a1.1,1.1,0,0,0,0,2.2h1.1a1.1,1.1,0,0,0,0-2.2Z" transform="translate(1.028 2.298)" fill="#231f20"/>
        <path id="Trazado_1049375" data-name="Trazado 1049375" d="M21.3,18.1a1.1,1.1,0,0,1-1.522.3l-3.293-2.2a1.1,1.1,0,0,1,0-1.827l3.293-2.2A1.1,1.1,0,0,1,21,14.011l-1.926,1.282L21,16.575A1.1,1.1,0,0,1,21.3,18.1Z" transform="translate(-0.632 -1.023)" fill="#231f20"/>
      </g>
    </g>
  </g>
</svg>
