<svg xmlns="http://www.w3.org/2000/svg" xmlns:xlink="http://www.w3.org/1999/xlink" width="610" height="344" viewBox="0 0 610 344">
  <defs>
    <clipPath id="clip-path">
      <rect id="Rectángulo_418191" data-name="Rectángulo 418191" width="610" height="344" transform="translate(810 9542)" fill="#fff" stroke="#707070" stroke-width="1"/>
    </clipPath>
    <clipPath id="clip-path-2">
      <rect id="Rectángulo_418186" data-name="Rectángulo 418186" width="349.559" height="324.74" transform="translate(0 0)" fill="none"/>
    </clipPath>
    <filter id="Trazado_1049665" x="114.626" y="68.48" width="105.736" height="104.627" filterUnits="userSpaceOnUse">
      <feOffset dy="3" input="SourceAlpha"/>
      <feGaussianBlur stdDeviation="3" result="blur"/>
      <feFlood flood-opacity="0.161"/>
      <feComposite operator="in" in2="blur"/>
      <feComposite in="SourceGraphic"/>
    </filter>
    <clipPath id="clip-path-3">
      <rect id="Rectángulo_418187" data-name="Rectángulo 418187" width="97.366" height="134.166" fill="none"/>
    </clipPath>
    <clipPath id="clip-path-4">
      <rect id="Rectángulo_418188" data-name="Rectángulo 418188" width="134.83" height="141.207" fill="none"/>
    </clipPath>
  </defs>
  <g id="Enmascarar_grupo_1098819" data-name="Enmascarar grupo 1098819" transform="translate(-810 -9542)" clip-path="url(#clip-path)">
    <rect id="Rectángulo_418190" data-name="Rectángulo 418190" width="541" height="163.453" rx="10" transform="translate(845.801 9614.861)" fill="#aa52f9"/>
    <g id="Grupo_1204569" data-name="Grupo 1204569" transform="translate(-28.801 -11.286)">
      <g id="Grupo_1204562" data-name="Grupo 1204562" transform="translate(973.074 9572.861)">
        <g id="Grupo_1204561" data-name="Grupo 1204561" transform="translate(0 0)" clip-path="url(#clip-path-2)">
          <path id="Trazado_1049539" data-name="Trazado 1049539" d="M2705.386,849.795c-1.568,3.086-3.251,6.15-3.889,9.584a9.439,9.439,0,0,0,3.061,9.006c1.878,1.772,3.714,3.589,5.569,5.386.778.248,1.043.95,1.391,1.577a4.4,4.4,0,0,0,.411.762c2.3,2.663,4.81,5.214,4.26,9.323,1.206-1.014,1.393-2.191,1.836-3.229a3.38,3.38,0,0,1,3.348-2.271c3.538-.026,7.077,0,10.612-.263a46.95,46.95,0,0,1,23.274,17.782c3.8,5.361,5.375,11.846,6.906,18.187a65.974,65.974,0,0,1,1.484,23.281,27.022,27.022,0,0,1-3.349,9.792,85.767,85.767,0,0,1-19.583,24.219,136.174,136.174,0,0,1-11.887,9.836c-1.292-.132-1.494-1.232-1.853-2.146-5.167-13.161-9.729-26.539-14.367-39.892-2.528-7.279-6.457-13.922-10.1-20.691a170.12,170.12,0,0,0-10.935-18.015,15.5,15.5,0,0,0-3.477-3.855c-2.639-2.583-4.909-5.524-7.881-7.793-7.137-5.45-14.541-10.362-23.394-12.634-2.219-.569-2.711-1.318-2.582-3.354.288-4.54-.485-5.76-4.656-7.336a2.65,2.65,0,0,1-1.118-.65c-.746-1.146-.365-2.37-.292-3.593a13.027,13.027,0,0,0-3.493-9.926c-4.515-5.108-10.509-6.773-16.989-7.544-3.736-.445-7.493-.1-11.212-.623a1.284,1.284,0,0,1-.4-.577,3.215,3.215,0,0,1,.361-2.293,41.115,41.115,0,0,0,3.488-12.383,4.276,4.276,0,0,1,.5-1.635c.979-.949,1.388.079,1.853.6a15.792,15.792,0,0,0,3.376,3.292c.991.392,1.855-.12,2.754-.4,3.051-.753,4.042-2.807,4.42-5.821,1.309-10.434,3.731-20.684,5.525-31.041a10.441,10.441,0,0,0,.057-4.3c1-2.175,2.584-2.385,3.988-.524a9.721,9.721,0,0,1,1.14,2.549c-.1,3.708-1.423,7.183-2.134,10.777-1.563,7.9-2.6,15.886-4.441,23.916,1.015,0,1.508-.711,2.172-1.015.953-.342,1.624-1.163,2.562-1.529,1.277-.68,1.611-2.008,2.047-3.19a51.685,51.685,0,0,0,3.24-14.5c.12-1.831,1.075-3.647.232-5.519-.194-1.693-1.52-3.149-1.052-4.982a2.239,2.239,0,0,1,.8-1.011,29.54,29.54,0,0,1,15.652-5.3c1.419-.071,2.392.893,3.274,1.91,1.115,1.286,2.285,2.493,4.249,2.016a.745.745,0,0,1,.631.1c3.383,3,6.787.824,10-.214a7.869,7.869,0,0,1,6.471.264c11.662,6,19.4,15.185,22.972,27.881,2.389,8.491.682,16.376-3.094,24.032a38.621,38.621,0,0,0-1.731,3.971" transform="translate(-2421.399 -729.726)" fill="#64b1f1"/>
          <path id="Trazado_1049540" data-name="Trazado 1049540" d="M829.679,3585.908a331.972,331.972,0,0,1-34.825-3.612,369.1,369.1,0,0,1-47.767-10.463c-2.089-2.235-1.228-5.073-1.447-7.651a23.129,23.129,0,0,1,.217-5.161,44.577,44.577,0,0,1,1.583-8.942c2.435-7.524,5.816-14.479,11.708-20,4.461-4.184,9.325-6.484,15.724-5.308a133.074,133.074,0,0,1,17.832,4.658c.7.331,1.458.509,2.138.882a82.549,82.549,0,0,1,8.941,3.545c1.416.668,2.755,1.486,4.162,2.173,3.2,1.683,6.281,3.588,9.451,5.33a166.369,166.369,0,0,1,19.213,13.964,5.907,5.907,0,0,0,1.277.8c3.038,2.251,6.048,4.54,8.907,7.02,2.163,1.576,4.3,3.184,6.428,4.805.682.521,1.461.967,1.745,1.869.113,1.046-.652,1.539-1.33,2.068-6.273,4.891-12.927,9.235-19.547,13.628-1.393.924-2.915.535-4.409.4" transform="translate(-690.116 -3262.284)" fill="#201f50"/>
          <path id="Trazado_1049541" data-name="Trazado 1049541" d="M2132.3,3678.231a339.755,339.755,0,0,1-47.519,8.047,484.355,484.355,0,0,1-57.961,2.759c-5.071-.078-10.139-.321-15.208-.488-.456-.775.194-1.067.662-1.32,9.856-5.313,18.058-12.82,26.527-19.972,8.6-7.261,17.393-14.233,27.49-19.375,6.911-3.52,13.868-6.867,20.489-7.547a65.056,65.056,0,0,0-18.032,5.97c-2.572,1.267-5.495,1.806-8.108,3.087a1.38,1.38,0,0,1-1.625-.228c-.027-1.479,1.225-1.839,2.18-2.377,6.174-3.477,12.436-6.766,19.332-8.634a5.08,5.08,0,0,0,.593-.27c7.827-2.167,15.72-3.779,23.913-2.927a25.969,25.969,0,0,1,3.512.467c.646.182,1.316.276,1.957.484,1.194.481,2.468.737,3.653,1.252,1.423.531,2.723,1.326,4.119,1.917,8.508,5.034,13.152,12.627,14.74,22.249.4,2.438.516,4.9.719,7.359-.14,1.861-.173,3.724-.129,5.586a5.2,5.2,0,0,1-1.3,3.961" transform="translate(-1861.829 -3364.347)" fill="#201f50"/>
          <path id="Trazado_1049542" data-name="Trazado 1049542" d="M444.671,2308.357c-6.112-1.752-12.152-3.693-18.483-4.694a15.19,15.19,0,0,0-12.85,3.661,39.806,39.806,0,0,0-11.324,15.939c-.667,1.646-1.233,3.334-1.845,5-3.08-1.587-6.224-.28-9.332-.171-5.923.208-11.856.766-17.649-1.08-1.784-2.315-2.416-5.081-2.948-7.848-1.833-9.529.223-18.6,3.324-27.55a29.01,29.01,0,0,0,1.8-5.561c-.443-.992.052-1.834.439-2.688,1.582-3.5,3.109-7.019,4.655-10.532.748-2.637,2.551-4.7,3.919-6.984,7.46-12.434,14.321-25.217,21.948-37.55,4.651-7.521,9.326-15.034,14.972-21.873.815-.988,1.513-2.439,3.284-1.827a30.675,30.675,0,0,0,4.274,4.9,7.224,7.224,0,0,1,1.871,2.645c2.877,8.085,5.37,16.254,5.25,24.97a15.41,15.41,0,0,1-.088,1.956c-.341,2.4-1.453,3.187-3.751,2.474-2.5-.775-5.08-1.193-7.61-1.828a10.458,10.458,0,0,0-4.95.079c-2.213.5-2.922,1.594-2.227,3.8,1.133,3.6,2.682,7.047,3.892,10.62a59.42,59.42,0,0,1,1.844,8.271,2.325,2.325,0,0,1-.511,2.236c-1.082.571-1.808-.186-2.5-.771a71.918,71.918,0,0,1-9.737-10.723,45.09,45.09,0,0,1,3.09,4.748c2.3,4.58,5.729,8.313,9.164,12.026,1.869,2.021,3.913,3.877,5.808,5.876.693.73,1.57,1.546,1.11,2.64-.444,1.058-1.618,1.1-2.631,1.2-3.788.366-6.913-1.331-9.866-3.355-4.19-2.872-7.768-6.471-11.431-9.9.615.753,1.391,1.413,2.069,2.165,1.277,1.71,3.19,2.875,4.164,4.846a26.568,26.568,0,0,0,1.428,2.682c1.382,2.235.774,3.888-1.71,4.705-2.757.907-5.618,1.479-8.349,2.465-6.015,2.174-12.023,4.378-16.65,9.1a15.675,15.675,0,0,0-2.33,2.865c-.464.775-1.53,1.629-.937,2.447.56.772,1.786.18,2.654-.024,2.329-.549,4.663-1.1,6.933-1.873,10.277-3.48,20.9-4.77,31.686-4.966,1.13-.02,2.355-.218,3.274.768-.137,1.183-1.131,1.141-1.938,1.323-4.244.959-8.578,1.388-12.858,2.145a111.539,111.539,0,0,0-23.966,6.938,3.5,3.5,0,0,0-2.154,1.5,4.068,4.068,0,0,0,2.808.783,44.541,44.541,0,0,0,11.451-.924c11.715-2.378,23.449-4.663,35.107-7.316,2.265-.516,4.443-1.331,6.693-1.894,2.31-.579,3.031.022,2.289,2.184a5.48,5.48,0,0,0,.878,5.492c.342,1.7-.1,3.365-.217,5.042-.045.676-.294,1.423-1.243,1.435" transform="translate(-342.059 -2040.471)" fill="#fec53b"/>
          <path id="Trazado_1049543" data-name="Trazado 1049543" d="M3319.316,2392.963a70.893,70.893,0,0,0-1.28-9.666,29.1,29.1,0,0,0-12.245-18.052c-.534-.359-1.025-.781-1.536-1.173a2.087,2.087,0,0,1-.758-1.7c.387-2.458,0-4.979.625-7.41.8-1.3,1.709-.708,2.55-.074a30.436,30.436,0,0,1,2.8,3.031c7.835,7.759,15.545,15.653,24.015,22.738a20.631,20.631,0,0,0,7.168,4.033,4.34,4.34,0,0,0,4.281-.79c6.667-5.351,8.961-16.446,4.956-23.995a17.982,17.982,0,0,0-2.811-3.582c-.6-.659-1.5-1.263-.993-2.409,1.3-.712,2.216.141,3.119.825a26.928,26.928,0,0,1,4.138,4.268c1.157-9.032-4.867-16.314-14.171-17.122-4.166-.362-8.413-.567-12.226,1.815-1.981.338-3.869-.347-5.8-.539a109.417,109.417,0,0,0-14.7-.877,3.883,3.883,0,0,1-1.692-.309c-1.187-.665-.711-1.575-.068-2.129a88.139,88.139,0,0,0,10.014-10.549.889.889,0,0,1,1.011-.182c1.3.983.837,2.185.359,3.337a33.275,33.275,0,0,1-4.2,6.78,11.464,11.464,0,0,0,6.075-2.9,24.632,24.632,0,0,0,7.418-10.309,47.92,47.92,0,0,0,2.651-17.923c-.239-13.587-6.444-25.132-12.164-36.855-1.381-2.829-1.579-2.672-3.476-.16a59.873,59.873,0,0,0-8.976,15.582c-2.034,5.6-3.3,11.344-2.647,17.273a20.558,20.558,0,0,0,10.581,16.335,8.537,8.537,0,0,0,3.572.815c1.1.112,2.138.549,2.066,1.792-.106,1.846.2,3.788-.853,5.5a7.187,7.187,0,0,0-2.169,1.707,66.923,66.923,0,0,1-11.916,11.05c-.25-.031-.039.5-.042.206,0-.089.056-.1.148-.124.487-.127.856-.093.846.547-.985,1.222-2.128.511-3.234.272a4.719,4.719,0,0,1-3.045-1.866,19.014,19.014,0,0,1-1.345-5.473c-.638-4.012-1.731-7.937-2.232-11.973-.012-.844-.009-1.687-.01-2.53a99.391,99.391,0,0,1,9.334-42.945c1.615-3.476,3.648-6.749,5.563-10.074a13.615,13.615,0,0,0,1.761-3.713c1.182-2.725,2.5-5.347,5.393-6.7,1.743.689,2.568,2.283,3.575,3.677,6.431,8.908,11.361,18.692,16.522,28.341,5.374,10.046,8.026,21.122,12.036,31.684,2.546,6.708,4.982,13.459,7.489,20.182a7.565,7.565,0,0,0,.789,1.281c.816,3.476,2.528,6.622,3.649,9.988,2.8,8.415,3.368,16.87.733,25.433a11.569,11.569,0,0,0-.26,1.484c.438,2.139-.7,3.911-1.467,5.716-1.3,3.053-2.9,5.947-6.148,7.433a91.144,91.144,0,0,1-12.209,4.637c-4.42.061-8.619-1.452-12.981-1.831-1.642-.142-3.264-.532-4.912-.648a3.894,3.894,0,0,1-2.672-1.185" transform="translate(-3048.152 -2088.896)" fill="#f3a62f"/>
          <path id="Trazado_1049544" data-name="Trazado 1049544" d="M39.023,1362.776,33.3,1375.857c-2.519-1.066-4.418-3.024-6.435-4.734A74.883,74.883,0,0,1,5.931,1343a78.917,78.917,0,0,1-5.71-25.266c-1.444-19.209,4.2-36.145,16.171-51.035,5.94-7.386,13.2-13.333,21.035-18.672A149.945,149.945,0,0,1,77.919,1228.3a184.111,184.111,0,0,1,31.12-6.768,23.8,23.8,0,0,1,4.31-.41,3.833,3.833,0,0,1,2.158,4.391,2.9,2.9,0,0,1-2.189.766c-21.772,2.139-42.393,8.418-62.029,17.846a84.763,84.763,0,0,0-26.767,20.559,92.569,92.569,0,0,0-14.8,21.672c-4.56,9.628-6.812,19.7-5.683,30.4a5.852,5.852,0,0,1,.055,1.52c-1.061,6.609,2.127,11.816,5.664,16.844,7.018,9.979,16.019,17.923,25.943,24.889a13.131,13.131,0,0,1,3.326,2.769" transform="translate(0 -1130.274)" fill="#83c8f4"/>
          <path id="Trazado_1049545" data-name="Trazado 1049545" d="M1483.294,68.64c-.835-2.529-.518-5.165-.607-7.744-.237-6.832-.027-13.655,1.971-20.271,1.983-6.564,5.422-12.165,11.356-16.207-2.216-1.948-4.383-3.835-4.216-7.031a6.209,6.209,0,0,1,1.692-3.987c1.129,4.912,2.976,5.986,7.873,4.8,4.6-1.119,8.76-3.453,13.269-4.831,5.041-1.54,10.078-2.168,15.107-.011a2.921,2.921,0,0,0,2.3-.1,24.077,24.077,0,0,1,5.586-1.5c-1.586-1.983-3.121-3.773-4.509-5.67-1.553-2.124-1.1-2.986,1.559-3.284a13.06,13.06,0,0,1,9.542,2.9,35.216,35.216,0,0,1,5.135,4.764c-1.158-3.328-2.413-6.618-.781-10.465,3.751,6.711,9.51,9.679,16.471,10.851,3.711.625,7.178,1.8,9.2,5.648.272-2.081-.566-3.747-.852-5.526,2.522,1.187,3.61,3.122,3.761,6.623,1.565-1.842,1.807-2.867,1.968-8.541,2.436,1.76,2.852,4.132,2.6,6.732-.2,2.116-1.228,3.549-3.543,3.686.189.835.882,1.018,1.407,1.342,11.022,6.782,16.24,16.981,17.428,29.555.191,2.021.335,4.048.5,6.071,1.479,2.989.961,6.059.375,9.131-.422.724-.93,1.265-1.872.86-1.834-.863-1.918-2.544-1.971-4.237-.8-3.858-.321-7.8-.806-11.7-.9-7.207-3-13.854-7.612-19.6-2.026-2.528-4.75-4.212-7.012-6.248a24.6,24.6,0,0,1,3.615,5.256,32.079,32.079,0,0,0,4.462,6.674c1.675,1.834,1.367,2.7-1.009,3.482-1.418,0-1.945-1.048-2.51-2.085A39.691,39.691,0,0,0,1572.3,24.85c-7.975-6-17.1-8.725-26.9-9.418a61.573,61.573,0,0,0-25.407,3.824,39.272,39.272,0,0,0-23.224,21.274c-.634,1.373-1.079,2.932-2.993,3.051-2.321-.45-3.17-1.332-3.39-3.521a9.181,9.181,0,0,1,7.535-9.9c-1.932-.911-2.156-1.5-1.08-2.834-5.82,6.138-9.548,13.285-10.051,21.824-.3,5.124-1.06,10.262-.179,15.407a7.856,7.856,0,0,1,.3,2.336,3.037,3.037,0,0,1-2.157,2.517,1.452,1.452,0,0,1-1.457-.768" transform="translate(-1372.321 -0.004)" fill="#1f1f51"/>
          <path id="Trazado_1049546" data-name="Trazado 1049546" d="M3903.149,1703.312c-3.423.829-6.909.494-10.369.5-1.531,0-2.445.408-2.835,1.959a28.493,28.493,0,0,1-1.176,3.26c-.237.615-.519,1.285-1.346,1.152-.734-.118-.733-.79-.794-1.363-.053-.5-.108-1.007-.132-1.512-.113-2.418-.5-4.578-2.841-6.1-1.375-.893-1.912-2.67-2.261-4.334,0-3.765,0-7.531.009-11.3.015-4.535,2.947-7.718,7.474-7.865,4.124-.134,8.256-.1,12.383-.023,3.141.057,6.358,2.526,6.556,5.614.327,5.106.62,10.258-.255,15.362a7.4,7.4,0,0,1-.433,1.221c-.488,2.116-1.716,3.374-3.981,3.425" transform="translate(-3592.668 -1552.829)" fill="#f4fefe"/>
          <path id="Trazado_1049547" data-name="Trazado 1049547" d="M4173.825,1980.347c1.653-.763,2.712-2.216,3.981-3.425,5.022,2.055,10.154,3.82,14.992,6.347,10.8,5.645,18.211,14.013,19.725,26.308a53.611,53.611,0,0,1-4.664,28.814,64.227,64.227,0,0,1-4.532,9.138c-.317.484-.526,1.039-1.083,1.32a49.335,49.335,0,0,0,3.006-18.089,74.322,74.322,0,0,0-7.393-30.568c-2.72-5.666-7.589-9.62-12.487-13.393a50.451,50.451,0,0,0-11.545-6.453" transform="translate(-3863.345 -1829.864)" fill="#82c8f4"/>
          <path id="Trazado_1049548" data-name="Trazado 1049548" d="M3023.939,756.9c.445-3.17.013-6.357.193-9.532a130.717,130.717,0,0,1,16.893-.9c11.39.15,22.139,2.766,31.91,8.612,10.7,6.4,16.562,15.965,17.877,28.453,1.084,10.3-2.027,19.238-7.881,27.467-.09-2.5,1.113-4.64,2.106-6.781,5.712-12.308,2.9-23.562-4.177-34.26A41.8,41.8,0,0,0,3065,756.084c-2.01-1.057-3.847-1.738-6.305-.464a18.418,18.418,0,0,1-9.875,1.659c-1.239-.092-.364-1.153-.622-1.829-2.042,1.869-3.77.111-4.448-1.035-2.106-3.554-5.071-2.865-7.984-2.092-4.125,1.093-8.212,2.4-11.675,5.079a.341.341,0,0,1-.208-.3c0-.133.02-.2.055-.2" transform="translate(-2798.945 -690.928)" fill="#82c7f4"/>
          <path id="Trazado_1049549" data-name="Trazado 1049549" d="M1933.748,3708.722c1.771.024,2.979-1.4,4.58-1.793,4.484-1.1,8.463-3.482,12.8-5,4.3-1.5,8.73-1.9,13.113-2.732a.905.905,0,0,1,1.051.394c-.9.8-2.069.423-3.056.621-8.635,1.729-16.436,5.513-24.045,9.733-10.371,5.752-19.267,13.483-28.251,21.12-6.714,5.707-13.447,11.432-21.185,15.8-.781.441-1.9.335-2.364,1.327a98.814,98.814,0,0,1-10.218-.578c2.569.5,4.259-1.241,6.133-2.458,6.176-4.012,12.22-8.215,18.089-12.667.354-.268.7-.508.745-1,.06-1.068.89-1.558,1.6-2.143,1.753-1.447,3.734-2.589,5.442-4.095a272.5,272.5,0,0,1,22.438-15.611c.931-.56,1.815-1.552,3.131-.92" transform="translate(-1736.607 -3423.991)" fill="#2a3272"/>
          <path id="Trazado_1049550" data-name="Trazado 1049550" d="M312.206,3908.408c-.137,4.375-.353,8.753.54,13.086-10.546-3.142-20.762-7.22-31.087-10.986a13.849,13.849,0,0,1-4.543-2.5c-1.152-1.019-1.032-1.717.323-2.415,3.143-1.616,6.579-2.142,9.985-2.782.629-.118,1.32.027,1.82-.525a1.074,1.074,0,0,1,.847.036c4.56,2.965,9.959,2.764,14.986,3.951,1.615.381,3.264.657,4.908.921a3.161,3.161,0,0,1,2.221,1.21" transform="translate(-255.774 -3611.946)" fill="#62b1f2"/>
          <path id="Trazado_1049551" data-name="Trazado 1049551" d="M443.782,3854.318c-5.634-1-11.256-2.068-16.906-2.968a11.73,11.73,0,0,1-6.057-3.15c-.623-1.363-1.921-2.31-2.34-3.8,1.082-.985,2.2-.18,3.287-.035a78.152,78.152,0,0,0,19.555-.312c1.529-.179,3.572-1.008,4.139,1.6l-1.678,8.669" transform="translate(-387.349 -3557.856)" fill="#f4a52c"/>
          <path id="Trazado_1049552" data-name="Trazado 1049552" d="M3636.646,4087.619a156.374,156.374,0,0,1,17.062,2.6c1.188.26,2.336.7,3.5,1.062-6.4,2.608-13.1,4.175-19.786,5.8l-1.474.358c.648-3.243.454-6.546.7-9.818" transform="translate(-3365.481 -3783.552)" fill="#61b1f3"/>
          <path id="Trazado_1049553" data-name="Trazado 1049553" d="M1475.859,922.683l1.284.451c1.194.343,1.664,1.37,2.1,2.354,3.713,8.469,6.3,17.224,6.634,26.541a3.279,3.279,0,0,1-.235,1.912c-1.993.834-2.557-.731-3.315-1.973-2.279-7.564-4.519-15.142-7.066-22.624a8.017,8.017,0,0,1-.66-3.386c-.094-1.29.858-2.177,1.262-3.275" transform="translate(-1364.886 -854.047)" fill="#385fb2"/>
          <path id="Trazado_1049554" data-name="Trazado 1049554" d="M4085.879,3910.935c4.065-3.5,5.854-8.315,7.615-13.149a30.191,30.191,0,0,1,8.262,2.557c2.627,1.342,2.66,2.731.035,4.325a55.475,55.475,0,0,1-10.509,4.663,26.551,26.551,0,0,1-5.4,1.6" transform="translate(-3781.941 -3607.84)" fill="#62b1f3"/>
          <path id="Trazado_1049555" data-name="Trazado 1049555" d="M1469.06,966.712c1.785,3.337,2.692,7,3.853,10.564,1.679,5.151,3.147,10.371,4.705,15.562-2.135.154-2.9-.583-2.96-2.852a20.722,20.722,0,0,0-1.961-4.336,95.268,95.268,0,0,1-3.932-15.781,4.094,4.094,0,0,1,.294-3.156" transform="translate(-1359.349 -894.801)" fill="#f4d23f"/>
          <path id="Trazado_1049556" data-name="Trazado 1049556" d="M1320.721,1584.833c-1.669,2.168-3.6,4.144-4.856,6.614a3.215,3.215,0,0,1-1.641,2.471c-2.424.244-3.078,2.473-4.189,4.008a35.582,35.582,0,0,0-5.9,13.169,2.927,2.927,0,0,1-1.052,2.078c-3.6,1.753-4.329,1.587-6.637-1.714-2.655-3.8-4.971-7.85-8.351-10.695a43.053,43.053,0,0,1,4.161,19.012,12.325,12.325,0,0,1-.52,3.641,41.625,41.625,0,0,1-14.449,26.6,6.364,6.364,0,0,1-2.841,1.528c-4.39-1.376-8.62-2.968-10.3-7.893a114.072,114.072,0,0,1,.054-13.7,7.051,7.051,0,0,0-.1-1.949,8.2,8.2,0,0,1-.05-1.9c.419-2.757.14-5.313-2.1-7.312a6.463,6.463,0,0,0-4.607-1.572c-11.733,0-23.461.45-35.193.575-4.077.043-8.258-.206-12.331.667a3.556,3.556,0,0,0-1.6.6,16.3,16.3,0,0,0-3.5,4.241,7.015,7.015,0,0,0-.628,3.586c0,5.35.023,10.7-.007,16.052-.015,2.7-.789,3.267-3.48,2.908-3.665-.489-7.351-.972-10.689,1.292a7.48,7.48,0,0,0-2.828,2.488c-.544.779-1.1,1.489-2.208,1.307a38.8,38.8,0,0,1-12.386-11.1c-5.908-8.545-9.134-18.372-12.284-26.807.664,2.982,2.749,6.865,3.682,11.13a81.05,81.05,0,0,1,1.614,12.493,102.9,102.9,0,0,0,2.353,18.748,29.354,29.354,0,0,0,4.2,9.5c.476.7,1.276,1.432.831,2.33-.485.978-1.622.941-2.528.85-3.377-.339-6.8.367-10.154-.474a4.743,4.743,0,0,1-1.015-1.1c-1.149-2.661-.909-5.523-1.213-8.309-.407-3.731-1.048-7.431-1.517-11.154a4.933,4.933,0,0,0-.215-2.872c.027-2.315-1.035-4.486-.912-6.814a8.452,8.452,0,0,0,.37-4.077c-.6-7.072-.847-14.189-2.333-21.157a107.254,107.254,0,0,0-11.853-31.65c-.264-.455-.472-.908-1.1-.862-.661-.337-1.467-.359-2.039-.908.088-1.285,1.159-1.779,2-2.417,6.221-4.7,12.738-8.9,20.149-11.515,1.569-.554,1.838-1.369,1.295-2.968-1.356-3.994-.327-7.377,2.727-9.762.988-.771,2.041-1.429,3.392-.933.179.536.166,1.062.807,1.479a36.372,36.372,0,0,1,6.216,5.018,16.967,16.967,0,0,1-4.152-4.677,6.374,6.374,0,0,0-2.751-2.639c-1.268-2.311-.863-4.649-.009-6.936,1.5-4.025,4.542-6.654,8.18-8.684,4.961-2.769,10.43-3.472,15.966-3.688,2.587-.1,5.224-.414,7.789.364a5.413,5.413,0,0,1,2.208,5.709,1.766,1.766,0,0,1-.411.621c-1.237.835-2.652.589-4.012.614-4.195.075-8.432-.359-12.516,1.009-2.35.787-4.734,1.57-5.693,4.237-.678,1.977.036,3.769.742,5.558.445,1.128,1.277,2.058,1.678,3.21a6.281,6.281,0,0,0,2.638,4.555c7.509,6.067,14.749,12.474,22.78,17.879,1.188.8,2.516,1.638,2,3.475a9.033,9.033,0,0,1-1.078,1.576,3.37,3.37,0,0,0,.378,4.315c.582.7,1.443,1.2,1.574,2.219a1.337,1.337,0,0,1-1.808,1.34c-2.459-.775-5.044-.4-7.516-1.065a26.873,26.873,0,0,1-7.1-3.2,5.224,5.224,0,0,0-3.016-1.079,58.7,58.7,0,0,1-13.592-8.074c3.831,2.931,6.906,6.02,10.345,8.694a51.123,51.123,0,0,0,23.364,9.893,4.768,4.768,0,0,1,2.274.639c1.352,1.8,1.45,3.93,1.295,6.014a16.977,16.977,0,0,1-5.2,11.4,3.386,3.386,0,0,0-1.267,1.908,17.563,17.563,0,0,0,7.237-13.751c.087-1.561-.365-3.21.671-4.643a3.6,3.6,0,0,1,2.9-.594,97.038,97.038,0,0,0,12.366.721c.921-.025,1.92-.176,2.613.7.779,1.654.382,3.42.436,5.138a18.888,18.888,0,0,0,4.266,11.831,7.346,7.346,0,0,0,1.038,1.108.662.662,0,0,0,.722.089c.213-.811-.525-1.194-.928-1.7a18.968,18.968,0,0,1-4.009-15.487,3.182,3.182,0,0,1,.941-2.134c7.253.305,13.453-2.8,19.618-6.045a70.149,70.149,0,0,0,18.029-13.457,23.991,23.991,0,0,0,4.375-5.786,20.24,20.24,0,0,0-5.455,2.147c-4,2.214-7.815,4.71-11.6,7.261a7.752,7.752,0,0,1-2.876,1.484c-1.459,0-2.566.907-3.716,1.578a54.609,54.609,0,0,1-9.093,3.838,2.484,2.484,0,0,1-3.253-.836,3.045,3.045,0,0,1-.382-1.216c-.171-1.565-.854-2.621-2.6-2.379a2.578,2.578,0,0,0-2.391,2.993,7.313,7.313,0,0,1-.006,1.5,3.521,3.521,0,0,1-2.906,3.532,6.111,6.111,0,0,0-1.588.677c-5.253,3.18-10.593,2.533-15.993.44a8.373,8.373,0,0,1-2.565-1.561,2.615,2.615,0,0,1-.62-3.141,27.126,27.126,0,0,0,.993-3.715,2.606,2.606,0,0,1,2.367-1.8c2.476.553,4.271,2.313,6.3,3.644,2.4,1.577,2.7,1.648,4.958-.009,2.382-1.745,4.676-3.6,6.9-5.537a9.721,9.721,0,0,1,.963-.76c1.046-.815,1.928-1.866,3.258-2.277,2.133-.709,3.635-2.358,5.29-3.716,4.413-3.621,9.512-6.293,13.855-9.947,2.883-2.425,6.247-4.5,8.022-8.076.629-.973,1.41-1.83,2.077-2.773,3.223-4.556,1.681-9.544-3.583-11.471-3.1-1.137-6.4-.946-9.62-1.251-1.361-.129-2.743.01-4.113-.048a3.036,3.036,0,0,1-2.563-.9c-.668-1.256-.184-2.571-.208-3.862a1.275,1.275,0,0,1,.664-.961c9.215-.612,18.237-.263,26.164,5.371a6.635,6.635,0,0,1,2.478,2.662c2.779,5.4,2.258,10.477-1.613,15.138a79.005,79.005,0,0,1-17.944,15.639c-2.4,1.562-4.789,3.138-7.208,4.671,6.446-4.025,12.673-8.37,18.851-12.79a89.356,89.356,0,0,0,8.66-7.245c.771-.715,1.441-1.707,2.749-1.4,4.57-.152,7.383,3.3,6.306,7.817-.306,1.285-.427,2.186,1.249,2.563,8.99,2.024,16.49,6.934,23.722,12.359a48.678,48.678,0,0,1,8.448,8.4" transform="translate(-1053.701 -1416.958)" fill="#fec53d"/>
          <path id="Trazado_1049557" data-name="Trazado 1049557" d="M1884.385,642.2a60.016,60.016,0,0,1-4.531,16.268c-4.37,7.153-10.452,12.141-18.627,14.247-11.068,2.851-22.182-2.34-28.251-11.255a7.709,7.709,0,0,0-2.627-3.209c-3.064-3.908-4.423-8.51-5.358-13.274-.137-.7-.253-1.409-.428-2.1-.178-1.487-.722-2.9-.845-4.4-.146-2.472-.937-4.829-1.309-7.26.33-2.95-.717-5.719-1.176-8.56-.892-5.53-1.646-11.05-.714-16.651a10.892,10.892,0,0,1,.311-1.49c.643-2.041,1.7-2.551,3.612-1.627a34.708,34.708,0,0,0,4.38,1.919,8.974,8.974,0,0,0,10.294-3.129,25.506,25.506,0,0,0,3.544-6.706c1.025-2.59,1.749-3.031,4.491-2.394a14.342,14.342,0,0,0,13.518-3.468c.691-.615,1.416-1.534,2.421-1.147,1.169.449,1.214,1.7,1.3,2.789a7.451,7.451,0,0,1-1.123,4.573,10.816,10.816,0,0,1-4.879,4.184c-.8.369-2.187.269-2.23,1.395-.049,1.255,1.109,1.956,2.135,2.528a8.746,8.746,0,0,0,6.766.462,17.963,17.963,0,0,0,10.972-7.664,11.857,11.857,0,0,1,1.956-2.6c.86-.76,1.554-.688,1.946.491a1.419,1.419,0,0,1,.107.421c.035,4.309,2.281,6.992,6.153,8.587,1.154.475,1.546,1.613,1.749,2.833.663,3.987.073,7.949-.292,11.9-.133,1.434-.123,2.889-.364,4.318-.437,3.839-1.03,7.66-1.124,11.531-.531,2.846-.118,5.89-1.775,8.5" transform="translate(-1684.699 -544.131)" fill="#febd84"/>
          <path id="Trazado_1049558" data-name="Trazado 1049558" d="M1659.931,346.078a44.187,44.187,0,0,1,1.067-8.465c1.179-9.044,3.6-17.861,4.892-26.883-.706,4.783-1.647,9.522-2.683,14.242-.112.509.135,1.484-1.006,1.129-.027-.009-.039-.115-.033-.173a1.107,1.107,0,0,1,.063-.208c.345-5.352,1.1-10.688.487-16.073-.1-.918-.146-1.71-1.214-2.024-4.844-1.427-6.739-4.9-6.706-9.71a5.962,5.962,0,0,0-.185-.892c-1,1.511-1.792,2.843-2.712,4.08a18.729,18.729,0,0,1-13.706,7.905,7.534,7.534,0,0,1-7.589-3.668c-.738-1.165-.861-1.859.889-2.085a8.926,8.926,0,0,0,5.78-3.182,7.846,7.846,0,0,0,1.359-8.1c-1.02.884-1.893,1.731-2.855,2.459a14.766,14.766,0,0,1-14.162,2.54c-1.4-.456-1.911-.211-2.313,1.155a22.734,22.734,0,0,1-3.574,7.406c-3.332,4.406-7.3,5.587-12.45,3.66a24.99,24.99,0,0,1-3.14-1.491c-2.6-1.415-2.7-1.4-3.21,1.661-1.072,6.414-.107,12.724,1.009,19.028a25.339,25.339,0,0,1,.685,6.467c-1.439.1-1.5-1.165-1.822-2-2.324-5.98-3.975-12.175-5.731-18.335a17.927,17.927,0,0,1-.628-2.3c2.4,10.314,6.387,20.123,9.521,30.2a12.081,12.081,0,0,1,.754,4.306,6.173,6.173,0,0,1-2.755,4.587,1.819,1.819,0,0,1-2.19.218,5.022,5.022,0,0,1-1.211-2.5c-3.841-12.128-7.342-24.355-10.671-36.633-.413-1.521-.691-3.126-2.091-4.155.7-3.459-.619-6.1-3.145-8.428-1.527-1.41-1.334-3.393.2-5.728a5.047,5.047,0,0,1,3.561-2.549,8.018,8.018,0,0,1,2.682,1.354c1.871,1.031,2.147.975,3.017-1.08a31.717,31.717,0,0,1,10.431-13.306,45.537,45.537,0,0,1,22.657-9.884,52.853,52.853,0,0,1,27.405,2.754,43.1,43.1,0,0,1,11.622,7.146,58.672,58.672,0,0,1,8.026,9.91c.733,1.066,1.249,2,2.5.513a1.574,1.574,0,0,1,2.332-.207,4.379,4.379,0,0,1,.874,3.049c.046,1.371-.036,2.745.048,4.114.187,3.042,1.208,5.62,4.032,7.21.811.456,1.776.985,1.372,2.147s-1.507,1.206-2.54,1.219a4.748,4.748,0,0,1-2.484-.663c-1.361-.8-1.814-.105-1.962,1.144q-3.481,18.565-6.522,37.2c-.167,1.008-.051,2.029-.2,3.031-.191,1.267-.116,2.634-1.2,3.607-2.178-.94-3.345-2.86-4.574-4.72" transform="translate(-1460.246 -248.014)" fill="#201f51"/>
          <path id="Trazado_1049559" data-name="Trazado 1049559" d="M2776.175,793.154c1.376,0,2.374,1,3.612,1.364a1.948,1.948,0,0,1,.9,2.331q-2.792,14.707-5.455,29.439a58.674,58.674,0,0,0-.868,6.007,3.373,3.373,0,0,1-2.886,3.456,17.5,17.5,0,0,0-2.223.807c-1.109-1.234-.87-2.721-.658-4.132,1.868-12.43,4.052-24.8,6.689-37.1a4.482,4.482,0,0,1,.889-2.175" transform="translate(-2562.482 -734.154)" fill="#3659ac"/>
          <path id="Trazado_1049560" data-name="Trazado 1049560" d="M4197.5,2745.128c1.94-2.111.457-3.966.491-5.716.026-1.327-.95-3.124.186-3.87,1.253-.823,3.015-.111,4.479.605,5.054,2.473,5.218,3.3,1.324,7.192a14.7,14.7,0,0,1-5.771,4.008c-1.439.477-2.629,1.74-3.9,2.693a2.437,2.437,0,0,1-3.18.029c-2.026-1.383-3.542-3.17-3.317-5.671a9.04,9.04,0,0,1,4.866-7.5,1.618,1.618,0,0,1,.2-.08c2.867-1.035,3.662-2.116,3.605,2.336-.023,1.836.6,3.681,1.013,5.972" transform="translate(-3876.272 -2531.712)" fill="#93cdf8"/>
          <path id="Trazado_1049561" data-name="Trazado 1049561" d="M1993.054,1539.6c1.784,1.791,3.46,3.706,5.369,5.351,10.154,8.748,24.553,8.352,34.57-.959,2.378-2.211,4.536-4.658,6.8-7a.375.375,0,0,0,0,.36q-.1.46-.193.922c-2.395,9.5-13.1,18.1-22.865,18.259-1.98.032-4.063.781-5.963-.454-6.375-1.592-10.964-5.648-14.792-10.747-.823-1.1-1.583-2.242-2.387-3.353a2.246,2.246,0,0,1-.541-2.381" transform="translate(-1844.635 -1422.663)" fill="#1a1749"/>
          <path id="Trazado_1049562" data-name="Trazado 1049562" d="M2755.315,787.5a4.826,4.826,0,0,1-.132,2.761c-2.462,11.831-4.682,23.706-6.418,35.666-.239,1.641-.252,3.315-.369,4.975-.788.465-1.556,1.053-2.515.381.784-11.684,3.5-23.07,5.362-34.586.441-2.72.932-5.432,1.42-8.144.1-.543-.014-1.2.653-1.508l2,.454" transform="translate(-2541.621 -728.502)" fill="#f9d444"/>
          <path id="Trazado_1049563" data-name="Trazado 1049563" d="M2928.427,885.734c.052.167.1.334.153.5-.109,1.7,1.69,2.879,1.27,4.662-.455,3.529-1.795,6.838-2.572,10.29-.875,3.886-1.928,7.733-2.594,11.665a3.873,3.873,0,0,1-.919,2.157,6.11,6.11,0,0,1-2.1,1.34c-1.057-.75-.9-1.894-.94-2.959-.246-5.9,1.026-11.628,2.071-17.377a48.892,48.892,0,0,1,1.99-8.181c.4-1.087.75-2.483,2.479-2.139a1,1,0,0,0,1.16.039" transform="translate(-2703.433 -819.761)" fill="#395cad"/>
          <path id="Trazado_1049564" data-name="Trazado 1049564" d="M2652.771,1663.821c-4.015,3.419-7.824,7.07-12.15,10.137-6.27,4.446-12.807,8.46-19.358,12.46-.222.135-.48.372-.863.009.938-1.221,2.376-1.814,3.589-2.607a126.542,126.542,0,0,0,20.825-16.637c4.58-4.613,6.751-9.658,4.6-16.081a5.935,5.935,0,0,1-.139-1.293,12.759,12.759,0,0,1,3.689,11.022,6.993,6.993,0,0,0-.2,2.989" transform="translate(-2425.474 -1527.084)" fill="#eea12e"/>
          <path id="Trazado_1049565" data-name="Trazado 1049565" d="M3169.028,1482.084c-3.7-.009-4.562-.552-5.147-2.948-.438-1.792,1.224-5.13,2.881-6.1.733-.428,1.045.242,1.576.3a6,6,0,0,1,4.436,3.128c1.831,2.9,1.055,4.681-2.254,5.412a13.518,13.518,0,0,1-1.493.2" transform="translate(-2928.462 -1363.333)" fill="#92cefa"/>
          <path id="Trazado_1049566" data-name="Trazado 1049566" d="M2891.249,836.161c-1.272.486-1.473,1.711-1.818,2.773a76.4,76.4,0,0,0-3.783,27.882l-3.865,2.71c1.116-5.762,2.191-11.052,3.159-16.362,1.244-6.828,2.508-13.651,4.065-20.416l.414-.621c-.236,1.727.7,2.924,1.828,4.034" transform="translate(-2667.414 -770.228)" fill="#222b70"/>
          <path id="Trazado_1049567" data-name="Trazado 1049567" d="M3809.831,2408.581c-1.177.058-2.159-.154-2.656-1.4a4.464,4.464,0,0,1,.646-4.682c2.033-2.525,7.066-1.965,8.626.865a1.53,1.53,0,0,1-.238,1.981,9.52,9.52,0,0,1-6.379,3.239" transform="translate(-3523.614 -2222.29)" fill="#95d0fb"/>
          <path id="Trazado_1049568" data-name="Trazado 1049568" d="M2961.349,980.409c-.29-2.946.786-5.678,1.4-8.469a125.285,125.285,0,0,1,3.5-13.362,5.555,5.555,0,0,1,1.182-2.281c.78,1.851.193,3.725.032,5.573a55.052,55.052,0,0,1-3.8,16.2c-.46,1.124-1.02,2.081-2.322,2.336" transform="translate(-2741.017 -885.161)" fill="#f1d043"/>
          <path id="Trazado_1049569" data-name="Trazado 1049569" d="M3010.485,1323.263c1.935-1.936,1.695-4.329,1.6-6.683-.042-1.04.717-1.308,1.461-1.619,2.736-1.144,5.488-2.255,8.2-3.459,1.283-.57,1.769-.245,1.623,1.111-.2,1.844-.418,3.685-.643,5.653-.833-.294-.864-.882-1-1.4-.736-2.8-.735-2.8-3.339-1.854-.68.248-1.342.552-2.034.754-1.819.532-2.852,1.53-2.522,3.6.376,2.358-1.722,2.9-3.344,3.89" transform="translate(-2786.542 -1213.695)" fill="#cff2fa"/>
          <path id="Trazado_1049570" data-name="Trazado 1049570" d="M4202.11,2252.621c-1.646.075-2.289-.855-2.21-1.883a2.586,2.586,0,0,1,2.717-2.325c1.26-.009,2.712.939,2.6,2.156-.162,1.7-2.108,1.613-3.1,2.052" transform="translate(-3887.473 -2081.16)" fill="#98d0fa"/>
          <path id="Trazado_1049571" data-name="Trazado 1049571" d="M1706.579,3646.011c-6.695-5.182-13.339-10.435-20.529-14.936-2.391-1.841-2.343-2.421.513-3.561a47.215,47.215,0,0,0,8.35-4.171c3.783-2.46,8.206-2.065,12.414-2.575a2.751,2.751,0,0,1,2.222,1.2,8.075,8.075,0,0,0,4.116,3.619c4.028,1.125,7.946,2.633,12.105,3.263a45.438,45.438,0,0,0,21.346-2.143c1.531-.508,3.1-.614,4.613-1.052.865-.128,1.867-.356,2.347.567.46.883-.207,1.682-.758,2.338a38.62,38.62,0,0,1-10.336,8.893c-6.887,3.931-14.02,7.31-22.108,7.989a9.361,9.361,0,0,1-2.6,0c-3.062-.6-6.187-.761-9.252-1.281-1.748-.3-2.517.054-2.447,1.851" transform="translate(-1559.041 -3351.417)" fill="#f3a630"/>
          <path id="Trazado_1049572" data-name="Trazado 1049572" d="M1966.633,3652.377a1.15,1.15,0,0,1-.055-.209c-.073-.938-1.864-1.33-1.1-2.269.683-.842,2.036-.386,3.1-.238,3.706.515,7.411,1.466,11.115,1.459a32.131,32.131,0,0,0,12.193-2.714c5.407-2.253,10.762-4.664,15.3-8.486a33.628,33.628,0,0,0,6.69-6.995c-.676-.638-1.341-.292-1.95-.346-1.966.217-3.931.393-5.884.763a4.218,4.218,0,0,1-3.486-.547c-.6-1.126.41-1.16,1-1.382a6.638,6.638,0,0,1,2.358-.2c3.893-.008,7.788-.082,11.679.021a10.465,10.465,0,0,0,8.4-3.174,3.026,3.026,0,0,1,2.289-.369,28.828,28.828,0,0,1,8.253,2.551,2.327,2.327,0,0,1,1.622,1.871,99.175,99.175,0,0,0-19.738,9c-.745.439-1.458.932-2.185,1.4a148.725,148.725,0,0,0-16.217,10.564c-3.008,2.147-5.851,4.527-9.038,6.422a37.553,37.553,0,0,1-15.507-.432q-3.576-2.736-7.153-5.469c-.552-.421-1.125-.815-1.687-1.222" transform="translate(-1819.094 -3357.784)" fill="#ed992f"/>
          <path id="Trazado_1049573" data-name="Trazado 1049573" d="M1383.466,2666.547h12.451c-6.251-7.739-7.181-16.734-7.689-25.779a101.367,101.367,0,0,0-4.784-27.012,14.033,14.033,0,0,1-.685-3.349c1.842,5.238,4.814,9.955,6.684,15.17,3.387,9.447,8.886,17.342,17.316,23.008a4.321,4.321,0,0,1,1.548,1.483.963.963,0,0,1,.035,1.195c-1.077,1.591-2.152,3.181-3.166,4.813a1.3,1.3,0,0,1-1.272.635c-1.293-.675-1.857-2-2.661-3.088a88.826,88.826,0,0,1-6.785-10.356,7.256,7.256,0,0,0-1.826-2.129,33.377,33.377,0,0,0,4.3,13.673c1.336,2.322,2.948,4.473,4.17,6.862-.2,2.553-2.24,3.9-3.78,5.51-1.078,1.129-2.322,2.126-3.457,3.223a2.725,2.725,0,0,1-1.758.777,1.491,1.491,0,0,1-1.059-.694c-.372-.583.025-1.618-.843-1.844-.8-.208-1.25.6-1.722,1.1-3.162,3.382-5.694,7.052-5.707,11.967,0,1.169-.043,2.524-1.539,3.031l-1.824-.631c.935-2.133.333-4.482.935-6.662-.64-2.291.712-4.039,1.647-5.88.694-1.365,1.939-2.318,2.872-3.464-.191-.822-1.735-.322-1.4-1.558" transform="translate(-1276.798 -2416.226)" fill="#f3a42f"/>
          <path id="Trazado_1049574" data-name="Trazado 1049574" d="M1528.714,3413.324l1.31-.834a1.878,1.878,0,0,1,.5,1.8c-.361,4.315.854,8.33,2.44,12.242,1.663,4.107,3.84,5.075,8.085,3.767a38.567,38.567,0,0,0,6.44-3.128c1.975-1.038,3.8-1.647,6.158-.612,1.975.867,4.265-.209,6.426-.263.718-.018,1.434-.209,2.161-.178,1.6.067,2.48.733,2.064,2.48a1.491,1.491,0,0,1-.676,1.215c-1.761-2.379-4.038-.611-6.032-.632a17.756,17.756,0,0,0-10.643,3.722c-1.608,1.149-3.675,1.663-5.543,2.441-2.521,1.049-2.525,1.04-.981,2.961l-9.532-5.406c-3.807-5.425-4.179-11.581-3.746-17.886.059-.856.36-1.768,1.571-1.686" transform="translate(-1413.411 -3158.643)" fill="#f69b6c"/>
          <path id="Trazado_1049575" data-name="Trazado 1049575" d="M1403.922,3393.943c1.369-2.067.623-4.519,1.24-6.747,1.15-4.153,3.939-7.15,6.731-10.171a1.24,1.24,0,0,1,1.776-.091,2.019,2.019,0,0,1,.25,2.757,6.4,6.4,0,0,1-.815,2.219,17.66,17.66,0,0,0-.3,12.5c.348,1.047,1.007,2.145.259,3.309l-9.139-3.777" transform="translate(-1299.488 -3125.427)" fill="#fdc33d"/>
          <path id="Trazado_1049576" data-name="Trazado 1049576" d="M1500.223,3436.145c-1.351-4.045-2.809-8.052-1.8-12.464a10.463,10.463,0,0,1,2.655-5.565l.871.416c-.928.513-.839,1.405-.874,2.271-.235,5.742.355,11.322,3.149,16.49.106.2-.06.538-.1.812l-3.906-1.96" transform="translate(-1386.65 -3163.852)" fill="#ea744b"/>
          <path id="Trazado_1049577" data-name="Trazado 1049577" d="M2102.214,4045.321c1.4-.928,2.785.083,4.182.055,2.936-.057,5.875-.013,8.812-.015a4.807,4.807,0,0,1,2.514.393c-2.2,2.244-4.953,3.792-7.355,5.783a86.263,86.263,0,0,1-8.153-6.216" transform="translate(-1945.836 -3744.037)" fill="#e17f25"/>
          <path id="Trazado_1049578" data-name="Trazado 1049578" d="M2522.624,3103.2c-3.574-2.4-7.637-3.324-11.811-3.91a2.5,2.5,0,0,1-2.495.092,70.461,70.461,0,0,1-12.03-5.026,6.991,6.991,0,0,1-3.661-3.842c-.394-1.213-.631-2.448.842-3.2a55.837,55.837,0,0,0,10.412,2.786,74.152,74.152,0,0,0,16,.377,5.291,5.291,0,0,0,3.486-1.447.677.677,0,0,0-.85-.24c-3.417,2.58-7.414,2-11.239,1.908a56.756,56.756,0,0,1-12.665-1.629c-1.824-.465-3.386-1.656-5.314-1.774-2.063-.151-3.217-1.541-4.072-3.172a3.509,3.509,0,0,1,.247-4.083c1.056-1.281,2.418-1.056,3.782-.6a11.707,11.707,0,0,0,6.261,1.448c6.593.049,13.162-.394,19.522-2.356a11.479,11.479,0,0,0,5.094-2.716c-2.751.946-5.088,1.881-7.48,2.642-6.765,2.151-13.636,3.183-20.734,1.938a13.4,13.4,0,0,1-2.835-1.007c-1.91-.449-2.539-1.809-2.414-3.58a4.42,4.42,0,0,1,3.87-3.85c2.517-.256,5.05-.406,7.577-.553a58.655,58.655,0,0,0,9.413-1.557,2.615,2.615,0,0,0,2.374-3.021c-.083-2.607-.045-5.219-.007-7.828.015-1-.064-2.06.865-2.791a4.8,4.8,0,0,0,3.113,3.231c2.275,1,3.864,3.265,6.527,3.579a3.74,3.74,0,0,1,2.912,1.168,30.993,30.993,0,0,1,7.4,8.105,23.457,23.457,0,0,0,8.063,7.612c3.954,4.321,4.782,9.46,3.77,15-.335,1.833-1.307,3.614.423,5.239-8.311-.566-16.348,1.048-24.336,3.058" transform="translate(-2303.559 -2828.865)" fill="#fdbe87"/>
          <path id="Trazado_1049579" data-name="Trazado 1049579" d="M2986.543,2814.458c-4.742-1.681-6.953-5.931-9.715-9.61a30.361,30.361,0,0,0-8.1-7.493c9.563-6.862,14.661-16.375,16.522-27.811,1.406-.882,2.169.068,2.809,1.072a9.8,9.8,0,0,1,1.085,3.726c1.164,6.68.856,13.421.883,20.149,0,1.158-.071,2.323.046,3.474.133,1.309.406,2.59,1.777,3.241,1.028,1.238.807,2.711.622,4.1-.264,1.983-.284,3.988-.636,5.962a2.44,2.44,0,0,0,.611,2.57,14.819,14.819,0,0,0,1.225,1.273c4.794,5.253,4.748,11.684,4.374,18.172a2.176,2.176,0,0,1-1.565,2.138,2.89,2.89,0,0,1-1.666-.445c-.612-.672-.445-1.493-.427-2.282a50.766,50.766,0,0,0-.042-7.181c-.609-5.033-2.588-9.219-7.8-11.057" transform="translate(-2747.894 -2563.202)" fill="#ec962f"/>
          <path id="Trazado_1049580" data-name="Trazado 1049580" d="M3285.533,3369.7l-.846-.68c1.591-1.509,3.175-.821,4.759.013l2.6,1.086c3.639,2.87,4.769,6.933,5.356,11.254a2.169,2.169,0,0,1-.5,1.824c.2,3.2-.395,6.368-.45,9.56l-3.943-1.816c-.334-5.282-.792-10.543-2.868-15.5a12.1,12.1,0,0,0-4.107-5.741" transform="translate(-3040.347 -3117.579)" fill="#fde366"/>
          <path id="Trazado_1049581" data-name="Trazado 1049581" d="M3208.176,3376.774c3.23-.49,4.9,1.6,6.317,3.942,3.161,5.213,2.711,10.885,1.955,16.578a11.259,11.259,0,0,1-3.519-.5,1.4,1.4,0,0,0-1.178-.433c-1.2-.022-1.487-.486-1.029-1.652,2.53-6.444,1.736-12.444-2.546-17.936" transform="translate(-2969.528 -3125.518)" fill="#fec33f"/>
          <path id="Trazado_1049582" data-name="Trazado 1049582" d="M3296.056,3389.241c3.383,1.494,4.462,4.732,5.669,7.766,1.5,3.779,1.48,7.887,2.146,11.848a1.67,1.67,0,0,1-.84,1.628l-3.573-1.137c1.17-1.895,1.053-4.013.935-6.085-.285-5.02-.451-10.1-4.337-14.02" transform="translate(-3050.871 -3137.124)" fill="#f8be3c"/>
          <path id="Trazado_1049583" data-name="Trazado 1049583" d="M172.446,887.365c2.494-.646,3.205-3.007,4.564-4.744.473,1.891.959,3.779,1.416,5.673a27.65,27.65,0,0,0,4.458,9.577.635.635,0,0,1-.106.846c-6.872-.039-13.761-.191-20.345,2.284a18.8,18.8,0,0,0-10.032,7.877,10.071,10.071,0,0,0-.911,8.557c.17.508-.079.8-.516.993-4.909.548-7.629,5.684-5.537,10.457,1.092,2.491,1.094,2.5-1.5,3.436a75.846,75.846,0,0,0-22.6,13.458,3.3,3.3,0,0,1-2.593,2.2c-2.809,2.155-4.663,5.129-6.674,7.942-8.407,11.762-15.549,24.309-22.734,36.83-4.542,7.916-9.18,15.777-13.775,23.663-2.749-.876-4.838-2.828-7.067-4.5a107.773,107.773,0,0,1-13.81-11.893c-5.647-5.955-10.928-12.2-14.134-19.891a9.462,9.462,0,0,1-.807-5.26c.365-2.291-.187-4.617-.245-6.917a58.192,58.192,0,0,1,3.619-22.577c3.87-10.077,9.741-18.83,16.817-26.945a90.258,90.258,0,0,1,26.852-21.055,164.015,164.015,0,0,1,27.487-10.829c7.066-2.158,14.131-4.334,21.458-5.431,5.354-.8,10.672-1.933,16.117-2.022.856,1.086,1.265,2.634,2.959,2.851a5.178,5.178,0,0,0,2.2,2.044c.954-.337,1.787.282,2.9.529-3.64-9.067-4.712-18.635-8.208-27.5a13.507,13.507,0,0,1-1.1-6.293c-.058-.711-.646-1.327-.38-2.1.471-1.3,1.291-2,2.75-1.615,1.431.945,1.574,2.546,1.938,3.99,2.41,9.557,4.941,19.081,7.7,28.544.061.209.1.423.163.631,1.611,5.586,1.611,5.586,7.364,6.831a6.335,6.335,0,0,1,2.31.354" transform="translate(-36.541 -783.911)" fill="#63b2f2"/>
          <path id="Trazado_1049584" data-name="Trazado 1049584" d="M914.023,2795.183c.669.743.307,1.672.45,2.509a3.3,3.3,0,0,0-1.651,2.384c-1.616,5.836-3.956,11.458-5.176,17.414a4.089,4.089,0,0,1-.835,1.744c-1.388,1.06-2.953.785-4.5.608a12.852,12.852,0,0,1-4.476-2.568c-4.9-3.735-9.306-8.045-14.077-11.929a22.793,22.793,0,0,1-3.751-4.482l-3.943-4.349c.588-1.559,1.184-.309,1.6.067,2.583,2.31,4.854,5,7.8,6.861,3.763,2.368,6.81,5.606,10.373,8.205a4.01,4.01,0,0,0,6.163-2.093c1.011-3.171,1.175-6.5,1.708-9.125-.167,1.259-1.415,1.932-3.105,1.976a9.381,9.381,0,0,1-6-2.222c-4.66-3.556-8.1-8.209-11.507-12.888a8.995,8.995,0,0,0-1.355-1.683c-1.81-2.074-2.789-4.63-4.065-7.045,4.52,4.442,8.077,9.792,13.225,13.591,3.075.391,4.666-1.9,6.445-3.708.75-.76.052-1.8-.354-2.632-1.364-2.8-2.554-5.687-3.862-8.517-.391-.847-.882-1.82-.024-2.617.749-.7,1.658-.236,2.466.05,1.984.7,3.885,1.608,5.829,2.408,2.048.843,3.924.939,5.6-.791a1.846,1.846,0,0,1,1.964-.628c1.094.629,1.181,1.745,1.357,2.816.856,5.207,2.176,10.321,3.119,15.51a1.61,1.61,0,0,0,.573,1.135" transform="translate(-810.892 -2567.942)" fill="#e9902b"/>
          <path id="Trazado_1049585" data-name="Trazado 1049585" d="M562.439,3131.2c4.419,3.907,8.8,7.853,13.269,11.708a53.271,53.271,0,0,0,8.539,6.534,4.131,4.131,0,0,1-5.225.081,105.847,105.847,0,0,0-35.434,5.134c-2.727.919-5.594,1.424-8.4,2.1-.708.17-1.51.35-2.01-.341-.538-.742.126-1.387.461-1.975a25.86,25.86,0,0,1,11.392-10.3,93.518,93.518,0,0,1,17.984-6.321c1.559-.419,1.8-1.121,1.331-2.5-.487-1.448-1.677-2.558-1.907-4.115" transform="translate(-493.328 -2898.277)" fill="#f3a52f"/>
          <path id="Trazado_1049586" data-name="Trazado 1049586" d="M1019.908,2221.1c-.142.029-.352.007-.416.094-2.833,3.857-6.134,2.341-9.448.852-1.388-.624-2.787-1.227-4.209-1.767-.422-.161-.979-.606-1.392-.071-.369.476.052.964.259,1.408,1.463,3.147,2.867,6.324,4.436,9.417.814,1.6.763,2.778-.694,3.975a36.387,36.387,0,0,0-3.57,2.777,1.853,1.853,0,0,1-2.833-.545c.648-.7.328-1.458.222-2.25-.862-6.453-3.511-12.342-5.7-18.379-1.125-3.094-.07-4.5,3.1-5.152,4.358-.892,8.273.8,12.279,1.815,2.674.676,3.019.582,3.2-2.3.411-6.7-1.309-13.05-3-19.413-.314-1.185-.845-2.318-1.095-3.514-.672-3.224-2.658-5.537-5.021-7.634a4.143,4.143,0,0,1-1.8-3.318,5.3,5.3,0,0,1,2.593-2.2c.66-.148,1.291-.19,1.737.463.755.121,1.038.722,1.323,1.313,3.187,6.6,6.093,13.312,7.733,20.5a6.986,6.986,0,0,1,.23,1.939c-.321,1.988.323,3.887.735,5.755,1.024,4.648,1.007,9.427,1.962,14.074a2.005,2.005,0,0,1-.633,2.163" transform="translate(-922.024 -2013.026)" fill="#f3a62f"/>
          <path id="Trazado_1049587" data-name="Trazado 1049587" d="M623.668,3355.879l5.225-.081c1.625-.078,3.281.316,4.87-.317.673-.818,1.58-.5,2.432-.53,2.653-.081,5.381.545,7.9-.812l.543.816c.854.927,2.116.042,3.327.882a17.678,17.678,0,0,0-6.448,10.021c-3.239-2.028-1.228-4.547-.549-7.2-3.159.871-6.132,1.823-9.166,2.5-13.179,2.958-26.381,5.831-39.706,8.047a22.658,22.658,0,0,1-9.288-.271c-.621-.158-1.463-.155-1.587-.9-.137-.823.657-1.3,1.272-1.58,2.1-.971,4.22-1.918,6.389-2.721a124.238,124.238,0,0,1,25.243-6.164,80.452,80.452,0,0,0,9.54-1.7" transform="translate(-537.974 -3104.634)" fill="#fadf61"/>
          <path id="Trazado_1049588" data-name="Trazado 1049588" d="M731.309,2298.106c.132,2.7-1.4,4.73-2.942,6.615-7.37,9.034-14.162,18.505-21.258,27.746a58.175,58.175,0,0,1-4.993,5.158c-.244.248-.532.593-.929.392-.492-.249-.41-.761-.252-1.144a20.463,20.463,0,0,1,1.225-2.548c4.732-8.054,9.388-16.154,14.267-24.118,2.87-4.684,5.854-9.33,9.788-13.249a5.954,5.954,0,0,1,.947-.9c.954-.6,1.9-1.684,3.1-1.076,1.172.6,1.066,1.948,1.047,3.119" transform="translate(-648.681 -2124.103)" fill="#fce265"/>
          <path id="Trazado_1049589" data-name="Trazado 1049589" d="M841,2926.167c2.387.977,3.216,3.412,4.711,5.191a56.055,56.055,0,0,0,8.978,9.1,8.306,8.306,0,0,0,5.027,1.819c2.205.008,2.91-.792,2.734-3.073a2.182,2.182,0,0,1,.028-.641c.027-.117.166-.208.384-.46,1.109,2.518.509,4.988.2,7.408-.2,1.571-.744,3.095-1.048,4.657-.354,1.818-1.038,3.25-3.228,2.995-1.329-.155-.783,1.063-1.207,1.591-3.6-2.051-6.388-5.042-9.611-7.463a89.373,89.373,0,0,1-11.078-9.755c-.4-.415-.795-1.206-1.582-.468-.9-.843-1.805-1.671-2.68-2.535-.337-.333-.9-.72-.4-1.26s1.024-.261,1.492.2c2.269,2.233,4.565,4.432,6.931,6.571a32.58,32.58,0,0,0,10.146,6.529,11.042,11.042,0,0,0,4.917.407c.51-.035,1.278-.072,1.449-.722.162-.615-.394-1.045-.793-1.456-3.124-3.221-6.486-6.216-9.292-9.74-2.243-2.817-4.732-5.467-6.081-8.9" transform="translate(-770.139 -2708.497)" fill="#f3a52f"/>
          <path id="Trazado_1049590" data-name="Trazado 1049590" d="M3397.923,2465.315c.769-1.766.254-3.707.757-5.524.188-.678-.439-1-1.1-1.01-6.4-.124-9.745-4.484-12.585-9.314-4-6.8-3.283-14.035-1.524-21.291,2.061-8.495,6.687-15.632,11.9-22.469.979-1.285,1.617-1.35,2.393.115,5.219,9.862,10.467,19.779,12.488,30.854,1.909,10.467,1.728,20.952-3.791,30.543-2.677,4.652-6.286,8.507-11.859,9.8-.52.12-1.229.542-1.623-.044-.508-.755.323-1.145.728-1.591a28.047,28.047,0,0,0,4.277-6.773,2.381,2.381,0,0,0-.145-2.47.539.539,0,0,1,.092-.821" transform="translate(-3130.476 -2225.851)" fill="#fec53d"/>
          <path id="Trazado_1049591" data-name="Trazado 1049591" d="M3388.491,3404.125c-.257-4.864-2.177-9.111-4.853-13.078,1.029.089,2.055.883,3.088.012a.838.838,0,0,1,1.257-.071,122.434,122.434,0,0,1,23.092,1.813,2.206,2.206,0,0,1,1.661.32,39.515,39.515,0,0,0,7.185,3,28.107,28.107,0,0,1,8.83,5.373c.642.547,1.412,1.084,1.131,2.143,1.325,1.521,2.964,2.868,3.921,4.594,3.824,6.889,3.511,13.836-.284,20.673a18.48,18.48,0,0,1-3.453,4.425c-2.471,2.357-4.027,2.663-7.228,1.258a30.528,30.528,0,0,1-8.272-5.516q-10.971-10.011-21.446-20.548c-1.015-1.023-1.889-2.185-2.862-3.251-.48-.526-.944-1.129-1.767-1.15" transform="translate(-3131.937 -3138.511)" fill="#fec53c"/>
          <path id="Trazado_1049592" data-name="Trazado 1049592" d="M3771.28,3400.628c-3.632-3.961-8.226-6.311-13.261-7.934a15.626,15.626,0,0,1-5.545-2.906c.673-1.685,2.319-1.622,3.661-1.845,7.016-1.165,13.579-.294,19.082,4.715,2.864,2.609,4.654,5.69,4.335,9.75-.126,1.621-.021,3.26-.021,5.4-2.99-2.746-4.489-6.307-8.252-7.184" transform="translate(-3473.337 -3135.499)" fill="#ea8320"/>
          <path id="Trazado_1049593" data-name="Trazado 1049593" d="M3294.509,2347.916c.918-.476,1.031-1.57,1.71-2.229.645.621.015,1.031-.255,1.49-4.976,8.429-9.337,17.111-12.09,26.578a85.651,85.651,0,0,0-3.829,21.682c-.062,2.3-.416,4.6-.385,6.915-.241.308-.162.679-.219,1.027-.213,1.3-.683.745-1.153.145-.941-2.956.043-5.888.258-8.8.232-3.162.41-6.34.6-9.5a51.761,51.761,0,0,1,3.268-16.486c1.964-2.369,2.338-5.482,3.77-8.1a51.2,51.2,0,0,1,2.945-5.5c1.773-1.364,2.4-3.534,3.685-5.24.47-.625.725-1.416,1.408-1.88.1-.035.193-.068.289-.1" transform="translate(-3034.054 -2171.198)" fill="#df7b1c"/>
          <path id="Trazado_1049594" data-name="Trazado 1049594" d="M3271.246,3154.323c-1.587.4-3.172-.245-4.759-.014-1.335-.107-1.586-.808-1.416-2.076a71.488,71.488,0,0,0,.943-11.22c-1.151-1.214-.615-2.5-.167-3.785.478-.7.906-1.544,1.951-.733q1.724,8.914,3.447,17.828" transform="translate(-3022.148 -2902.873)" fill="#62addc"/>
          <path id="Trazado_1049595" data-name="Trazado 1049595" d="M3409.186,3230.364l-1.257.072c-.424-.06-1.009.032-1.239-.211-.417-.441.171-.772.458-.989a114.43,114.43,0,0,0,12.683-11.8c.219-.224.474-.333.756-.082q-.045.411-.091.822a77.643,77.643,0,0,1-11.311,12.192" transform="translate(-3153.141 -2977.886)" fill="#de7b1c"/>
          <path id="Trazado_1049596" data-name="Trazado 1049596" d="M3280.077,3109.912c-.733-.313-.974.267-1.291.711-.581-.748-.86-1.438.346-1.85.92-.024.209-1.149.9-1.33q.024,1.233.046,2.469" transform="translate(-3034.425 -2876.289)" fill="#ec962f"/>
          <path id="Trazado_1049597" data-name="Trazado 1049597" d="M1510.876,898.224q3.227,11.245,6.448,22.491A90.043,90.043,0,0,0,1521.7,933.5a12.656,12.656,0,0,1-4.413-2.017,77.056,77.056,0,0,0-2.43-16.271,63.146,63.146,0,0,0-5.783-14.722,4.866,4.866,0,0,0,1.8-2.27" transform="translate(-1396.82 -831.408)" fill="#242d72"/>
          <path id="Trazado_1049598" data-name="Trazado 1049598" d="M2076.966,2756.568c-.034,3.915-.144,7.831-.064,11.744a2.18,2.18,0,0,1-1.952,2.544,63.73,63.73,0,0,1-16.364,2.035c-1.3-.006-2.606-.05-3.7.919-1.953,1.728-1.737,4.036.594,5.8.175.042.243.106.209.2s-.083.15-.132.15c-1.46-.069-3.114-.267-3.773,1.382-.7,1.753.154,3.241,1.538,4.392.72.6,1.491,1.135,2.24,1.7q.451.137.073.418c-.75,2.528-.2,3.972,2.242,5.624a42.925,42.925,0,0,0,8.407,3.889c2.2.877,4.489,1.535,6.738,2.29-1.2,3.054-3.869,3.681-6.674,3.786-4.83.18-9.667.167-14.5.255-.931.017-1.86.127-2.79.194-.665,1.01-1.719.967-2.73.972-6.746.031-13.493.073-20.238-.023-2.076-.03-4.117-.64-6.189-.879a6.236,6.236,0,0,1-3.921-3.561q0-.689.007-1.376a4.078,4.078,0,0,1,2.68-1.259,35.526,35.526,0,0,0,6.054-1.713,3.129,3.129,0,0,0,2.245-2.887,4.35,4.35,0,0,1,.9-2.414,3.016,3.016,0,0,0,.57-2.659,2.325,2.325,0,0,1,1.545-2.948c1.469-.678,2.342-1.655,1.835-3.426a1.859,1.859,0,0,1,1.061-2.163c1.37-.87,2.376-2.024,2.067-3.739-.345-1.913-1.9-2.664-3.587-3.037-3.468-.765-7.018-1.041-10.514-1.642-1.677-.288-3.518-.208-4.82-1.647a3.748,3.748,0,0,1-.274-1.91c.027-2.124.64-2.63,2.663-2.088a31.337,31.337,0,0,0,5.236,1.233,9.738,9.738,0,0,1,1.463.09,7,7,0,0,0,4.836-.156,10.235,10.235,0,0,0,2.861-.98,2.139,2.139,0,0,0,1.221-2.127c-.095-.991-.962-1.208-1.731-1.369-4.529-.943-9.024-2.031-13.542-3.024-2.953-.648-3.049-.763-3.021-3.686.055-5.635-.15-11.272.108-16.908,2.772-4.057,6.58-5.594,11.511-5.711q16-.382,31.991-.346a25.339,25.339,0,0,1,3.042.069c1.7.323,2.014,1.252,1.017,2.592a26.023,26.023,0,0,1-5.4,5.856c-2.943,2.137-4.884,5.275-7.328,7.915a117.671,117.671,0,0,0-7.509,9.22c-.813.47-1.644.914-2.494,1.313a7.361,7.361,0,0,0-3.835,7.592,7.69,7.69,0,0,0,7.37,6.2c.289,0,.579,0,.868-.017,3.481-.488,6.095-2.021,6.9-5.731a11.135,11.135,0,0,0,.391-3.8,3.364,3.364,0,0,1,1.571-2.475c7.115-6.012,13.824-12.457,20.446-19,.785-.776,1.206-1.994,2.458-2.275q.062,8.3.125,16.611" transform="translate(-1865.768 -2529.224)" fill="#263173"/>
          <path id="Trazado_1049599" data-name="Trazado 1049599" d="M1596.069,2765.722c-.026,6.014-.027,12.029-.1,18.043-.014,1.109.579,1.293,1.422,1.471,5.1,1.075,10.2,2.157,15.294,3.288.907.2,2.19-.033,2.4,1.377a3.27,3.27,0,0,1-1.462,3.589,6.873,6.873,0,0,1-3.695,1.111,15.172,15.172,0,0,1-4.855,0l-1.27-.126c-.069-.293.13-.432.327-.572-2.956,0-5.58-1.36-8.376-2-2.532-.583-5.153-1.035-7.6.459-.479.292-1.23.5-1.143,1.157.09.669.838.676,1.414.748,2.361.668,4.817.965,7.124,1.841a3.652,3.652,0,0,1,.8.643c4.588.716,9.178,1.426,13.764,2.156a16.06,16.06,0,0,1,2.546.562c1.673.558,3.015,1.5,3.188,3.45a4.162,4.162,0,0,1-2.3,4.333c-.942.5-1.3.781-.726,1.973.715,1.491-.455,3.117-2.547,3.906-1.046.4-2.288.526-.935,1.992a1.263,1.263,0,0,1,.171.622c.1.655.263,1.513-.256,1.867-2.349,1.6-.558,5.751-4.37,6.581-2.966.646-5.873,1.592-8.9,2.01.34-1.025.227-1.707-1.109-1.577-1.942.19-3.9.253-5.826.543-1.648.249-3.214.8-4.623-.722-.546-.588-1.38-.129-2.035.2-2.591,1.288-5.164,2.611-7.769,3.87a11.928,11.928,0,0,1-3.561.906c-3.245.464-5.131-1.341-6.194-4-1.935-4.845-3.76-9.764-2.486-15.158,1.667-2.267,4.2-3.687,5.845-5.99a11.767,11.767,0,0,0,1.55-2.31,1.406,1.406,0,0,1,.382-.462c1.418-1.083,2.149-2.7,3.108-4.123,2.544-3.766,5.083-7.532,7.826-11.157,3.4-3,7.458-2.338,11.369-1.846,3.093.389,3.068.619,3.064-2.606-.007-5.575-.029-11.15-.025-16.725,0-1.143-.137-2.353.956-3.179.917,1.392.389,2.642-.378,3.87" transform="translate(-1445.76 -2556.405)" fill="#fdbe86"/>
          <path id="Trazado_1049600" data-name="Trazado 1049600" d="M1965.884,1532.836q.052-.423.105-.846c.585,1.068,1.882,1.639,2.077,2.979,3.822,6.345,8.213,12.1,15.424,14.952.809.32,1.63.608,2.445.911.292.57.482,1.189,1.191,1.458a24.251,24.251,0,0,1,2.271,1.269c6.247,3.183,10.242,2.49,15.313-2.345,3.167-3.019,5.167-6.761,7.21-10.51a11.257,11.257,0,0,1,1.314-2.241c.628-.7,1.3-.947,1.957-.012a8.618,8.618,0,0,1,.39,3.841,57.356,57.356,0,0,0,.973,11.6c.1,2.248,2.341,3.093,3.188,4.852.956,1.932.35,3.553-.91,5.126a27.86,27.86,0,0,0-2.811,3.79c-2.229,1.816-4.393,3.716-6.757,5.365a38.865,38.865,0,0,1-7.476,2.135,4.468,4.468,0,0,1-2.964-.1c-1.186-1.982.219-3.644,1.364-4.5,2.191-1.633,1.095-3.636,1.246-5.462.074-.89-1.1-.77-1.743-.867-6.029-.914-11.243-3.645-16.133-7.122-5.779-4.108-9.9-9.673-13.71-15.522-.848-1.1-1.149-2.533-2.168-3.529a7.448,7.448,0,0,0-1.8-5.228" transform="translate(-1819.647 -1418.03)" fill="#f39a6d"/>
          <path id="Trazado_1049601" data-name="Trazado 1049601" d="M2381.957,2752.219c2.056-4.039,5.429-7.053,8.213-10.524,1.484-1.85,3.134-3.568,4.6-5.43.714-.906,1.771-1.2,2.59-1.865,2.034-1.644,3.451-3.853,5.047-5.893.358-.458-.087-.585-.443-.679.163-1.06,1.049-1.127,1.8-1.171a31.879,31.879,0,0,1,6.477.083c3.382.493,5.123,2.381,5.54,5.854q.028.925.055,1.852a5.277,5.277,0,0,1-1.9,2.726c-1.812,1.551-3.428,3.33-5.115,5.027-5.1,5.13-10.561,9.869-16.012,14.618a1.991,1.991,0,0,0-.866,1.186c-.952.046-1.143-.819-1.465-1.374-1.487-2.565-3.821-3.53-6.616-3.718-.7-.047-1.468.081-1.906-.693" transform="translate(-2204.769 -2523.715)" fill="#2d408a"/>
          <path id="Trazado_1049602" data-name="Trazado 1049602" d="M2622.115,1625.118c-1.237-2.794-.881-5.816-1.166-8.733-.252-2.585-.1-5.21-.119-7.817a.266.266,0,0,1,.077-.426,73.909,73.909,0,0,1,14.935.884,9.343,9.343,0,0,1,5.646,3.446,7.68,7.68,0,0,1-.119,9.305c-.8,1.112-1.747,2.12-2.627,3.176-1.109.926-1.635,2.587-3.4,2.691a40.466,40.466,0,0,1-10.669-1.106,3.749,3.749,0,0,1-2.558-1.421" transform="translate(-2425.804 -1488.501)" fill="#e6791c"/>
          <path id="Trazado_1049603" data-name="Trazado 1049603" d="M3141.2,2494.743c-.525.54-.379,1.206-.347,1.849q-.246,1.9-.493,3.807c-.531.605-1.029.724-1.509-.069a6.722,6.722,0,0,1-1.118-3.66c.052-5.055.131-10.115-.018-15.165a55.509,55.509,0,0,0-1.311-10.466c-.3-1.331-.882-2.487-2.554-2.439,1.18-5.933-.13-11.612-1.669-17.292-.681-2.514-2.217-4.675-2.911-7.241a61.2,61.2,0,0,1,5.8,5.38,56.182,56.182,0,0,1,5.156,7.489c1.225,2.056,2.6,2.54,4.606,1.271.254-.161.5-.3.78-.066.467.443,0,.884,0,1.326a4.868,4.868,0,0,1-.407,2.105c-1.839,4.318-2.361,8.9-2.665,13.528-.43,6.549-.89,13.1-1.337,19.644" transform="translate(-2896.49 -2262.26)" fill="#f3a52f"/>
          <path id="Trazado_1049604" data-name="Trazado 1049604" d="M2475.687,2036.705c4.573-2.916,8.987-6.075,13.735-8.724a33.168,33.168,0,0,1,7.446-2.941c-.413,2.755-2.225,4.523-3.809,6.214a71.954,71.954,0,0,1-32.74,20.386,28.931,28.931,0,0,1-3.82.735,2.178,2.178,0,0,1-2.492-.854c-1-1.486-.027-2.614.677-3.794,4.221-3.71,9.524-5.435,14.476-7.792,1.708-.812,3.281-1.831,4.938-2.716.514-.275.956-.655,1.589-.514" transform="translate(-2271.062 -1874.403)" fill="#f4a52e"/>
          <path id="Trazado_1049605" data-name="Trazado 1049605" d="M1679.471,1625.6c.26-1.841,1.538-2.9,3.011-3.723a19.512,19.512,0,0,1,8.927-2.351c3.682-.135,7.374-.029,11.061-.027a2.194,2.194,0,0,1,1.057,1.79,22.448,22.448,0,0,1-1.053,11.859,2.175,2.175,0,0,1-.786,1.007c-1.961.865-3.952.4-5.952.154a36.917,36.917,0,0,1-10.613-2.854c-2.651-1.179-4.8-2.909-5.651-5.855" transform="translate(-1554.539 -1498.986)" fill="#e6791c"/>
          <path id="Trazado_1049606" data-name="Trazado 1049606" d="M2079.644,2710.485c-1.578-3.958-3.269-5.151-7.583-5.1-2.079.023-4.192-.37-6.237.339-8.767.038-17.537-.052-26.3.171-4.049.1-8.106.144-12.152.362-2.988.161-5.258,1.832-7.232,3.971-.3.324-.308,1.346-1.206.7-.382-1.341.143-2.592.378-3.871.806-1.261,1.468-2.638,2.81-3.464a5.193,5.193,0,0,1,2.755-.446c15.444-.381,30.891-.576,46.341-.463a23.224,23.224,0,0,1,6.415.534c2.679,1.868,2.076,4.644,2.01,7.271" transform="translate(-1868.626 -2501.605)" fill="#487bc9"/>
          <path id="Trazado_1049607" data-name="Trazado 1049607" d="M1171.968,2196.658c-1.577-6.027-3.115-12.055-6.155-17.585a58.5,58.5,0,0,1-2.515-6.008c1.217-1.747,1.478.09,1.789.594a83.438,83.438,0,0,1,6.9,14.282,98.97,98.97,0,0,1,6.668,28.2c.3,4.184.888,8.347.781,12.555-.02.778.214,1.613-.4,2.292-.973-.255-1.015-1.089-1.2-1.865q-2.218-9.382-3.513-18.934c-.531-3.853-1.32-7.656-2.215-11.435a3.438,3.438,0,0,1-.135-2.1" transform="translate(-1076.763 -2010.733)" fill="#fce267"/>
          <path id="Trazado_1049608" data-name="Trazado 1049608" d="M2257.987,1558.248q-.028.215-.076.426c-1.143.237-1.243,1.325-1.657,2.112-2.285,4.347-4.608,8.609-8.279,12.059-6.306,5.925-11.808,4.738-18.692.049-.595-.405-.966-.925-.11-1.486a21.3,21.3,0,0,0,13.005-1.275c6.382-2.639,10.826-7.386,14.159-13.295.5-.878,1.009-1.745,1.514-2.617q.068,2.014.136,4.027" transform="translate(-2062.884 -1438.607)" fill="#ec845e"/>
          <path id="Trazado_1049609" data-name="Trazado 1049609" d="M1298.033,3096.91c.043,1.214-.62,1.652-1.743,1.6-2.863-.138-5.739.155-8.593-.257a86.219,86.219,0,0,1,3.341-12.544c.86-2.757,1.722-5.514,2.635-8.254.376-1.126.934-1.912,1.817-.3q1.271,9.877,2.542,19.754" transform="translate(-1191.91 -2847.404)" fill="#5fb0f0"/>
          <path id="Trazado_1049610" data-name="Trazado 1049610" d="M1896.889,1870.275c3.895.154,7.435-1.452,11.139-2.244-1.129,1.881-3.04,2.843-4.746,4.046l-2.987,2.073c-5.791,1.062-11.346-.092-16.87-1.723-7.219-2.132-13.4-6.1-19.25-10.678a17.547,17.547,0,0,1-4.736-4.975.933.933,0,0,1-.28,1.505c-.669.371-1.33-.161-1.613-.751-.739-1.537-2.443-2.925-.964-4.912a5.872,5.872,0,0,1,3.219-1.176,1.806,1.806,0,0,1,1.508.679c.386.642.047,1.509.65,2.087a26.7,26.7,0,0,0,11.067,10.1c6.614,3.254,13.5,5.525,21.014,5.291.983-.031,2.051-.179,2.849.677" transform="translate(-1717.933 -1713.718)" fill="#66a3e6"/>
          <path id="Trazado_1049611" data-name="Trazado 1049611" d="M2119,2681.954a.794.794,0,0,1-.924.687c-12.21-.741-24.434-.274-36.648-.208-3.662.02-7.354.246-11.033.294a28.553,28.553,0,0,1-6.905-.4c1.758-1.761,4.055-1.767,6.284-1.812,8.98-.182,17.962-.282,26.943-.445,5.721-.1,11.441-.283,17.162-.388a5.631,5.631,0,0,1,5.122,2.273" transform="translate(-1909.988 -2480.345)" fill="#62a7e8"/>
          <path id="Trazado_1049612" data-name="Trazado 1049612" d="M2062.551,2161.8a5.291,5.291,0,0,1-.928,3.86c-.81,1-.056,1.863.38,2.734a9.415,9.415,0,0,1,1.89,4.329c.361.93-.246,1.788-.2,2.7.385,5.666-.4,11.019-4.294,15.487a28.365,28.365,0,0,1-2.819,2.7c-.571.5-1.16,1.133-2.007.213-1.01-1.1.172-1.416.639-1.818a16.67,16.67,0,0,0,6.039-15.5c-.1-.841-.344-1.667-.522-2.5-.7-.481-.637-1.329-.972-1.986a26.04,26.04,0,0,0-2.185-5.406c-.6-.5-1.233-.965-1.785-1.512-1.994-1.979-1.573-4.712,1.008-6.728a3.856,3.856,0,0,1,5.756,3.429" transform="translate(-1901.371 -1997.342)" fill="#1a1949"/>
          <path id="Trazado_1049613" data-name="Trazado 1049613" d="M2136.247,2099.6c-2.522,2.735-5.616,4.769-8.553,7-1.089.826-2.019.394-2.973-.26-2.267-1.553-4.549-3.085-6.825-4.625a11.578,11.578,0,0,1-4.895-2.976c-.558-.477-1.3-1.025-.674-1.956.111-.068.351-.192.345-.205-.264-.591-1.358-.935-.77-1.749.631-.872,1.49-.216,2.157.093a46.4,46.4,0,0,0,20.584,4.263c.558-.01,1.178-.14,1.6.417" transform="translate(-1954.645 -1938.6)" fill="#5fa4ec"/>
          <path id="Trazado_1049614" data-name="Trazado 1049614" d="M1686.117,2122.843a3.705,3.705,0,0,1,.345,2.042,43.967,43.967,0,0,1-19.153-5.672c-6.35-3.413-11.729-8.149-16.7-13.343-.18-.189-.31-.425-.779-1.081l14.432,8.332c1.8.044,2.9,1.486,4.386,2.172,5.76,2.664,11.424,5.545,17.468,7.55" transform="translate(-1527.104 -1948.22)" fill="#f0a12f"/>
          <path id="Trazado_1049615" data-name="Trazado 1049615" d="M1695.361,1713.559l-3.451,1.242a7.261,7.261,0,0,1-4.23,1.738,11.608,11.608,0,0,1-6.7-5.34c-1.987-2.734-3.507-5.62-2.951-9.172,5.575,7.3,13.722,7.8,21.877,8.27.5,1.813-.877,2.464-2.014,3.264-.842.309-1.686-.177-2.531,0" transform="translate(-1553.099 -1575.418)" fill="#d05c14"/>
          <path id="Trazado_1049616" data-name="Trazado 1049616" d="M2420.848,2198.964a7.848,7.848,0,0,0-1.132,3.465c-1.913,7.506-.357,14.054,5.454,19.365-1.441,1.734-2.5,1.456-3.827-.179a21.245,21.245,0,0,1-4.78-14.979c.039-.8.047-1.594.069-2.391.034-1.531-.352-3.114.56-4.535a10.436,10.436,0,0,1,1.705-3.614,3.329,3.329,0,0,0,.632-2.786c-.6-2.572-.091-4.155,1.548-4.8,3.169-1.239,4.9.177,4.764,3.9a1.964,1.964,0,0,1-1.025,2,19.428,19.428,0,0,0-3.969,4.544" transform="translate(-2236.772 -2025.311)" fill="#1e1b4b"/>
          <path id="Trazado_1049617" data-name="Trazado 1049617" d="M1806.753,1875.036c1.48-.387,2.84-1.189,4.405-1.288-.38,2.143,1.223,3.34,2.186,4.853.075-1.392-1.27-2.316-1.121-4.316,3.429,5.345,8.058,8.677,12.8,11.841,8.329,5.563,17.429,8.708,27.568,8.4a3.376,3.376,0,0,1,2.119.274l-.761.572c-8.312.114-16.417-.864-24-4.718.513,1.305,2.108,1.164,2.714,2.316-1.042.5-1.9-.4-2.824-.163a2.576,2.576,0,0,1-2.553-.839c-6.159-5.046-12.729-9.551-18.949-14.512-.774-.616-1.683-1.2-1.582-2.417" transform="translate(-1672.346 -1734.365)" fill="#4886d6"/>
          <path id="Trazado_1049618" data-name="Trazado 1049618" d="M1725.019,1830.213c7.395,6.313,15.345,11.9,23.085,17.768l5.76,4.678a2.322,2.322,0,0,0-2.072,1.346c-1.138-2.453-2.948-3.777-5.756-3.43a2.685,2.685,0,0,0-1.266-2.05c-8.442-5.635-16.042-12.355-23.946-18.685-1.431-1.147-2.653-2.446-2.329-4.518l6.524,4.89" transform="translate(-1590.612 -1689.542)" fill="#f9dd5a"/>
          <path id="Trazado_1049619" data-name="Trazado 1049619" d="M2181.513,2258.432a1.311,1.311,0,0,1,.291,1.728c-.724,1.622-1.416,3.259-2.121,4.889-3.625,2.625-7.886,2.447-11.99,2.378-2.339-.039-4.942.136-7.014-1.545l-1.294-4.392c6.156,2.921,12.309,4.127,18.616.316,1.47-.888,3.479-1.05,3.511-3.374" transform="translate(-1998.754 -2090.434)" fill="#fce265"/>
          <path id="Trazado_1049620" data-name="Trazado 1049620" d="M1275.591,2499.416c2.008,8.21,3.418,16.541,5.078,24.822.636,3.175,1.321,6.34,1.984,9.51q.432,3.492.864,6.984c-.4,1.019-.63.13-.7-.113a50.95,50.95,0,0,1-1.452-5.185c-.76-3.96-1.921-7.839-2.394-11.861a2.961,2.961,0,0,0-.7-2.006,157.564,157.564,0,0,0-2.711-19.677c-.187-.838-.611-1.655.031-2.473" transform="translate(-1180.386 -2313.491)" fill="#d8741e"/>
          <path id="Trazado_1049621" data-name="Trazado 1049621" d="M1865.683,2222.233c-.337.691-.81.321-1.277.183-7.4-2.19-14.019-5.979-20.578-9.9,1.039-.841,1.83.07,2.527.513,3.8,2.417,7.755,4.243,12.417,3.889.834-.063,1.507.479,2.263.71.776.238,1.589.406,1.836-.739,2.122,1.16,2.4,3.291,2.812,5.348" transform="translate(-1706.67 -2047.611)" fill="#fde061"/>
          <path id="Trazado_1049622" data-name="Trazado 1049622" d="M2176.774,2348.206a10.312,10.312,0,0,1,3.851.418c5.183.941,10.164-.126,15.154-1.253q-.536,2.162-1.069,4.32c-.2-.88-.853-.521-1.384-.506a80.422,80.422,0,0,1-13.717-.787,2.515,2.515,0,0,0-2.438.441,5.7,5.7,0,0,1-.4-2.633" transform="translate(-2014.849 -2172.756)" fill="#f3a833"/>
          <path id="Trazado_1049623" data-name="Trazado 1049623" d="M3346.747,2388.594c-.424-.443.076-.884,0-1.326,1.16-4.016,2.257-8.05,4.313-11.743a38.02,38.02,0,0,1,5.381-7.321c.488-.526,1.025-1.232,1.641-.1v-.008c-1.894,2.285-3.018,5.067-4.8,7.426l-6.54,13.072" transform="translate(-3097.631 -2191.387)" fill="#fce164"/>
          <path id="Trazado_1049624" data-name="Trazado 1049624" d="M2491.66,1856.261l4.743-4.043,5.826-4.836c2.188-2.8,5.615-4.127,7.993-6.7,1.337-.969,2.546-2.1,3.851-3.109a3.145,3.145,0,0,1,2.128-.885l3.047-2.33c-.38,1.421-1.528,2.247-2.487,3.224-4.588,4.677-10.152,8.073-15.448,11.827-2.358,1.672-4.58,3.534-6.874,5.3-.848.651-1.6,1.489-2.779,1.559" transform="translate(-2306.312 -1697.902)" fill="#f6e083"/>
          <path id="Trazado_1049625" data-name="Trazado 1049625" d="M2474.562,2188.976a6.519,6.519,0,0,1,3.34-4.92,7.783,7.783,0,0,0,1.654-1.63c.742.862,1.583.687,2.553.387a52.96,52.96,0,0,0,11.116-4.881c.589-.344,1.115-1.08,1.886-.308-5.739,3.749-12.155,6.235-18.049,9.692-.861.5-1.668,1.1-2.5,1.66" transform="translate(-2290.486 -2015.322)" fill="#fbdc5f"/>
          <path id="Trazado_1049626" data-name="Trazado 1049626" d="M1922.488,1631.408c.832-.941,2.063-1.562,2.36-2.933,2.168-3.724,1.7-7.781,1.475-11.8-.048-.861-.232-1.714-.353-2.57.034-.158.069-.316.1-.474,2.154-.056,1.6,2.148,2.57,3.079,1.057,6.444-.649,11.963-5.51,16.42a2.521,2.521,0,0,1-1.885.922c-.583-.637-.271-1.149.228-1.635.123-.551.578-.768,1.011-1.007" transform="translate(-1778.04 -1493.596)" fill="#fcd8ac"/>
          <path id="Trazado_1049627" data-name="Trazado 1049627" d="M1532.149,1789.879l.516-.992c.46-.1.863-1.008,1.393-.075a47.06,47.06,0,0,0,6.871,9.031c-2.776-2.367-5.894-4.216-8.72-6.461-.608-.483-.843-.97-.059-1.5" transform="translate(-1417.716 -1655.361)" fill="#ec9d2b"/>
          <path id="Trazado_1049628" data-name="Trazado 1049628" d="M1682.693,3089.275c-.057,2.047-1.888,3.055-2.791,4.608-2.058,3.54-4.472,6.874-6.774,10.27-.3.443-.464,1.383-1.4.75-.109-2.25,1.115-3.758,2.791-5.015l4.355-6.574c1.38-1.244,2.2-3.018,3.816-4.039" transform="translate(-1547.369 -2859.472)" fill="#fcdaae"/>
          <path id="Trazado_1049629" data-name="Trazado 1049629" d="M2112.236,1396.7c4.429,0,8.857-.007,13.286.009.559,0,1.269-.246,1.633.286.42.615-.281,1.052-.56,1.5-2.421,3.927-5.356,7.35-10.133,8.3-6.9,1.369-14.074-.227-18.109-6.388a11.5,11.5,0,0,1-.817-1.53c-.658-1.447-.545-2.25,1.416-2.2,4.426.106,8.856.033,13.285.033Z" transform="translate(-1941.171 -1292.758)" fill="#f48c61"/>
          <path id="Trazado_1049630" data-name="Trazado 1049630" d="M1905.373,898.9a21.552,21.552,0,0,1,8.144,1.7c1.035.44,2.08,1.028,1.713,2.388-.387,1.437-1.541,1.547-2.806,1.264a29.185,29.185,0,0,0-7.761-.9,20.571,20.571,0,0,0-8.12,2.25c-1.157.565-2.405,1.031-3.238-.424s.285-2.343,1.288-3.041a18.4,18.4,0,0,1,10.78-3.241" transform="translate(-1752.194 -832.037)" fill="#1a1850"/>
          <path id="Trazado_1049631" data-name="Trazado 1049631" d="M2427.651,902.382a4.726,4.726,0,0,1-2.277-.67,20.158,20.158,0,0,0-13.178-1.352c-1.26.263-2.973,1.082-3.555-.816s1.146-2.445,2.494-2.925a17.743,17.743,0,0,1,16.977,2.253,2.173,2.173,0,0,1,1.1,2.587c-.238.755-.88.887-1.561.923" transform="translate(-2229.361 -828.81)" fill="#19184e"/>
          <path id="Trazado_1049632" data-name="Trazado 1049632" d="M1743.12,863.308c-2.74-5.367-4.51-11.1-6.337-16.812-1.475-4.61-2.767-9.279-4.1-13.933-.171-.6-.92-1.561.121-1.826,1.093-.277.994.906,1.215,1.632,2.192,7.182,3.855,14.531,6.737,21.5a4.385,4.385,0,0,0,1.023,1.876l1.34,7.565" transform="translate(-1603.404 -768.903)" fill="#3f5099"/>
          <path id="Trazado_1049633" data-name="Trazado 1049633" d="M2699.969,831.069c1.3-2.927,1.508-6.123,2.208-9.2.465-2.044.671-4.145,1.082-6.2.129-.644.142-1.5,1.308-1.763-.531,3.116-.981,6.134-1.569,9.125-1.269,6.466-2.606,12.919-3.929,19.375a2,2,0,0,1-.332.555c.177-3.988.676-7.943,1.231-11.892" transform="translate(-2497.985 -753.363)" fill="#424986"/>
          <path id="Trazado_1049634" data-name="Trazado 1049634" d="M2236.292,1272.989l1.31-1.139c.532,2.2-.547,4.019-2.882,5.01-3.138,1.332-7.459-.223-9.354-3.378.782-.518,1.323.385,2.018.34,3.045.531,6.132,1.52,8.908-.832" transform="translate(-2059.826 -1177.241)" fill="#24173e"/>
          <path id="Trazado_1049635" data-name="Trazado 1049635" d="M2409.18,1049.044c-2.169-1.118-2.244-1.786-.372-3.076,3.328-2.294,6.762-3.169,10.492-.907.658.4,1.176.7.232,1.318-.934.807-1.8-.078-2.643-.21a7.7,7.7,0,0,0-7.709,2.875" transform="translate(-2228.387 -966.101)" fill="#e99570"/>
          <path id="Trazado_1049636" data-name="Trazado 1049636" d="M1990.081,1071.514c-1.077.056-1.691.349-.689,1.613-4.121-1.868-7.913-2.012-11.25,1.984.774-4.785,7.265-6.5,11.939-3.6" transform="translate(-1830.992 -990.491)" fill="#261c3c"/>
          <path id="Trazado_1049637" data-name="Trazado 1049637" d="M2429.1,1067.727c-.42-1.194.5-1.693,1.225-2.225,2.933-2.166,6.008-1.886,9.127-.439.615.516,1.484.805,1.734,2.023a17.007,17.007,0,0,0-5.436-1.548c-2.555-.092-4.431,1.485-6.65,2.189" transform="translate(-2248.307 -984.784)" fill="#201335"/>
          <path id="Trazado_1049638" data-name="Trazado 1049638" d="M2261.395,1287.161c-2.1,2.63-4.96,2.9-8.908.832,2.981-.155,6.023.345,8.908-.832" transform="translate(-2084.929 -1191.413)" fill="#d5886d"/>
          <path id="Trazado_1049639" data-name="Trazado 1049639" d="M1633.715,847.51a2.219,2.219,0,0,1-2.288.5,5.638,5.638,0,0,1-2.145-3.4c-3.408-11.009-6.282-22.167-9.368-33.266-.389-1.4-.9-2.752-1.416-4.107-.468-1.236-.556-2.42.729-3.283l-.012.045c1.784-.585,2.027.684,2.365,1.919,2.991,10.937,6.036,21.859,9.392,32.691q1.378,4.449,2.744,8.9" transform="translate(-1497.809 -744.056)" fill="#f6d44b"/>
          <path id="Trazado_1049640" data-name="Trazado 1049640" d="M2072,3692.335l29.155-.07,9.544.139c-7.268,2.06-14.452,4.5-22.208,3.9a36.064,36.064,0,0,1-12.788-2.939c-1.208-.568-2.629-.137-3.7-1.027" transform="translate(-1917.873 -3417.607)" fill="#fac23a"/>
          <path id="Trazado_1049641" data-name="Trazado 1049641" d="M1558.41,3015.622l-2.791,5.016a2.246,2.246,0,0,0-.354.113,36.986,36.986,0,0,1-8.984-22.515c4.621,5.389,8.21,11.505,12.129,17.386" transform="translate(-1431.257 -2775.205)" fill="#e58223"/>
          <path id="Trazado_1049642" data-name="Trazado 1049642" d="M2550.382,3307.445a3.092,3.092,0,0,1-.077-.346c4.473,1.969,9.071,1.184,13.655.607a67.665,67.665,0,0,0,16.822-4.881,9.52,9.52,0,0,1,1.451-.446,2.45,2.45,0,0,1,.773.151,6.5,6.5,0,0,1-3.467,3.424,47.776,47.776,0,0,1-27.043,2.468,3.175,3.175,0,0,1-2.114-.977" transform="translate(-2360.594 -3056.716)" fill="#f39c6b"/>
          <path id="Trazado_1049643" data-name="Trazado 1049643" d="M2551.47,3471.461a1.126,1.126,0,0,1-.073-.418c3.808.8,7.585,1.821,11.431,2.339,5.426.731,10.9,1.093,16.34-.263.035-.591-.823-.238-.8-.733s.472-.458.81-.461c1.35-.015,2.7-.007,4.231-.007a5.63,5.63,0,0,1-4.97,3.316,69.164,69.164,0,0,1-13.8-.053c-2.076-.19-4.127-.661-6.2-.862-2.631-.253-4.523-2.209-6.968-2.857" transform="translate(-2361.604 -3212.841)" fill="#f6a16f"/>
          <path id="Trazado_1049644" data-name="Trazado 1049644" d="M1566.368,805.222a2.281,2.281,0,0,0-.364,2.237c3.775,9.688,5.613,19.943,8.712,29.828,1.256,4.005,2.094,8.146,3.851,11.99a15.6,15.6,0,0,0-3.177-.649c-2.55,0-3.339-1.565-4-3.675-3.371-10.767-6.113-21.7-8.942-32.617a8.3,8.3,0,0,0-1.373-3.6,15.541,15.541,0,0,1,5.292-3.517" transform="translate(-1444.951 -745.324)" fill="#385db2"/>
          <path id="Trazado_1049645" data-name="Trazado 1049645" d="M921.512,1720.808c-.46,7.525-1.916,7.316-7.76,5.658a11.913,11.913,0,0,1-5.92-3.831c-2.41-2.8-.514-9,3.07-9.978,4.524-1.23,10.616,3.451,10.61,8.152" transform="translate(-839.303 -1585.072)" fill="#91cdf9"/>
          <path id="Trazado_1049646" data-name="Trazado 1049646" d="M324.215,1958.253a11.62,11.62,0,0,1,6.43,1.954c2.615,1.68,3.066,3.8,1.382,6.466a20.562,20.562,0,0,1-2.417,3.052,5.075,5.075,0,0,1-6.994.529c-2.627-1.871-3.9-5.479-2.725-7.765a19.665,19.665,0,0,0,1.137-2.1c.614-1.675,1.684-2.476,3.187-2.141" transform="translate(-295.69 -1812.515)" fill="#92cefa"/>
          <path id="Trazado_1049647" data-name="Trazado 1049647" d="M428.832,2404.707c1.965.006,3.177,1.193,4.092,2.747a3.253,3.253,0,0,1-.6,3.992c-1.446,1.709-2.88,3.5-5.495,3.3-1.512-.116-3.124-.557-3.648-1.925a5.692,5.692,0,0,1,5.656-8.109" transform="translate(-391.217 -2225.824)" fill="#93cefa"/>
          <path id="Trazado_1049648" data-name="Trazado 1049648" d="M1120.523,1381.467c2.243-1.664,2.258-1.872-.065-3.121-.764-.411-1.15-.729-.76-1.648a6.592,6.592,0,0,1,7.023-3.544,3.847,3.847,0,0,1,2.732,5.045,7.2,7.2,0,0,1-5.182,4.979c-1.618.493-2.312-1.417-3.748-1.711" transform="translate(-1036.263 -1270.88)" fill="#93cef8"/>
          <path id="Trazado_1049649" data-name="Trazado 1049649" d="M611.872,2049.587c-.289.984-.57,2.1-1.887,1.917a2.1,2.1,0,0,1-1.935-2.216,1.649,1.649,0,0,1,1.914-1.6,1.811,1.811,0,0,1,1.907,1.9" transform="translate(-562.817 -1895.361)" fill="#93d0fa"/>
          <path id="Trazado_1049650" data-name="Trazado 1049650" d="M3524.176,3443.394l-12.72.858c.1.968.827,1.139,1.312,1.494,6.767,4.943,12.853,10.556,17.482,17.62a14.022,14.022,0,0,1,2.267,9.1c-.049.585-.03,1.234-.693,1.461-.616.211-1.095-.231-1.571-.56-1.323-.917-1.614-2.411-1.919-3.794-1.874-8.5-6.859-14.637-14.244-18.986a100.449,100.449,0,0,1-9.689-6.972c-.44-.334-1.054-.7-.885-1.377.207-.825.982-.727,1.618-.747,5.371-.169,10.679.6,16.008,1.068,1,.087,1.993.232,2.989.35.015.16.029.321.044.481" transform="translate(-3242.872 -3185.469)" fill="#fce46c"/>
          <path id="Trazado_1049651" data-name="Trazado 1049651" d="M3436.8,2382.969c1.244-2.705,2.33-5.511,4.8-7.426-1.347,2.638-2.537,5.378-4.8,7.426" transform="translate(-3181.148 -2198.833)" fill="#fec53d"/>
          <path id="Trazado_1049652" data-name="Trazado 1049652" d="M2313.7,3087.382c-1.011,3.707-3.491,5.68-7.473,5.948-1.149-.676-2.525-.488-3.735-1.038-3.968-1.806-5.671-5.612-4.225-9.672a7.851,7.851,0,0,1,9.567-4.667c4.487,1.332,6.375,4.368,5.865,9.429" transform="translate(-2126.831 -2848.694)" fill="#7ebaf0"/>
          <path id="Trazado_1049653" data-name="Trazado 1049653" d="M2305.585,3081.418c-.252-5.295-1.844-7.7-5.908-8.939a7.1,7.1,0,0,0-9.208,4.947c-1.108,4.144,1.017,7.6,5.277,8.754.825.224,1.987-.009,2.365,1.185a8.4,8.4,0,0,1-8.975-6.583c-.771-3.452,1.593-7.457,5.338-9.03.468-.2.954-.348,1.432-.521,4.651-.354,8.128,1.318,9.988,5.786-.04,1.471.458,2.98-.31,4.4" transform="translate(-2118.719 -2842.729)" fill="#6697da"/>
          <path id="Trazado_1049654" data-name="Trazado 1049654" d="M1886.308,3154.021l-.838-.077c-.076-.281.03.05-.119-.178-.636-.979.458-3.006-1.132-3.082-2.082-.1-4.477-.413-6.147,1.549l-2.851-1.018c2.955-4.085,7.237-3.834,11.335-2.5a45.058,45.058,0,0,0,9.27,2.333c-.622.627-1.545.091-2.061.7a16.534,16.534,0,0,1-5.5-1.162c-1.6-.585-2.307-.348-2.047,1.484a19.458,19.458,0,0,1,.088,1.95" transform="translate(-1735.728 -2913.683)" fill="#eb966a"/>
          <path id="Trazado_1049655" data-name="Trazado 1049655" d="M2534.763,2795.413c1.1.056,1.621.5,1.6,1.634s-.8,1.391-1.548,1.364a1.538,1.538,0,0,1-1.634-1.656c.048-.993.778-1.292,1.581-1.341" transform="translate(-2344.743 -2587.47)" fill="#abc2e3"/>
          <path id="Trazado_1049656" data-name="Trazado 1049656" d="M2141.583,3202.056l4.856,0a7.97,7.97,0,0,1-4.856,0" transform="translate(-1982.276 -2963.864)" fill="#eb966a"/>
          <path id="Trazado_1049657" data-name="Trazado 1049657" d="M1870.8,3319.946a54.337,54.337,0,0,1,9.5.243c-1.326-1.133-3.031-.768-4.532-1.091a37.344,37.344,0,0,0-4.7-.2c6.81-1.287,12.91,1.345,19.191,3.563a2.276,2.276,0,0,1-2.2.833c-5.638-.821-11.316-1.431-16.84-2.917-.057-.015-.1-.095-.416-.429" transform="translate(-1731.637 -3071.698)" fill="#f29b6b"/>
          <path id="Trazado_1049658" data-name="Trazado 1049658" d="M1910.109,3174.939c-.653-1.105-.068-1.623.943-1.8,1.752-.3,3.512-.594,5.281-.758,1.382-.128,1.618.858,1.606,1.984a4.055,4.055,0,0,1-.432,2.282l-7.4-1.709" transform="translate(-1767.766 -2936.386)" fill="#f5a736"/>
          <path id="Trazado_1049659" data-name="Trazado 1049659" d="M1925.177,1672.374c3.136-3.067,5.959-6.252,6.652-10.9.321-2.148-.038-4.365.743-6.446,2.842,3.74,5.315,7.778,8.715,11.069,6.287,6.084,13.517,10.406,22.353,11.541,1.634.21,2.021.644.848,1.93a.894.894,0,0,0,.129,1.48,1.319,1.319,0,0,1-.13,2.35c-1.966,1.2-2.494,3.307-3.563,5.075-13.149.561-24.709-3.028-33.814-12.983a9.533,9.533,0,0,1-1.933-3.12" transform="translate(-1781.968 -1531.919)" fill="#fdbe86"/>
          <path id="Trazado_1049660" data-name="Trazado 1049660" d="M2652.627,1838.721l-5.567,4.464c-2.04.331-3.652-.206-4.533-2.231-1.294-1.361-3.082-2.33-3.478-4.4a62.3,62.3,0,0,0,11.083,1.746c.844.033,1.755-.257,2.5.42" transform="translate(-2442.737 -1699.939)" fill="#d45e12"/>
          <path id="Trazado_1049661" data-name="Trazado 1049661" d="M2637.619,1895.706c1.128,1.522,3.123,1.281,4.533,2.23-2.345,2.692-5.487,4.313-8.405,6.233.639-1.714,1.959-2.969,2.986-4.422.819-1.161,1.873-2.3.415-3.719l.472-.323" transform="translate(-2437.828 -1754.69)" fill="#638bbc"/>
          <path id="Trazado_1049662" data-name="Trazado 1049662" d="M1914.587,1851.133c-.049.626-.5.845-1.011,1.007-.239-.5-.766-.489-1.178-.677a2.624,2.624,0,0,1,2.189-.329" transform="translate(-1770.139 -1713.321)" fill="#fdbe86"/>
          <path id="Trazado_1049663" data-name="Trazado 1049663" d="M2125.006,1414.718c8.467-.118,16.627-.041,24.887-.536-3.936,7.591-19.975,8.019-24.887.536" transform="translate(-1966.932 -1308.985)" fill="#fcfbf9"/>
          <path id="Trazado_1049664" data-name="Trazado 1049664" d="M2548.132,2809.12a.8.8,0,0,1-.6.848.694.694,0,0,1-.923-.586.583.583,0,0,1,.55-.728.842.842,0,0,1,.97.465" transform="translate(-2357.16 -2599.712)" fill="#3d5181"/>
        </g>
      </g>
      <g id="Grupo_1204564" data-name="Grupo 1204564" transform="translate(962.426 9627.767)">
        <g id="Grupo_1204563" data-name="Grupo 1204563" transform="translate(0 0)">
          <g transform="matrix(1, 0, 0, 1, -123.63, -74.48)" filter="url(#Trazado_1049665)">
            <path id="Trazado_1049665-2" data-name="Trazado 1049665" d="M39.981.082c8.931-.6,17.785,2.175,25.258,6.94a42.359,42.359,0,0,1,18.17,26.37c2.45,11.361-.087,22.549-6.359,32.212L87.736,86.627,64.883,77.148l-4.981,2.6a41.209,41.209,0,0,1-13.819,3.6c-11.336.881-22.275-2.224-30.965-9.711A43.435,43.435,0,0,1,.095,44.024,41.274,41.274,0,0,1,9.774,14.609C17.684,5.527,28.08.942,39.981.082" transform="translate(123.63 74.48)" fill="#f6f3ef"/>
          </g>
          <path id="Trazado_1049666" data-name="Trazado 1049666" d="M93.831,62.276l.029.373c.324,6.719-4.111,15.289-8.581,20.021A33.938,33.938,0,0,1,61.87,93.394a33.1,33.1,0,0,1-24.131-8.929C31.516,78.532,27.167,69.976,27,61.293c-.173-9.02,2.682-17.209,9.021-23.719a33.87,33.87,0,0,1,47.562-.751C89.453,42.672,93.876,51.1,93.831,59.547a21.5,21.5,0,0,0,0,2.729" transform="translate(-18.324 -18.629)" fill="#fec53d"/>
          <path id="Trazado_1049667" data-name="Trazado 1049667" d="M100.661,108.3c-2.332,0-23.848-.177-24.051-.03a7.584,7.584,0,0,0-.649,1.441c-.931,2.06-2.036,5.564-3.786,6.949a2.32,2.32,0,0,1-1.895-.352A10.527,10.527,0,0,1,68.9,112.59l-1.866-7.145-2.675,9.279-1.394,6c-.234,1.191-.305,2.78-1.166,3.7a1.73,1.73,0,0,1-1.509-.2c-1.371-2.183-1.827-6.476-2.383-9.025l-2.855-13.575c-.315,1.638-.52,3.967-1.291,5.427a2.084,2.084,0,0,1-1.32,1.216,21.007,21.007,0,0,1-3.568.046H41.027a13.916,13.916,0,0,1-3.138-.064,4.508,4.508,0,0,1-.751-.621,2.049,2.049,0,0,1,.241-1.754c1.358-.538,3.247-.312,4.7-.313l9.445.025,2.158-9.48a2.065,2.065,0,0,1,1.612-.865,4.541,4.541,0,0,1,.777.554A7.372,7.372,0,0,1,56.69,97.8l1.278,5.8,3.067,13.282,3.016-10.132c.424-1.511.935-4.8,1.949-5.93.565-.629.909-.537,1.712-.611,1.243.89,1.4,2.839,1.737,4.278l2.014,8.794a63.9,63.9,0,0,1,3.777-7.629,79.79,79.79,0,0,1,8.729-.1l16.693.016a21.5,21.5,0,0,0,0,2.729" transform="translate(-25.154 -64.648)" fill="#263173"/>
        </g>
      </g>
      <g id="Grupo_1204566" data-name="Grupo 1204566" transform="translate(1307.634 9726.904)">
        <g id="Grupo_1204565" data-name="Grupo 1204565" clip-path="url(#clip-path-3)">
          <path id="Trazado_1049668" data-name="Trazado 1049668" d="M219.356,75.031c-.028-1.66-.518-5.216.654-6.417,1.211-1.24,6.409-.727,8.305-.721,1.139,0,3.911-.342,4.715.475a2.624,2.624,0,0,1,.771,1.4,33.264,33.264,0,0,1,.047,5.128l.022,12.928c.022,1.377.463,5.149-.274,6.175a4.307,4.307,0,0,1-2.279.13A13,13,0,0,0,228.3,94l-6.595.033a3.794,3.794,0,0,1-2.054-.2l-.236-.865c-.391-2.817-.019-6.251-.008-9.126Z" transform="translate(-158.457 -48.993)" fill="#747eca"/>
          <path id="Trazado_1049669" data-name="Trazado 1049669" d="M234.35,140.079c.022,1.377.463,5.149-.274,6.175a4.307,4.307,0,0,1-2.279.13,13,13,0,0,0-3.019-.13l-6.595.033a3.794,3.794,0,0,1-2.054-.2l-.236-.865.028-5.062Z" transform="translate(-158.936 -101.248)" fill="#303a72"/>
          <path id="Trazado_1049670" data-name="Trazado 1049670" d="M165.752,437.253l6.21-.095a16.845,16.845,0,0,1,3.116.015l.189.017.072,2.3c.635.5,1.832.3,2.653.3l7.2-.011a25.614,25.614,0,0,1,4.247.135c5.672.991,8.824,4.887,10.4,10.157l-58.065.022a10.474,10.474,0,0,1,3.529-6.863c3.623-3.5,7.487-3.439,12.183-3.445l8.266.07Z" transform="translate(-102.472 -315.921)" fill="#303a72"/>
          <path id="Trazado_1049671" data-name="Trazado 1049671" d="M228.273,437.253l6.21-.095a16.845,16.845,0,0,1,3.116.015v2.437a1.745,1.745,0,0,1-.335.3c-.419.213-7.512.04-8.485,0l-.5-.062Z" transform="translate(-164.993 -315.921)" fill="#1a275f"/>
          <path id="Trazado_1049672" data-name="Trazado 1049672" d="M.123,39.743c.2-2.443.008-5.066.008-7.525L.137,16.331c0-3.37-.638-8.1.843-11.147A8.992,8.992,0,0,1,6.366.53a10.676,10.676,0,0,1,3.6-.422L25.862.1c2.284,0,5.117-.318,7.3.184a8.786,8.786,0,0,1,6.381,6.275,30.585,30.585,0,0,1,.211,6.3l.036,13.183-.014,8.8-.025,10.266c0,2.149.3,4.725-.507,6.737a9.079,9.079,0,0,1-7.208,5.434,42.546,42.546,0,0,1-4.607.052l-8.912-.017-6.883,0a16.568,16.568,0,0,1-3.992-.223,9.879,9.879,0,0,1-4.929-2.644C-.836,50.789.137,44.465.123,39.743" transform="translate(0 0)" fill="#303a72"/>
          <path id="Trazado_1049673" data-name="Trazado 1049673" d="M228.1,162.33l6.595-.033a13,13,0,0,1,3.019.13l.014,9.924-9.65-.018Z" transform="translate(-164.848 -117.29)" fill="#1a275f"/>
          <path id="Trazado_1049674" data-name="Trazado 1049674" d="M143.506,93.933l21.107,0,.05,8.809H143.493Z" transform="translate(-103.715 -67.891)" fill="#6c58aa"/>
          <path id="Trazado_1049675" data-name="Trazado 1049675" d="M228.073,198.557l9.65.018-.08,66.208-.189-.017a16.845,16.845,0,0,0-3.116-.015l-6.21.095Z" transform="translate(-164.848 -143.515)" fill="#747eca"/>
        </g>
      </g>
      <g id="Grupo_1204568" data-name="Grupo 1204568" transform="translate(857.601 9719.861)">
        <g id="Grupo_1204567" data-name="Grupo 1204567" clip-path="url(#clip-path-4)">
          <path id="Trazado_1049676" data-name="Trazado 1049676" d="M61.72,203.651c.3-.521,24.115-12.342,26.085-13.111a25.331,25.331,0,0,0,3.251,4.71l-16.64,8.292c-2.569,1.3-5.46,3.262-8.16,4.076a2.827,2.827,0,0,1-1.821-.145c-1.378-.482-1.944-2.047-2.484-3.274Z" transform="translate(-44.252 -136.613)" fill="#141e54"/>
          <path id="Trazado_1049677" data-name="Trazado 1049677" d="M78.348,144.989c-1.6,4.188-2.2,8.491-.333,12.734l.072.158C76.117,158.649,52.3,170.47,52,170.992l-2.873-5.722c-.747-1.482-1.305-2.512-.718-4.172a3.394,3.394,0,0,1,1.336-1.743c2.66-1.793,6.094-3.1,8.99-4.567Z" transform="translate(-34.533 -103.954)" fill="#1a275f"/>
          <path id="Trazado_1049678" data-name="Trazado 1049678" d="M247.783,80.1l1.263-.754c1.066,5.859,3.575,10.75,6.824,15.675l-21.212,10.82a20.138,20.138,0,0,0-.92-6.284c-1.307-3.958-4.142-6.394-7.6-8.477Z" transform="translate(-162.132 -56.892)" fill="#1a275f"/>
          <path id="Trazado_1049679" data-name="Trazado 1049679" d="M267.047,80.1l1.263-.754c1.066,5.859,3.575,10.75,6.824,15.675l-21.212,10.82a20.137,20.137,0,0,0-.92-6.284l17.787-9.019A42.307,42.307,0,0,1,267.047,80.1" transform="translate(-181.396 -56.892)" fill="#141e54"/>
          <path id="Trazado_1049680" data-name="Trazado 1049680" d="M305.778,40.03a11.3,11.3,0,0,1-.147-6.192c1.072-3.3,4.328-4.436,7.135-5.887l6.769-3.443a39.779,39.779,0,0,0,.017,6.709A35.142,35.142,0,0,0,328.074,49.6a25.438,25.438,0,0,0,9.853,7.04l-13.027,6.9a6.463,6.463,0,0,1-3.3.288c-3.293-.552-7.14-5.472-8.994-8.125-3.249-4.925-5.758-9.816-6.824-15.675" transform="translate(-218.864 -17.572)" fill="#303a72"/>
          <path id="Trazado_1049681" data-name="Trazado 1049681" d="M151.029,123.5l.125-.254a14.607,14.607,0,0,1,8.608-7.51,15.145,15.145,0,0,1,11.453.92c3.463,2.083,6.3,4.519,7.6,8.477a20.137,20.137,0,0,1,.92,6.284,15.929,15.929,0,0,1-6.29,10.957,3.832,3.832,0,0,1-1.011.611,8.2,8.2,0,0,1,.224,3.447l-.514.605a25.646,25.646,0,0,1-14.347.4,3.155,3.155,0,0,1-1.582-1.283c-.447-.858,0-2.385.27-3.245a16.866,16.866,0,0,1-2.471-1.81,25.331,25.331,0,0,1-3.251-4.71l-.072-.158c-1.869-4.243-1.27-8.546.333-12.734" transform="translate(-107.215 -82.468)" fill="#303a72"/>
          <path id="Trazado_1049682" data-name="Trazado 1049682" d="M172.939,213.576c4.032,2.03,7.872,2.947,12.3,1.518l3.654-1.445a8.2,8.2,0,0,1,.224,3.447l-.514.605a25.646,25.646,0,0,1-14.347.4,3.155,3.155,0,0,1-1.582-1.283c-.447-.858,0-2.385.27-3.245" transform="translate(-123.664 -153.129)" fill="#1a275f"/>
          <path id="Trazado_1049683" data-name="Trazado 1049683" d="M178.213,134.952a9.761,9.761,0,0,1,5.713,1.114,9.519,9.519,0,0,1,4.527,5.648,9.008,9.008,0,0,1-.916,7.031,9.185,9.185,0,0,1-13.153,3.13,9.1,9.1,0,0,1-3.91-5.679,9.29,9.29,0,0,1,1.251-7.011,9.742,9.742,0,0,1,6.489-4.232" transform="translate(-122.076 -96.727)" fill="#747eca"/>
          <path id="Trazado_1049684" data-name="Trazado 1049684" d="M50.587,228.555a25.645,25.645,0,0,0,14.347-.4c.771,1.907,2.444,3.766,3.574,5.522L94.993,271.39l23.77,33.4h-5.42l-24-34.016L66.677,238.687c-.7-1.021-3.969-6.369-4.872-6.467L60.3,232.3c-.579,1.534-.186,4.3-.181,5.993l.042,14.992-.031,41.949,9.521.013a22.338,22.338,0,0,1,4.162.079,2.5,2.5,0,0,1,1.162.687c1.373,1.342.738,6.668.739,8.663l-34.146-.009c-.008-2-.631-7.252.752-8.687a3.346,3.346,0,0,1,.877-.616,11.61,11.61,0,0,1,3.6-.192l9.03.08-.061-47.69.037-11c0-1.087.278-3.3-.179-4.228a7.545,7.545,0,0,0-2.221,0L5.408,304.645l-5.408,0Z" transform="translate(0 -163.58)" fill="#303a72"/>
          <path id="Trazado_1049685" data-name="Trazado 1049685" d="M368.149,0a19.791,19.791,0,0,1,15.032,5.8,21.764,21.764,0,0,1,6.332,15.268c.018,3.941-1.273,8.747-4.155,11.573a7.867,7.867,0,0,1-1.822,1.34l-2.059,1.07-5.919,3-1.812,1.017a25.438,25.438,0,0,1-9.853-7.04,35.143,35.143,0,0,1-8.521-18.388,39.783,39.783,0,0,1-.017-6.709l1.874-1.126a.962.962,0,0,1,.072-.365c.835-2.246,4.69-3.607,6.712-4.5l2.16-.69Z" transform="translate(-254.683 0)" fill="#303a72"/>
          <path id="Trazado_1049686" data-name="Trazado 1049686" d="M384.832,1.588l2.16-.69c-.264,1.889-.737,3.752-.856,5.654a28.662,28.662,0,0,0,6.068,19.28,23.988,23.988,0,0,0,8.788,7.26,14.407,14.407,0,0,1,3.363,1.539L402.3,35.7c-4.789-2.149-8.48-4.378-11.582-8.748-5.677-8-7.527-15.647-5.882-25.365" transform="translate(-275.501 -0.644)" fill="#141e54"/>
          <path id="Trazado_1049687" data-name="Trazado 1049687" d="M364.014,3.336c-1.646,9.718.2,17.369,5.882,25.365,3.1,4.369,6.793,6.6,11.582,8.748l-5.919,3-1.812,1.017a25.438,25.438,0,0,1-9.853-7.04,35.143,35.143,0,0,1-8.521-18.388,39.783,39.783,0,0,1-.017-6.709L357.229,8.2a.962.962,0,0,1,.072-.365c.835-2.246,4.69-3.607,6.712-4.5" transform="translate(-254.683 -2.392)" fill="#303a72"/>
          <path id="Trazado_1049688" data-name="Trazado 1049688" d="M355.355,21.656l1.874-1.126a43.989,43.989,0,0,0-.043,7.367c.746,6.583,4.084,13.019,8.417,17.948a24.991,24.991,0,0,0,6.964,5.674,23.923,23.923,0,0,1,2.99,1.256l-1.812,1.017a25.438,25.438,0,0,1-9.853-7.04,35.143,35.143,0,0,1-8.521-18.388,39.783,39.783,0,0,1-.017-6.709" transform="translate(-254.683 -14.72)" fill="#141e54"/>
        </g>
      </g>
    </g>
  </g>
</svg>
