<svg xmlns="http://www.w3.org/2000/svg" xmlns:xlink="http://www.w3.org/1999/xlink" width="118" height="118" viewBox="0 0 118 118">
  <defs>
    <filter id="Trazado_982547" x="0" y="0" width="118" height="118" filterUnits="userSpaceOnUse">
      <feOffset dy="3" input="SourceAlpha"/>
      <feGaussianBlur stdDeviation="3" result="blur"/>
      <feFlood flood-opacity="0.161"/>
      <feComposite operator="in" in2="blur"/>
      <feComposite in="SourceGraphic"/>
    </filter>
  </defs>
  <g id="Grupo_1204502" data-name="Grupo 1204502" transform="translate(-269 -1239)">
    <g id="Grupo_1180856" data-name="Grupo 1180856" transform="translate(-472 -17)">
      <g id="Grupo_1179137" data-name="Grupo 1179137" transform="translate(-2.25 571)">
        <g id="Grupo_1177987" data-name="Grupo 1177987" transform="translate(752.25 691)">
          <g id="Grupo_1177681" data-name="Grupo 1177681">
            <g id="Grupo_1172010" data-name="Grupo 1172010">
              <g id="Grupo_1171046" data-name="Grupo 1171046">
                <g id="Grupo_1148525" data-name="Grupo 1148525">
                  <g transform="matrix(1, 0, 0, 1, -9, -6)" filter="url(#Trazado_982547)">
                    <g id="Trazado_982547-2" data-name="Trazado 982547" transform="translate(9 6)" fill="#fdf4ce">
                      <path d="M 50 98.5 C 43.45188522338867 98.5 37.10042953491211 97.21787261962891 31.12207221984863 94.68923950195312 C 25.34690093994141 92.24655914306641 20.15995788574219 88.74931335449219 15.70531463623047 84.29468536376953 C 11.2506856918335 79.84004211425781 7.753442764282227 74.65309906005859 5.310757160186768 68.8779296875 C 2.782128572463989 62.89957046508789 1.5 56.54811477661133 1.5 50 C 1.5 43.45188522338867 2.782128572463989 37.10042953491211 5.310757160186768 31.12207221984863 C 7.753442764282227 25.34691429138184 11.2506856918335 20.15997123718262 15.70531463623047 15.70532894134521 C 20.15995788574219 11.2506856918335 25.34690093994141 7.753442764282227 31.12207221984863 5.310757160186768 C 37.10042953491211 2.782128572463989 43.45188522338867 1.5 50 1.5 C 56.54811477661133 1.5 62.89957046508789 2.782128572463989 68.8779296875 5.310757160186768 C 74.65309906005859 7.753442764282227 79.84004211425781 11.2506856918335 84.29468536376953 15.70532894134521 C 88.74931335449219 20.15997123718262 92.24655914306641 25.34691429138184 94.68923950195312 31.12207221984863 C 97.21787261962891 37.10042953491211 98.5 43.45188522338867 98.5 50 C 98.5 56.54811477661133 97.21787261962891 62.89957046508789 94.68923950195312 68.8779296875 C 92.24655914306641 74.65309906005859 88.74931335449219 79.84004211425781 84.29468536376953 84.29468536376953 C 79.84004211425781 88.74931335449219 74.65309906005859 92.24655914306641 68.8779296875 94.68923950195312 C 62.89957046508789 97.21787261962891 56.54811477661133 98.5 50 98.5 Z" stroke="none"/>
                      <path d="M 50 3 C 43.65372467041016 3 37.49886322021484 4.242263793945312 31.70639801025391 6.6922607421875 C 26.11003112792969 9.059326171875 21.08333587646484 12.44861602783203 16.76598358154297 16.76598358154297 C 12.44861602783203 21.08335113525391 9.059326171875 26.11003112792969 6.6922607421875 31.70639801025391 C 4.242263793945312 37.49886322021484 3 43.65372467041016 3 50 C 3 56.34627532958984 4.242263793945312 62.50113677978516 6.6922607421875 68.29360198974609 C 9.059326171875 73.88996887207031 12.44861602783203 78.91666412353516 16.76598358154297 83.23401641845703 C 21.08333587646484 87.55138397216797 26.11003112792969 90.940673828125 31.70639801025391 93.3077392578125 C 37.49886322021484 95.75773620605469 43.65372467041016 97 50 97 C 56.34627532958984 97 62.50113677978516 95.75773620605469 68.29360198974609 93.3077392578125 C 73.88996887207031 90.940673828125 78.91664886474609 87.55138397216797 83.23401641845703 83.23401641845703 C 87.55138397216797 78.91666412353516 90.940673828125 73.88996887207031 93.3077392578125 68.29360198974609 C 95.75773620605469 62.50113677978516 97 56.34627532958984 97 50 C 97 43.65372467041016 95.75773620605469 37.49886322021484 93.3077392578125 31.70639801025391 C 90.940673828125 26.11003112792969 87.55138397216797 21.08335113525391 83.23401641845703 16.76598358154297 C 78.91664886474609 12.44861602783203 73.88996887207031 9.059326171875 68.29360198974609 6.6922607421875 C 62.50113677978516 4.242263793945312 56.34627532958984 3 50 3 M 50 0 C 77.61422729492188 0 100 22.38577270507812 100 50 C 100 77.61424255371094 77.61422729492188 100 50 100 C 22.38575744628906 100 0 77.61424255371094 0 50 C 0 22.38577270507812 22.38575744628906 0 50 0 Z" stroke="none" fill="#866d08"/>
                    </g>
                  </g>
                </g>
              </g>
            </g>
          </g>
        </g>
      </g>
    </g>
    <g id="refresh-data_12388442" transform="translate(283.759 1197.202)">
      <path id="Trazado_1049151" data-name="Trazado 1049151" d="M67.2,130.54H12.675A5.175,5.175,0,0,1,7.5,125.365v-19.5a5.175,5.175,0,0,1,5.175-5.175H67.2Z" transform="translate(0 -19.852)" fill="#c4e2ff"/>
      <path id="Trazado_1049152" data-name="Trazado 1049152" d="M93.673,152.417H40.041a1.478,1.478,0,0,1-1.479-1.479v-17.71a1.478,1.478,0,0,1,1.479-1.479H93.673Z" transform="translate(-26.469 -46.322)" fill="#eaf6ff"/>
      <path id="Trazado_1049153" data-name="Trazado 1049153" d="M50.86,100.688a18.348,18.348,0,0,0-2.935,21.453,2.666,2.666,0,0,1-.443,3.161l-2.8,2.8a.739.739,0,0,1-.523.216H14.177A5.163,5.163,0,0,1,12.386,128a5.172,5.172,0,0,0,4.452,2.536H71.367V100.688Z" transform="translate(-4.164 -19.852)" fill="#8ac9fe"/>
      <path id="Trazado_1049154" data-name="Trazado 1049154" d="M239.752,131.75a18.358,18.358,0,0,0,.3,16.861,2.666,2.666,0,0,1-.443,3.161l-.645.645H263.5V131.75Z" transform="translate(-196.292 -46.322)" fill="#c4e2ff"/>
      <path id="Trazado_1049155" data-name="Trazado 1049155" d="M274.336,77.391A18.387,18.387,0,0,0,258.053,104.5a2.69,2.69,0,0,1-.462,3.183l-1.6,1.6,1.528,3.2,3.2,1.528,1.6-1.6a2.69,2.69,0,0,1,3.183-.462,18.383,18.383,0,1,0,8.836-34.56Z" transform="translate(-211.632 0)" fill="#685e68"/>
      <path id="Trazado_1049156" data-name="Trazado 1049156" d="M298.112,120.579a18.341,18.341,0,0,0-6.54-13.955,18.385,18.385,0,0,1-22.791,28.021,2.69,2.69,0,0,0-3.183.462l-1.6,1.6-1.7-.811.717,1.5,3.2,1.528,1.6-1.6a2.69,2.69,0,0,1,3.183-.462,18.387,18.387,0,0,0,27.113-16.283Z" transform="translate(-217.131 -24.911)" fill="#554e56"/>
      <path id="Trazado_1049157" data-name="Trazado 1049157" d="M167.141,301.013l1.061-3.183-4.727-4.726-3.183,1.061a1.615,1.615,0,0,0-.631.39l-11.593,11.593a2.69,2.69,0,0,0,0,3.8l3.286,3.286a2.69,2.69,0,0,0,3.8,0l11.593-11.593A1.614,1.614,0,0,0,167.141,301.013Z" transform="translate(-119.114 -183.819)" fill="#ffd15b"/>
      <path id="Trazado_1049158" data-name="Trazado 1049158" d="M176.68,310.071l-1.061,3.183a1.616,1.616,0,0,1-.39.631l-11.593,11.593a2.69,2.69,0,0,1-3.8,0l2.218,2.218a2.69,2.69,0,0,0,3.8,0L177.447,316.1a1.614,1.614,0,0,0,.39-.631l1.061-3.183Z" transform="translate(-129.81 -198.278)" fill="#ffc344"/>
      <circle id="Elipse_12928" data-name="Elipse 12928" cx="13.778" cy="13.778" r="13.778" transform="translate(48.833 81.984)" fill="#6ed5a1"/>
      <path id="Trazado_1049159" data-name="Trazado 1049159" d="M325.273,127.361a13.779,13.779,0,0,1-19.3,19.3,13.778,13.778,0,1,0,19.3-19.3Z" transform="translate(-254.341 -42.582)" fill="#46cc8d"/>
      <path id="Trazado_1049160" data-name="Trazado 1049160" d="M260.72,114.011l1.6-1.6a2.69,2.69,0,0,1,3.183-.462,18.372,18.372,0,1,0-7.448-7.448,2.69,2.69,0,0,1-.462,3.183l-1.6,1.6" transform="translate(-211.632 0)" fill="none" stroke="#000" stroke-linecap="round" stroke-linejoin="round" stroke-miterlimit="10" stroke-width="1.2"/>
      <path id="Trazado_1049161" data-name="Trazado 1049161" d="M151.156,303.06l-3.087,3.087a2.69,2.69,0,0,0,0,3.8l3.286,3.286a2.69,2.69,0,0,0,3.8,0l11.593-11.593a1.613,1.613,0,0,0,.39-.631l1.061-3.183-4.726-4.726-3.183,1.061a1.616,1.616,0,0,0-.631.39l-4.811,4.811" transform="translate(-119.115 -183.819)" fill="none" stroke="#000" stroke-linecap="round" stroke-linejoin="round" stroke-miterlimit="10" stroke-width="1.2"/>
      <path id="Trazado_1049162" data-name="Trazado 1049162" d="M312.954,115.663a13.789,13.789,0,1,1-3.276-4" transform="translate(-238.228 -26.469)" fill="none" stroke="#000" stroke-linecap="round" stroke-linejoin="round" stroke-miterlimit="10" stroke-width="1.2"/>
      <path id="Trazado_1049163" data-name="Trazado 1049163" d="M319.847,194.386l2.123,2.128,2.128-2.123" transform="translate(-266.166 -99.697)" fill="none" stroke="#000" stroke-linecap="round" stroke-linejoin="round" stroke-miterlimit="10" stroke-width="1.2"/>
      <path id="Trazado_1049164" data-name="Trazado 1049164" d="M416.155,196.631l-2.123-2.128-2.128,2.123" transform="translate(-344.613 -99.797)" fill="none" stroke="#000" stroke-linecap="round" stroke-linejoin="round" stroke-miterlimit="10" stroke-width="1.2"/>
      <path id="Trazado_1049165" data-name="Trazado 1049165" d="M345.177,156.836a6.889,6.889,0,0,0-11.521,5.1,6.941,6.941,0,0,0,.064.94" transform="translate(-277.934 -66.174)" fill="none" stroke="#000" stroke-linecap="round" stroke-linejoin="round" stroke-miterlimit="10" stroke-width="1.2"/>
      <path id="Trazado_1049166" data-name="Trazado 1049166" d="M348.924,201.454a6.889,6.889,0,0,0,11.521-5.1,6.939,6.939,0,0,0-.06-.917" transform="translate(-290.944 -100.594)" fill="none" stroke="#000" stroke-linecap="round" stroke-linejoin="round" stroke-miterlimit="10" stroke-width="1.2"/>
      <line id="Línea_1300" data-name="Línea 1300" x2="20.441" transform="translate(31.33 80.836)" fill="none" stroke="#000" stroke-linecap="round" stroke-linejoin="round" stroke-miterlimit="10" stroke-width="1.2"/>
      <path id="Trazado_1049167" data-name="Trazado 1049167" d="M40.4,130.54H12.675A5.175,5.175,0,0,1,7.5,125.365v-19.5a5.175,5.175,0,0,1,5.175-5.175h13.48" transform="translate(0 -19.852)" fill="none" stroke="#000" stroke-linecap="round" stroke-linejoin="round" stroke-miterlimit="10" stroke-width="1.2"/>
      <path id="Trazado_1049168" data-name="Trazado 1049168" d="M73.049,152.417H40.041a1.478,1.478,0,0,1-1.479-1.479v-17.71a1.478,1.478,0,0,1,1.479-1.479H73.746" transform="translate(-26.469 -46.322)" fill="none" stroke="#000" stroke-linecap="round" stroke-linejoin="round" stroke-miterlimit="10" stroke-width="1.2"/>
      <line id="Línea_1301" data-name="Línea 1301" x2="4.593" transform="translate(18.981 100.354)" fill="none" stroke="#000" stroke-linecap="round" stroke-linejoin="round" stroke-miterlimit="10" stroke-width="1.2"/>
      <line id="Línea_1302" data-name="Línea 1302" x2="4.593" transform="translate(18.981 90.021)" fill="none" stroke="#000" stroke-linecap="round" stroke-linejoin="round" stroke-miterlimit="10" stroke-width="1.2"/>
      <line id="Línea_1303" data-name="Línea 1303" y2="9.185" transform="translate(21.278 91.169)" fill="none" stroke="#000" stroke-linecap="round" stroke-linejoin="round" stroke-miterlimit="10" stroke-width="1.2"/>
    </g>
  </g>
</svg>
