<svg xmlns="http://www.w3.org/2000/svg" xmlns:xlink="http://www.w3.org/1999/xlink" width="118" height="118" viewBox="0 0 118 118">
  <defs>
    <filter id="Trazado_982547" x="0" y="0" width="118" height="118" filterUnits="userSpaceOnUse">
      <feOffset dy="3" input="SourceAlpha"/>
      <feGaussianBlur stdDeviation="3" result="blur"/>
      <feFlood flood-opacity="0.161"/>
      <feComposite operator="in" in2="blur"/>
      <feComposite in="SourceGraphic"/>
    </filter>
  </defs>
  <g id="Grupo_1180859" data-name="Grupo 1180859" transform="translate(-741 -1256)">
    <g id="Grupo_1179137" data-name="Grupo 1179137" transform="translate(-2.25 571)">
      <g id="Grupo_1177987" data-name="Grupo 1177987" transform="translate(752.25 691)">
        <g id="Grupo_1177681" data-name="Grupo 1177681">
          <g id="Grupo_1172010" data-name="Grupo 1172010">
            <g id="Grupo_1171046" data-name="Grupo 1171046">
              <g id="Grupo_1148525" data-name="Grupo 1148525">
                <g transform="matrix(1, 0, 0, 1, -9, -6)" filter="url(#Trazado_982547)">
                  <g id="Trazado_982547-2" data-name="Trazado 982547" transform="translate(9 6)" fill="#fdf4ce">
                    <path d="M 50 98.5 C 43.45188522338867 98.5 37.10042953491211 97.21787261962891 31.12207221984863 94.68923950195312 C 25.34690093994141 92.24655914306641 20.15995788574219 88.74931335449219 15.70531463623047 84.29468536376953 C 11.2506856918335 79.84004211425781 7.753442764282227 74.65309906005859 5.310757160186768 68.8779296875 C 2.782128572463989 62.89957046508789 1.5 56.54811477661133 1.5 50 C 1.5 43.45188522338867 2.782128572463989 37.10042953491211 5.310757160186768 31.12207221984863 C 7.753442764282227 25.34691429138184 11.2506856918335 20.15997123718262 15.70531463623047 15.70532894134521 C 20.15995788574219 11.2506856918335 25.34690093994141 7.753442764282227 31.12207221984863 5.310757160186768 C 37.10042953491211 2.782128572463989 43.45188522338867 1.5 50 1.5 C 56.54811477661133 1.5 62.89957046508789 2.782128572463989 68.8779296875 5.310757160186768 C 74.65309906005859 7.753442764282227 79.84004211425781 11.2506856918335 84.29468536376953 15.70532894134521 C 88.74931335449219 20.15997123718262 92.24655914306641 25.34691429138184 94.68923950195312 31.12207221984863 C 97.21787261962891 37.10042953491211 98.5 43.45188522338867 98.5 50 C 98.5 56.54811477661133 97.21787261962891 62.89957046508789 94.68923950195312 68.8779296875 C 92.24655914306641 74.65309906005859 88.74931335449219 79.84004211425781 84.29468536376953 84.29468536376953 C 79.84004211425781 88.74931335449219 74.65309906005859 92.24655914306641 68.8779296875 94.68923950195312 C 62.89957046508789 97.21787261962891 56.54811477661133 98.5 50 98.5 Z" stroke="none"/>
                    <path d="M 50 3 C 43.65372467041016 3 37.49886322021484 4.242263793945312 31.70639801025391 6.6922607421875 C 26.11003112792969 9.059326171875 21.08333587646484 12.44861602783203 16.76598358154297 16.76598358154297 C 12.44861602783203 21.08335113525391 9.059326171875 26.11003112792969 6.6922607421875 31.70639801025391 C 4.242263793945312 37.49886322021484 3 43.65372467041016 3 50 C 3 56.34627532958984 4.242263793945312 62.50113677978516 6.6922607421875 68.29360198974609 C 9.059326171875 73.88996887207031 12.44861602783203 78.91666412353516 16.76598358154297 83.23401641845703 C 21.08333587646484 87.55138397216797 26.11003112792969 90.940673828125 31.70639801025391 93.3077392578125 C 37.49886322021484 95.75773620605469 43.65372467041016 97 50 97 C 56.34627532958984 97 62.50113677978516 95.75773620605469 68.29360198974609 93.3077392578125 C 73.88996887207031 90.940673828125 78.91664886474609 87.55138397216797 83.23401641845703 83.23401641845703 C 87.55138397216797 78.91666412353516 90.940673828125 73.88996887207031 93.3077392578125 68.29360198974609 C 95.75773620605469 62.50113677978516 97 56.34627532958984 97 50 C 97 43.65372467041016 95.75773620605469 37.49886322021484 93.3077392578125 31.70639801025391 C 90.940673828125 26.11003112792969 87.55138397216797 21.08335113525391 83.23401641845703 16.76598358154297 C 78.91664886474609 12.44861602783203 73.88996887207031 9.059326171875 68.29360198974609 6.6922607421875 C 62.50113677978516 4.242263793945312 56.34627532958984 3 50 3 M 50 0 C 77.61422729492188 0 100 22.38577270507812 100 50 C 100 77.61424255371094 77.61422729492188 100 50 100 C 22.38575744628906 100 0 77.61424255371094 0 50 C 0 22.38577270507812 22.38575744628906 0 50 0 Z" stroke="none" fill="#866d08"/>
                  </g>
                </g>
                <g id="sent_4927010" transform="translate(17.213 25.501)">
                  <g id="Grupo_1204505" data-name="Grupo 1204505" transform="translate(1.058 1.058)">
                    <g id="Grupo_1204503" data-name="Grupo 1204503" transform="translate(0 0)">
                      <path id="Trazado_1049169" data-name="Trazado 1049169" d="M16,58.644V94.075H79.459V58.644A2.643,2.643,0,0,0,76.815,56H18.644A2.643,2.643,0,0,0,16,58.644Z" transform="translate(-16 -56)" fill="#0b47db"/>
                      <path id="Trazado_1049170" data-name="Trazado 1049170" d="M16,344v3.7a2.643,2.643,0,0,0,2.644,2.644H76.815a2.643,2.643,0,0,0,2.644-2.644V344Z" transform="translate(-16 -305.925)" fill="#e0e0e2"/>
                      <path id="Trazado_1049171" data-name="Trazado 1049171" d="M184,397.288h19.038L201.98,392H185.19Z" transform="translate(-161.789 -347.579)" fill="#787680"/>
                      <path id="Trazado_1049172" data-name="Trazado 1049172" d="M167.73,432H136v3.173h31.73Z" transform="translate(-120.135 -382.29)" fill="#e0e0e2"/>
                    </g>
                    <path id="Trazado_1049173" data-name="Trazado 1049173" d="M182.478,124.557h14.675V96H176v22.078Z" transform="translate(-154.847 -90.712)" fill="#e0e0e2"/>
                    <path id="Trazado_1049174" data-name="Trazado 1049174" d="M294.346,270.346V264H288" transform="translate(-266.847 -236.501)" fill="#787680"/>
                    <g id="Grupo_1204504" data-name="Grupo 1204504" transform="translate(6.346 11.634)">
                      <path id="Trazado_1049175" data-name="Trazado 1049175" d="M106.577,176H96v6.346h10.577Z" transform="translate(-60.04 -171.769)" fill="#91cc04"/>
                      <path id="Trazado_1049176" data-name="Trazado 1049176" d="M344.461,158.807v-4.231h6.346v-6.346h-6.346V144L336,151.4Z" transform="translate(-336 -144)" fill="#91cc04"/>
                    </g>
                  </g>
                  <g id="Grupo_1204506" data-name="Grupo 1204506" transform="translate(0 0)">
                    <path id="Trazado_1049177" data-name="Trazado 1049177" d="M11.7,48H69.873a3.706,3.706,0,0,1,3.7,3.7V90.835a3.706,3.706,0,0,1-3.7,3.7H50.539l.635,3.173h5.479a1.058,1.058,0,0,1,1.058,1.058v3.173A1.058,1.058,0,0,1,56.652,103H24.922a1.058,1.058,0,0,1-1.058-1.058V98.767a1.058,1.058,0,0,1,1.058-1.058h5.5l.714-3.173H11.7a3.706,3.706,0,0,1-3.7-3.7V51.7A3.706,3.706,0,0,1,11.7,48ZM25.98,99.825v1.058H55.594V99.825ZM49.016,97.71l-.635-3.173H33.3L32.59,97.71Zm-38.9-6.875A1.588,1.588,0,0,0,11.7,92.421H69.873a1.588,1.588,0,0,0,1.586-1.586V88.191H10.115Zm0-4.759H71.459V51.7a1.588,1.588,0,0,0-1.586-1.586H11.7A1.588,1.588,0,0,0,10.115,51.7Z" transform="translate(-8 -48)"/>
                    <path id="Trazado_1049178" data-name="Trazado 1049178" d="M221.288,120.461h-4.231A1.058,1.058,0,0,1,216,119.4v-6.346A1.058,1.058,0,0,1,217.058,112h4.231a1.058,1.058,0,0,1,1.058,1.058V119.4A1.058,1.058,0,0,1,221.288,120.461Zm-1.058-6.346h-2.115v4.231h2.115Z" transform="translate(-184.271 -103.539)"/>
                    <path id="Trazado_1049179" data-name="Trazado 1049179" d="M197.288,192.461h-4.231A1.058,1.058,0,0,1,192,191.4v-6.346A1.058,1.058,0,0,1,193.058,184h4.231a1.058,1.058,0,0,1,1.058,1.058V191.4A1.058,1.058,0,0,1,197.288,192.461Zm-1.058-6.346h-2.115v4.231h2.115Z" transform="translate(-157.098 -166.02)"/>
                    <path id="Trazado_1049180" data-name="Trazado 1049180" d="M277.288,192.461h-4.231A1.058,1.058,0,0,1,272,191.4v-6.346A1.058,1.058,0,0,1,273.058,184h4.231a1.058,1.058,0,0,1,1.058,1.058V191.4A1.058,1.058,0,0,1,277.288,192.461Zm-1.058-6.346h-2.115v4.231h2.115Z" transform="translate(-247.674 -166.02)"/>
                    <path id="Trazado_1049181" data-name="Trazado 1049181" d="M193.058,120.461A1.058,1.058,0,0,1,192,119.4v-6.346a1.058,1.058,0,0,1,2.115,0V119.4A1.058,1.058,0,0,1,193.058,120.461Z" transform="translate(-152.867 -103.539)"/>
                    <path id="Trazado_1049182" data-name="Trazado 1049182" d="M249.058,184a1.058,1.058,0,0,1,1.058,1.058V191.4a1.058,1.058,0,0,1-2.115,0v-6.346A1.058,1.058,0,0,1,249.058,184Z" transform="translate(-216.27 -166.02)"/>
                    <path id="Trazado_1049183" data-name="Trazado 1049183" d="M281.058,120.461A1.058,1.058,0,0,1,280,119.4v-6.346a1.058,1.058,0,1,1,2.115,0V119.4A1.058,1.058,0,0,1,281.058,120.461Z" transform="translate(-252.501 -103.539)"/>
                    <path id="Trazado_1049184" data-name="Trazado 1049184" d="M305.058,120.461A1.058,1.058,0,0,1,304,119.4v-6.346a1.058,1.058,0,0,1,2.115,0V119.4A1.058,1.058,0,0,1,305.058,120.461Z" transform="translate(-279.674 -103.539)"/>
                    <path id="Trazado_1049185" data-name="Trazado 1049185" d="M88.361,102.011l8.461-7.4a1.058,1.058,0,0,1,1.754.8v3.173h4.231V89.058A1.058,1.058,0,0,1,103.865,88h21.153a1.058,1.058,0,0,1,1.058,1.058v9.519h9.519a1.058,1.058,0,0,1,1.058,1.058v6.346a1.058,1.058,0,0,1-1.058,1.058h-9.519v10.577a1.058,1.058,0,0,1-1.058,1.058H110.343a1.059,1.059,0,0,1-.748-.309l-6.478-6.478a1.059,1.059,0,0,1-.309-.748v-4.1H98.577v3.173a1.058,1.058,0,0,1-1.754.8l-8.461-7.4a1.058,1.058,0,0,1,0-1.592Zm37.714,2.911h8.461v-4.231h-8.461Zm-16.922,10.007v-2.6h-2.6Zm-4.231-4.718h5.288a1.058,1.058,0,0,1,1.058,1.058v5.288H123.96V90.115H104.923Zm-8.461-2.331v-1.9a1.058,1.058,0,0,1,1.058-1.058h5.288v-4.231H97.519a1.058,1.058,0,0,1-1.058-1.058v-1.9l-5.8,5.073Z" transform="translate(-81.654 -82.712)"/>
                  </g>
                </g>
              </g>
            </g>
          </g>
        </g>
      </g>
    </g>
  </g>
</svg>
