<svg xmlns="http://www.w3.org/2000/svg" xmlns:xlink="http://www.w3.org/1999/xlink" width="108" height="108" viewBox="0 0 108 108">
  <defs>
    <filter id="Trazado_904820" x="0" y="0" width="108" height="108" filterUnits="userSpaceOnUse">
      <feOffset dy="3" input="SourceAlpha"/>
      <feGaussianBlur stdDeviation="3" result="blur"/>
      <feFlood flood-opacity="0.161"/>
      <feComposite operator="in" in2="blur"/>
      <feComposite in="SourceGraphic"/>
    </filter>
  </defs>
  <g id="Grupo_1204444" data-name="Grupo 1204444" transform="translate(9 6)">
    <g id="Grupo_1178464" data-name="Grupo 1178464" transform="translate(0 0)">
      <g id="Grupo_1173585" data-name="Grupo 1173585">
        <g id="Grupo_1173428" data-name="Grupo 1173428">
          <g id="Grupo_1171958" data-name="Grupo 1171958">
            <g id="Grupo_1167341" data-name="Grupo 1167341">
              <g id="Grupo_1166792" data-name="Grupo 1166792">
                <g transform="matrix(1, 0, 0, 1, -9, -6)" filter="url(#Trazado_904820)">
                  <g id="Trazado_904820-2" data-name="Trazado 904820" transform="translate(9 6)" fill="#fef9e5">
                    <path d="M 44.99999618530273 88.50003051757812 C 39.12687301635742 88.50003051757812 33.43022155761719 87.35010528564453 28.06829643249512 85.08219146728516 C 22.88852119445801 82.89134216308594 18.23629570007324 79.75461578369141 14.24084663391113 75.75916290283203 C 10.24540901184082 71.76371765136719 7.108683586120605 67.11148834228516 4.917821407318115 61.93171691894531 C 2.649921178817749 56.56978988647461 1.499996185302734 50.87313842773438 1.499996185302734 45.00001525878906 C 1.499996185302734 39.12689208984375 2.649921178817749 33.43024063110352 4.917821407318115 28.06830215454102 C 7.108683586120605 22.88852691650391 10.24540901184082 18.23631477355957 14.24084663391113 14.24086570739746 C 18.23629570007324 10.24541568756104 22.88852119445801 7.10869026184082 28.06829643249512 4.917827606201172 C 33.43022155761719 2.649927854537964 39.12687301635742 1.50000274181366 44.99999618530273 1.50000274181366 C 50.87311935424805 1.50000274181366 56.56977081298828 2.649927854537964 61.93169784545898 4.917827606201172 C 67.11147308349609 7.10869026184082 71.76369476318359 10.24541568756104 75.75914764404297 14.24086570739746 C 79.75458526611328 18.23631477355957 82.89131164550781 22.88852691650391 85.08216857910156 28.06830215454102 C 87.35007476806641 33.43024063110352 88.5 39.12689208984375 88.5 45.00001525878906 C 88.5 50.87313842773438 87.35007476806641 56.56978988647461 85.08216857910156 61.93171691894531 C 82.89131164550781 67.11148834228516 79.75458526611328 71.76371765136719 75.75914764404297 75.75916290283203 C 71.76369476318359 79.75461578369141 67.11147308349609 82.89134216308594 61.93169784545898 85.08219146728516 C 56.56977081298828 87.35010528564453 50.87311935424805 88.50003051757812 44.99999618530273 88.50003051757812 Z" stroke="none"/>
                    <path d="M 44.99999618530273 3 C 39.32870864868164 3 33.82865142822266 4.110061645507812 28.65262603759766 6.299346923828125 C 23.65165710449219 8.414573669433594 19.15968322753906 11.44334411621094 15.301513671875 15.301513671875 C 11.44333648681641 19.15968322753906 8.414566040039062 23.65165710449219 6.299339294433594 28.65262985229492 C 4.110054016113281 33.82867050170898 2.999992370605469 39.32872772216797 2.999992370605469 45.00001525878906 C 2.999992370605469 50.67130279541016 4.110054016113281 56.17136001586914 6.299339294433594 61.34738922119141 C 8.414566040039062 66.34837341308594 11.44333648681641 70.84033203125 15.301513671875 74.69850158691406 C 19.15968322753906 78.55668640136719 23.65165710449219 81.58545684814453 28.65262603759766 83.70068359375 C 33.82865142822266 85.88996887207031 39.32870864868164 87.00003051757812 44.99999618530273 87.00003051757812 C 50.67128372192383 87.00003051757812 56.17134094238281 85.88996887207031 61.34736633300781 83.70068359375 C 66.34834289550781 81.58545684814453 70.84030914306641 78.55668640136719 74.69847869873047 74.69850158691406 C 78.55665588378906 70.84033203125 81.58542633056641 66.34837341308594 83.70065307617188 61.34738922119141 C 85.88993835449219 56.17136001586914 87 50.67130279541016 87 45.00001525878906 C 87 39.32872772216797 85.88993835449219 33.82867050170898 83.70065307617188 28.65262985229492 C 81.58542633056641 23.65165710449219 78.55665588378906 19.15968322753906 74.69847869873047 15.301513671875 C 70.84030914306641 11.44334411621094 66.34834289550781 8.414573669433594 61.34736633300781 6.299346923828125 C 56.17134094238281 4.110061645507812 50.67128372192383 3 44.99999618530273 3 M 44.99999618530273 0 C 69.85281372070312 0 90 20.14718627929688 90 45.00001525878906 C 90 69.85282897949219 69.85281372070312 90.00003051757812 44.99999618530273 90.00003051757812 C 20.14717864990234 90.00003051757812 -7.62939453125e-06 69.85282897949219 -7.62939453125e-06 45.00001525878906 C -7.62939453125e-06 20.14718627929688 20.14717864990234 0 44.99999618530273 0 Z" stroke="none" fill="#866d08"/>
                  </g>
                </g>
              </g>
            </g>
          </g>
        </g>
      </g>
    </g>
    <g id="coding_1547495_1_" data-name="coding_1547495 (1)" transform="translate(15.337 15.599)">
      <g id="Grupo_1204539" data-name="Grupo 1204539" transform="translate(1.916 1.916)">
        <ellipse id="Elipse_12948" data-name="Elipse 12948" cx="12" cy="11.5" rx="12" ry="11.5" transform="translate(14.485 0.485)" fill="#fcd770"/>
        <path id="Trazado_1049376" data-name="Trazado 1049376" d="M59.162,32v9.162a1.838,1.838,0,0,0-1.832,1.832V41.162A1.846,1.846,0,0,0,55.5,39.329a1.838,1.838,0,0,0-1.832,1.832V39.329A1.846,1.846,0,0,0,51.832,37.5,1.838,1.838,0,0,0,50,39.329V32h9.162Z" transform="translate(-6.024 -4.515)" fill="#ccd1d9"/>
        <path id="Trazado_1049377" data-name="Trazado 1049377" d="M18,32V42.994h1.832a1.838,1.838,0,0,1,1.832,1.832h3.665A3.311,3.311,0,0,0,28.3,46.659h5.057a3.311,3.311,0,0,0,2.968-1.832h3.665a1.838,1.838,0,0,1,1.832-1.832h1.832V32Z" transform="translate(-3.341 -4.515)" fill="#ccd1d9"/>
        <path id="Trazado_1049378" data-name="Trazado 1049378" d="M13.162,32v7.329A1.838,1.838,0,0,0,11.329,37.5,1.846,1.846,0,0,0,9.5,39.329v1.832a1.838,1.838,0,0,0-1.832-1.832,1.846,1.846,0,0,0-1.832,1.832v1.832A1.846,1.846,0,0,0,4,41.162V32h9.162Z" transform="translate(-2.168 -4.515)" fill="#ccd1d9"/>
        <path id="Trazado_1049379" data-name="Trazado 1049379" d="M40.323,46l.009,7.329H21.99c.009-.1.009-.2.009-.3V46h3.665a3.311,3.311,0,0,0,2.968,1.832H33.69A3.311,3.311,0,0,0,36.658,46Z" transform="translate(-3.676 -5.688)" fill="#838f9b"/>
        <path id="Trazado_1049380" data-name="Trazado 1049380" d="M56.659,42.826a1.838,1.838,0,0,1,1.832-1.832,1.846,1.846,0,0,1,1.832,1.832v8.859a3.687,3.687,0,0,1-.733,2.2l-2.016,2.684v2.749H44.749V56.569l-2.016-2.684a3.772,3.772,0,0,1-.724-1.9L42,44.659a1.838,1.838,0,0,1,1.832-1.832h1.832V31.832A1.838,1.838,0,0,1,47.5,30a1.846,1.846,0,0,1,1.832,1.832v7.329a1.838,1.838,0,0,1,1.832-1.832,1.846,1.846,0,0,1,1.832,1.832v1.832a1.838,1.838,0,0,1,1.832-1.832,1.846,1.846,0,0,1,1.832,1.832Z" transform="translate(-5.353 -4.347)" fill="#f0d0b4"/>
        <path id="Trazado_1049381" data-name="Trazado 1049381" d="M16.659,42.826h1.832a1.838,1.838,0,0,1,1.832,1.832v7.027c0,.1,0,.2-.009.3a3.8,3.8,0,0,1-.724,1.9l-2.016,2.684v2.749H4.749V56.569L2.733,53.885A3.687,3.687,0,0,1,2,51.686V42.826a1.832,1.832,0,0,1,1.832-1.832,1.846,1.846,0,0,1,1.832,1.832V40.994A1.846,1.846,0,0,1,7.5,39.162a1.838,1.838,0,0,1,1.832,1.832V39.162a1.846,1.846,0,0,1,1.832-1.832,1.838,1.838,0,0,1,1.832,1.832V31.832A1.846,1.846,0,0,1,14.826,30a1.838,1.838,0,0,1,1.832,1.832V42.826Z" transform="translate(-2 -4.347)" fill="#f0d0b4"/>
        <path id="Trazado_1049382" data-name="Trazado 1049382" d="M58.355,9.665V29.821H54.691V10.581a.919.919,0,0,0-.916-.916H42.78A11.871,11.871,0,0,0,40.38,6H54.691A3.664,3.664,0,0,1,58.355,9.665Z" transform="translate(-5.217 -2.335)" fill="#aab2bd"/>
        <path id="Trazado_1049383" data-name="Trazado 1049383" d="M7.665,6H20.152a11.734,11.734,0,0,0-2.41,3.665H8.581a.919.919,0,0,0-.916.916v19.24H4V9.665A3.664,3.664,0,0,1,7.665,6Z" transform="translate(-2.168 -2.335)" fill="#aab2bd"/>
        <path id="Trazado_1049384" data-name="Trazado 1049384" d="M51.976,10.916v19.24h-5.5a1.846,1.846,0,0,0-1.832-1.832,1.838,1.838,0,0,0-1.832,1.832H17.162a1.838,1.838,0,0,0-1.832-1.832A1.846,1.846,0,0,0,13.5,30.156H8V10.916A.919.919,0,0,1,8.916,10h9.162A11.909,11.909,0,0,0,26.8,26.271a11.582,11.582,0,0,0,2.272.22A11.91,11.91,0,0,0,40.066,10H51.06A.919.919,0,0,1,51.976,10.916Z" transform="translate(-2.503 -2.671)" fill="#69d6f4"/>
      </g>
      <g id="Grupo_1204540" data-name="Grupo 1204540" transform="translate(1 1)">
        <path id="Trazado_1049385" data-name="Trazado 1049385" d="M55.97,37.816V9.246A4.586,4.586,0,0,0,51.39,4.665H37.444a12.784,12.784,0,0,0-17.919,0H7.413A4.586,4.586,0,0,0,2.832,9.246v28.57A2.747,2.747,0,0,0,1,40.4v8.857A4.6,4.6,0,0,0,1.916,52l1.831,2.443V57.8H18.406v-3.36L20.239,52a4.57,4.57,0,0,0,.736-1.527H37.824A4.567,4.567,0,0,0,38.564,52L40.4,54.443V57.8H55.055v-3.36L56.887,52a4.607,4.607,0,0,0,.916-2.749V40.4A2.747,2.747,0,0,0,55.97,37.816Zm-4.581-2a2.734,2.734,0,0,0-1.022.2,2.7,2.7,0,0,0-3.558-1.865V30.318h7.329v7.5c-.035.013-.072.018-.107.032A2.745,2.745,0,0,0,51.39,35.815ZM41.48,28.485H17.323a2.732,2.732,0,0,0-5.16,0H8.329V10.162H16.2a12.826,12.826,0,1,0,24.572,0h9.7V28.485H46.64a2.732,2.732,0,0,0-5.16,0ZM8.436,36.016a2.725,2.725,0,0,0-3.664,1.83c-.035-.014-.072-.02-.107-.032v-7.5h7.329v3.833a2.7,2.7,0,0,0-3.558,1.865Zm45.7-26.771v19.24H52.306V10.162a1.834,1.834,0,0,0-1.832-1.832H40.056A12.879,12.879,0,0,0,39,6.5H51.39A2.752,2.752,0,0,1,54.138,9.246ZM28.485,2.832A10.994,10.994,0,1,1,17.491,13.826,11.006,11.006,0,0,1,28.485,2.832ZM7.413,6.5H17.974a12.792,12.792,0,0,0-1.06,1.832H8.329A1.834,1.834,0,0,0,6.5,10.162V28.485H4.665V9.246A2.752,2.752,0,0,1,7.413,6.5ZM19.323,49.252a2.765,2.765,0,0,1-.55,1.649l-2.2,2.932V55.97H5.58V53.833L3.382,50.9a2.76,2.76,0,0,1-.55-1.648V40.4a.918.918,0,0,1,.916-.916h0a.917.917,0,0,1,.915.916v5.5H6.5V38.563a.916.916,0,0,1,1.832,0v7.329h1.832V36.731a.916.916,0,0,1,1.832,0v9.162h1.832V29.4a.916.916,0,1,1,1.832,0V39.479h0v9.162h1.833V41.312h.916a.917.917,0,0,1,.916.916Zm-.915-9.773h-.916V30.318H41.312v9.162H40.4a2.742,2.742,0,0,0-2.579,1.832H34.332l-.253.507a2.388,2.388,0,0,1-2.146,1.326H26.87a2.387,2.387,0,0,1-2.146-1.326l-.254-.507H20.987A2.745,2.745,0,0,0,18.407,39.479Zm2.749,3.665h2.227a4.207,4.207,0,0,0,3.487,1.832h5.064a4.208,4.208,0,0,0,3.487-1.832H37.65l.013,5.5H21.155ZM55.97,49.252a2.765,2.765,0,0,1-.55,1.649l-2.2,2.932V55.97H42.229V53.833L40.03,50.9a2.718,2.718,0,0,1-.537-1.345l-.014-7.328a.917.917,0,0,1,.916-.916h.916v7.329h1.833V39.479h0V29.4a.916.916,0,1,1,1.832,0V45.892h1.832V36.731a.916.916,0,0,1,1.832,0v9.162h1.832V38.563a.916.916,0,0,1,1.832,0v7.329h1.832V40.4a.917.917,0,0,1,.915-.916h0a.918.918,0,0,1,.916.916Z" transform="translate(-1 -1)"/>
        <rect id="Rectángulo_418167" data-name="Rectángulo 418167" width="2" height="2" transform="translate(18.401 31.401)"/>
        <rect id="Rectángulo_418168" data-name="Rectángulo 418168" width="2" height="2" transform="translate(18.401 34.401)"/>
        <rect id="Rectángulo_418169" data-name="Rectángulo 418169" width="1" height="2" transform="translate(22.401 31.401)"/>
        <rect id="Rectángulo_418170" data-name="Rectángulo 418170" width="1" height="2" transform="translate(22.401 34.401)"/>
        <rect id="Rectángulo_418171" data-name="Rectángulo 418171" width="2" height="2" transform="translate(25.401 31.401)"/>
        <rect id="Rectángulo_418172" data-name="Rectángulo 418172" width="2" height="2" transform="translate(25.401 34.401)"/>
        <rect id="Rectángulo_418173" data-name="Rectángulo 418173" width="2" height="2" transform="translate(29.401 31.401)"/>
        <rect id="Rectángulo_418174" data-name="Rectángulo 418174" width="2" height="2" transform="translate(29.401 34.401)"/>
        <rect id="Rectángulo_418175" data-name="Rectángulo 418175" width="6" height="2" transform="translate(25.401 38.401)"/>
        <rect id="Rectángulo_418176" data-name="Rectángulo 418176" width="1" height="2" transform="translate(33.401 31.401)"/>
        <rect id="Rectángulo_418177" data-name="Rectángulo 418177" width="1" height="2" transform="translate(33.401 34.401)"/>
        <rect id="Rectángulo_418178" data-name="Rectángulo 418178" width="2" height="2" transform="translate(36.401 31.401)"/>
        <rect id="Rectángulo_418179" data-name="Rectángulo 418179" width="2" height="2" transform="translate(36.401 34.401)"/>
        <rect id="Rectángulo_418180" data-name="Rectángulo 418180" width="18.686" height="1.832" transform="translate(24.752 21.809) rotate(-78.679)"/>
        <path id="Trazado_1049386" data-name="Trazado 1049386" d="M35.588,18.918,39.9,14.605l-4.312-4.312-1.3,1.3,3.017,3.017-3.017,3.017Z" transform="translate(-3.791 -1.779)"/>
        <path id="Trazado_1049387" data-name="Trazado 1049387" d="M25.9,18.918l1.3-1.3-3.017-3.017,3.017-3.017-1.3-1.3-4.312,4.312Z" transform="translate(-2.726 -1.779)"/>
      </g>
    </g>
  </g>
</svg>
